<svg xmlns="http://www.w3.org/2000/svg" width="96" height="96" viewBox="0 0 96 96">
  <g id="Grupo_59921" data-name="Grupo 59921" transform="translate(-356 -4480)">
    <circle id="Elipse_4196" data-name="Elipse 4196" cx="48" cy="48" r="48" transform="translate(356 4480)" fill="#6595bf"/>
    <g id="value" transform="translate(317 4475)">
      <path id="Trazado_111462" data-name="Trazado 111462" d="M304,328h13.841v11.325H304Z" transform="translate(-208.993 -262.925)" fill="#f5c99d"/>
      <path id="Trazado_111463" data-name="Trazado 111463" d="M120,328h13.841v11.325H120Z" transform="translate(-53.934 -262.925)" fill="#f5c99d"/>
      <path id="Trazado_111464" data-name="Trazado 111464" d="M0,0H15.1V5.033H0Z" transform="translate(87.458 51.233) rotate(-90)" fill="#eda600"/>
      <path id="Trazado_111465" data-name="Trazado 111465" d="M0,0H10.066V5.033H0Z" transform="translate(82.424 51.233) rotate(-90)" fill="#de9400"/>
      <path id="Trazado_111466" data-name="Trazado 111466" d="M0,0H6.292V5.033H0Z" transform="translate(77.391 51.233) rotate(-90)" fill="#cf8300"/>
      <path id="Trazado_111467" data-name="Trazado 111467" d="M0,0H18.875V5.033H0Z" transform="translate(92.491 51.233) rotate(-90)" fill="#f6bb00"/>
      <path id="Trazado_111468" data-name="Trazado 111468" d="M125.3,51.683a17.616,17.616,0,1,1-17.616-17.616V24a27.683,27.683,0,1,0,27.683,27.683Z" transform="translate(-20.225 -6.741)" fill="#d9a171"/>
      <path id="Trazado_111469" data-name="Trazado 111469" d="M77.841,251.683v-5.529a8.478,8.478,0,0,0-3.776-7.055v-5.033a2.517,2.517,0,0,0-5.033,0h0v-7.55a2.517,2.517,0,1,0-5.033,0v12.725a13.841,13.841,0,0,0,6.164,11.517l1.386.924Z" transform="translate(-6.742 -175.284)" fill="#f5c99d"/>
      <path id="Trazado_111470" data-name="Trazado 111470" d="M112,400h15.1v12.583H112Z" transform="translate(-47.192 -323.601)" fill="#aed3f2"/>
      <path id="Trazado_111471" data-name="Trazado 111471" d="M360,251.683v-5.529a8.478,8.478,0,0,1,3.776-7.055v-5.033a2.517,2.517,0,0,1,5.033,0h0v-7.55a2.517,2.517,0,0,1,5.033,0v12.725a13.841,13.841,0,0,1-6.164,11.517l-1.386.924Z" transform="translate(-256.184 -175.284)" fill="#f5c99d"/>
      <path id="Trazado_111472" data-name="Trazado 111472" d="M304,400h15.1v12.583H304Z" transform="translate(-208.993 -323.601)" fill="#aed3f2"/>
      <path id="Trazado_111473" data-name="Trazado 111473" d="M199.1,113.258v2.517h-3.775a1.258,1.258,0,0,0-1.258,1.258v3.775h-3.775a1.258,1.258,0,0,0-1.258,1.258v2.517h-3.775A1.258,1.258,0,0,0,184,125.841v6.292a1.258,1.258,0,0,0,1.258,1.258h20.133a1.258,1.258,0,0,0,1.258-1.258V113.258A1.258,1.258,0,0,0,205.391,112h-5.033a1.258,1.258,0,0,0-1.258,1.258ZM186.517,127.1h2.517v3.775h-2.517Zm5.033-3.775h2.517v7.55H191.55Zm5.033-5.033H199.1v12.583h-2.517Zm5.033-3.775h2.517v16.358h-2.517Z" transform="translate(-107.867 -80.9)"/>
      <path id="Trazado_111474" data-name="Trazado 111474" d="M232,256h2.517v2.517H232Z" transform="translate(-148.317 -202.25)"/>
      <path id="Trazado_111475" data-name="Trazado 111475" d="M200,256h2.517v2.517H200Z" transform="translate(-121.351 -202.25)"/>
      <path id="Trazado_111476" data-name="Trazado 111476" d="M264,256h2.517v2.517H264Z" transform="translate(-175.284 -202.25)"/>
      <path id="Trazado_111477" data-name="Trazado 111477" d="M296,256h2.517v2.517H296Z" transform="translate(-202.251 -202.25)"/>
      <path id="Trazado_111478" data-name="Trazado 111478" d="M56,51.233V63.958a15.069,15.069,0,0,0,6.724,12.564l.826.551v11.91a1.258,1.258,0,0,0,1.258,1.258h15.1a1.258,1.258,0,0,0,1.258-1.258V73.19a28.89,28.89,0,0,0,12.583,0V88.982a1.258,1.258,0,0,0,1.258,1.258h15.1a1.258,1.258,0,0,0,1.258-1.258V77.073l.826-.551a15.069,15.069,0,0,0,6.724-12.564V51.233a3.781,3.781,0,0,0-2.644-3.6c.082-.893.127-1.793.127-2.69a1.258,1.258,0,0,0-1.258-1.258H105.074a1.258,1.258,0,0,0-1.258,1.258A16.358,16.358,0,1,1,87.458,28.584a1.258,1.258,0,0,0,1.258-1.258V17.259A1.258,1.258,0,0,0,87.458,16,28.974,28.974,0,0,0,58.517,44.942c0,.9.045,1.8.127,2.69A3.781,3.781,0,0,0,56,51.233ZM78.649,87.724H66.066V77.658H78.649Zm30.2,0H96.266V77.658h12.583Zm7.55-23.766a12.558,12.558,0,0,1-5.6,10.47l-1.069.713H96.266V72.507a28.973,28.973,0,0,0,6.381-2.932,9.791,9.791,0,0,0-.089,1.3v1.754h2.517V70.871a7.205,7.205,0,0,1,3.215-6.008,1.258,1.258,0,0,0,.56-1.047V58.783a1.258,1.258,0,1,1,2.517,0v6.292h2.517V51.233a1.258,1.258,0,1,1,2.516,0ZM86.2,18.547v7.562A18.875,18.875,0,1,0,106.291,46.2h7.562c-.024.511-.064,1.021-.117,1.528a3.78,3.78,0,0,0-2.37,3.505v3.991a3.774,3.774,0,0,0-5.034,3.559v4.388a9.726,9.726,0,0,0-2.015,2.115,26.422,26.422,0,0,1-33.722,0,9.724,9.724,0,0,0-2.014-2.115V58.783a3.774,3.774,0,0,0-5.034-3.559V51.233a3.78,3.78,0,0,0-2.37-3.505,26.839,26.839,0,0,1-.146-2.786A26.457,26.457,0,0,1,86.2,18.547ZM58.517,51.233a1.258,1.258,0,0,1,2.516,0V65.075H63.55V58.783a1.258,1.258,0,0,1,2.517,0v5.033a1.258,1.258,0,0,0,.561,1.047,7.205,7.205,0,0,1,3.215,6.008v1.754h2.517V70.871a9.789,9.789,0,0,0-.089-1.295,28.968,28.968,0,0,0,6.381,2.932v2.633H65.189l-1.069-.713a12.558,12.558,0,0,1-5.6-10.47Z" transform="translate(0)"/>
      <path id="Trazado_111479" data-name="Trazado 111479" d="M384,152h5.033v2.517H384Z" transform="translate(-276.41 -114.608)"/>
      <path id="Trazado_111480" data-name="Trazado 111480" d="M290.517,32v2.517H288v2.517h2.517V39.55h2.517V37.033h2.517V34.517h-2.517V32Z" transform="translate(-195.509 -13.483)"/>
    </g>
  </g>
</svg>
