<svg xmlns="http://www.w3.org/2000/svg" width="96" height="96" viewBox="0 0 96 96">
  <g id="Grupo_59779" data-name="Grupo 59779" transform="translate(-366.303 -4831.87)">
    <circle id="Elipse_4133" data-name="Elipse 4133" cx="48" cy="48" r="48" transform="translate(366.303 4831.87)" fill="#d9a171"/>
    <g id="payment-method" transform="translate(380.303 4845.847)">
      <path id="Trazado_110066" data-name="Trazado 110066" d="M107.34,372.017v10.639c6.06.267,4.311,1.338,14.855,6.079a9.979,9.979,0,0,0,7.763-.132l.007,0,20.714-7.417c.674-.31,4.074-2.157,2.733-5.6-1.568-3.669-5.6-2.138-5.941-2.028l-10.814,2.99" transform="translate(-92.936 -322.077)" fill="#eac092"/>
      <g id="Grupo_59776" data-name="Grupo 59776" transform="translate(14.404 42.949)">
        <path id="Trazado_110067" data-name="Trazado 110067" d="M119.576,331.363l12.043,3.816a3.956,3.956,0,0,0,4.888-2.723h0c.6-2.1-.622-4.29-3.03-5.184l-10.684-3.626a9.081,9.081,0,0,0-7.712-3.725c-3.429,0-6.386,2.772-7.74,5.2v4.845" transform="translate(-107.341 -319.921)" fill="#fedbab"/>
      </g>
      <path id="Trazado_110068" data-name="Trazado 110068" d="M154.092,386.54a1.321,1.321,0,0,1-.262-.027,1.3,1.3,0,0,1-.252-.077,1.35,1.35,0,0,1-.231-.124,1.3,1.3,0,0,1-.37-.37,1.242,1.242,0,0,1-.123-.232,1.26,1.26,0,0,1-.076-.251,1.289,1.289,0,0,1,0-.523,1.3,1.3,0,0,1,.076-.252,1.361,1.361,0,0,1,.29-.435,1.286,1.286,0,0,1,.2-.166,1.363,1.363,0,0,1,.231-.123,1.3,1.3,0,0,1,.252-.076,1.322,1.322,0,0,1,.523,0,1.26,1.26,0,0,1,.251.076,1.323,1.323,0,0,1,.232.123,1.3,1.3,0,0,1,.37.37,1.361,1.361,0,0,1,.123.231,1.4,1.4,0,0,1,.076.252,1.289,1.289,0,0,1,0,.523,1.353,1.353,0,0,1-.076.251,1.325,1.325,0,0,1-.123.232,1.3,1.3,0,0,1-.37.37,1.322,1.322,0,0,1-.232.124,1.26,1.26,0,0,1-.251.077A1.321,1.321,0,0,1,154.092,386.54Z" transform="translate(-132.253 -332.328)"/>
      <rect id="Rectángulo_27808" data-name="Rectángulo 27808" width="5.083" height="14.417" transform="translate(9.321 47.976)" fill="#eaecf0"/>
      <rect id="Rectángulo_27809" data-name="Rectángulo 27809" width="7.979" height="16.918" transform="translate(1.342 47.976)" fill="#3688c8"/>
      <path id="Trazado_110069" data-name="Trazado 110069" d="M61.725,321.336l-.016-.04c-1.235-2.89-4.132-3.958-7.56-2.787L44.8,321.094a6.128,6.128,0,0,0-3.795-3.737l-.036-.013-10.276-3.488a10.6,10.6,0,0,0-8.551-3.934c-3.506,0-6.607,2.4-8.381,5.026H1.342A1.342,1.342,0,0,0,0,316.29v16.918a1.342,1.342,0,0,0,1.342,1.342H9.32a1.342,1.342,0,0,0,1.342-1.342v-1.159H14.4a1.342,1.342,0,0,0,1.342-1.342v-.386a9.514,9.514,0,0,1,4.9,1.759,81.214,81.214,0,0,0,8.062,4.116l.059.025a12.045,12.045,0,0,0,4.317.814,10.7,10.7,0,0,0,4.446-.952l20.664-7.4c.037-.013.073-.028.108-.044C60.277,327.732,63.22,325.171,61.725,321.336ZM7.978,331.866H2.684V317.632H7.978Zm5.083-2.5h-2.4V317.632h2.4Zm44.168-3.187-20.654,7.4-.061.023-.054.023a8.7,8.7,0,0,1-6.683.114,77.735,77.735,0,0,1-7.791-3.98,12.077,12.077,0,0,0-6.242-2.123V316.824c1.272-2.085,3.739-4.219,6.4-4.219a7.743,7.743,0,0,1,6.569,3.086,1.342,1.342,0,0,0,.712.568l10.664,3.62c1.7.639,2.6,2.1,2.19,3.552a2.615,2.615,0,0,1-3.212,1.8l-12.022-3.81a1.342,1.342,0,1,0-.811,2.558L38.276,327.8l.038.012a5.267,5.267,0,0,0,4.028-.468,5.263,5.263,0,0,0,2.517-3.179q.046-.163.082-.326l10.075-2.791c1.455-.5,3.365-.676,4.216,1.283C60.113,324.63,57.825,325.9,57.23,326.179Z" transform="translate(0 -268.314)"/>
      <path id="Trazado_110070" data-name="Trazado 110070" d="M66.59,21.941,54.671,10.023,39.729,24.966,65.263,50.5l14.1-14.1" transform="translate(-34.398 -8.658)" fill="#26cfad"/>
      <path id="Trazado_110071" data-name="Trazado 110071" d="M149.42,113.96h0l0-.008a6.307,6.307,0,1,0,6.738,6.451" transform="translate(-124.285 -98.641)" fill="#ffd36c"/>
      <path id="Trazado_110072" data-name="Trazado 110072" d="M218.357,42.768V32.129c-6.06-.267-4.311-1.338-14.855-6.079a9.979,9.979,0,0,0-7.763.132l-.007,0-6.249,2.238,6.448,6.448" transform="translate(-164.057 -21.905)" fill="#eac092"/>
      <g id="Grupo_59777" data-name="Grupo 59777" transform="translate(5.331 1.365)">
        <path id="Trazado_110073" data-name="Trazado 110073" d="M39.729,88.694l5.066-5.066a7.172,7.172,0,0,1,0,10.132Z" transform="translate(-39.729 -73.751)" fill="#00b192"/>
        <path id="Trazado_110074" data-name="Trazado 110074" d="M192.264,260.4a7.172,7.172,0,0,1,10.132,0l-5.066,5.066Z" transform="translate(-171.796 -224.985)" fill="#00b192"/>
        <path id="Trazado_110075" data-name="Trazado 110075" d="M113.333,15.089l5.066-5.066,5.066,5.066A7.172,7.172,0,0,1,113.333,15.089Z" transform="translate(-103.456 -10.023)" fill="#00b192"/>
        <path id="Trazado_110076" data-name="Trazado 110076" d="M288.436,182.048a7.173,7.173,0,0,0,1.666,7.516l4.224-4.224" transform="translate(-254.692 -158.965)" fill="#00b192"/>
      </g>
      <g id="Grupo_59778" data-name="Grupo 59778" transform="translate(24.984 12.444)">
        <path id="Trazado_110077" data-name="Trazado 110077" d="M203.271,96.553l-12.043-3.816a3.956,3.956,0,0,0-4.887,2.723h0c-.6,2.1.622,4.29,3.03,5.184l10.688,3.627h0A9.081,9.081,0,0,0,207.766,108c3.429,0,6.386-2.772,7.74-5.2V97.952" transform="translate(-186.19 -92.585)" fill="#fedbab"/>
      </g>
      <path id="Trazado_110078" data-name="Trazado 110078" d="M340.592,126.181a1.323,1.323,0,0,1-.262-.027,1.355,1.355,0,0,1-.251-.076,1.324,1.324,0,0,1-.232-.123,1.3,1.3,0,0,1-.37-.37,1.328,1.328,0,0,1-.123-.232,1.264,1.264,0,0,1-.076-.251,1.291,1.291,0,0,1,0-.523,1.3,1.3,0,0,1,.076-.252,1.365,1.365,0,0,1,.123-.231,1.3,1.3,0,0,1,.37-.37,1.325,1.325,0,0,1,.232-.123,1.261,1.261,0,0,1,.251-.076,1.337,1.337,0,0,1,.776.076,1.362,1.362,0,0,1,.231.123,1.342,1.342,0,0,1,.494.6,1.3,1.3,0,0,1,.078.252,1.355,1.355,0,0,1,0,.523,1.267,1.267,0,0,1-.078.251,1.24,1.24,0,0,1-.123.232,1.3,1.3,0,0,1-.37.37,1.361,1.361,0,0,1-.231.123,1.42,1.42,0,0,1-.251.076A1.346,1.346,0,0,1,340.592,126.181Z" transform="translate(-293.727 -106.906)"/>
      <rect id="Rectángulo_27810" data-name="Rectángulo 27810" width="5.083" height="14.417" transform="translate(54.3 8.411)" fill="#eaecf0"/>
      <rect id="Rectángulo_27811" data-name="Rectángulo 27811" width="7.979" height="16.918" transform="translate(59.383 5.91)" fill="#3688c8"/>
      <path id="Trazado_110079" data-name="Trazado 110079" d="M93.068,4.568H85.09A1.342,1.342,0,0,0,83.748,5.91V7.068H80.007A1.342,1.342,0,0,0,78.665,8.41V8.8a9.514,9.514,0,0,1-4.9-1.759A81.2,81.2,0,0,0,65.7,2.921L65.643,2.9a11.416,11.416,0,0,0-8.762.138l-5.4,1.933L46.929.416a1.342,1.342,0,0,0-1.9,0L30.089,15.359a1.331,1.331,0,0,0,0,1.9L55.623,42.791a1.45,1.45,0,0,0,1.9,0L71.163,29.149c.355.031.723.047,1.1.047,3.506,0,6.607-2.4,8.381-5.026H93.068a1.342,1.342,0,0,0,1.342-1.342V5.91A1.342,1.342,0,0,0,93.068,4.568ZM49.384,17.013A5.941,5.941,0,0,0,53.4,21.761l.036.013,2.683.911a4.965,4.965,0,1,1-6.74-5.672Zm2.684-5.24a5.26,5.26,0,0,0-2.186,2.309,7.648,7.648,0,1,0,8.794,9.468l4.531,1.538a8.567,8.567,0,0,0,1.421,6.8l-3.064,3.064a8.527,8.527,0,0,0-9.982,0L37.927,21.3a8.528,8.528,0,0,0,0-9.983l3.062-3.062a8.528,8.528,0,0,0,9.983,0l2.9,2.9A5.3,5.3,0,0,0,52.068,11.773ZM66.561,29.955a5.869,5.869,0,0,1-.857-2.791,10.433,10.433,0,0,0,2.367,1.281ZM45.98,3.263l3.058,3.058a5.85,5.85,0,0,1-6.117,0Zm-9.986,9.987a5.851,5.851,0,0,1,0,6.117l-3.058-3.059ZM56.572,39.944l-3.058-3.058a5.842,5.842,0,0,1,6.116,0Zm15.7-13.432a9.767,9.767,0,0,1-1.4-.1h-.005a7.686,7.686,0,0,1-4.971-2.72c-.027-.04-.144-.193-.161-.218a1.337,1.337,0,0,0-.74-.615L54.322,19.238c-1.7-.639-2.6-2.1-2.19-3.551v-.006a2.614,2.614,0,0,1,3.211-1.8l12.022,3.81a1.342,1.342,0,1,0,.811-2.558L58.616,12.1l-.083-.083,0,0-4.95-4.95,4.255-1.524.046-.018.014-.006.054-.023a8.7,8.7,0,0,1,6.682-.114,77.728,77.728,0,0,1,7.791,3.98,12.076,12.076,0,0,0,6.242,2.123V22.293C77.393,24.378,74.926,26.512,72.267,26.512Zm9.082-16.76h2.4V21.486h-2.4ZM91.727,21.486H86.432V7.252h5.295Z" transform="translate(-25.707 0)"/>
    </g>
  </g>
</svg>
