<svg xmlns="http://www.w3.org/2000/svg" width="96" height="96" viewBox="0 0 96 96">
  <g id="Grupo_59802" data-name="Grupo 59802" transform="translate(-366.303 -4831.87)">
    <circle id="Elipse_4133" data-name="Elipse 4133" cx="48" cy="48" r="48" transform="translate(366.303 4831.87)" fill="#d9a171"/>
    <g id="cash-flow" transform="translate(382.303 4847.87)">
      <g id="Grupo_59800" data-name="Grupo 59800">
        <g id="Grupo_59782" data-name="Grupo 59782">
          <path id="Trazado_110082" data-name="Trazado 110082" d="M32,16c0,1.1-3.58,2-8,2s-8-.9-8-2c0-.74,1.61-1.38,4-1.73A28.391,28.391,0,0,1,24,14C28.42,14,32,14.9,32,16Z" fill="#ffc729"/>
        </g>
        <g id="Grupo_59783" data-name="Grupo 59783">
          <path id="Trazado_110083" data-name="Trazado 110083" d="M16,22c0,1.1,3.58,2,8,2s8-.9,8-2v6c0,1.1-3.58,2-8,2s-8-.9-8-2V22Z" fill="#ffc729"/>
        </g>
        <g id="Grupo_59784" data-name="Grupo 59784">
          <path id="Trazado_110084" data-name="Trazado 110084" d="M16,29.73V34H4V28c0,1.1,3.58,2,8,2A28.391,28.391,0,0,0,16,29.73Z" fill="#ffc729"/>
        </g>
        <g id="Grupo_59785" data-name="Grupo 59785">
          <path id="Trazado_110085" data-name="Trazado 110085" d="M16,22v1.73A28.391,28.391,0,0,1,12,24c-4.42,0-8-.9-8-2V16c0,1.1,3.58,2,8,2a28.391,28.391,0,0,0,4-.27Z" fill="#ffc729"/>
        </g>
        <g id="Grupo_59786" data-name="Grupo 59786">
          <path id="Trazado_110086" data-name="Trazado 110086" d="M20,4v6c0,1.1-3.58,2-8,2s-8-.9-8-2V4c0,1.1,3.58,2,8,2S20,5.1,20,4Z" fill="#ffc729"/>
        </g>
        <g id="Grupo_59787" data-name="Grupo 59787">
          <ellipse id="Elipse_4303" data-name="Elipse 4303" cx="8" cy="2" rx="8" ry="2" transform="translate(4 2)" fill="#fcd770"/>
        </g>
        <g id="Grupo_59788" data-name="Grupo 59788">
          <path id="Trazado_110087" data-name="Trazado 110087" d="M16,16v1.73A28.391,28.391,0,0,1,12,18c-4.42,0-8-.9-8-2V10c0,1.1,3.58,2,8,2s8-.9,8-2v4.27C17.61,14.62,16,15.26,16,16Z" fill="#fcd770"/>
        </g>
        <g id="Grupo_59789" data-name="Grupo 59789">
          <path id="Trazado_110088" data-name="Trazado 110088" d="M16,28v1.73A28.391,28.391,0,0,1,12,30c-4.42,0-8-.9-8-2V22c0,1.1,3.58,2,8,2a28.391,28.391,0,0,0,4-.27Z" fill="#fcd770"/>
        </g>
        <g id="Grupo_59790" data-name="Grupo 59790">
          <path id="Trazado_110089" data-name="Trazado 110089" d="M32,16v6c0,1.1-3.58,2-8,2s-8-.9-8-2V16c0,1.1,3.58,2,8,2S32,17.1,32,16Z" fill="#fcd770"/>
        </g>
        <g id="Grupo_59791" data-name="Grupo 59791">
          <path id="Trazado_110090" data-name="Trazado 110090" d="M16,28c0,1.1,3.58,2,8,2s8-.9,8-2v6H16V28Z" fill="#fcd770"/>
        </g>
        <g id="Grupo_59792" data-name="Grupo 59792">
          <path id="Trazado_110091" data-name="Trazado 110091" d="M62,35V61a1,1,0,0,1-1,1H3a1,1,0,0,1-1-1V35a1,1,0,0,1,1-1H61A1,1,0,0,1,62,35Z" fill="#48cfad"/>
        </g>
        <g id="Grupo_59793" data-name="Grupo 59793">
          <path id="Trazado_110092" data-name="Trazado 110092" d="M12,38H32a10,10,0,0,0,0,20H12a6,6,0,0,0-6-6V44A6,6,0,0,0,12,38Z" fill="#5cd6b3"/>
        </g>
        <g id="Grupo_59794" data-name="Grupo 59794">
          <path id="Trazado_110093" data-name="Trazado 110093" d="M58,44v8a6,6,0,0,0-6,6H32a10,10,0,0,0,0-20H52A6,6,0,0,0,58,44Z" fill="#5cd6b3"/>
        </g>
        <g id="Grupo_59795" data-name="Grupo 59795">
          <path id="Trazado_110094" data-name="Trazado 110094" d="M6,38h6a6,6,0,0,1-6,6Z" fill="#e6e9ed"/>
        </g>
        <g id="Grupo_59796" data-name="Grupo 59796">
          <path id="Trazado_110095" data-name="Trazado 110095" d="M12,58H6V52A6,6,0,0,1,12,58Z" fill="#e6e9ed"/>
        </g>
        <g id="Grupo_59797" data-name="Grupo 59797">
          <path id="Trazado_110096" data-name="Trazado 110096" d="M58,52v6H52A6,6,0,0,1,58,52Z" fill="#e6e9ed"/>
        </g>
        <g id="Grupo_59798" data-name="Grupo 59798">
          <path id="Trazado_110097" data-name="Trazado 110097" d="M58,38v6a6,6,0,0,1-6-6Z" fill="#e6e9ed"/>
        </g>
        <g id="Grupo_59799" data-name="Grupo 59799">
          <circle id="Elipse_4304" data-name="Elipse 4304" cx="10" cy="10" r="10" transform="translate(22 38)" fill="#fcd770"/>
        </g>
      </g>
      <g id="Grupo_59801" data-name="Grupo 59801">
        <path id="Trazado_110098" data-name="Trazado 110098" d="M31,52.816V55h2V53h2V50a3,3,0,0,0-3-3,1,1,0,0,1-1-1V45h1a1,1,0,0,1,1,1v1h2V46a3,3,0,0,0-2-2.816V41H31v2H29v3a3,3,0,0,0,3,3,1,1,0,0,1,1,1v1H32a1,1,0,0,1-1-1V49H29v1A3,3,0,0,0,31,52.816Z"/>
        <path id="Trazado_110099" data-name="Trazado 110099" d="M61,33H33V16c0-2.855-7.5-3-9-3-.5,0-1.669.019-3,.145V4c0-2.855-7.5-3-9-3S3,1.145,3,4V33a2,2,0,0,0-2,2V61a2,2,0,0,0,2,2H61a2,2,0,0,0,2-2C63,33.9,62.1,33,61,33ZM17,33V30.04A23.285,23.285,0,0,0,24,31a23.285,23.285,0,0,0,7-.96V33ZM5,24.04A23.285,23.285,0,0,0,12,25c1.029,0,2.045-.05,3-.143v3.992A29.079,29.079,0,0,1,12,29c-4.085,0-6.53-.755-7-1.182Zm0-6A23.285,23.285,0,0,0,12,19c1.029,0,2.045-.05,3-.143v3.992A29.079,29.079,0,0,1,12,23c-4.085,0-6.53-.755-7-1.182Zm26,3.778C30.53,22.245,28.085,23,24,23s-6.53-.755-7-1.182V18.04A23.285,23.285,0,0,0,24,19a23.285,23.285,0,0,0,7-.96Zm0,6C30.53,28.245,28.085,29,24,29s-6.53-.755-7-1.182V24.04A23.285,23.285,0,0,0,24,25a23.285,23.285,0,0,0,7-.96ZM30.728,16A17.471,17.471,0,0,1,24,17a17.475,17.475,0,0,1-6.728-1A17.471,17.471,0,0,1,24,15,17.475,17.475,0,0,1,30.728,16ZM15,16v.848A28.8,28.8,0,0,1,12,17c-4.085,0-6.53-.755-7-1.182V12.04A23.285,23.285,0,0,0,12,13a23.285,23.285,0,0,0,7-.96v1.379c-2.087.389-4,1.139-4,2.581ZM5,6.04A23.285,23.285,0,0,0,12,7a23.285,23.285,0,0,0,7-.96V9.818C18.53,10.245,16.085,11,12,11s-6.53-.755-7-1.182ZM12,3a17.475,17.475,0,0,1,6.728,1A17.475,17.475,0,0,1,12,5,17.475,17.475,0,0,1,5.272,4,17.475,17.475,0,0,1,12,3ZM5,30.04A23.285,23.285,0,0,0,12,31c1.029,0,2.045-.05,3-.143V33H5ZM3,61V35H61l0,26Z"/>
        <path id="Trazado_110100" data-name="Trazado 110100" d="M5,37V59H59V37Zm5.9,2A5.016,5.016,0,0,1,7,42.9V39ZM7,53.1A5.016,5.016,0,0,1,10.9,57H7ZM12.92,57A7,7,0,0,0,7,51.08V44.92A7,7,0,0,0,12.92,39H25.695a10.974,10.974,0,0,0,0,18ZM32,39a9,9,0,1,1-9,9A9.01,9.01,0,0,1,32,39ZM53.1,57A5.016,5.016,0,0,1,57,53.1V57ZM57,42.9A5.016,5.016,0,0,1,53.1,39H57ZM51.08,39A7,7,0,0,0,57,44.92v6.16A7,7,0,0,0,51.08,57H38.3a10.974,10.974,0,0,0,0-18Z"/>
      </g>
    </g>
  </g>
</svg>
