<svg id="Investment-01" xmlns="http://www.w3.org/2000/svg" width="364.884" height="193.566" viewBox="0 0 364.884 193.566">
  <path id="Trazado_110441" data-name="Trazado 110441" d="M45.994,211.894s-44.123-44.271-7.462-92.2c32.528-42.527,70.452-39.62,98.282-22.363,11.851,7.346,46.019.906,75.1-42.367,39.65-59.011,177.116-23.219,152.051,67.572-12.129,43.937,36.915,45.534,11.924,89.454Z" transform="translate(-22.536 -26.076)" fill="#dfecf9"/>
  <path id="Trazado_110442" data-name="Trazado 110442" d="M1742.912,1321.5c0-.025.138-2.885-1.242-3.546l.1-.094a2.82,2.82,0,0,1,1.615,1.868c.208.717.049.874.051.9Z" transform="translate(-1522.686 -1154.254)" fill="#a4c8fc"/>
  <path id="Trazado_110443" data-name="Trazado 110443" d="M1679.19,1279.936s.472,3.679,2.717,4.757,5.412-.856,5.412-.856-.472-3.68-2.717-4.758S1679.19,1279.936,1679.19,1279.936Z" transform="translate(-1468.119 -1120.099)" fill="#a4c8fc"/>
  <path id="Trazado_110444" data-name="Trazado 110444" d="M1748.8,1292.714a16.683,16.683,0,0,1,.751-7.264,13.6,13.6,0,0,0,.541-6.691h.9a29.479,29.479,0,0,1-.874,7.242c-.863,3.7.75,6.713.406,6.713Z" transform="translate(-1528.813 -1120.106)" fill="#a4c8fc"/>
  <path id="Trazado_110445" data-name="Trazado 110445" d="M1763.551,1291.377c0-.019.436-2.486,1.592-2.767h0a2.153,2.153,0,0,0-1.541,1.127c-.274.507-.179.659-.184.679Z" transform="translate(-1541.668 -1128.708)" fill="#a4c8fc"/>
  <path id="Trazado_110446" data-name="Trazado 110446" d="M1775.285,1282.346c-1.729-.348-2.7-2.8-2.7-2.8s1.839-1.88,3.569-1.53,2.694,2.8,2.694,2.8S1777.015,1282.7,1775.285,1282.346Z" transform="translate(-1549.69 -1119.423)" fill="#a4c8fc"/>
  <path id="Trazado_110447" data-name="Trazado 110447" d="M1677.478,1152.625a9.066,9.066,0,1,1,12.557,2.585A9.066,9.066,0,0,1,1677.478,1152.625Z" transform="translate(-1465.317 -997.672)" fill="#ffb93e"/>
  <path id="Trazado_110448" data-name="Trazado 110448" d="M1695.628,1160.824a8.259,8.259,0,1,1,3.546-5.233A8.259,8.259,0,0,1,1695.628,1160.824Zm-8.815-13.386a7.768,7.768,0,1,0,10.758,2.215A7.767,7.767,0,0,0,1686.813,1147.438Z" transform="translate(-1471.294 -1003.87)" fill="#ffa412"/>
  <path id="Trazado_110449" data-name="Trazado 110449" d="M1723.16,1172.108a1.38,1.38,0,0,0-.28-.39,1,1,0,0,0-.389-.22,1.858,1.858,0,0,0-.536-.076,4.858,4.858,0,0,0-.718.052c-.474.059-.914.095-1.32.105a4.113,4.113,0,0,1-1.113-.113,2.419,2.419,0,0,1-.9-.437,2.728,2.728,0,0,1-.951-1.845,2.291,2.291,0,0,1,.143-.945,2.883,2.883,0,0,1,.526-.869,3.811,3.811,0,0,1,.887-.74l-.613-1.226.987-.494.622,1.242a3.434,3.434,0,0,1,1.1-.2,2.58,2.58,0,0,1,1.875.747,3.456,3.456,0,0,1,.681.953l-1.782.886a1.671,1.671,0,0,0-.821-.875,1.167,1.167,0,0,0-.988.068,1.464,1.464,0,0,0-.438.317,1,1,0,0,0-.224.38.929.929,0,0,0-.032.414,1.415,1.415,0,0,0,.135.427,1.266,1.266,0,0,0,.253.352.925.925,0,0,0,.372.212,1.877,1.877,0,0,0,.538.075,6.4,6.4,0,0,0,.752-.044q.711-.076,1.318-.087a4.173,4.173,0,0,1,1.113.127,2.336,2.336,0,0,1,1.578,1.3,2.5,2.5,0,0,1,.277.993,2.267,2.267,0,0,1-.148.942,2.777,2.777,0,0,1-.54.857,4.1,4.1,0,0,1-.886.733l.571,1.14-.981.491-.567-1.14a4.7,4.7,0,0,1-1.1.272,2.935,2.935,0,0,1-1.1-.071,2.631,2.631,0,0,1-1-.521,3.2,3.2,0,0,1-.812-1.069l1.782-.887a1.956,1.956,0,0,0,.453.621,1.276,1.276,0,0,0,.523.284,1.258,1.258,0,0,0,.55.011,2.117,2.117,0,0,0,.529-.184,1.756,1.756,0,0,0,.472-.329,1.2,1.2,0,0,0,.263-.39.931.931,0,0,0,.065-.423A1.132,1.132,0,0,0,1723.16,1172.108Z" transform="translate(-1501.095 -1020.675)" fill="#ffa412"/>
  <path id="Trazado_110450" data-name="Trazado 110450" d="M1722.191,1382.02v.008l-.18,2.777-.671,10.311h-12.547l-.74-10.169-.2-2.8-.009-.123Z" transform="translate(-1493.14 -1210.288)" fill="#b4c9f7"/>
  <path id="Trazado_110451" data-name="Trazado 110451" d="M1722.233,1382.08l-.18,2.777a22,22,0,0,0-6.995-1.121,17.448,17.448,0,0,0-6.966,1.267l-.2-2.8Z" transform="translate(-1493.184 -1210.34)" fill="#9bb8ea"/>
  <path id="Trazado_110452" data-name="Trazado 110452" d="M1718.286,1381.393h-15.242l-.174-1.773h15.61Z" transform="translate(-1488.8 -1208.192)" fill="#b4c9f7"/>
  <path id="Trazado_110453" data-name="Trazado 110453" d="M1725.2,1485.508h-13.01l-.149-.618h13.325Z" transform="translate(-1496.808 -1300.129)" fill="#b4c9f7"/>
  <rect id="Rectángulo_27882" data-name="Rectángulo 27882" width="364.884" height="0.968" rx="0.484" transform="translate(0 185.305)" fill="#2e3552"/>
  <path id="Trazado_110454" data-name="Trazado 110454" d="M2399.6,965.56l-1.219.99s-3.332-1.2-4.084,2.765c0,0-.2,1.687.869,1.691s.633-.185,2.142-.141a2.749,2.749,0,0,0,2.99-1.982l.725-1.041Z" transform="translate(-2092.644 -846.573)" fill="#ea8e50"/>
  <path id="Trazado_110455" data-name="Trazado 110455" d="M2431.184,806.581a2.488,2.488,0,0,1-.894-1.766s11.254-9.214,12.4-9.964a138.026,138.026,0,0,0,12.941-12.34c1.921-2.221,4.306-1.36,7.025-.579l2.243.645a3.751,3.751,0,0,1,1.19,6.4c-6.258,5.184-16.67,11.019-18.618,12.24-4.835,3.037-14.3,6.657-14.3,6.657A6,6,0,0,1,2431.184,806.581Z" transform="translate(-2124.09 -685.47)" fill="#1e3d70"/>
  <path id="Trazado_110456" data-name="Trazado 110456" d="M2259.94,1429.3a8.482,8.482,0,0,1-6.917.965s-3.374-.769-4.114.914c0,0,5.175,2.629,6.485,3.347a15.481,15.481,0,0,1,2.745,2.059,1.357,1.357,0,0,0,1.965-.152c.227-.28.488-.613.773-1,.8-1.082,2.66-4.573,2.66-4.573Z" transform="translate(-1965.683 -1251.58)" fill="#233862"/>
  <ellipse id="Elipse_4321" data-name="Elipse 4321" cx="19.097" cy="19.097" rx="19.097" ry="19.097" transform="translate(284.804 119.299) rotate(-82.24)" fill="#e2810e"/>
  <circle id="Elipse_4322" data-name="Elipse 4322" cx="19.097" cy="19.097" r="19.097" transform="translate(280.977 102.961) rotate(-45)" fill="#ffb93e"/>
  <path id="Trazado_110457" data-name="Trazado 110457" d="M2312.08,733.161a17.4,17.4,0,1,1,12.3,5.1A17.4,17.4,0,0,1,2312.08,733.161Zm-4.059-12.3a16.358,16.358,0,1,0,0-.006Z" transform="translate(-2016.4 -617.665)" fill="#ffa412"/>
  <path id="Trazado_110458" data-name="Trazado 110458" d="M2389.729,758.111a1.964,1.964,0,0,0,.605.669,2.493,2.493,0,0,0,.916.38,3.727,3.727,0,0,0,1.211.033,4.5,4.5,0,0,0,1.14-.291,2.618,2.618,0,0,0,.954-.657,2.694,2.694,0,0,0,.593-1.1,4.158,4.158,0,0,0,.078-1.62l4.169-.494a6.74,6.74,0,0,1-.192,2.822,5.521,5.521,0,0,1-1.158,2.073,6.179,6.179,0,0,1-1.847,1.393,9.69,9.69,0,0,1-2.253.8l.314,2.66-2.293.272-.315-2.667a8.7,8.7,0,0,1-2.423-.253,5.811,5.811,0,0,1-1.94-.887,4.761,4.761,0,0,1-1.354-1.484,5.769,5.769,0,0,1-.475-4.373,5.153,5.153,0,0,1,1.078-1.82,8.768,8.768,0,0,1,1.824-1.5q1.08-.685,2.418-1.374a13.435,13.435,0,0,0,1.377-.8,3.966,3.966,0,0,0,.861-.76,1.949,1.949,0,0,0,.409-.8,2.659,2.659,0,0,0,.038-.914,2.919,2.919,0,0,0-.253-.907,1.981,1.981,0,0,0-.536-.692,2.133,2.133,0,0,0-.831-.4,3.114,3.114,0,0,0-1.14-.048,2.461,2.461,0,0,0-1.816,1.023,3.541,3.541,0,0,0-.429,2.491l-4.169.494a7.275,7.275,0,0,1,.1-2.463,5.455,5.455,0,0,1,2.431-3.489,7.217,7.217,0,0,1,2.173-.923l-.346-2.913,2.309-.275.338,2.874a8.028,8.028,0,0,1,2.406.277,6.05,6.05,0,0,1,1.931.919,4.829,4.829,0,0,1,1.348,1.5,5.743,5.743,0,0,1,.465,4.348,5.1,5.1,0,0,1-1.079,1.812,8.691,8.691,0,0,1-1.829,1.488,27.294,27.294,0,0,1-2.445,1.343,10.573,10.573,0,0,0-1.323.742,3.942,3.942,0,0,0-.854.76,2.076,2.076,0,0,0-.427.839,2.868,2.868,0,0,0-.042,1.013A2.4,2.4,0,0,0,2389.729,758.111Z" transform="translate(-2083.861 -648.978)" fill="#ffa412"/>
  <path id="Trazado_110459" data-name="Trazado 110459" d="M2323.29,1084.589s1.663,3.835,5.5,3.131A107.029,107.029,0,0,0,2342,1074.529a29.8,29.8,0,0,0,4.1-6.414c3.563-8.25,13.181-20.554,19.3-26.791l-15.3-5.535s-4.9,9.857-11.42,21.966C2333.982,1066.48,2328.446,1076.373,2323.29,1084.589Z" transform="translate(-2030.643 -907.908)" fill="#2b478b"/>
  <path id="Trazado_110460" data-name="Trazado 110460" d="M2444.81,1057.756l3.318,16.772a29.8,29.8,0,0,0,4.1-6.414c3.563-8.25,13.181-20.554,19.3-26.791l-15.3-5.535S2451.329,1045.647,2444.81,1057.756Z" transform="translate(-2136.772 -907.908)" fill="#233862"/>
  <path id="Trazado_110461" data-name="Trazado 110461" d="M2504.431,1435.307s.167,3.06-3.546,3.469c0,0-2.12.011-2.125,1.958l10.781.034a8.379,8.379,0,0,0,.389-2.468c.058-1.292-1.253-4.67-1.253-4.67Z" transform="translate(-2183.889 -1255.361)" fill="#233862"/>
  <path id="Trazado_110462" data-name="Trazado 110462" d="M2494.307,1031.091s-6.816,7.489-11.146,20.981c-2.353,7.346,4.315,25.8,5.615,32.21,0,0,4.473.38,7.532-.8,0,0,.233-13.245-1.556-23.453-1-5.713,8.974-12.218,13.333-22.544,2.965-7.023-.642-6.9-5.075-7.072Z" transform="translate(-2169.831 -903.21)" fill="#2b478b"/>
  <path id="Trazado_110463" data-name="Trazado 110463" d="M2636.72,708.263c3.792,2.14,11.554.166,11.554.166a10.816,10.816,0,0,1-1.72-9.409l-2.977,1.517-3.2,1.625a26.67,26.67,0,0,0-.351,2.866c-.037.474-.07,1-.091,1.582a9.925,9.925,0,0,0-3.217,1.653Z" transform="translate(-2304.376 -613.791)" fill="#ffb07b"/>
  <path id="Trazado_110464" data-name="Trazado 110464" d="M2526.93,792.461c0,.666.768.985.931,1.013,1.53.28,5.8,1.942,9.647,2.322a30.838,30.838,0,0,0,9.551-.646c.437-.087,1.464-.365,1.537-.784.091-.457,12.743-25.794,2.913-36.677-.232-.253-2.173.2-3.949.626a7.281,7.281,0,0,1-4.486-.367l-1.665.876c-2.045,1.14-5.915,5.193-6.367,8.365-.231,1.615-1.154,2.812-1.422,4.233q-.148.789-.3,1.539-.3,1.473-.623,2.8c-.579,2.406-1.189,4.471-1.79,6.258-.633,1.9-1.267,3.475-1.823,4.8-.726,1.711-1.339,2.99-1.721,3.971A4.848,4.848,0,0,0,2526.93,792.461Z" transform="translate(-2208.491 -664.966)" fill="#d2e3fc"/>
  <path id="Trazado_110465" data-name="Trazado 110465" d="M2530.29,850.13a49.738,49.738,0,0,0,24.047-24.57s-14.512,5.354-18.091,6.747q-.3,1.473-.623,2.8c-.579,2.406-1.189,4.471-1.79,6.258-.633,1.9-1.266,3.475-1.823,4.795C2531.285,847.871,2530.672,849.15,2530.29,850.13Z" transform="translate(-2211.426 -724.304)" fill="#a4c8fc"/>
  <path id="Trazado_110466" data-name="Trazado 110466" d="M2401.057,980.372l-1.544.566a3.3,3.3,0,0,0-5.016,1.369s-.7,1.553.406,1.89.7.02,2.25.536,3.075.144,3.66-.961l1.049-.77Z" transform="translate(-2092.642 -859.423)" fill="#ffb07b"/>
  <path id="Trazado_110467" data-name="Trazado 110467" d="M2432.021,814.112c-.571-1.489-.831-2.163-.831-2.163s11.662-9.506,12.85-10.322c.811-.556,8.865-6.586,12.8-11.278a8.225,8.225,0,0,1,8-2.77l2.448.513a3.644,3.644,0,0,1,1.624,6.333c-6.459,5.537-17.351,11.958-19.378,13.3-5.042,3.316-16.194,7.963-16.194,7.963A2.912,2.912,0,0,1,2432.021,814.112Z" transform="translate(-2124.877 -690.979)" fill="#d2e3fc"/>
  <path id="Trazado_110468" data-name="Trazado 110468" d="M2662.84,715.441a7.983,7.983,0,0,0,6.154-2.87,29.515,29.515,0,0,1-2.6-1.621l-3.2,1.625A26.667,26.667,0,0,0,2662.84,715.441Z" transform="translate(-2327.188 -624.21)" fill="#ea8e50"/>
  <path id="Trazado_110469" data-name="Trazado 110469" d="M2648.042,650.589s5.65,4.053,8.121.5,4.863-5.431,1.361-8.169-5.155-1.874-6.268-.887S2646.636,649.443,2648.042,650.589Z" transform="translate(-2313.978 -563.187)" fill="#ffb07b"/>
  <path id="Trazado_110470" data-name="Trazado 110470" d="M2670.872,607.17a9.125,9.125,0,0,1,.657-2.33s.355,1.469,3.04,1.266,6.938.263,8.359,3.322c.09.2.17.4.242.6a7.243,7.243,0,0,0,.318-1.695,5.253,5.253,0,0,1,0,2.964h0c.008.048.014.1.021.144a6.044,6.044,0,0,1,1.089,2.058,1.828,1.828,0,0,0-1-.887c.011,2.38-.954,4.706-2.647,5.4-2.477,1.013-2.458.241-4.949,1.892,0,0-.669-.828-.213-1.386s2.178-1.368,1.216-2.178-1.317.1-1.672-.456,1.419-2.177-.86-3.7S2670.665,608.533,2670.872,607.17Z" transform="translate(-2334.187 -531.539)" fill="#233862"/>
  <path id="Trazado_110471" data-name="Trazado 110471" d="M447.566,1459.26v2.208a.748.748,0,0,1-.173.475,1.013,1.013,0,0,1-.475.318,1.12,1.12,0,0,1-.185.044,1.214,1.214,0,0,1-.179.013H404.693a.959.959,0,0,1-1.013-.807v-2.294a.957.957,0,0,1,1.013-.807h41.861a1.091,1.091,0,0,1,.838.375A.751.751,0,0,1,447.566,1459.26Z" transform="translate(-354.154 -1277.003)" fill="#ffb93e"/>
  <path id="Trazado_110472" data-name="Trazado 110472" d="M427.019,1462.316H404.593a.887.887,0,0,1-.9-.807v-2.294a.887.887,0,0,1,.9-.807h19.673A6.852,6.852,0,0,0,427.019,1462.316Z" transform="translate(-354.163 -1277.001)" fill="#ffa412"/>
  <rect id="Rectángulo_27883" data-name="Rectángulo 27883" width="0.476" height="3.908" transform="translate(87.843 181.407)" fill="#ffa412"/>
  <rect id="Rectángulo_27884" data-name="Rectángulo 27884" width="0.476" height="3.908" transform="translate(86.232 181.407)" fill="#ffa412"/>
  <rect id="Rectángulo_27885" data-name="Rectángulo 27885" width="0.476" height="3.908" transform="translate(84.302 181.407)" fill="#ffa412"/>
  <rect id="Rectángulo_27886" data-name="Rectángulo 27886" width="0.476" height="3.908" transform="translate(81.341 181.407)" fill="#ffa412"/>
  <rect id="Rectángulo_27887" data-name="Rectángulo 27887" width="0.476" height="3.908" transform="translate(78.211 181.407)" fill="#ffa412"/>
  <rect id="Rectángulo_27888" data-name="Rectángulo 27888" width="0.476" height="3.908" transform="translate(73.412 181.407)" fill="#ffa412"/>
  <rect id="Rectángulo_27889" data-name="Rectángulo 27889" width="0.476" height="3.908" transform="translate(68.919 181.407)" fill="#ffa412"/>
  <rect id="Rectángulo_27890" data-name="Rectángulo 27890" width="0.476" height="3.908" transform="translate(64.906 181.407)" fill="#ffa412"/>
  <rect id="Rectángulo_27891" data-name="Rectángulo 27891" width="0.476" height="3.908" transform="translate(89.375 181.407)" fill="#ffa412"/>
  <rect id="Rectángulo_27892" data-name="Rectángulo 27892" width="0.476" height="3.908" transform="translate(90.389 181.407)" fill="#ffa412"/>
  <rect id="Rectángulo_27893" data-name="Rectángulo 27893" width="0.476" height="3.908" transform="translate(91.366 181.407)" fill="#ffa412"/>
  <path id="Trazado_110473" data-name="Trazado 110473" d="M740.326,1458.424v3.881a1.2,1.2,0,0,1-.179.013h-.3v-3.907h.3A1.017,1.017,0,0,1,740.326,1458.424Z" transform="translate(-647.748 -1277.003)" fill="#ffa412"/>
  <path id="Trazado_110474" data-name="Trazado 110474" d="M745.545,1459.134v3.157a1.013,1.013,0,0,1-.475.318v-3.8A1.014,1.014,0,0,1,745.545,1459.134Z" transform="translate(-652.307 -1277.352)" fill="#ffa412"/>
  <path id="Trazado_110475" data-name="Trazado 110475" d="M412.227,1428.4v2.206a.76.76,0,0,1-.174.475,1.012,1.012,0,0,1-.476.319,1.13,1.13,0,0,1-.185.043,1.214,1.214,0,0,1-.179.014H369.353a.96.96,0,0,1-1.013-.807v-2.295a.956.956,0,0,1,1.013-.807h42.039a1.023,1.023,0,0,1,.185.044l.027.009.025.009.052.02.029.014.025.013.048.025.052.033.039.027h0l.027.02a.844.844,0,0,1,.073.063l.019.019.02.022.038.043A.76.76,0,0,1,412.227,1428.4Z" transform="translate(-323.29 -1250.051)" fill="#ffb93e"/>
  <path id="Trazado_110476" data-name="Trazado 110476" d="M391.689,1431.457H369.263a.887.887,0,0,1-.9-.807v-2.295a.887.887,0,0,1,.9-.807h19.672l.027.1A6.839,6.839,0,0,0,391.689,1431.457Z" transform="translate(-323.308 -1250.05)" fill="#ffa412"/>
  <rect id="Rectángulo_27894" data-name="Rectángulo 27894" width="0.476" height="3.908" transform="translate(83.367 177.499)" fill="#ffa412"/>
  <rect id="Rectángulo_27895" data-name="Rectángulo 27895" width="0.476" height="3.908" transform="translate(81.757 177.499)" fill="#ffa412"/>
  <rect id="Rectángulo_27896" data-name="Rectángulo 27896" width="0.476" height="3.908" transform="translate(79.826 177.499)" fill="#ffa412"/>
  <rect id="Rectángulo_27897" data-name="Rectángulo 27897" width="0.476" height="3.908" transform="translate(76.865 177.499)" fill="#ffa412"/>
  <rect id="Rectángulo_27898" data-name="Rectángulo 27898" width="0.476" height="3.908" transform="translate(73.735 177.499)" fill="#ffa412"/>
  <rect id="Rectángulo_27899" data-name="Rectángulo 27899" width="0.476" height="3.908" transform="translate(68.936 177.499)" fill="#ffa412"/>
  <rect id="Rectángulo_27900" data-name="Rectángulo 27900" width="0.476" height="3.908" transform="translate(64.443 177.499)" fill="#ffa412"/>
  <rect id="Rectángulo_27901" data-name="Rectángulo 27901" width="0.476" height="3.908" transform="translate(60.43 177.499)" fill="#ffa412"/>
  <rect id="Rectángulo_27902" data-name="Rectángulo 27902" width="0.476" height="3.908" transform="translate(84.901 177.499)" fill="#ffa412"/>
  <rect id="Rectángulo_27903" data-name="Rectángulo 27903" width="0.476" height="3.908" transform="translate(85.913 177.499)" fill="#ffa412"/>
  <rect id="Rectángulo_27904" data-name="Rectángulo 27904" width="0.476" height="3.908" transform="translate(86.891 177.499)" fill="#ffa412"/>
  <path id="Trazado_110477" data-name="Trazado 110477" d="M704.986,1427.564v3.881a1.214,1.214,0,0,1-.179.014h-.3v-3.908h.3A1.2,1.2,0,0,1,704.986,1427.564Z" transform="translate(-616.884 -1250.051)" fill="#ffa412"/>
  <path id="Trazado_110478" data-name="Trazado 110478" d="M710.206,1428.276v3.156a1,1,0,0,1-.476.318v-3.8A1.013,1.013,0,0,1,710.206,1428.276Z" transform="translate(-621.443 -1250.401)" fill="#ffa412"/>
  <path id="Trazado_110479" data-name="Trazado 110479" d="M429.341,1398.31v2.208a.751.751,0,0,1-.173.475,1.013,1.013,0,0,1-.475.318,1.132,1.132,0,0,1-.185.044,1.181,1.181,0,0,1-.179.013H386.468a1.155,1.155,0,0,1-.467-.1.866.866,0,0,1-.541-.672v-2.332a.957.957,0,0,1,1.013-.807h41.856a1.181,1.181,0,0,1,.179.013,1.132,1.132,0,0,1,.185.044,1.015,1.015,0,0,1,.475.318A.751.751,0,0,1,429.341,1398.31Z" transform="translate(-338.242 -1223.772)" fill="#ffb93e"/>
  <path id="Trazado_110480" data-name="Trazado 110480" d="M408.785,1401.365H386.359a.937.937,0,0,1-.417-.1.852.852,0,0,1-.483-.673v-2.332a.887.887,0,0,1,.9-.807h19.669a6.861,6.861,0,0,0,2.615,3.811Z" transform="translate(-338.242 -1223.771)" fill="#ffa412"/>
  <rect id="Rectángulo_27905" data-name="Rectángulo 27905" width="0.476" height="3.908" transform="translate(85.53 173.688)" fill="#ffa412"/>
  <rect id="Rectángulo_27906" data-name="Rectángulo 27906" width="0.476" height="3.908" transform="translate(83.919 173.688)" fill="#ffa412"/>
  <rect id="Rectángulo_27907" data-name="Rectángulo 27907" width="0.476" height="3.908" transform="translate(81.988 173.688)" fill="#ffa412"/>
  <rect id="Rectángulo_27908" data-name="Rectángulo 27908" width="0.476" height="3.908" transform="translate(79.028 173.688)" fill="#ffa412"/>
  <rect id="Rectángulo_27909" data-name="Rectángulo 27909" width="0.476" height="3.908" transform="translate(75.898 173.688)" fill="#ffa412"/>
  <rect id="Rectángulo_27910" data-name="Rectángulo 27910" width="0.476" height="3.908" transform="translate(71.1 173.688)" fill="#ffa412"/>
  <rect id="Rectángulo_27911" data-name="Rectángulo 27911" width="0.476" height="3.908" transform="translate(66.606 173.688)" fill="#ffa412"/>
  <rect id="Rectángulo_27912" data-name="Rectángulo 27912" width="0.476" height="3.908" transform="translate(62.594 173.688)" fill="#ffa412"/>
  <rect id="Rectángulo_27913" data-name="Rectángulo 27913" width="0.476" height="3.908" transform="translate(87.063 173.688)" fill="#ffa412"/>
  <rect id="Rectángulo_27914" data-name="Rectángulo 27914" width="0.476" height="3.908" transform="translate(88.076 173.688)" fill="#ffa412"/>
  <rect id="Rectángulo_27915" data-name="Rectángulo 27915" width="0.476" height="3.908" transform="translate(89.054 173.688)" fill="#ffa412"/>
  <path id="Trazado_110481" data-name="Trazado 110481" d="M722.066,1397.473v3.882a1.181,1.181,0,0,1-.179.013h-.3v-3.907h.3A1.181,1.181,0,0,1,722.066,1397.473Z" transform="translate(-631.8 -1223.772)" fill="#ffa412"/>
  <path id="Trazado_110482" data-name="Trazado 110482" d="M727.285,1398.228v3.157a1.014,1.014,0,0,1-.475.318v-3.793A1.013,1.013,0,0,1,727.285,1398.228Z" transform="translate(-636.359 -1224.166)" fill="#ffa412"/>
  <path id="Trazado_110483" data-name="Trazado 110483" d="M437.226,1367.451v2.206a.748.748,0,0,1-.174.475,1.082,1.082,0,0,1-.661.362,1.2,1.2,0,0,1-.179.014h-41.86a.96.96,0,0,1-1.013-.807v-2.295a.932.932,0,0,1,.887-.8c.039,0,.079-.006.12-.006h41.866a1.183,1.183,0,0,1,.179.014,1.082,1.082,0,0,1,.661.362A.749.749,0,0,1,437.226,1367.451Z" transform="translate(-345.124 -1196.821)" fill="#ffb93e"/>
  <path id="Trazado_110484" data-name="Trazado 110484" d="M416.679,1370.508H394.253a.886.886,0,0,1-.9-.807v-2.295a.878.878,0,0,1,.8-.8.969.969,0,0,1,.106-.006h19.672v.006A6.854,6.854,0,0,0,416.679,1370.508Z" transform="translate(-345.133 -1196.821)" fill="#ffa412"/>
  <rect id="Rectángulo_27916" data-name="Rectángulo 27916" width="0.476" height="3.907" transform="translate(86.533 169.779)" fill="#ffa412"/>
  <rect id="Rectángulo_27917" data-name="Rectángulo 27917" width="0.476" height="3.907" transform="translate(84.922 169.779)" fill="#ffa412"/>
  <rect id="Rectángulo_27918" data-name="Rectángulo 27918" width="0.476" height="3.907" transform="translate(82.991 169.779)" fill="#ffa412"/>
  <rect id="Rectángulo_27919" data-name="Rectángulo 27919" width="0.476" height="3.907" transform="translate(80.031 169.779)" fill="#ffa412"/>
  <rect id="Rectángulo_27920" data-name="Rectángulo 27920" width="0.476" height="3.907" transform="translate(76.9 169.779)" fill="#ffa412"/>
  <rect id="Rectángulo_27921" data-name="Rectángulo 27921" width="0.476" height="3.907" transform="translate(72.101 169.779)" fill="#ffa412"/>
  <rect id="Rectángulo_27922" data-name="Rectángulo 27922" width="0.476" height="3.907" transform="translate(67.609 169.779)" fill="#ffa412"/>
  <rect id="Rectángulo_27923" data-name="Rectángulo 27923" width="0.476" height="3.907" transform="translate(63.597 169.779)" fill="#ffa412"/>
  <rect id="Rectángulo_27924" data-name="Rectángulo 27924" width="0.476" height="3.907" transform="translate(88.066 169.779)" fill="#ffa412"/>
  <rect id="Rectángulo_27925" data-name="Rectángulo 27925" width="0.476" height="3.907" transform="translate(89.079 169.779)" fill="#ffa412"/>
  <rect id="Rectángulo_27926" data-name="Rectángulo 27926" width="0.476" height="3.907" transform="translate(90.057 169.779)" fill="#ffa412"/>
  <path id="Trazado_110485" data-name="Trazado 110485" d="M729.985,1366.614v3.881a1.182,1.182,0,0,1-.179.014h-.3V1366.6h.3A1.182,1.182,0,0,1,729.985,1366.614Z" transform="translate(-638.717 -1196.821)" fill="#ffa412"/>
  <path id="Trazado_110486" data-name="Trazado 110486" d="M735.2,1367.325v3.156a1,1,0,0,1-.475.318V1367a1.014,1.014,0,0,1,.475.325Z" transform="translate(-643.276 -1197.17)" fill="#ffa412"/>
  <path id="Trazado_110487" data-name="Trazado 110487" d="M412.891,1336.641v2.208a.747.747,0,0,1-.173.474,1.014,1.014,0,0,1-.475.319,1.13,1.13,0,0,1-.186.043l-.058.008H370.013a.96.96,0,0,1-1.013-.807v-2.331a.919.919,0,0,1,.76-.745h.03a1.245,1.245,0,0,1,.219-.02h42l.047.006a1.107,1.107,0,0,1,.186.044,1,1,0,0,1,.475.318A.748.748,0,0,1,412.891,1336.641Z" transform="translate(-323.866 -1169.913)" fill="#ffb93e"/>
  <path id="Trazado_110488" data-name="Trazado 110488" d="M392.379,1339.7H369.953a.886.886,0,0,1-.9-.807v-2.331a.874.874,0,0,1,.7-.75l.039-.008a.958.958,0,0,1,.16-.014h19.674a.175.175,0,0,0,.009.028,6.839,6.839,0,0,0,2.737,3.874Z" transform="translate(-323.91 -1169.913)" fill="#ffa412"/>
  <rect id="Rectángulo_27927" data-name="Rectángulo 27927" width="0.476" height="3.908" transform="translate(83.456 165.877)" fill="#ffa412"/>
  <rect id="Rectángulo_27928" data-name="Rectángulo 27928" width="0.476" height="3.908" transform="translate(81.845 165.877)" fill="#ffa412"/>
  <rect id="Rectángulo_27929" data-name="Rectángulo 27929" width="0.476" height="3.908" transform="translate(79.913 165.877)" fill="#ffa412"/>
  <rect id="Rectángulo_27930" data-name="Rectángulo 27930" width="0.476" height="3.908" transform="translate(76.953 165.877)" fill="#ffa412"/>
  <rect id="Rectángulo_27931" data-name="Rectángulo 27931" width="0.476" height="3.908" transform="translate(73.823 165.877)" fill="#ffa412"/>
  <rect id="Rectángulo_27932" data-name="Rectángulo 27932" width="0.476" height="3.908" transform="translate(69.024 165.877)" fill="#ffa412"/>
  <rect id="Rectángulo_27933" data-name="Rectángulo 27933" width="0.476" height="3.908" transform="translate(64.531 165.877)" fill="#ffa412"/>
  <rect id="Rectángulo_27934" data-name="Rectángulo 27934" width="0.476" height="3.908" transform="translate(60.519 165.877)" fill="#ffa412"/>
  <rect id="Rectángulo_27935" data-name="Rectángulo 27935" width="0.476" height="3.908" transform="translate(84.988 165.877)" fill="#ffa412"/>
  <rect id="Rectángulo_27936" data-name="Rectángulo 27936" width="0.476" height="3.908" transform="translate(86.001 165.877)" fill="#ffa412"/>
  <rect id="Rectángulo_27937" data-name="Rectángulo 27937" width="0.476" height="3.908" transform="translate(86.979 165.877)" fill="#ffa412"/>
  <path id="Trazado_110489" data-name="Trazado 110489" d="M705.725,1335.8v3.881a1.15,1.15,0,0,1-.179.014h-.3v-3.908h.3A1.166,1.166,0,0,1,705.725,1335.8Z" transform="translate(-617.53 -1169.913)" fill="#ffa412"/>
  <path id="Trazado_110490" data-name="Trazado 110490" d="M710.9,1336.524v3.156a1.014,1.014,0,0,1-.475.319v-3.8A1,1,0,0,1,710.9,1336.524Z" transform="translate(-622.054 -1170.271)" fill="#ffa412"/>
  <path id="Trazado_110491" data-name="Trazado 110491" d="M412.271,1306.054v2.208a.76.76,0,0,1-.173.475,1.012,1.012,0,0,1-.476.318,1.033,1.033,0,0,1-.144.037h0l-.039.008a1.2,1.2,0,0,1-.179.013H369.4a1.126,1.126,0,0,1-.127-.008h-.049a.92.92,0,0,1-.831-.793v-2.294a.955.955,0,0,1,1.013-.807h42.033a1.021,1.021,0,0,1,.185.043l.027.009.025.01.052.02c.018.009.037.016.054.027l.048.025.052.032.039.027h0l.027.019c.025.02.049.042.073.063l.019.02.02.02.038.043A.76.76,0,0,1,412.271,1306.054Z" transform="translate(-323.334 -1143.206)" fill="#ffb93e"/>
  <path id="Trazado_110492" data-name="Trazado 110492" d="M391.689,1309.1H369.152a.875.875,0,0,1-.792-.8v-2.294a.887.887,0,0,1,.9-.807h19.672l.027.1a6.839,6.839,0,0,0,2.688,3.783Z" transform="translate(-323.308 -1143.196)" fill="#ffa412"/>
  <rect id="Rectángulo_27938" data-name="Rectángulo 27938" width="0.476" height="3.907" transform="translate(83.367 161.998)" fill="#ffa412"/>
  <rect id="Rectángulo_27939" data-name="Rectángulo 27939" width="0.476" height="3.907" transform="translate(81.757 161.998)" fill="#ffa412"/>
  <rect id="Rectángulo_27940" data-name="Rectángulo 27940" width="0.476" height="3.907" transform="translate(79.826 161.998)" fill="#ffa412"/>
  <rect id="Rectángulo_27941" data-name="Rectángulo 27941" width="0.476" height="3.907" transform="translate(76.865 161.998)" fill="#ffa412"/>
  <rect id="Rectángulo_27942" data-name="Rectángulo 27942" width="0.476" height="3.907" transform="translate(73.735 161.998)" fill="#ffa412"/>
  <rect id="Rectángulo_27943" data-name="Rectángulo 27943" width="0.476" height="3.907" transform="translate(68.936 161.998)" fill="#ffa412"/>
  <rect id="Rectángulo_27944" data-name="Rectángulo 27944" width="0.476" height="3.907" transform="translate(64.443 161.998)" fill="#ffa412"/>
  <rect id="Rectángulo_27945" data-name="Rectángulo 27945" width="0.476" height="3.907" transform="translate(60.43 161.998)" fill="#ffa412"/>
  <rect id="Rectángulo_27946" data-name="Rectángulo 27946" width="0.476" height="3.907" transform="translate(84.901 161.998)" fill="#ffa412"/>
  <rect id="Rectángulo_27947" data-name="Rectángulo 27947" width="0.476" height="3.907" transform="translate(85.913 161.998)" fill="#ffa412"/>
  <rect id="Rectángulo_27948" data-name="Rectángulo 27948" width="0.476" height="3.907" transform="translate(86.891 161.998)" fill="#ffa412"/>
  <path id="Trazado_110493" data-name="Trazado 110493" d="M704.986,1305.174v3.881a1.182,1.182,0,0,1-.179.013h-.3v-3.907h.3A1.2,1.2,0,0,1,704.986,1305.174Z" transform="translate(-616.884 -1143.162)" fill="#ffa412"/>
  <path id="Trazado_110494" data-name="Trazado 110494" d="M710.206,1305.884v3.157a1.014,1.014,0,0,1-.476.318v-3.8A1.024,1.024,0,0,1,710.206,1305.884Z" transform="translate(-621.443 -1143.512)" fill="#ffa412"/>
  <path id="Trazado_110495" data-name="Trazado 110495" d="M429.341,1275.911v2.206a.749.749,0,0,1-.174.475,1.014,1.014,0,0,1-.475.319,1.117,1.117,0,0,1-.185.043,1.166,1.166,0,0,1-.179.014H386.468a1.174,1.174,0,0,1-.467-.1.868.868,0,0,1-.541-.673v-2.333a.958.958,0,0,1,1.013-.807h41.856a1.214,1.214,0,0,1,.179.014,1.084,1.084,0,0,1,.66.362A.748.748,0,0,1,429.341,1275.911Z" transform="translate(-338.242 -1116.874)" fill="#ffb93e"/>
  <path id="Trazado_110496" data-name="Trazado 110496" d="M408.785,1278.967H386.359a.954.954,0,0,1-.417-.1.855.855,0,0,1-.483-.672v-2.333a.887.887,0,0,1,.9-.807h19.669a6.859,6.859,0,0,0,2.615,3.812Z" transform="translate(-338.242 -1116.873)" fill="#ffa412"/>
  <rect id="Rectángulo_27949" data-name="Rectángulo 27949" width="0.476" height="3.908" transform="translate(85.53 158.186)" fill="#ffa412"/>
  <rect id="Rectángulo_27950" data-name="Rectángulo 27950" width="0.476" height="3.908" transform="translate(83.919 158.186)" fill="#ffa412"/>
  <rect id="Rectángulo_27951" data-name="Rectángulo 27951" width="0.476" height="3.908" transform="translate(81.988 158.186)" fill="#ffa412"/>
  <rect id="Rectángulo_27952" data-name="Rectángulo 27952" width="0.476" height="3.908" transform="translate(79.028 158.186)" fill="#ffa412"/>
  <rect id="Rectángulo_27953" data-name="Rectángulo 27953" width="0.476" height="3.908" transform="translate(75.898 158.186)" fill="#ffa412"/>
  <rect id="Rectángulo_27954" data-name="Rectángulo 27954" width="0.476" height="3.908" transform="translate(71.1 158.186)" fill="#ffa412"/>
  <rect id="Rectángulo_27955" data-name="Rectángulo 27955" width="0.476" height="3.908" transform="translate(66.606 158.186)" fill="#ffa412"/>
  <rect id="Rectángulo_27956" data-name="Rectángulo 27956" width="0.476" height="3.908" transform="translate(62.594 158.186)" fill="#ffa412"/>
  <rect id="Rectángulo_27957" data-name="Rectángulo 27957" width="0.476" height="3.908" transform="translate(87.063 158.186)" fill="#ffa412"/>
  <rect id="Rectángulo_27958" data-name="Rectángulo 27958" width="0.476" height="3.908" transform="translate(88.076 158.186)" fill="#ffa412"/>
  <rect id="Rectángulo_27959" data-name="Rectángulo 27959" width="0.476" height="3.908" transform="translate(89.054 158.186)" fill="#ffa412"/>
  <path id="Trazado_110497" data-name="Trazado 110497" d="M722.066,1275.074v3.881a1.214,1.214,0,0,1-.179.014h-.3v-3.908h.3A1.166,1.166,0,0,1,722.066,1275.074Z" transform="translate(-631.8 -1116.875)" fill="#ffa412"/>
  <path id="Trazado_110498" data-name="Trazado 110498" d="M727.285,1275.834V1279a1.014,1.014,0,0,1-.475.319v-3.8a1,1,0,0,1,.475.314Z" transform="translate(-636.359 -1117.276)" fill="#ffa412"/>
  <path id="Trazado_110499" data-name="Trazado 110499" d="M456.316,1245.09v2.208a.751.751,0,0,1-.173.475,1.014,1.014,0,0,1-.475.318,1.13,1.13,0,0,1-.185.044,1.181,1.181,0,0,1-.179.013H413.443a.959.959,0,0,1-1.013-.807v-2.294a.932.932,0,0,1,.887-.8.99.99,0,0,1,.12,0H455.31a1.2,1.2,0,0,1,.179.013,1.12,1.12,0,0,1,.185.044,1.012,1.012,0,0,1,.475.318A.75.75,0,0,1,456.316,1245.09Z" transform="translate(-361.796 -1089.962)" fill="#ffb93e"/>
  <path id="Trazado_110500" data-name="Trazado 110500" d="M435.769,1248.148H413.343a.887.887,0,0,1-.9-.807v-2.294a.876.876,0,0,1,.8-.8.7.7,0,0,1,.106,0h19.673A6.848,6.848,0,0,0,435.769,1248.148Z" transform="translate(-361.805 -1089.962)" fill="#ffa412"/>
  <rect id="Rectángulo_27960" data-name="Rectángulo 27960" width="0.476" height="3.908" transform="translate(88.951 154.278)" fill="#ffa412"/>
  <rect id="Rectángulo_27961" data-name="Rectángulo 27961" width="0.476" height="3.908" transform="translate(87.34 154.278)" fill="#ffa412"/>
  <rect id="Rectángulo_27962" data-name="Rectángulo 27962" width="0.476" height="3.908" transform="translate(85.41 154.278)" fill="#ffa412"/>
  <rect id="Rectángulo_27963" data-name="Rectángulo 27963" width="0.476" height="3.908" transform="translate(82.449 154.278)" fill="#ffa412"/>
  <rect id="Rectángulo_27964" data-name="Rectángulo 27964" width="0.476" height="3.908" transform="translate(79.319 154.278)" fill="#ffa412"/>
  <rect id="Rectángulo_27965" data-name="Rectángulo 27965" width="0.476" height="3.908" transform="translate(74.52 154.278)" fill="#ffa412"/>
  <rect id="Rectángulo_27966" data-name="Rectángulo 27966" width="0.476" height="3.908" transform="translate(70.027 154.278)" fill="#ffa412"/>
  <rect id="Rectángulo_27967" data-name="Rectángulo 27967" width="0.476" height="3.908" transform="translate(66.015 154.278)" fill="#ffa412"/>
  <rect id="Rectángulo_27968" data-name="Rectángulo 27968" width="0.476" height="3.908" transform="translate(90.484 154.278)" fill="#ffa412"/>
  <rect id="Rectángulo_27969" data-name="Rectángulo 27969" width="0.476" height="3.908" transform="translate(91.497 154.278)" fill="#ffa412"/>
  <rect id="Rectángulo_27970" data-name="Rectángulo 27970" width="0.476" height="3.908" transform="translate(92.475 154.278)" fill="#ffa412"/>
  <path id="Trazado_110501" data-name="Trazado 110501" d="M749.076,1244.254v3.887a1.165,1.165,0,0,1-.179.013h-.3v-3.907h.3A1.212,1.212,0,0,1,749.076,1244.254Z" transform="translate(-655.39 -1089.963)" fill="#ffa412"/>
  <path id="Trazado_110502" data-name="Trazado 110502" d="M754.295,1244.978v3.157a1.014,1.014,0,0,1-.475.318v-3.793A1.013,1.013,0,0,1,754.295,1244.978Z" transform="translate(-659.948 -1090.325)" fill="#ffa412"/>
  <path id="Trazado_110503" data-name="Trazado 110503" d="M412.891,1214.208v2.206a.749.749,0,0,1-.173.475,1,1,0,0,1-.475.318,1.108,1.108,0,0,1-.186.044l-.058.008H370.013a.96.96,0,0,1-1.013-.807v-2.295a.958.958,0,0,1,1.013-.807h41.922a.434.434,0,0,1,.127.013,1.106,1.106,0,0,1,.186.043c.03.01.06.022.087.033l.052.024h.006l.051.027h.008a.4.4,0,0,1,.046.028.869.869,0,0,1,.1.073.263.263,0,0,1,.028.025h0l.018.016h0l.029.03c.014.015.028.03.041.047A.749.749,0,0,1,412.891,1214.208Z" transform="translate(-323.866 -1062.98)" fill="#ffb93e"/>
  <path id="Trazado_110504" data-name="Trazado 110504" d="M392.379,1217.307H369.953a.886.886,0,0,1-.9-.807v-2.295a.887.887,0,0,1,.9-.807h19.672c.009.029.016.06.027.09a6.831,6.831,0,0,0,2.719,3.812Z" transform="translate(-323.91 -1063.022)" fill="#ffa412"/>
  <rect id="Rectángulo_27971" data-name="Rectángulo 27971" width="0.476" height="3.908" transform="translate(83.456 150.376)" fill="#ffa412"/>
  <rect id="Rectángulo_27972" data-name="Rectángulo 27972" width="0.476" height="3.908" transform="translate(81.845 150.376)" fill="#ffa412"/>
  <rect id="Rectángulo_27973" data-name="Rectángulo 27973" width="0.476" height="3.908" transform="translate(79.913 150.376)" fill="#ffa412"/>
  <rect id="Rectángulo_27974" data-name="Rectángulo 27974" width="0.476" height="3.908" transform="translate(76.953 150.376)" fill="#ffa412"/>
  <rect id="Rectángulo_27975" data-name="Rectángulo 27975" width="0.476" height="3.908" transform="translate(73.823 150.376)" fill="#ffa412"/>
  <rect id="Rectángulo_27976" data-name="Rectángulo 27976" width="0.476" height="3.908" transform="translate(69.024 150.376)" fill="#ffa412"/>
  <rect id="Rectángulo_27977" data-name="Rectángulo 27977" width="0.476" height="3.908" transform="translate(64.531 150.376)" fill="#ffa412"/>
  <rect id="Rectángulo_27978" data-name="Rectángulo 27978" width="0.476" height="3.908" transform="translate(60.519 150.376)" fill="#ffa412"/>
  <rect id="Rectángulo_27979" data-name="Rectángulo 27979" width="0.476" height="3.908" transform="translate(84.988 150.376)" fill="#ffa412"/>
  <rect id="Rectángulo_27980" data-name="Rectángulo 27980" width="0.476" height="3.908" transform="translate(86.001 150.376)" fill="#ffa412"/>
  <rect id="Rectángulo_27981" data-name="Rectángulo 27981" width="0.476" height="3.908" transform="translate(86.979 150.376)" fill="#ffa412"/>
  <path id="Trazado_110505" data-name="Trazado 110505" d="M705.725,1213.414v3.881a1.166,1.166,0,0,1-.179.014h-.3V1213.4h.3A1.15,1.15,0,0,1,705.725,1213.414Z" transform="translate(-617.53 -1063.024)" fill="#ffa412"/>
  <path id="Trazado_110506" data-name="Trazado 110506" d="M710.9,1214.125v3.156a1,1,0,0,1-.475.318v-3.8A1.014,1.014,0,0,1,710.9,1214.125Z" transform="translate(-622.054 -1063.373)" fill="#ffa412"/>
  <path id="Trazado_110507" data-name="Trazado 110507" d="M437.249,1184.17v2.208a.751.751,0,0,1-.173.475,1.013,1.013,0,0,1-.475.318,1.108,1.108,0,0,1-.186.044,1.182,1.182,0,0,1-.179.013h-41.86a1.152,1.152,0,0,1-.453-.09.871.871,0,0,1-.556-.681.3.3,0,0,1,0-.036v-2.294a.932.932,0,0,1,.887-.8.9.9,0,0,1,.12,0h41.862a1.182,1.182,0,0,1,.179.013,1.107,1.107,0,0,1,.186.044,1.013,1.013,0,0,1,.475.318A.751.751,0,0,1,437.249,1184.17Z" transform="translate(-345.146 -1036.758)" fill="#ffb93e"/>
  <path id="Trazado_110508" data-name="Trazado 110508" d="M416.693,1187.224H394.267a.932.932,0,0,1-.4-.09.858.858,0,0,1-.5-.681.313.313,0,0,1,0-.036v-2.29a.876.876,0,0,1,.8-.8.7.7,0,0,1,.106,0h19.669a6.859,6.859,0,0,0,2.623,3.811C416.606,1187.164,416.649,1187.195,416.693,1187.224Z" transform="translate(-345.147 -1036.758)" fill="#ffa412"/>
  <rect id="Rectángulo_27982" data-name="Rectángulo 27982" width="0.476" height="3.908" transform="translate(86.533 146.559)" fill="#ffa412"/>
  <rect id="Rectángulo_27983" data-name="Rectángulo 27983" width="0.476" height="3.908" transform="translate(84.922 146.559)" fill="#ffa412"/>
  <rect id="Rectángulo_27984" data-name="Rectángulo 27984" width="0.476" height="3.908" transform="translate(82.991 146.559)" fill="#ffa412"/>
  <rect id="Rectángulo_27985" data-name="Rectángulo 27985" width="0.476" height="3.908" transform="translate(80.031 146.559)" fill="#ffa412"/>
  <rect id="Rectángulo_27986" data-name="Rectángulo 27986" width="0.476" height="3.908" transform="translate(76.9 146.559)" fill="#ffa412"/>
  <rect id="Rectángulo_27987" data-name="Rectángulo 27987" width="0.476" height="3.908" transform="translate(72.101 146.559)" fill="#ffa412"/>
  <rect id="Rectángulo_27988" data-name="Rectángulo 27988" width="0.476" height="3.908" transform="translate(67.609 146.559)" fill="#ffa412"/>
  <rect id="Rectángulo_27989" data-name="Rectángulo 27989" width="0.476" height="3.908" transform="translate(63.597 146.559)" fill="#ffa412"/>
  <rect id="Rectángulo_27990" data-name="Rectángulo 27990" width="0.476" height="3.908" transform="translate(88.066 146.559)" fill="#ffa412"/>
  <rect id="Rectángulo_27991" data-name="Rectángulo 27991" width="0.476" height="3.908" transform="translate(89.079 146.559)" fill="#ffa412"/>
  <rect id="Rectángulo_27992" data-name="Rectángulo 27992" width="0.476" height="3.908" transform="translate(90.057 146.559)" fill="#ffa412"/>
  <path id="Trazado_110509" data-name="Trazado 110509" d="M729.985,1183.273v3.88a1.182,1.182,0,0,1-.179.014h-.3v-3.907h.3A1.166,1.166,0,0,1,729.985,1183.273Z" transform="translate(-638.717 -1036.701)" fill="#ffa412"/>
  <path id="Trazado_110510" data-name="Trazado 110510" d="M735.2,1183.984v3.157a1.013,1.013,0,0,1-.475.318v-3.8A1.013,1.013,0,0,1,735.2,1183.984Z" transform="translate(-643.276 -1037.05)" fill="#ffa412"/>
  <path id="Trazado_110511" data-name="Trazado 110511" d="M447.566,1153.256v2.208a.748.748,0,0,1-.173.475,1.013,1.013,0,0,1-.475.318,1.107,1.107,0,0,1-.185.044l-.06.008h-41.98a.96.96,0,0,1-1.013-.807v-2.295a.958.958,0,0,1,1.013-.807h41.861a1.183,1.183,0,0,1,.179.014,1.105,1.105,0,0,1,.185.043,1.013,1.013,0,0,1,.475.319A.747.747,0,0,1,447.566,1153.256Z" transform="translate(-354.154 -1009.75)" fill="#ffb93e"/>
  <path id="Trazado_110512" data-name="Trazado 110512" d="M427.019,1156.357H404.593a.887.887,0,0,1-.9-.807v-2.295a.887.887,0,0,1,.9-.807h19.673a6.85,6.85,0,0,0,2.745,3.9Z" transform="translate(-354.163 -1009.792)" fill="#ffa412"/>
  <rect id="Rectángulo_27993" data-name="Rectángulo 27993" width="0.476" height="3.908" transform="translate(87.843 142.657)" fill="#ffa412"/>
  <rect id="Rectángulo_27994" data-name="Rectángulo 27994" width="0.476" height="3.908" transform="translate(86.232 142.657)" fill="#ffa412"/>
  <rect id="Rectángulo_27995" data-name="Rectángulo 27995" width="0.476" height="3.908" transform="translate(84.302 142.657)" fill="#ffa412"/>
  <rect id="Rectángulo_27996" data-name="Rectángulo 27996" width="0.476" height="3.908" transform="translate(81.341 142.657)" fill="#ffa412"/>
  <rect id="Rectángulo_27997" data-name="Rectángulo 27997" width="0.476" height="3.908" transform="translate(78.211 142.657)" fill="#ffa412"/>
  <rect id="Rectángulo_27998" data-name="Rectángulo 27998" width="0.476" height="3.908" transform="translate(73.412 142.657)" fill="#ffa412"/>
  <rect id="Rectángulo_27999" data-name="Rectángulo 27999" width="0.476" height="3.908" transform="translate(68.919 142.657)" fill="#ffa412"/>
  <rect id="Rectángulo_28000" data-name="Rectángulo 28000" width="0.476" height="3.908" transform="translate(64.906 142.657)" fill="#ffa412"/>
  <rect id="Rectángulo_28001" data-name="Rectángulo 28001" width="0.476" height="3.908" transform="translate(89.375 142.657)" fill="#ffa412"/>
  <rect id="Rectángulo_28002" data-name="Rectángulo 28002" width="0.476" height="3.908" transform="translate(90.389 142.657)" fill="#ffa412"/>
  <rect id="Rectángulo_28003" data-name="Rectángulo 28003" width="0.476" height="3.908" transform="translate(91.366 142.657)" fill="#ffa412"/>
  <path id="Trazado_110513" data-name="Trazado 110513" d="M740.326,1152.464v3.881a1.18,1.18,0,0,1-.179.014h-.3v-3.908h.3A1.18,1.18,0,0,1,740.326,1152.464Z" transform="translate(-647.748 -1009.793)" fill="#ffa412"/>
  <path id="Trazado_110514" data-name="Trazado 110514" d="M745.545,1153.218v3.157a1.012,1.012,0,0,1-.475.318V1152.9A1.015,1.015,0,0,1,745.545,1153.218Z" transform="translate(-652.307 -1010.186)" fill="#ffa412"/>
  <circle id="Elipse_4323" data-name="Elipse 4323" cx="19.894" cy="19.894" r="19.894" transform="translate(18.964 165.431) rotate(-45)" fill="#e2810e"/>
  <circle id="Elipse_4324" data-name="Elipse 4324" cx="19.894" cy="19.894" r="19.894" transform="translate(17.23 165.43) rotate(-45)" fill="#ffb93e"/>
  <path id="Trazado_110515" data-name="Trazado 110515" d="M245.815,1227.247a18.125,18.125,0,1,1,12.815-5.308A18.126,18.126,0,0,1,245.815,1227.247Zm0-35.17a17.045,17.045,0,1,0,17.045,17.045A17.065,17.065,0,0,0,245.815,1192.077Z" transform="translate(-200.451 -1043.457)" fill="#ffa412"/>
  <path id="Trazado_110516" data-name="Trazado 110516" d="M318.632,1247.067a3.013,3.013,0,0,0-.043-1.052,2.189,2.189,0,0,0-.445-.874,4.193,4.193,0,0,0-.887-.785,10.83,10.83,0,0,0-1.379-.771,28.868,28.868,0,0,1-2.547-1.4,9.063,9.063,0,0,1-1.9-1.55,5.293,5.293,0,0,1-1.125-1.89,5.986,5.986,0,0,1,.484-4.529,5.034,5.034,0,0,1,1.4-1.56,6.253,6.253,0,0,1,2.011-.958,8.4,8.4,0,0,1,2.512-.29l.353-2.988,2.406.285-.36,3.03a7.52,7.52,0,0,1,2.263.963,5.682,5.682,0,0,1,2.533,3.635,7.549,7.549,0,0,1,.1,2.567l-4.344-.516a3.676,3.676,0,0,0-.446-2.594,2.566,2.566,0,0,0-1.893-1.068,3.257,3.257,0,0,0-1.187.051,2.219,2.219,0,0,0-.865.421,2.063,2.063,0,0,0-.559.721,3,3,0,0,0-.265.945,2.787,2.787,0,0,0,.039.954,2.039,2.039,0,0,0,.427.836,4.191,4.191,0,0,0,.9.787,14.171,14.171,0,0,0,1.432.828q1.393.716,2.52,1.431a9.1,9.1,0,0,1,1.9,1.563,5.374,5.374,0,0,1,1.125,1.9,6.015,6.015,0,0,1-.5,4.559,4.98,4.98,0,0,1-1.411,1.545,6.079,6.079,0,0,1-2.026.922,9.118,9.118,0,0,1-2.524.266l-.329,2.779-2.39-.284.328-2.765a10.154,10.154,0,0,1-2.347-.83,6.459,6.459,0,0,1-1.924-1.454,5.764,5.764,0,0,1-1.207-2.161,7.023,7.023,0,0,1-.2-2.94l4.343.516A4.317,4.317,0,0,0,312.7,1247a2.776,2.776,0,0,0,.618,1.15,2.716,2.716,0,0,0,.993.684,4.7,4.7,0,0,0,1.19.3,3.89,3.89,0,0,0,1.267-.034,2.593,2.593,0,0,0,.954-.4,2.078,2.078,0,0,0,.633-.7A2.519,2.519,0,0,0,318.632,1247.067Z" transform="translate(-270.773 -1076.142)" fill="#ffa412"/>
  <path id="Trazado_110517" data-name="Trazado 110517" d="M554.448,1112.573a13.214,13.214,0,0,1-4.6,4.914H539.19S556,1109.868,554.448,1112.573Z" transform="translate(-472.502 -974.459)" fill="#233862"/>
  <path id="Trazado_110518" data-name="Trazado 110518" d="M593.231,1272.167a.987.987,0,0,0-.176,1.054h0a6.534,6.534,0,0,0,2.07,2.271c.127.1.236.193.332.277l.075.066.057.052c.911.84.567,1.031,2.2,2.733,1.863,1.939,3.146,1.973,3.512,1.8.309-.151-.319-1.179-1.013-2.335l-.1-.168c-.092-.153-.185-.309-.276-.464-.814-1.393-.605-2.044-.413-4.115.157-1.682,2.618-9.4,2.618-9.4l-3.572-.616s-1.075,6.145-2.261,7.093c-.633.507-1.343.507-1.952.886-.043.025-.086.052-.127.08a4.662,4.662,0,0,0-.975.788Z" transform="translate(-519.475 -1106.621)" fill="#ffb27d"/>
  <path id="Trazado_110519" data-name="Trazado 110519" d="M593.231,1327.17a.987.987,0,0,0-.176,1.054h0a7.559,7.559,0,0,0,2.073,2.263c.127.1.232.2.328.285l.075.066.057.052c.911.84.567,1.031,2.2,2.733,1.863,1.939,3.146,1.973,3.512,1.8.309-.151-.319-1.179-1.013-2.335a7.945,7.945,0,0,1-3.322-2.447c-1.122-1.432-1.871-3.273-2.634-4.338-.043.025-.086.052-.127.08A4.659,4.659,0,0,0,593.231,1327.17Z" transform="translate(-519.475 -1161.625)" fill="#233862"/>
  <path id="Trazado_110520" data-name="Trazado 110520" d="M802.664,1262.478c.22,1.1,1.792.918,3.546.489s1.339.081,3.836-.195,3.256-1.208,3.332-1.581c.068-.329-1.167-.446-2.49-.6l-.507-.059c-1.5-.189-2.59-1.153-3.948-1.945-1.287-.751-3.207-3.808-3.207-3.808l-3.427.271s1.8,2.732,2.494,3.919a4.146,4.146,0,0,1,.337,2.335A4.383,4.383,0,0,0,802.664,1262.478Z" transform="translate(-700.105 -1099.163)" fill="#ffb27d"/>
  <path id="Trazado_110521" data-name="Trazado 110521" d="M825.586,1303.054c1.755-.429,1.339.081,3.836-.195s3.256-1.208,3.332-1.581c.068-.329-1.166-.446-2.49-.6l-.013.025a7.04,7.04,0,0,1-3.579,1.112c-1.695.042-3.491-.445-4.661-.426a4.39,4.39,0,0,0,.027,1.173C822.259,1303.667,823.831,1303.483,825.586,1303.054Z" transform="translate(-719.48 -1139.25)" fill="#233862"/>
  <path id="Trazado_110522" data-name="Trazado 110522" d="M637.647,1104.673l-3.2,8.62-4.18,11.256a6.8,6.8,0,0,1-2.221-.2,9.745,9.745,0,0,1-2.153-1.046s1.161-12.085,3.327-19.022a12.352,12.352,0,0,1,1.864-4.033C634.44,1096.277,637.647,1104.673,637.647,1104.673Z" transform="translate(-548.221 -963.27)" fill="#233862"/>
  <path id="Trazado_110523" data-name="Trazado 110523" d="M479.339,1022.6c-2.1-.676-8.084.193-14.1,1.369l-1.259-2.076L451,1020.88s-4.286,9.5-1.939,15.559a2.293,2.293,0,0,0,2.366,1.284h0s7.75.189,10.259.189c6.459,0,13.669-4.44,14.6-4.627,1.527-.305,2.138,2.748,3.665,5.953s14.353,14.206,14.353,14.206a11.315,11.315,0,0,0,2.786-.286,2.717,2.717,0,0,0,1.2-.76S484.072,1024.127,479.339,1022.6Z" transform="translate(-393.17 -894.887)" fill="#2b478b"/>
  <path id="Trazado_110524" data-name="Trazado 110524" d="M415.049,722.449a4.612,4.612,0,0,0-2.5-.645,7.525,7.525,0,0,1-1.24-.081c-4.922-.661-7.883,6.49-8.058,8.657-.32,3.993-2.434,4.6-5.408,7.1-5.963,5.015-4.215,10.844-.954,13.01,1.957,1.3,5.4,0,5.4,0,.049.034,9.432-5.245,14.058-7.792C423.286,741.717,417.834,724.108,415.049,722.449Z" transform="translate(-345.616 -633.581)" fill="#233862"/>
  <path id="Trazado_110525" data-name="Trazado 110525" d="M496.916,820.4a6.108,6.108,0,0,1-3.811.118c-1.444-.633-2.533-3.014-2.517-3.016.657-.03,1.378-.6,1.934-4.373l.279.1,4.7,1.692s-.341,1.51-.561,2.947C496.759,819.075,496.659,820.231,496.916,820.4Z" transform="translate(-430.056 -713.449)" fill="#ffb27d"/>
  <path id="Trazado_110526" data-name="Trazado 110526" d="M512.764,815.612s-.341,1.51-.561,2.947c-2.7-.486-3.762-3.179-4.143-4.639Z" transform="translate(-445.314 -714.139)" fill="#ed975d"/>
  <path id="Trazado_110527" data-name="Trazado 110527" d="M510.222,761.048s-6.435-.864-5.835-4.863.17-6.8,4.306-6.422,4.7,2.026,4.827,3.411S511.912,761.17,510.222,761.048Z" transform="translate(-442.072 -658.076)" fill="#ffb27d"/>
  <path id="Trazado_110528" data-name="Trazado 110528" d="M500.546,748.548s-4.12,3.546-6.921,3.838-3.864-.614-3.864-.614a10.913,10.913,0,0,0,2.646-3.584,1.973,1.973,0,0,1,1.625-1.161C496.032,746.854,499.825,746.774,500.546,748.548Z" transform="translate(-429.332 -655.643)" fill="#233862"/>
  <path id="Trazado_110529" data-name="Trazado 110529" d="M554.59,751.813a10.148,10.148,0,0,1,1.811,2.322,7.793,7.793,0,0,1,.212,4.141s2.153-4.179.932-6.206C556.255,749.92,554.59,751.813,554.59,751.813Z" transform="translate(-485.951 -659.225)" fill="#233862"/>
  <path id="Trazado_110530" data-name="Trazado 110530" d="M464.243,859c-.194,13.026-.053,10.3-1.478,11.54a5.466,5.466,0,0,1-2.579.559c-3.995.266-11.019-.393-11.283-1.131-.922-2.555-.271-3.347-1.04-7.258-.08-.415-.18-.866-.3-1.356-.641-2.686-1.267-3.6,1.013-7.914,2.062-3.908,4.2-7.081,4.4-6.966,5.446,3.228,5.879.514,5.879.514S464.34,852.642,464.243,859Z" transform="translate(-391.965 -742.562)" fill="#fff"/>
  <path id="Trazado_110531" data-name="Trazado 110531" d="M634.444,1148.445l-4.18,11.255a6.8,6.8,0,0,1-2.221-.2,9.749,9.749,0,0,1-2.153-1.046s1.161-12.085,3.327-19.022Z" transform="translate(-548.221 -998.422)" fill="#2b478b"/>
  <path id="Trazado_110532" data-name="Trazado 110532" d="M540.77,850.55s5.6.944,6.255,3.359,4.527,16.583,4.527,16.583-2.846.507-4.161-.8-4.575-12.2-4.575-12.2Z" transform="translate(-473.882 -746.129)" fill="#fff"/>
  <path id="Trazado_110533" data-name="Trazado 110533" d="M466.323,945.665c-3.995.266-11.019-.393-11.283-1.131-.922-2.555-.271-3.347-1.04-7.258l1.926-5.426s-.318,6.043,1.463,7.631,7.3,3.068,8.161,4.395A4.853,4.853,0,0,1,466.323,945.665Z" transform="translate(-398.101 -817.133)" fill="#ebf3ff"/>
  <path id="Trazado_110534" data-name="Trazado 110534" d="M515.16,1016.661s3.941-.878,4.577-.528a9.235,9.235,0,0,1,2.384,2.067c.194.443-1.415-.337-1.939-.478a4.7,4.7,0,0,0-1.674.367,5.573,5.573,0,0,1-3,.3Z" transform="translate(-451.515 -890.669)" fill="#ffb27d"/>
  <path id="Trazado_110535" data-name="Trazado 110535" d="M406.293,846.46s-5.292.327-7.123,2.881c-2.579,3.6-7.694,18.923-4.762,20.967,3.3,2.3,15.026.6,15.026.6a4.761,4.761,0,0,0-.153-2.707c-.543-.883-9.361-2.306-9.771-2.714s5.089-7.939,5.089-9.161S406.293,846.46,406.293,846.46Z" transform="translate(-345.288 -742.557)" fill="#fff"/>
  <path id="Trazado_110536" data-name="Trazado 110536" d="M552.8,1025.36a7.638,7.638,0,0,0,1.1,1.193.81.81,0,0,0,.446.1l-.556-1Z" transform="translate(-484.388 -898.799)" fill="#ffb27d"/>
  <path id="Trazado_110537" data-name="Trazado 110537" d="M551.3,1016.7l2.406,1.166a.426.426,0,0,1-.4.153,5.769,5.769,0,0,1-1.041-.286Z" transform="translate(-483.078 -891.236)" fill="#ffb27d"/>
  <path id="Trazado_110538" data-name="Trazado 110538" d="M561.46,949.705h18.99l5.713-14.205H567.2Z" transform="translate(-491.951 -820.32)" fill="#f99746"/>
  <path id="Trazado_110539" data-name="Trazado 110539" d="M540.237,1043.29H515.16v.553h24.854Z" transform="translate(-451.515 -914.458)" fill="#ed7d2b"/>
  <path id="Trazado_110540" data-name="Trazado 110540" d="M660.826,985.344a.658.658,0,0,0-.645-.9,1.3,1.3,0,0,0-1.164.9.658.658,0,0,0,.646.9A1.3,1.3,0,0,0,660.826,985.344Z" transform="translate(-577.121 -863.062)" fill="#fff"/>
  <path id="Trazado_110541" data-name="Trazado 110541" d="M1396.052,982.873c0-.076.419-8.69-3.742-10.67l.294-.282a8.5,8.5,0,0,1,4.865,5.628c.633,2.159.151,2.633.153,2.715Z" transform="translate(-1217.573 -852.128)" fill="#a4c8fc"/>
  <path id="Trazado_110542" data-name="Trazado 110542" d="M1335.784,920.356s-.475,4.433,1.845,6.315,6.561.507,6.561.507.475-4.433-1.847-6.315S1335.784,920.356,1335.784,920.356Z" transform="translate(-1168.171 -806.671)" fill="#a4c8fc"/>
  <path id="Trazado_110543" data-name="Trazado 110543" d="M1413.809,896.074a50.243,50.243,0,0,1,2.26-21.883,40.926,40.926,0,0,0,1.63-20.162h2.715c.07.394.253,9.432-2.633,21.819-2.6,11.145,2.257,20.225,1.222,20.225Z" transform="translate(-1236.04 -749.169)" fill="#a4c8fc"/>
  <path id="Trazado_110544" data-name="Trazado 110544" d="M1458.251,892.046c.014-.058,1.31-7.49,4.8-8.336h0a6.482,6.482,0,0,0-4.644,3.4c-.823,1.545-.534,1.982-.551,2.043Z" transform="translate(-1274.782 -775.09)" fill="#a4c8fc"/>
  <path id="Trazado_110545" data-name="Trazado 110545" d="M1038.01,684.219s-3.76-5.309-8.03-6.867c0,0,1.6,12.45-.738,12.6s-.779-14-.779-14-11.124-6.176-15.64-6c0,0,6.395,12.441,4.093,12.015s-9.556-13.055-9.556-13.055-11.609-2.861-13.9,3.983.548,10.5,2.262,11.035,12.877,1.046,12.5,2.477-8.044,3.308-12.169,1.759c0,0,3.965,11.717,10.084,11.494s8.224-3.879,12.008-3.949,6.477,1.107,4.534,2.011-8.278-.152-11.472,2.256-5.75,3.858-.167,5.349,14.008-.193,18.006-2.857c.011-.008,3.274-.266,5.842,14.835.99,5.826.228,14.458.228,14.458l2.072-.315a73.758,73.758,0,0,0-4.96-31S1042.6,692.774,1038.01,684.219Z" transform="translate(-868.49 -586.975)" fill="#a4c8fc"/>
  <path id="Trazado_110546" data-name="Trazado 110546" d="M1556.823,734.539s-12.489-5.247-8.018-14.793c0,0,3.764-5.977,8.3-7.918,0,0-1,13.593,1.543,13.624s.02-15.229.02-15.229,11.7-7.346,16.605-7.431c0,0-6.206,13.866-3.732,13.269s9.594-14.726,9.594-14.726,12.412-3.784,15.3,3.5.024,11.416-1.8,12.1-13.9,1.891-13.411,3.42,8.918,3.114,13.3,1.191c0,0-3.61,12.939-10.259,13.056s-9.144-3.722-13.252-3.575-6.957,1.577-4.792,2.448,8.967-.651,12.572,1.773,6.459,3.845.5,5.789-17.014,2.406-19.739-2.048Z" transform="translate(-1353.403 -614.955)" fill="#d2e3fc"/>
  <path id="Trazado_110547" data-name="Trazado 110547" d="M1640.2,759.48s-31.686,14.377-34.1,26.7a25.133,25.133,0,0,1-1.838,11.786l.266,2.349s2.541-8.377,4.3-9.685C1608.832,790.627,1600.3,781.125,1640.2,759.48Z" transform="translate(-1402.688 -666.593)" fill="#a4c8fc"/>
  <path id="Trazado_110548" data-name="Trazado 110548" d="M1590.865,1052.082a21.842,21.842,0,0,0-.253,17.322l1.266-.5s-2.436-10.181-.37-15.676S1590.865,1052.082,1590.865,1052.082Z" transform="translate(-1389.283 -920.712)" fill="#a4c8fc"/>
  <path id="Trazado_110549" data-name="Trazado 110549" d="M1127.109,495.156c5.118,5.446,2.456,16.265,2.456,16.265s-10.962,1.986-16.085-3.461-2.456-16.265-2.456-16.265S1121.99,489.709,1127.109,495.156Z" transform="translate(-971.306 -432.415)" fill="#a4c8fc"/>
  <path id="Trazado_110550" data-name="Trazado 110550" d="M1131.921,495.156c5.118,5.446,2.456,16.265,2.456,16.265L1115.84,491.7S1126.8,489.709,1131.921,495.156Z" transform="translate(-976.118 -432.415)" fill="#d2e3fc"/>
  <path id="Trazado_110551" data-name="Trazado 110551" d="M1700.27,622.9c-2.671,3.094-8.706,2.262-8.706,2.262s-1.7-5.849.966-8.943,8.707-2.262,8.707-2.262S1702.945,619.807,1700.27,622.9Z" transform="translate(-1478.458 -539.413)" fill="#a4c8fc"/>
  <path id="Trazado_110552" data-name="Trazado 110552" d="M1488.124,868.721c-1.791.5-3.864-1.34-3.864-1.34s.831-2.642,2.622-3.138,3.863,1.34,3.863,1.34S1489.914,868.225,1488.124,868.721Z" transform="translate(-1297.877 -758.013)" fill="#a4c8fc"/>
  <path id="Trazado_110553" data-name="Trazado 110553" d="M1212.659,415.945c1.227,2.913-1.418,6.8-1.418,6.8s-4.634-.824-5.861-3.735,1.417-6.8,1.417-6.8S1211.432,413.035,1212.659,415.945Z" transform="translate(-1054.033 -363.306)" fill="#a4c8fc"/>
  <circle id="Elipse_4325" data-name="Elipse 4325" cx="27.314" cy="27.314" r="27.314" transform="translate(144.648 77.244) rotate(-45)" fill="#e2810e"/>
  <circle id="Elipse_4326" data-name="Elipse 4326" cx="27.314" cy="27.314" r="27.314" transform="translate(142.283 77.542) rotate(-45)" fill="#ffb93e"/>
  <path id="Trazado_110554" data-name="Trazado 110554" d="M1272.888,493.96a24.883,24.883,0,1,1,16.55-9.429A24.883,24.883,0,0,1,1272.888,493.96Zm-6.031-47.908A23.4,23.4,0,1,0,1293,466.346,23.426,23.426,0,0,0,1266.857,446.052Z" transform="translate(-1088.829 -391.408)" fill="#ffa412"/>
  <path id="Trazado_110555" data-name="Trazado 110555" d="M1375.2,520.6a4.1,4.1,0,0,0-.24-1.426,3,3,0,0,0-.76-1.115,5.7,5.7,0,0,0-1.348-.917,15.048,15.048,0,0,0-2.011-.816,38.971,38.971,0,0,1-3.708-1.469,12.352,12.352,0,0,1-2.86-1.784,7.28,7.28,0,0,1-1.857-2.38,8.229,8.229,0,0,1-.118-6.254,6.951,6.951,0,0,1,1.646-2.366,8.615,8.615,0,0,1,2.575-1.646,11.5,11.5,0,0,1,3.371-.826l-.03-4.13,3.325-.024.03,4.188a10.331,10.331,0,0,1,3.249.922,7.808,7.808,0,0,1,4.073,4.518,10.393,10.393,0,0,1,.576,3.479l-6.006.043a5.054,5.054,0,0,0-1.052-3.458,3.509,3.509,0,0,0-2.762-1.128,4.48,4.48,0,0,0-1.608.272,3.041,3.041,0,0,0-1.106.722,2.827,2.827,0,0,0-.633,1.077,4.146,4.146,0,0,0-.2,1.334,3.766,3.766,0,0,0,.217,1.291,2.805,2.805,0,0,0,.724,1.066,5.679,5.679,0,0,0,1.358.917,19.14,19.14,0,0,0,2.095.887q2.019.74,3.673,1.52a12.626,12.626,0,0,1,2.85,1.8,7.038,7.038,0,0,1,2.533,5.628,7.541,7.541,0,0,1-.57,3.054,6.84,6.84,0,0,1-1.656,2.348,8.327,8.327,0,0,1-2.6,1.6,12.433,12.433,0,0,1-3.392.8l.028,3.841-3.3.023-.027-3.821a13.939,13.939,0,0,1-3.341-.73,8.8,8.8,0,0,1-2.869-1.646,7.905,7.905,0,0,1-2.014-2.736,9.64,9.64,0,0,1-.778-3.97l6.006-.043a5.885,5.885,0,0,0,.4,2.28,3.825,3.825,0,0,0,1.04,1.46,3.711,3.711,0,0,0,1.47.76,6.365,6.365,0,0,0,1.674.21,5.331,5.331,0,0,0,1.712-.263,3.571,3.571,0,0,0,1.231-.7,2.833,2.833,0,0,0,.741-1.057,3.439,3.439,0,0,0,.246-1.331Z" transform="translate(-1189.949 -436.003)" fill="#ffa412"/>
  <path id="Trazado_110556" data-name="Trazado 110556" d="M1333.619,1165.15l0,.022-.545,8.368-2.021,31.065h-37.8l-2.226-30.64-.613-8.445-.027-.37Z" transform="translate(-1128.552 -1020.885)" fill="#739af0"/>
  <path id="Trazado_110557" data-name="Trazado 110557" d="M1333.8,1165.32l-.544,8.368a66.208,66.208,0,0,0-21.072-3.377c-13.022,0-20.98,3.8-20.98,3.8l-.613-8.445Z" transform="translate(-1128.736 -1021.033)" fill="#618dd8"/>
  <path id="Trazado_110558" data-name="Trazado 110558" d="M1321.849,1163.258h-45.924l-.526-5.338h47.032Z" transform="translate(-1115.469 -1014.57)" fill="#739af0"/>
  <path id="Trazado_110559" data-name="Trazado 110559" d="M1342.706,1476.941h-39.2l-.448-1.86H1343.2Z" transform="translate(-1139.626 -1291.562)" fill="#618dd8"/>
  <path id="Trazado_110560" data-name="Trazado 110560" d="M1079.61,1222.712a22.623,22.623,0,0,1,1.013-9.843,18.427,18.427,0,0,0,.733-9.068h1.221a39.9,39.9,0,0,1-1.184,9.814c-1.17,5.014,1.013,9.1.55,9.1Z" transform="translate(-944.337 -1054.64)" fill="#a4c8fc"/>
  <path id="Trazado_110561" data-name="Trazado 110561" d="M1099.608,1220.909c0-.025.589-3.369,2.153-3.749h0a2.914,2.914,0,0,0-2.09,1.527c-.37.694-.241.886-.253.919Z" transform="translate(-961.766 -1066.308)" fill="#a4c8fc"/>
  <path id="Trazado_110562" data-name="Trazado 110562" d="M938.812,1184.053a9.723,9.723,0,0,0-3.4-3.314s.356,5.635-.7,5.636.056-6.307.056-6.307-4.813-3.1-6.847-3.148c0,0,2.51,5.769,1.489,5.512s-3.906-6.14-3.906-6.14-5.128-1.621-6.354,1.386-.058,4.728.7,5.019,5.75.842,5.54,1.474-3.706,1.251-5.513.436c0,0,1.441,5.375,4.193,5.446s3.8-1.5,5.5-1.425,2.875.684,1.977,1.034-3.711-.308-5.214.681-2.693,1.564-.23,2.395a11.809,11.809,0,0,0,8.165-.76s1.477-.024,2.192,6.829a31.8,31.8,0,0,1-.315,6.5l.938-.081a33.177,33.177,0,0,0-1.327-14.058S940.624,1188.031,938.812,1184.053Z" transform="translate(-803.872 -1030.233)" fill="#a4c8fc"/>
  <path id="Trazado_110563" data-name="Trazado 110563" d="M1113.018,1210.421c-.805.224-1.738-.6-1.738-.6s.38-1.188,1.179-1.411,1.738.6,1.738.6S1113.826,1210.2,1113.018,1210.421Z" transform="translate(-972.136 -1058.63)" fill="#a4c8fc"/>
  <path id="Trazado_110564" data-name="Trazado 110564" d="M1178.966,1075.835c-2.812,1.842-2.786,6.853-2.786,6.853s4.583,2.026,7.4.182,2.786-6.853,2.786-6.853S1181.779,1073.993,1178.966,1075.835Z" transform="translate(-1028.816 -942.206)" fill="#a4c8fc"/>
  <path id="Trazado_110565" data-name="Trazado 110565" d="M1178.966,1075.835c-2.812,1.842-2.786,6.853-2.786,6.853l10.185-6.671S1181.779,1073.993,1178.966,1075.835Z" transform="translate(-1028.816 -942.206)" fill="#d2e3fc"/>
  <path id="Trazado_110566" data-name="Trazado 110566" d="M1194.078,1036.923c-.844,1.14-.1,3.126-.1,3.126s2.114.127,2.957-1.013.1-3.126.1-3.126S1194.922,1035.781,1194.078,1036.923Z" transform="translate(-1044.096 -908.009)" fill="#a4c8fc"/>
  <circle id="Elipse_4327" data-name="Elipse 4327" cx="12.286" cy="12.286" r="12.286" transform="translate(120.373 136.738) rotate(-45)" fill="#e2810e"/>
  <ellipse id="Elipse_4328" data-name="Elipse 4328" cx="12.286" cy="12.286" rx="12.286" ry="12.286" transform="translate(123.615 125.423) rotate(-3.73)" fill="#ffb93e"/>
  <path id="Trazado_110567" data-name="Trazado 110567" d="M1016.2,1041.821a11.195,11.195,0,1,1,7.443-4.242,11.195,11.195,0,0,1-7.443,4.242Zm-2.713-21.55a10.526,10.526,0,1,0,11.758,9.129A10.526,10.526,0,0,0,1013.485,1020.271Z" transform="translate(-878.096 -893.698)" fill="#ffa412"/>
  <path id="Trazado_110568" data-name="Trazado 110568" d="M1062.3,1053.781a1.87,1.87,0,0,0-.108-.642,1.342,1.342,0,0,0-.341-.507,2.544,2.544,0,0,0-.605-.413,6.728,6.728,0,0,0-.9-.367,17.154,17.154,0,0,1-1.669-.661,5.558,5.558,0,0,1-1.286-.8,3.269,3.269,0,0,1-.835-1.071,3.7,3.7,0,0,1-.053-2.813,3.116,3.116,0,0,1,.74-1.064,3.888,3.888,0,0,1,1.159-.742,5.171,5.171,0,0,1,1.52-.371l-.013-1.858,1.494-.01.014,1.883a4.643,4.643,0,0,1,1.462.415,3.517,3.517,0,0,1,1.831,2.026,4.667,4.667,0,0,1,.253,1.565l-2.7.019a2.279,2.279,0,0,0-.474-1.555,1.584,1.584,0,0,0-1.243-.507,2.017,2.017,0,0,0-.723.127,1.374,1.374,0,0,0-.5.324,1.285,1.285,0,0,0-.286.485,1.844,1.844,0,0,0-.089.6,1.715,1.715,0,0,0,.1.581,1.266,1.266,0,0,0,.325.48,2.55,2.55,0,0,0,.61.412,8.6,8.6,0,0,0,.942.4q.908.331,1.654.683a5.612,5.612,0,0,1,1.282.811,3.51,3.51,0,0,1,.887,3.906,3.051,3.051,0,0,1-.746,1.055,3.736,3.736,0,0,1-1.168.721,5.586,5.586,0,0,1-1.52.358l.013,1.728-1.487.01-.013-1.719a6.224,6.224,0,0,1-1.5-.328,3.966,3.966,0,0,1-1.291-.741,3.555,3.555,0,0,1-.906-1.231,4.331,4.331,0,0,1-.35-1.786l2.7-.02a2.658,2.658,0,0,0,.18,1.028,1.738,1.738,0,0,0,.467.656,1.693,1.693,0,0,0,.661.343,2.854,2.854,0,0,0,.754.094,2.429,2.429,0,0,0,.77-.118,1.6,1.6,0,0,0,.553-.317,1.269,1.269,0,0,0,.333-.476A1.556,1.556,0,0,0,1062.3,1053.781Z" transform="translate(-923.66 -913.734)" fill="#ffa412"/>
  <path id="Trazado_110569" data-name="Trazado 110569" d="M1043.54,1343.75v.01l-.245,3.764-.909,13.973h-17.005l-1-13.782-.276-3.8-.013-.167Z" transform="translate(-895.988 -1176.865)" fill="#b4c9f7"/>
  <path id="Trazado_110570" data-name="Trazado 110570" d="M1043.626,1343.83l-.244,3.764a29.769,29.769,0,0,0-9.48-1.52,23.684,23.684,0,0,0-9.436,1.71l-.276-3.8Z" transform="translate(-896.076 -1176.935)" fill="#9bb8ea"/>
  <path id="Trazado_110571" data-name="Trazado 110571" d="M1038.252,1342.9H1017.6l-.236-2.4h21.155Z" transform="translate(-890.111 -1174.026)" fill="#b4c9f7"/>
  <path id="Trazado_110572" data-name="Trazado 110572" d="M1047.633,1484H1030l-.2-.837h18.057Z" transform="translate(-900.975 -1298.618)" fill="#b4c9f7"/>
  <path id="Trazado_110573" data-name="Trazado 110573" d="M1699.523,921.466s-1.943-.38-2.386,0-2.551,2.519-2.1,3.221,2.613-.581,3.062-.7,1.707-.612,1.707-.612Z" transform="translate(-1481.904 -807.916)" fill="#ffb27d"/>
  <path id="Trazado_110574" data-name="Trazado 110574" d="M1893.81,1018.682l2.082.775s9.042-12.539,10.155-23.574a16.9,16.9,0,0,0-.3-5.64s.089-.507.243-1.393c.071-.417.16-.918.253-1.493.294-1.683.7-3.988,1.161-6.612,1.064-6.039,2.442-13.757,3.513-19.432l-.561-.18-6.069-1.958-1.254-3.983L1898.52,954s-1.013,1.974-1.912,11.3c-.167,1.224-.318,2.574-.432,4.036a79.812,79.812,0,0,0,.431,16.338q.309,2.432.793,5.015a22.387,22.387,0,0,1,.173,4.952C1897.127,1004.661,1893.81,1018.682,1893.81,1018.682Z" transform="translate(-1655.557 -836.477)" fill="#2b478b"/>
  <path id="Trazado_110575" data-name="Trazado 110575" d="M1912.52,969.337l9.813,19.5c.071-.417.16-.918.253-1.493.294-1.683.7-3.988,1.162-6.612,1.064-6.039,2.442-13.757,3.513-19.432l-.561-.18-6.069-1.958-1.254-3.983L1914.86,954s-1.013,1.974-1.912,11.3C1912.785,966.525,1912.634,967.875,1912.52,969.337Z" transform="translate(-1671.897 -836.477)" fill="#233862"/>
  <path id="Trazado_110576" data-name="Trazado 110576" d="M1946.61,940.833l.227-1.948c3.8,1.013,13.975-2.826,13.975-2.826s3.687,3.241,3.2,11.01c-.237,3.792-.669,19.9-1.118,24.673-.163,1.728-.307,2.957-.365,3.449a.674.674,0,0,0,.111.422,22.45,22.45,0,0,1,1.663,3.5c4.425,11.79-.681,26.309-.681,26.309l-1.325-.534s-2.907-16.148-5.267-23.291a13.932,13.932,0,0,0-1.14-2.731,30.861,30.861,0,0,1-2.843-7.583,186.525,186.525,0,0,1-3.825-20.117C1949.106,951.171,1946.61,940.833,1946.61,940.833Z" transform="translate(-1701.67 -820.809)" fill="#2b478b"/>
  <path id="Trazado_110577" data-name="Trazado 110577" d="M1730.89,773.956l.284,1.9s.127,0,.346-.015c.694-.048,2.379-.142,4.286-.347,2.866-.284,6.269-.788,7.625-1.622,2.063-1.266,5.446-5.12,7.656-8.98a2.423,2.423,0,0,0,.157-.284,13.846,13.846,0,0,0,2.016-5.7,8.115,8.115,0,0,0-.267-2.584,6.59,6.59,0,0,0-1.167-2.33,1.129,1.129,0,0,0-.22-.269,5.431,5.431,0,0,0-1.5-1.275c-.38-.158-.788.032-1.213.488v.016a7.205,7.205,0,0,0-1.087,1.606c-.017.016-.032.032-.032.048-.078.142-.158.3-.253.472a.383.383,0,0,0-.063.11q-.261.543-.521,1.14c-1.937,4.223-4,10.618-5.718,12.525-.74.819-4.128,2.425-6.822,3.624C1732.466,773.327,1730.89,773.956,1730.89,773.956Z" transform="translate(-1513.271 -660.406)" fill="#ffb27d"/>
  <path id="Trazado_110578" data-name="Trazado 110578" d="M1889.2,689.532a11.859,11.859,0,0,0,4.383,1.026c6.543.358,8.029-5.378,8.3-9.185a5.508,5.508,0,0,0-2.245-.284c-.464.027-.947.073-1.348.127-.8-.418-2.238-2.449-3.069-5.846l-.282.127-4.722,2.22s.507,1.536.873,3.007a5.985,5.985,0,0,1,.323,2.572c-.372.152-.6.247-.6.247h0A32.344,32.344,0,0,0,1889.2,689.532Z" transform="translate(-1651.531 -593.136)" fill="#ffb27d"/>
  <path id="Trazado_110579" data-name="Trazado 110579" d="M1872.472,732.4c.049.127.1.253.162.389,1.658,3.569,4.725,18.353,4.725,18.353-.437,2.66,19.975-.522,20.029-2.941.719-2.567-2.551-6.69-4.395-8.758a5.887,5.887,0,0,1-1.455-3.274,83.89,83.89,0,0,1-.253-8.6h0c-.361-.267-.709-.507-1.033-.747a9.245,9.245,0,0,1-1.258-1.044,1.914,1.914,0,0,1-.6-1.188,6.263,6.263,0,0,1,.025-1c.015-.157.035-.315.059-.474a13.486,13.486,0,0,1,.949-3.166c-1.757-.711-4.879-.288-4.879-.288v.457c.01,1.14,0,4.069-.365,4.623-.457.69-8.82,3.713-9.262,2.777s.76-5.236.8-5.4h0a13.073,13.073,0,0,0-3.8,2.026C1873.611,725.238,1871.17,728.942,1872.472,732.4Z" transform="translate(-1636.439 -631.715)" fill="#f99746"/>
  <path id="Trazado_110580" data-name="Trazado 110580" d="M1868.875,553.451c.01-.284.229-3.341,4.885-3.5,0,0-2.289.274-2.685,1.279,0,0,1.559-1.244,2.829-.844s2.015,2.624,2.026,3.356-.7,3.09-1.5,3.293a2.456,2.456,0,0,1-.975,0,11.038,11.038,0,0,1,.626,1.117c1.858,3.813-.058,7.541-1.631,7.129-1.013-.265-1.294,1.456-1.294,1.456l-9.8-7.933S1864.946,551.349,1868.875,553.451Z" transform="translate(-1627.208 -483.601)" fill="#2c3a64"/>
  <path id="Trazado_110581" data-name="Trazado 110581" d="M1897.22,678.6s.507,1.534.873,3.005c2.76-.77,3.6-3.673,3.849-5.226Z" transform="translate(-1658.535 -594.018)" fill="#ed985f"/>
  <path id="Trazado_110582" data-name="Trazado 110582" d="M1863.652,623.936s6.6-1.529,5.588-5.626-.846-7.053-5.1-6.25-4.686,2.567-4.686,4.017S1861.91,624.222,1863.652,623.936Z" transform="translate(-1625.549 -537.729)" fill="#ffb27d"/>
  <path id="Trazado_110583" data-name="Trazado 110583" d="M1854.531,608.618c.709-1.484,1.545-1.4,2.067-1.14a4.736,4.736,0,0,1,6.145-.524,8.059,8.059,0,0,0,3.71,3.984s-1.013,1.039-3.954,1.013a4.784,4.784,0,0,1-2.622-.987,15.8,15.8,0,0,0,3.449,2.567c-3.68-.7-6.148-4.965-6.4-5.417a5.3,5.3,0,0,0-.958,2.268c-.068,1.123.318,3.308-.325,3.39C1855.636,613.77,1853.466,610.846,1854.531,608.618Z" transform="translate(-1620.996 -532.596)" fill="#2c3a64"/>
  <path id="Trazado_110584" data-name="Trazado 110584" d="M1859.338,755.86s-1.591,2.774-1.828,3.487a3.312,3.312,0,0,1,2.894,1.506S1860.6,756.234,1859.338,755.86Z" transform="translate(-1623.854 -663.432)" fill="#f99746"/>
  <path id="Trazado_110585" data-name="Trazado 110585" d="M1945.767,789.187c4.025-.042,7.434-4.223,9.518-7.565a5.826,5.826,0,0,1-.836-2.441,83.848,83.848,0,0,1-.253-8.6h0c-.361-.267-.709-.507-1.034-.747a9.24,9.24,0,0,1-1.258-1.044C1948.606,774.363,1940.307,789.245,1945.767,789.187Z" transform="translate(-1699.35 -674.724)" fill="#ed7d2b"/>
  <path id="Trazado_110586" data-name="Trazado 110586" d="M1838.11,750.818l.551,2.016s.693-.127,1.8-.332c.331-.062.519-.11.519-.11.886-.172,1.938-.409,3.088-.661h.016c1.969-.472,4.18-1.04,6.034-1.671a16.579,16.579,0,0,0,3.213-1.432,1.981,1.981,0,0,0,.22-.158c1.844-1.339,4.034-5.278,5.735-9.5.237-.583.457-1.166.677-1.733a43.154,43.154,0,0,0,1.8-5.987,17.008,17.008,0,0,0,.426-2.852,6.939,6.939,0,0,0,.015-.8c-.032-4.568-2.3-5.193-2.3-5.193-.047-.015-.095-.03-.157-.047-.394-.063-.8.205-1.23.724a14.42,14.42,0,0,0-1.686,2.978c-.9,2.026-1.843,4.663-2.724,7.279-.489,1.434-.961,2.867-1.434,4.19-.268.8-.536,1.56-.788,2.253a21.773,21.773,0,0,1-1.323,3.073,7.653,7.653,0,0,1-1.938,1.748,70.348,70.348,0,0,1-6.238,3.876c-.886.507-1.717.961-2.406,1.339C1838.856,750.42,1838.11,750.818,1838.11,750.818Z" transform="translate(-1606.912 -634.164)" fill="#ffb27d"/>
  <path id="Trazado_110587" data-name="Trazado 110587" d="M1985.92,726.077a5.925,5.925,0,0,1,5.373,1.532c-.038-4.559-2.309-5.185-2.309-5.185C1988.071,722.046,1987.012,723.628,1985.92,726.077Z" transform="translate(-1736.001 -634.182)" fill="#f99746"/>
  <path id="Trazado_110588" data-name="Trazado 110588" d="M2020.12,1451.56H2030.6a5.73,5.73,0,0,0-.3-2.81c-.524-1.164-1.346-1.692-1.149-3.1a3.78,3.78,0,0,1-3.269,1.25,11.48,11.48,0,0,1-1.819,2.358C2023.386,1449.747,2020.332,1449.575,2020.12,1451.56Z" transform="translate(-1765.87 -1265.859)" fill="#233862"/>
  <path id="Trazado_110589" data-name="Trazado 110589" d="M1842.38,1454.8h10.484a4.363,4.363,0,0,0-.3-2.81,2.015,2.015,0,0,1,.076-2.414,4.079,4.079,0,0,1-1.773.333,3.7,3.7,0,0,1-1.559-.548,37.916,37.916,0,0,1-2.987,3.138C1845.646,1452.987,1842.585,1452.815,1842.38,1454.8Z" transform="translate(-1610.641 -1269.099)" fill="#233862"/>
  <path id="Trazado_110590" data-name="Trazado 110590" d="M1584.411,936.8l-2.491-6.079a1.684,1.684,0,0,0-2-.982,10.373,10.373,0,0,0-3.255-3.692,7.735,7.735,0,0,0-4.387-1.444,6.213,6.213,0,0,0-2.341.464c-3.546,1.451-5.131,5.929-3.831,10.323l-.194.079s-.605-.042-1.621-.042c-3.208,0-10.5.427-15.619,3.981a1.409,1.409,0,0,0-.334.865,1.367,1.367,0,0,0,.108.574s8.215-5.319,15.812.147q.7.507,1.359.932l.681,1.663a5.433,5.433,0,0,0,7.068,2.958l6.958-2.852,1.449-.594A4.838,4.838,0,0,0,1584.411,936.8Zm-13.49-4.927-2.833,1.163a1.66,1.66,0,0,0-.978,1.939l-.3.127c-1.154-4,.253-8.042,3.42-9.339a5.356,5.356,0,0,1,1.363-.36,6.6,6.6,0,0,1,4.339,1.051,9.54,9.54,0,0,1,3.293,3.563l-.418.172a1.662,1.662,0,0,0-2.056-.7l-2.836,1.163a1.4,1.4,0,0,0-1.825-.76l-.393.161A1.4,1.4,0,0,0,1570.922,931.869Z" transform="translate(-1353.837 -810.8)" fill="#c94c43"/>
  <path id="Trazado_110591" data-name="Trazado 110591" d="M1565.645,1032.058q-.661-.431-1.359-.932c-7.6-5.466-15.812-.147-15.812-.147a1.373,1.373,0,0,1-.108-.574,15.84,15.84,0,0,1,10.8-2.415C1565.417,1029,1566.557,1029.87,1565.645,1032.058Z" transform="translate(-1353.863 -900.942)" fill="#b23b38"/>
  <path id="Trazado_110592" data-name="Trazado 110592" d="M1742.065,943.005l-1.449.594c2.173-1.187-.519-6.206-2.094-9.51s-3.955-1.8-3.955-1.8a1.9,1.9,0,0,0-1.716-1.05,1.322,1.322,0,0,0-.876-1.284l.393-.161a1.4,1.4,0,0,1,1.825.76l2.836-1.163a1.662,1.662,0,0,1,2.056.7l.418-.172a9.54,9.54,0,0,0-3.293-3.563,6.6,6.6,0,0,0-4.339-1.051,3.068,3.068,0,0,0,.693-.8,7.764,7.764,0,0,1,4.387,1.444,10.373,10.373,0,0,1,3.251,3.7,1.685,1.685,0,0,1,2,.982l2.491,6.079A4.838,4.838,0,0,1,1742.065,943.005Z" transform="translate(-1514.127 -810.713)" fill="#b23b38"/>
  <path id="Trazado_110593" data-name="Trazado 110593" d="M1781.361,941.958c1.013.426,2.427,1.906,4.695,1.013a35.209,35.209,0,0,1,4.18-1.277c.331-.062.519-.11.519-.11l-.9-2.614a.484.484,0,0,1-.11.03c-.583.127-3.546.76-4.931.442-1.559-.362-4.179,1.512-4.179,1.512S1780.353,941.547,1781.361,941.958Z" transform="translate(-1556.685 -823.351)" fill="#ffb27d"/>
  <path id="Trazado_110594" data-name="Trazado 110594" d="M1538.257,1060.815c0-.946-1.714-3.865-1.714-3.865s-1.714,2.913-1.714,3.865a1.714,1.714,0,1,0,3.427,0Z" transform="translate(-1342.042 -926.388)" fill="#afcdfb"/>
  <path id="Trazado_110595" data-name="Trazado 110595" d="M1835.322,191.525l-2.514.547-.059.014a.612.612,0,0,0-.477.662l.227,2.138a.568.568,0,0,1,0,.1.6.6,0,0,1-.4.528,10.721,10.721,0,0,0-3.635,2.181.667.667,0,0,1-.143.1.626.626,0,0,1-.61-.042l-1.488-1a.623.623,0,0,0-.647-.023.7.7,0,0,0-.166.138l-1.692,2.009a.633.633,0,0,0,.038.847l1.687,1.686a.607.607,0,0,1,.142.633c-.111.322-.21.645-.292.979A10.641,10.641,0,0,0,1825,204.9h0a.617.617,0,0,1-.434.553l-2.313.722-.115.037a.6.6,0,0,0-.414.708l.558,2.57a.633.633,0,0,0,.683.493l2.377-.253a.61.61,0,0,1,.624.355,10.774,10.774,0,0,0,1.844,2.757.616.616,0,0,1,.054.76l-1.179,1.763a.626.626,0,0,0,.118.83l2.016,1.7a.6.6,0,0,0,.809-.035l1.985-1.982a.633.633,0,0,1,.642-.151c.279.094.562.177.852.253a10.91,10.91,0,0,0,1.633.276.6.6,0,0,1,.526.422l.859,2.786a.616.616,0,0,0,.718.419l2.58-.56a.618.618,0,0,0,.481-.574.512.512,0,0,0,0-.089l-.279-2.639a.611.611,0,0,1,.307-.6.347.347,0,0,1,.057-.03,1.563,1.563,0,0,0,.175-.082,10.682,10.682,0,0,0,1.966-1.173.6.6,0,0,1,.7-.015l1.865,1.25a.626.626,0,0,0,.827-.119l.38-.446,1.3-1.57a.617.617,0,0,0-.036-.833l-1.663-1.66a.593.593,0,0,1-.119-.673,10.8,10.8,0,0,0,.921-3.388l.485-.149,1.992-.618a.6.6,0,0,0,.424-.547.516.516,0,0,0-.015-.157l-.557-2.589a.619.619,0,0,0-.666-.479l-1.625.175a.615.615,0,0,1-.633-.393,10.743,10.743,0,0,0-1.663-2.966.6.6,0,0,1-.03-.714l1.492-2.233a.591.591,0,0,0-.11-.78l-2.042-1.717a.6.6,0,0,0-.816.034l-2.063,2.062a.612.612,0,0,1-.676.127,10.414,10.414,0,0,0-1.563-.515c-.292-.072-.585-.133-.878-.18a.621.621,0,0,1-.489-.423l-.824-2.66A.623.623,0,0,0,1835.322,191.525Zm-5.055,12.05a6.645,6.645,0,0,1,1.14-1.943,3.919,3.919,0,0,1,.4-.4,5.824,5.824,0,0,1,8.264,8.169c-.059.073-.118.147-.18.219a5.63,5.63,0,0,1-2.631,1.586,7.159,7.159,0,0,1-1.325.168A5.783,5.783,0,0,1,1830.267,203.575Z" transform="translate(-1592.586 -170.559)" fill="#dfedfb"/>
  <path id="Trazado_110596" data-name="Trazado 110596" d="M2068.317,260.422l-3.957.358-.094.009a.947.947,0,0,0-.86.923l-.062,3.317a.847.847,0,0,1-.017.161.931.931,0,0,1-.714.732,16.545,16.545,0,0,0-5.986,2.646,1.025,1.025,0,0,1-.238.12.962.962,0,0,1-.928-.181l-2.086-1.82a.962.962,0,0,0-.988-.158,1.027,1.027,0,0,0-.28.18l-2.979,2.753a.966.966,0,0,0-.1,1.306l2.262,2.905a.936.936,0,0,1,.095,1c-.232.47-.446.947-.633,1.443a16.476,16.476,0,0,0-.806,2.814h0a.953.953,0,0,1-.774.76l-3.683.655-.185.034a.934.934,0,0,0-.769,1l.36,4.06a.976.976,0,0,0,.95.887l3.692.07a.943.943,0,0,1,.886.665,16.621,16.621,0,0,0,2.3,4.576.95.95,0,0,1-.062,1.17l-2.153,2.477a.967.967,0,0,0,.022,1.293l2.763,2.993a.923.923,0,0,0,1.246.1l3.42-2.66a.971.971,0,0,1,1.013-.109q.612.3,1.258.545a16.716,16.716,0,0,0,2.448.735.921.921,0,0,1,.724.748l.781,4.433a.95.95,0,0,0,1.013.78l4.061-.362a.957.957,0,0,0,.847-.788.677.677,0,0,0,.011-.137l.08-4.1a.938.938,0,0,1,.584-.864.489.489,0,0,1,.094-.034,2.944,2.944,0,0,0,.282-.094,16.493,16.493,0,0,0,3.237-1.42.917.917,0,0,1,1.075.111l2.618,2.272a.965.965,0,0,0,1.289-.024l.664-.61,2.309-2.14a.95.95,0,0,0,.106-1.284l-2.229-2.862a.92.92,0,0,1-.053-1.054,16.768,16.768,0,0,0,1.379-2.786,16.572,16.572,0,0,0,.68-2.228l.773-.135,3.166-.565a.919.919,0,0,0,.76-.76.821.821,0,0,0,.008-.243l-.357-4.073a.959.959,0,0,0-.929-.861l-2.523-.043a.949.949,0,0,1-.9-.724,16.654,16.654,0,0,0-1.979-4.863.92.92,0,0,1,.09-1.1l2.722-3.13a.917.917,0,0,0-.02-1.217l-2.8-3.022a.926.926,0,0,0-1.254-.105l-3.558,2.764a.941.941,0,0,1-1.06.071,16.072,16.072,0,0,0-2.3-1.089q-.652-.253-1.311-.445a.952.952,0,0,1-.667-.74l-.751-4.245A.965.965,0,0,0,2068.317,260.422Zm-10.05,17.492a10.223,10.223,0,0,1,2.119-2.757,5.741,5.741,0,0,1,.683-.543,8.992,8.992,0,0,1,11.094,14.1c-.105.1-.209.2-.318.3a8.715,8.715,0,0,1-4.333,1.925,11.1,11.1,0,0,1-2.062,0A8.921,8.921,0,0,1,2058.267,277.914Z" transform="translate(-1787.187 -230.739)" fill="#cde3fd"/>
</svg>
