<svg xmlns="http://www.w3.org/2000/svg" width="364.884" height="249.978" viewBox="0 0 364.884 249.978">
  <g id="Investment-6-01" transform="translate(-20.181 -8.944)">
    <path id="Trazado_110688" data-name="Trazado 110688" d="M351.445,258.192c-7.981,0-43.961.009-89.613,0-12.606,0-25.954,0-39.643-.011-10.391,0-20.985-.009-31.614-.017l-18-.011c-80.349-.063-93.154.836-105.906.038-23.722,0-84.482-92.2-12.15-152.723C82.6,81.963,46.561,50.735,93.2,27.282c30.679-15.423,52.965,11.673,90,1.912,27.36-7.213,32.925-24.128,87.019-19.441,52.018,4.507,53.066,47.218,36.562,82.495-10.412,22.268,40.667,15.391,64.289,48.623C411.391,197.584,351.8,257.35,351.445,258.192Z" transform="translate(0 0)" fill="#dfecf9"/>
    <path id="Trazado_110689" data-name="Trazado 110689" d="M1924.52,1244.207a27.046,27.046,0,0,0,5.372-.766c2.343-.675,4.113-3.062,5.979-2.923,3.905.29,11.334-.924,10.6.453s-5.22,1.021-5.748,1.838,6.386,2.9,8.387,3.27,9.47,1.207,9.214,2.2-10.216,5.634-16.1,4.394-16.448-3.356-16.448-3.356Z" transform="translate(-1616.981 -1045.548)" fill="#ffb27d"/>
    <path id="Trazado_110690" data-name="Trazado 110690" d="M993.365,264.555c-8.648-4.488-15.577-1.667-15.577-1.667-26.464-3.108-34.184,27.754-33.825,38.374s2.989,19.088-9.519,30.087c-14.907,13.108-11.439,30.43-3.709,36.567a39.909,39.909,0,0,0,12.373,6.178,96.219,96.219,0,0,0,16.934,3.644c2.787.365,5.244.593,7.128.733h0l.868.06h0c1.9.128,3.028.151,3.028.151.217-11.4,5.25-17.229,11.547-19.864a22.837,22.837,0,0,1,4.542-1.349h0a33.681,33.681,0,0,1,12.5.164c5.306,1.034,9.054,3,8.506,4.059a30.37,30.37,0,0,0,8.162.952,14.046,14.046,0,0,0,8.311-2.7C1044.031,344.992,1009.989,273.178,993.365,264.555Z" transform="translate(-767.521 -214.882)" fill="#163560"/>
    <path id="Trazado_110691" data-name="Trazado 110691" d="M1395.42,747s19.962,2.85,26.873,12.191c8.732,11.8,17.322,45.079,23.572,51.034s32.378,14.841,32.378,14.841.964,5.734-2.032,7.48c-5.075,2.965-30.7,1.675-45.571-6.31-14.266-7.662-24.37-24.419-24.37-24.419Z" transform="translate(-1167.72 -626.686)" fill="#8c9df4"/>
    <path id="Trazado_110692" data-name="Trazado 110692" d="M521.667,1002.967s-4.171-7.8-8.056-8.3-10.92-3.169-10.474-1.675,4.91,2.045,5.265,2.95-6.837,1.565-8.871,1.527-6.79-.614-6.733.409,8.117,5.974,14.125,5.936,13.164,2.936,13.164,2.936Z" transform="translate(-401.299 -835.178)" fill="#ffb27d"/>
    <path id="Trazado_110693" data-name="Trazado 110693" d="M734.374,803.183a72.749,72.749,0,0,1-8.409,10.519c-6.4,6.679-16.012,14.193-27.288,14.829a27.741,27.741,0,0,1-15.064-3.865H683.6c-12.977-7.22-21.88-21.934-21.88-21.934-1.8-6.713,1.485-10.623,1.485-10.623s27.677,8.26,30.464,7.394c11.221-3.471,19.064-32.835,25.7-42.218,5.56-7.871,24.981-10.285,24.981-10.285Z" transform="translate(-544.274 -626.686)" fill="#8c9df4"/>
    <path id="Trazado_110694" data-name="Trazado 110694" d="M852.2,1104.826c-6.4,6.679-16.012,14.193-27.288,14.828a27.74,27.74,0,0,1-15.064-3.864c.522.118,13.867,3.006,20.117-6.132,6.375-9.322,13.719-24.379,21.4-18.444C854.689,1093.782,854.022,1099.342,852.2,1104.826Z" transform="translate(-670.511 -917.816)" fill="#6f84dd"/>
    <path id="Trazado_110695" data-name="Trazado 110695" d="M1122.451,836.055a130.669,130.669,0,0,1-2.464,13.558c-1.768,7.545-4.829,10.507-6.155,11.482a4.2,4.2,0,0,1-.646.406l-23.636,5.793-8.308,2.036-26.209-7.828s-11.936-33.315-7.142-52.068,8.21-27.68,8.21-27.68,17.041-6.941,53.748-.786C1109.848,780.968,1127.334,797.3,1122.451,836.055Z" transform="translate(-871.667 -653.365)" fill="#8c9df4"/>
    <path id="Trazado_110696" data-name="Trazado 110696" d="M1079.689,1406.252c-10.391,0-20.985-.009-31.614-.017l-18.005-.01c2.685-13.238,8.544-32.63,11.166-41.044.8-2.593,1.3-4.141,1.3-4.141h35.113v.519c.008.906.03,3,.1,6.078C1077.919,1375.316,1078.394,1389.143,1079.689,1406.252Z" transform="translate(-857.5 -1148.07)" fill="#2b478b"/>
    <path id="Trazado_110697" data-name="Trazado 110697" d="M1213.5,1399.537c-12.606,0-25.954,0-39.643-.01-10.391,0-20.985-.009-31.614-.017-3.193-7.365.4-27.507,2.405-37.143q.171-.813.32-1.523c.033-.151.068-.3.1-.453.453-2.061.742-3.294.742-3.294l5.182-.453,1.864-.163,4.346-.376,13.852-1.207h0l.755-.065,19.87-1.714s1.1,1.473,2.8,3.964c5.529,8.074,17.427,26.826,18.838,40.549Q1213.407,1398.521,1213.5,1399.537Z" transform="translate(-951.669 -1141.345)" fill="#2b478b"/>
    <path id="Trazado_110698" data-name="Trazado 110698" d="M1372.534,1101.852a28.736,28.736,0,0,0,6.991,8.6c-.925,12.826-6.317,17.7-7.646,18.672l-.653.192-20.566,1.989s9.121-3.193,10.925-9.029-1.114-13.279,1.277-22.366C1364.965,1091.9,1366.955,1091.755,1372.534,1101.852Z" transform="translate(-1129.714 -921.39)" fill="#6f84dd"/>
    <path id="Trazado_110699" data-name="Trazado 110699" d="M1094.771,1319.77s5.209,4.121,15.559,4.329c12.361.249,42.993-3.151,42.993-3.151a25.454,25.454,0,0,1,1.307,7.818s-37.413,9.437-59.089,1.378C1095.537,1330.144,1092.744,1324.884,1094.771,1319.77Z" transform="translate(-911.812 -1113.028)" fill="#233862"/>
    <path id="Trazado_110700" data-name="Trazado 110700" d="M1156.266,1340.638a6.952,6.952,0,0,0-.267-1.754h0c-.039-.139-.082-.271-.131-.4a6.445,6.445,0,0,0-1.037-1.891,5.362,5.362,0,0,0-4.2-2.129,5.216,5.216,0,0,0-3.531,1.412c-.1.086-.19.177-.281.27a6.466,6.466,0,0,0-1.426,2.337,7.036,7.036,0,0,0-.4,2.365,6.907,6.907,0,0,0,1.088,3.763,5.916,5.916,0,0,0,1.981,1.916,5.076,5.076,0,0,0,2.565.7,5.249,5.249,0,0,0,3.708-1.575,6.745,6.745,0,0,0,1.933-4.808A1.344,1.344,0,0,0,1156.266,1340.638Zm-1.864.205c0,2.36-1.522,4.3-3.454,4.5h-.009a2.669,2.669,0,0,1-.309.018,3.169,3.169,0,0,1-1.082-.19h0a3.463,3.463,0,0,1-1.065-.625,4.8,4.8,0,0,1-1.619-3.7,5.143,5.143,0,0,1,.561-2.365,4.132,4.132,0,0,1,1.556-1.693,3.274,3.274,0,0,1,1.225-.43,3.049,3.049,0,0,1,.428-.029,3.151,3.151,0,0,1,.976.151h.009a3.848,3.848,0,0,1,2.066,1.707h0c.057.094.112.187.16.287a5.131,5.131,0,0,1,.561,2.322Z" transform="translate(-955.079 -1125.501)" fill="#6f84dd"/>
    <path id="Trazado_110701" data-name="Trazado 110701" d="M1240.289,629.663c-1.4-2.621-5.393-15.951-5.363-22.873l-1.186.2-19.95,3.347s.453,5.319.468,10.33v.124a60.938,60.938,0,0,0,.815,11.888c.394,2.432-.438,19.9,7.916,18.642C1225.967,650.871,1241.209,631.394,1240.289,629.663Z" transform="translate(-1013.498 -507.634)" fill="#ffb27d"/>
    <path id="Trazado_110702" data-name="Trazado 110702" d="M1213.78,611.447s.453,5.319.468,10.33c11.166-.267,17.065-8.9,19.482-13.677Z" transform="translate(-1013.489 -508.746)" fill="#e8945b"/>
    <path id="Trazado_110703" data-name="Trazado 110703" d="M1139.531,420.833s26.407.436,26.432-16.018,3.439-27.478-13.43-28.451-20.148,5.3-21.491,10.791S1132.66,420.3,1139.531,420.833Z" transform="translate(-942.969 -311.892)" fill="#ffb27d"/>
    <path id="Trazado_110704" data-name="Trazado 110704" d="M1195.55,355.442s7.232,19.3,18.326,22.158,15.913-.121,15.913-.121a31.428,31.428,0,0,1-10.281-18.56C1219.514,358.911,1201.005,346.253,1195.55,355.442Z" transform="translate(-998.01 -291.373)" fill="#163560"/>
    <path id="Trazado_110705" data-name="Trazado 110705" d="M1132.172,366.931s-5.363,2.005-7.57,5.917a26.6,26.6,0,0,0-3.57,15.1s-5.449-13.128.675-20.541C1128.2,359.54,1132.172,366.931,1132.172,366.931Z" transform="translate(-932.839 -301.296)" fill="#163560"/>
    <path id="Trazado_110706" data-name="Trazado 110706" d="M1259.56,754.963s17.2-18.894,17.9-26.5c0,0,3.576.068,10.134,3.471a1.076,1.076,0,0,1,.5,1.358c-1.286,3.038-5.7,12.915-9.93,15.811a31.765,31.765,0,0,1-6.5-1.726,57.458,57.458,0,0,0,3.238,4.841S1266.977,756.658,1259.56,754.963Z" transform="translate(-1052.361 -610.944)" fill="#6f84dd"/>
    <path id="Trazado_110707" data-name="Trazado 110707" d="M1170.3,726.224a85.75,85.75,0,0,0,6.407,26.819s-8.148-1.6-12.3-7.371c0,0,1.316-3.078,2.423-3.787,0,0-2.445-.987-3.988.433,0,0-1.634-10.714-.385-12.592C1162.971,728.946,1169.03,725.886,1170.3,726.224Z" transform="translate(-969.507 -609.023)" fill="#6f84dd"/>
    <path id="Trazado_110708" data-name="Trazado 110708" d="M1253.549,896.8a1.3,1.3,0,1,0-1.307,1.292A1.3,1.3,0,0,0,1253.549,896.8Z" transform="translate(-1045.051 -752.77)" fill="#233862"/>
    <path id="Trazado_110709" data-name="Trazado 110709" d="M1207,1018.647a1.3,1.3,0,1,0-1.307,1.292A1.3,1.3,0,0,0,1207,1018.647Z" transform="translate(-1005.525 -856.233)" fill="#233862"/>
    <path id="Trazado_110710" data-name="Trazado 110710" d="M1197.638,1161.655a1.3,1.3,0,1,0-.384.917A1.3,1.3,0,0,0,1197.638,1161.655Z" transform="translate(-997.577 -977.664)" fill="#233862"/>
    <rect id="Rectángulo_28022" data-name="Rectángulo 28022" width="8.289" height="9.952" rx="4.144" transform="translate(296.577 170.227)" fill="#ed7d2b"/>
    <rect id="Rectángulo_28023" data-name="Rectángulo 28023" width="8.289" height="7.353" rx="3.677" transform="translate(296.577 170.227)" fill="#f99746"/>
    <path id="Trazado_110711" data-name="Trazado 110711" d="M1934.668,987.9a21.634,21.634,0,0,1-1.723,8.477,21.906,21.906,0,0,1-20.11,13.356h-6.243a21.833,21.833,0,0,1,0-43.666h6.243a21.886,21.886,0,0,1,19.1,11.286A21.638,21.638,0,0,1,1934.668,987.9Z" transform="translate(-1583.221 -812.7)" fill="#ed7d2b"/>
    <path id="Trazado_110712" data-name="Trazado 110712" d="M2083.542,1177.077l-2.036,13.225a1.613,1.613,0,0,0,1.562,2.026h5.351a3.064,3.064,0,0,0,2.725-1.66l8.317-16.6Z" transform="translate(-1750.233 -989.313)" fill="#ed7d2b"/>
    <path id="Trazado_110713" data-name="Trazado 110713" d="M1921.52,1185.935l1.634,13a1.615,1.615,0,0,1-1.562,2.026h-5.352a3.063,3.063,0,0,1-2.716-1.66l-8.535-15.068Z" transform="translate(-1600.398 -997.94)" fill="#ed7d2b"/>
    <path id="Trazado_110714" data-name="Trazado 110714" d="M2203.421,1083.22a1.447,1.447,0,0,1-.368-.048c-.949-.25-1.492-1.384-1.417-2.958a7.88,7.88,0,0,1,1.772-4.469,8.054,8.054,0,0,1,1.6-1.509,4.544,4.544,0,0,0-1.18-1.3,3.038,3.038,0,0,0-2.763-.578c-2.645.718-4.888,4.5-5.07,4.925a.453.453,0,0,1-.845-.3,13.259,13.259,0,0,1,1.649-2.484,8.482,8.482,0,0,1,3.865-2.962,3.931,3.931,0,0,1,3.7.676,5.5,5.5,0,0,1,1.4,1.541,9.31,9.31,0,0,1,3.043-1.04.453.453,0,1,1,.151.883,8.438,8.438,0,0,0-2.782.955,6.8,6.8,0,0,1,.478,2.015,8.848,8.848,0,0,1-.825,4.488C2205.159,1082.452,2204.281,1083.22,2203.421,1083.22Zm1.987-8.161a7.228,7.228,0,0,0-1.307,1.248,6.973,6.973,0,0,0-1.572,3.949c-.051,1.077.258,1.919.755,2.049s1.207-.539,1.743-1.63a8.049,8.049,0,0,0,.74-4.021,5.935,5.935,0,0,0-.361-1.6Zm-9.405,2.217v.009s0-.006,0-.009Z" transform="translate(-1846.769 -902.082)" fill="#ed7d2b"/>
    <path id="Trazado_110715" data-name="Trazado 110715" d="M1931.934,977.356a17.872,17.872,0,0,1-.552,8.023c-4.406,12.675-14.764,14.961-25.351,15.924-7.528.685-18.227-2.313-18.227-2.313a21.823,21.823,0,0,1,18.788-32.919h6.243A21.886,21.886,0,0,1,1931.934,977.356Z" transform="translate(-1583.221 -812.7)" fill="#f99746"/>
    <path id="Trazado_110716" data-name="Trazado 110716" d="M1955.245,923.119h-8.587c-.865,0-1.568-.525-1.568-1.174V910.22a.944.944,0,0,1,.172-.54,1.887,1.887,0,0,1,2.345-.4c3.261,1.849,8.6,5.865,9.2,12.58C1956.872,922.544,1956.154,923.119,1955.245,923.119Z" transform="translate(-1634.447 -764.28)" fill="#f99746"/>
    <path id="Trazado_110717" data-name="Trazado 110717" d="M1947.008,926.688h-.35c-.865,0-1.568-.525-1.568-1.174V913.79a.941.941,0,0,1,.172-.54.988.988,0,0,1,.106.1,14.7,14.7,0,0,1,3.8,11.871A2.028,2.028,0,0,1,1947.008,926.688Z" transform="translate(-1634.448 -767.85)" fill="#ed7d2b"/>
    <path id="Trazado_110718" data-name="Trazado 110718" d="M1927.8,1047.06a1.28,1.28,0,1,1,1.28,1.28A1.28,1.28,0,0,1,1927.8,1047.06Z" transform="translate(-1619.766 -880.382)" fill="#2b478b"/>
    <path id="Trazado_110719" data-name="Trazado 110719" d="M1745.68,1428.908s2.924,4.116,5.6,4.174,6.757-1.907,6.757-1.907,2.461-5.485.792-7.631a3.582,3.582,0,0,0-3.424.563,5.225,5.225,0,0,0-.905.868,2.868,2.868,0,0,1-1.406.953c-1.912.583-4.183-.786-5.031.534a8.989,8.989,0,0,1-1.479,1.75A6.662,6.662,0,0,1,1745.68,1428.908Z" transform="translate(-1465.128 -1200.966)" fill="#aec3ff" opacity="0.5"/>
    <path id="Trazado_110720" data-name="Trazado 110720" d="M1733.475,1513.433s-10.333-25.036-28.933-25.513c0,0-17.169,1.907-18.123,25.513Z" transform="translate(-1414.81 -1255.805)" fill="#aec3ff" opacity="0.5"/>
    <path id="Trazado_110721" data-name="Trazado 110721" d="M1785.331,1474.768s-7.454,1.66-9.755.685c0,0-.347-3.118,2.793-2.681a6.605,6.605,0,0,0,4.376-1.151C1783.905,1471.025,1785.641,1473.462,1785.331,1474.768Z" transform="translate(-1490.503 -1241.886)" fill="#8c9df4"/>
    <path id="Trazado_110722" data-name="Trazado 110722" d="M1795.153,1433.48c.477.358,1.942-5.04,1.942-5.04a5.231,5.231,0,0,0-.906.868,2.867,2.867,0,0,1-1.406.953C1794.777,1430.418,1794.691,1433.133,1795.153,1433.48Z" transform="translate(-1506.813 -1205.3)" fill="#aec3ff" opacity="0.5"/>
    <path id="Trazado_110723" data-name="Trazado 110723" d="M1751.69,1445.8a30.643,30.643,0,0,0,4.02,2.128c.468,0-2.541-3.878-2.541-3.878A9,9,0,0,1,1751.69,1445.8Z" transform="translate(-1470.23 -1218.554)" fill="#aec3ff" opacity="0.5"/>
    <path id="Trazado_110724" data-name="Trazado 110724" d="M1771.781,1548.027c.192-.163-7.312-11.049-9.378-11.127s-6.71,2.384-10.072,2.7-6.62-.635-7.257,1.358-2.384,9.033-1.312,10.16S1767.653,1551.55,1771.781,1548.027Z" transform="translate(-1463.211 -1297.392)" fill="#aec3ff" opacity="0.5"/>
    <path id="Trazado_110725" data-name="Trazado 110725" d="M765.177,1172.964s-2.414,3.4-4.626,3.443-5.583-1.574-5.583-1.574-2.031-4.527-.653-6.3a2.966,2.966,0,0,1,2.826.465,4.324,4.324,0,0,1,.755.717,2.376,2.376,0,0,0,1.162.788c1.578.48,3.453-.651,4.153.441a7.382,7.382,0,0,0,1.221,1.446A5.671,5.671,0,0,0,765.177,1172.964Z" transform="translate(-622.948 -984.468)" fill="#ffeddc"/>
    <path id="Trazado_110726" data-name="Trazado 110726" d="M620.51,1242.733s8.53-20.673,23.884-21.063c0,0,14.174,1.575,14.96,21.063Z" transform="translate(-509.741 -1029.731)" fill="#ffeddc"/>
    <path id="Trazado_110727" data-name="Trazado 110727" d="M750.75,1210.8s6.154,1.369,8.053.564a1.9,1.9,0,0,0-2.306-2.214,5.427,5.427,0,0,1-3.608-.951C751.927,1207.714,750.493,1209.727,750.75,1210.8Z" transform="translate(-620.303 -1018.233)" fill="#db6a1d"/>
    <path id="Trazado_110728" data-name="Trazado 110728" d="M777.392,1176.732c-.394.3-1.6-4.162-1.6-4.162a4.319,4.319,0,0,1,.755.717,2.377,2.377,0,0,0,1.162.788C777.7,1174.2,777.774,1176.445,777.392,1176.732Z" transform="translate(-641.59 -988.04)" fill="#e5c1a1"/>
    <path id="Trazado_110729" data-name="Trazado 110729" d="M805.15,1186.9a25.391,25.391,0,0,1-3.32,1.755c-.386,0,2.1-3.194,2.1-3.194A7.4,7.4,0,0,0,805.15,1186.9Z" transform="translate(-663.667 -998.985)" fill="#e5c1a1"/>
    <path id="Trazado_110730" data-name="Trazado 110730" d="M675.725,1271.3c-.151-.134,6.036-9.12,7.742-9.187s5.538,1.969,8.313,2.232,5.465-.525,5.991,1.115,1.962,7.456,1.083,8.387S679.13,1274.205,675.725,1271.3Z" transform="translate(-556.622 -1064.068)" fill="#f9ddbf"/>
    <path id="Trazado_110731" data-name="Trazado 110731" d="M647.8,1629.715v2.309a.784.784,0,0,1-.183.495,1.037,1.037,0,0,1-.495.332,1.152,1.152,0,0,1-.193.047,1.28,1.28,0,0,1-.187.014H603.056a1.024,1.024,0,0,1-1.047-.755.841.841,0,0,1-.009-.087v-2.4a.843.843,0,0,1,.009-.088,1.024,1.024,0,0,1,1.047-.755h43.683a1.1,1.1,0,0,1,.187.014,1.141,1.141,0,0,1,.688.377A.785.785,0,0,1,647.8,1629.715Z" transform="translate(-494.024 -1375.451)" fill="#ffb93e"/>
    <path id="Trazado_110732" data-name="Trazado 110732" d="M626.381,1632.907h-23.4a.937.937,0,0,1-.905-.658.7.7,0,0,1-.026-.1.805.805,0,0,1-.009-.088v-2.393a.811.811,0,0,1,.009-.088.723.723,0,0,1,.026-.1.936.936,0,0,1,.905-.656H623.5A7.148,7.148,0,0,0,626.381,1632.907Z" transform="translate(-494.058 -1375.451)" fill="#ffa412"/>
    <rect id="Rectángulo_28024" data-name="Rectángulo 28024" width="0.496" height="4.077" transform="translate(147.96 253.378)" fill="#ffa412"/>
    <rect id="Rectángulo_28025" data-name="Rectángulo 28025" width="0.496" height="4.077" transform="translate(146.279 253.378)" fill="#ffa412"/>
    <rect id="Rectángulo_28026" data-name="Rectángulo 28026" width="0.496" height="4.077" transform="translate(144.265 253.378)" fill="#ffa412"/>
    <rect id="Rectángulo_28027" data-name="Rectángulo 28027" width="0.496" height="4.077" transform="translate(141.176 253.378)" fill="#ffa412"/>
    <rect id="Rectángulo_28028" data-name="Rectángulo 28028" width="0.496" height="4.077" transform="translate(137.909 253.378)" fill="#ffa412"/>
    <rect id="Rectángulo_28029" data-name="Rectángulo 28029" width="0.496" height="4.077" transform="translate(132.902 253.378)" fill="#ffa412"/>
    <rect id="Rectángulo_28030" data-name="Rectángulo 28030" width="0.496" height="4.077" transform="translate(128.214 253.378)" fill="#ffa412"/>
    <rect id="Rectángulo_28031" data-name="Rectángulo 28031" width="0.496" height="4.077" transform="translate(124.026 253.378)" fill="#ffa412"/>
    <rect id="Rectángulo_28032" data-name="Rectángulo 28032" width="0.496" height="4.077" transform="translate(149.559 253.378)" fill="#ffa412"/>
    <rect id="Rectángulo_28033" data-name="Rectángulo 28033" width="0.496" height="4.077" transform="translate(150.617 253.378)" fill="#ffa412"/>
    <rect id="Rectángulo_28034" data-name="Rectángulo 28034" width="0.496" height="4.077" transform="translate(151.637 253.378)" fill="#ffa412"/>
    <path id="Trazado_110733" data-name="Trazado 110733" d="M896.979,1628.86v4.05a1.262,1.262,0,0,1-.187.014h-.3v-4.074h.3A1.229,1.229,0,0,1,896.979,1628.86Z" transform="translate(-744.077 -1375.468)" fill="#ffa412"/>
    <path id="Trazado_110734" data-name="Trazado 110734" d="M901.5,1629.552v3.294a1.04,1.04,0,0,1-.495.332v-3.958A1.056,1.056,0,0,1,901.5,1629.552Z" transform="translate(-747.915 -1375.783)" fill="#ffa412"/>
    <path id="Trazado_110735" data-name="Trazado 110735" d="M616.862,1602.7v2.3a.793.793,0,0,1-.18.5,1.023,1.023,0,0,1-.5.332,1.33,1.33,0,0,1-.195.045,1.244,1.244,0,0,1-.186.015H572.125a1.022,1.022,0,0,1-1.044-.755.851.851,0,0,1-.011-.086v-2.395a.831.831,0,0,1,.011-.086,1.02,1.02,0,0,1,1.044-.754h43.861a1.03,1.03,0,0,1,.195.045,1.118,1.118,0,0,1,.106.041h0l.068.032.039.023.035.021a.712.712,0,0,1,.128.1l.038.033.021.021s.009,0,.011.012l.011.009a.354.354,0,0,1,.039.045.789.789,0,0,1,.187.507Z" transform="translate(-467.762 -1352.518)" fill="#ffb93e"/>
    <path id="Trazado_110736" data-name="Trazado 110736" d="M595.422,1605.878h-23.4a.937.937,0,0,1-.905-.659c-.009-.032-.018-.063-.024-.1a.834.834,0,0,1-.011-.086v-2.395a.83.83,0,0,1,.011-.086.372.372,0,0,1,.024-.1.935.935,0,0,1,.905-.658h20.522c.009.033.018.066.029.1a7.134,7.134,0,0,0,2.852,3.978Z" transform="translate(-467.77 -1352.5)" fill="#ffa412"/>
    <rect id="Rectángulo_28035" data-name="Rectángulo 28035" width="0.496" height="4.077" transform="translate(143.29 249.299)" fill="#ffa412"/>
    <rect id="Rectángulo_28036" data-name="Rectángulo 28036" width="0.496" height="4.077" transform="translate(141.609 249.299)" fill="#ffa412"/>
    <rect id="Rectángulo_28037" data-name="Rectángulo 28037" width="0.496" height="4.077" transform="translate(139.594 249.299)" fill="#ffa412"/>
    <rect id="Rectángulo_28038" data-name="Rectángulo 28038" width="0.496" height="4.077" transform="translate(136.505 249.299)" fill="#ffa412"/>
    <rect id="Rectángulo_28039" data-name="Rectángulo 28039" width="0.496" height="4.077" transform="translate(133.239 249.299)" fill="#ffa412"/>
    <rect id="Rectángulo_28040" data-name="Rectángulo 28040" width="0.496" height="4.077" transform="translate(128.232 249.299)" fill="#ffa412"/>
    <rect id="Rectángulo_28041" data-name="Rectángulo 28041" width="0.496" height="4.077" transform="translate(123.543 249.299)" fill="#ffa412"/>
    <rect id="Rectángulo_28042" data-name="Rectángulo 28042" width="0.496" height="4.077" transform="translate(119.356 249.299)" fill="#ffa412"/>
    <rect id="Rectángulo_28043" data-name="Rectángulo 28043" width="0.496" height="4.077" transform="translate(144.889 249.299)" fill="#ffa412"/>
    <rect id="Rectángulo_28044" data-name="Rectángulo 28044" width="0.496" height="4.077" transform="translate(145.947 249.299)" fill="#ffa412"/>
    <rect id="Rectángulo_28045" data-name="Rectángulo 28045" width="0.496" height="4.077" transform="translate(146.967 249.299)" fill="#ffa412"/>
    <path id="Trazado_110737" data-name="Trazado 110737" d="M866.029,1601.829v4.05a1.263,1.263,0,0,1-.187.014h-.3v-4.074h.3A1.246,1.246,0,0,1,866.029,1601.829Z" transform="translate(-717.797 -1352.516)" fill="#ffa412"/>
    <path id="Trazado_110738" data-name="Trazado 110738" d="M870.555,1602.532v3.294a1.055,1.055,0,0,1-.495.332V1602.2A1.038,1.038,0,0,1,870.555,1602.532Z" transform="translate(-721.635 -1352.84)" fill="#ffa412"/>
    <path id="Trazado_110739" data-name="Trazado 110739" d="M631.819,1576.343v2.3a.783.783,0,0,1-.181.495,1.042,1.042,0,0,1-.5.332,1.171,1.171,0,0,1-.379.06H587.078a1.228,1.228,0,0,1-.487-.1.922.922,0,0,1-.557-.644.15.15,0,0,0-.008-.057.323.323,0,0,1,0-.039V1576.3a.78.78,0,0,1,.009-.086,1.022,1.022,0,0,1,1.046-.755h43.681a1.075,1.075,0,0,1,.186.014,1,1,0,0,1,.193.045,1.065,1.065,0,0,1,.5.332A.783.783,0,0,1,631.819,1576.343Z" transform="translate(-480.461 -1330.134)" fill="#ffb93e"/>
    <path id="Trazado_110740" data-name="Trazado 110740" d="M610.388,1579.526h-23.4a.993.993,0,0,1-.435-.1.905.905,0,0,1-.5-.644.149.149,0,0,0-.008-.057.35.35,0,0,1,0-.039v-2.393a.807.807,0,0,1,.009-.086.629.629,0,0,1,.026-.1.931.931,0,0,1,.905-.661h20.522a7.161,7.161,0,0,0,2.731,3.976C610.29,1579.455,610.333,1579.493,610.388,1579.526Z" transform="translate(-480.478 -1330.125)" fill="#ffa412"/>
    <rect id="Rectángulo_28046" data-name="Rectángulo 28046" width="0.496" height="4.077" transform="translate(145.547 245.322)" fill="#ffa412"/>
    <rect id="Rectángulo_28047" data-name="Rectángulo 28047" width="0.496" height="4.077" transform="translate(143.866 245.322)" fill="#ffa412"/>
    <rect id="Rectángulo_28048" data-name="Rectángulo 28048" width="0.496" height="4.077" transform="translate(141.852 245.322)" fill="#ffa412"/>
    <rect id="Rectángulo_28049" data-name="Rectángulo 28049" width="0.496" height="4.077" transform="translate(138.763 245.322)" fill="#ffa412"/>
    <rect id="Rectángulo_28050" data-name="Rectángulo 28050" width="0.496" height="4.077" transform="translate(135.496 245.322)" fill="#ffa412"/>
    <rect id="Rectángulo_28051" data-name="Rectángulo 28051" width="0.496" height="4.077" transform="translate(130.488 245.322)" fill="#ffa412"/>
    <rect id="Rectángulo_28052" data-name="Rectángulo 28052" width="0.496" height="4.077" transform="translate(125.799 245.322)" fill="#ffa412"/>
    <rect id="Rectángulo_28053" data-name="Rectángulo 28053" width="0.496" height="4.077" transform="translate(121.614 245.322)" fill="#ffa412"/>
    <rect id="Rectángulo_28054" data-name="Rectángulo 28054" width="0.496" height="4.077" transform="translate(147.147 245.322)" fill="#ffa412"/>
    <rect id="Rectángulo_28055" data-name="Rectángulo 28055" width="0.496" height="4.077" transform="translate(148.203 245.322)" fill="#ffa412"/>
    <rect id="Rectángulo_28056" data-name="Rectángulo 28056" width="0.496" height="4.077" transform="translate(149.223 245.322)" fill="#ffa412"/>
    <path id="Trazado_110741" data-name="Trazado 110741" d="M880.936,1575.479v4.048a1.259,1.259,0,0,1-.186.015h-.311v-4.074h.311A1.241,1.241,0,0,1,880.936,1575.479Z" transform="translate(-730.449 -1330.142)" fill="#ffa412"/>
    <path id="Trazado_110742" data-name="Trazado 110742" d="M885.506,1576.132v3.294a1.043,1.043,0,0,1-.5.332V1575.8A1.042,1.042,0,0,1,885.506,1576.132Z" transform="translate(-734.329 -1330.424)" fill="#ffa412"/>
    <path id="Trazado_110743" data-name="Trazado 110743" d="M638.788,1549.343v2.3a.782.782,0,0,1-.183.495.542.542,0,0,1-.047.054,1.012,1.012,0,0,1-.3.22,1.258,1.258,0,0,1-.151.059,1.393,1.393,0,0,1-.193.045l-.092.01H594.056a1.026,1.026,0,0,1-1.047-.754.83.83,0,0,1-.009-.086V1549.3a.975.975,0,0,1,.93-.836h43.9a.9.9,0,0,1,.092.012,1.118,1.118,0,0,1,.688.376A.787.787,0,0,1,638.788,1549.343Z" transform="translate(-486.383 -1307.209)" fill="#ffb93e"/>
    <path id="Trazado_110744" data-name="Trazado 110744" d="M617.321,1552.533h-23.4a.939.939,0,0,1-.905-.659.691.691,0,0,1-.026-.1.824.824,0,0,1-.009-.086V1549.3a.919.919,0,0,1,.83-.836h20.635A7.146,7.146,0,0,0,617.321,1552.533Z" transform="translate(-486.366 -1307.209)" fill="#ffa412"/>
    <rect id="Rectángulo_28057" data-name="Rectángulo 28057" width="0.496" height="4.077" transform="translate(146.593 241.245)" fill="#ffa412"/>
    <rect id="Rectángulo_28058" data-name="Rectángulo 28058" width="0.496" height="4.077" transform="translate(144.912 241.245)" fill="#ffa412"/>
    <rect id="Rectángulo_28059" data-name="Rectángulo 28059" width="0.496" height="4.077" transform="translate(142.897 241.245)" fill="#ffa412"/>
    <rect id="Rectángulo_28060" data-name="Rectángulo 28060" width="0.496" height="4.077" transform="translate(139.809 241.245)" fill="#ffa412"/>
    <rect id="Rectángulo_28061" data-name="Rectángulo 28061" width="0.496" height="4.077" transform="translate(136.542 241.245)" fill="#ffa412"/>
    <rect id="Rectángulo_28062" data-name="Rectángulo 28062" width="0.496" height="4.077" transform="translate(131.535 241.245)" fill="#ffa412"/>
    <rect id="Rectángulo_28063" data-name="Rectángulo 28063" width="0.496" height="4.077" transform="translate(126.847 241.245)" fill="#ffa412"/>
    <rect id="Rectángulo_28064" data-name="Rectángulo 28064" width="0.496" height="4.077" transform="translate(122.659 241.245)" fill="#ffa412"/>
    <rect id="Rectángulo_28065" data-name="Rectángulo 28065" width="0.496" height="4.077" transform="translate(148.192 241.245)" fill="#ffa412"/>
    <rect id="Rectángulo_28066" data-name="Rectángulo 28066" width="0.496" height="4.077" transform="translate(149.25 241.245)" fill="#ffa412"/>
    <rect id="Rectángulo_28067" data-name="Rectángulo 28067" width="0.496" height="4.077" transform="translate(150.27 241.245)" fill="#ffa412"/>
    <path id="Trazado_110745" data-name="Trazado 110745" d="M887.919,1548.449v4.05a1.3,1.3,0,0,1-.187.014h-.3v-4.074h.3A1.3,1.3,0,0,1,887.919,1548.449Z" transform="translate(-736.384 -1307.191)" fill="#ffa412"/>
    <path id="Trazado_110746" data-name="Trazado 110746" d="M892.446,1549.123v3.293a1.056,1.056,0,0,1-.5.334v-3.96a1.057,1.057,0,0,1,.5.334Z" transform="translate(-740.222 -1307.489)" fill="#ffa412"/>
    <path id="Trazado_110747" data-name="Trazado 110747" d="M617.495,1522.312v2.3a.787.787,0,0,1-.18.495,1.048,1.048,0,0,1-.5.332,1.013,1.013,0,0,1-.192.045.443.443,0,0,1-.062.009h-43.8a1,1,0,0,1-1.056-.842v-2.395a.327.327,0,0,1,0-.036.957.957,0,0,1,.792-.777h.032a1.247,1.247,0,0,1,.229-.023h43.678a.92.92,0,0,1,.094,0h.091a1.307,1.307,0,0,1,.192.045,1.057,1.057,0,0,1,.507.343A.787.787,0,0,1,617.495,1522.312Z" transform="translate(-468.302 -1284.251)" fill="#ffb93e"/>
    <path id="Trazado_110748" data-name="Trazado 110748" d="M596.019,1525.508h-23.4a.924.924,0,0,1-.943-.842v-2.395a.3.3,0,0,1,0-.036.905.905,0,0,1,.732-.782.161.161,0,0,1,.041-.009,1.026,1.026,0,0,1,.167-.015h20.535a.278.278,0,0,1,0,.03,7.16,7.16,0,0,0,2.856,4.043S596.019,1525.505,596.019,1525.508Z" transform="translate(-468.276 -1284.258)" fill="#ffa412"/>
    <rect id="Rectángulo_28068" data-name="Rectángulo 28068" width="0.496" height="4.077" transform="translate(143.382 237.173)" fill="#ffa412"/>
    <rect id="Rectángulo_28069" data-name="Rectángulo 28069" width="0.496" height="4.077" transform="translate(141.701 237.173)" fill="#ffa412"/>
    <rect id="Rectángulo_28070" data-name="Rectángulo 28070" width="0.496" height="4.077" transform="translate(139.686 237.173)" fill="#ffa412"/>
    <rect id="Rectángulo_28071" data-name="Rectángulo 28071" width="0.496" height="4.077" transform="translate(136.598 237.173)" fill="#ffa412"/>
    <rect id="Rectángulo_28072" data-name="Rectángulo 28072" width="0.496" height="4.077" transform="translate(133.331 237.173)" fill="#ffa412"/>
    <rect id="Rectángulo_28073" data-name="Rectángulo 28073" width="0.496" height="4.077" transform="translate(128.324 237.173)" fill="#ffa412"/>
    <rect id="Rectángulo_28074" data-name="Rectángulo 28074" width="0.496" height="4.077" transform="translate(123.634 237.173)" fill="#ffa412"/>
    <rect id="Rectángulo_28075" data-name="Rectángulo 28075" width="0.496" height="4.077" transform="translate(119.448 237.173)" fill="#ffa412"/>
    <rect id="Rectángulo_28076" data-name="Rectángulo 28076" width="0.496" height="4.077" transform="translate(144.981 237.173)" fill="#ffa412"/>
    <rect id="Rectángulo_28077" data-name="Rectángulo 28077" width="0.496" height="4.077" transform="translate(146.038 237.173)" fill="#ffa412"/>
    <rect id="Rectángulo_28078" data-name="Rectángulo 28078" width="0.496" height="4.077" transform="translate(147.059 237.173)" fill="#ffa412"/>
    <path id="Trazado_110749" data-name="Trazado 110749" d="M866.586,1521.469v4.05a1.259,1.259,0,0,1-.186.014h-.311v-4.074h.311A1.257,1.257,0,0,1,866.586,1521.469Z" transform="translate(-718.264 -1284.282)" fill="#ffa412"/>
    <path id="Trazado_110750" data-name="Trazado 110750" d="M871.215,1522.132v3.294a1.038,1.038,0,0,1-.495.332V1521.8a1.057,1.057,0,0,1,.495.332Z" transform="translate(-722.195 -1284.572)" fill="#ffa412"/>
    <path id="Trazado_110751" data-name="Trazado 110751" d="M616.862,1495.474v2.3a.788.788,0,0,1-.18.495,1.334,1.334,0,0,1-.1.106,1.164,1.164,0,0,1-.548.265h-.041a1.052,1.052,0,0,1-.186.015H572.125a.831.831,0,0,1-.136-.007h-.051a.972.972,0,0,1-.859-.755.617.617,0,0,1-.009-.077v-2.395a.849.849,0,0,1,.011-.086,1.021,1.021,0,0,1,1.044-.755h43.84a.078.078,0,0,1,.027,0,1.326,1.326,0,0,1,.195.045,1.092,1.092,0,0,1,.106.041h0a1.072,1.072,0,0,1,.35.246l.039.045A.793.793,0,0,1,616.862,1495.474Z" transform="translate(-467.762 -1261.461)" fill="#ffb93e"/>
    <path id="Trazado_110752" data-name="Trazado 110752" d="M595.456,1498.738h-23.51a.923.923,0,0,1-.818-.754.626.626,0,0,1-.009-.077v-2.395a.834.834,0,0,1,.011-.086.362.362,0,0,1,.024-.1.937.937,0,0,1,.905-.659h20.522c.009.035.018.068.029.1a7.139,7.139,0,0,0,2.8,3.948A.09.09,0,0,1,595.456,1498.738Z" transform="translate(-467.804 -1261.536)" fill="#ffa412"/>
    <rect id="Rectángulo_28079" data-name="Rectángulo 28079" width="0.496" height="4.077" transform="translate(143.29 233.125)" fill="#ffa412"/>
    <rect id="Rectángulo_28080" data-name="Rectángulo 28080" width="0.496" height="4.077" transform="translate(141.609 233.125)" fill="#ffa412"/>
    <rect id="Rectángulo_28081" data-name="Rectángulo 28081" width="0.496" height="4.077" transform="translate(139.594 233.125)" fill="#ffa412"/>
    <rect id="Rectángulo_28082" data-name="Rectángulo 28082" width="0.496" height="4.077" transform="translate(136.505 233.125)" fill="#ffa412"/>
    <rect id="Rectángulo_28083" data-name="Rectángulo 28083" width="0.496" height="4.077" transform="translate(133.239 233.125)" fill="#ffa412"/>
    <rect id="Rectángulo_28084" data-name="Rectángulo 28084" width="0.496" height="4.077" transform="translate(128.232 233.125)" fill="#ffa412"/>
    <rect id="Rectángulo_28085" data-name="Rectángulo 28085" width="0.496" height="4.077" transform="translate(123.543 233.125)" fill="#ffa412"/>
    <rect id="Rectángulo_28086" data-name="Rectángulo 28086" width="0.496" height="4.077" transform="translate(119.356 233.125)" fill="#ffa412"/>
    <rect id="Rectángulo_28087" data-name="Rectángulo 28087" width="0.496" height="4.077" transform="translate(144.889 233.125)" fill="#ffa412"/>
    <rect id="Rectángulo_28088" data-name="Rectángulo 28088" width="0.496" height="4.077" transform="translate(145.947 233.125)" fill="#ffa412"/>
    <rect id="Rectángulo_28089" data-name="Rectángulo 28089" width="0.496" height="4.077" transform="translate(146.967 233.125)" fill="#ffa412"/>
    <path id="Trazado_110753" data-name="Trazado 110753" d="M866.029,1494.639v4.049a1.117,1.117,0,0,1-.187.015h-.3v-4.074h.3a1.263,1.263,0,0,1,.187.011Z" transform="translate(-717.797 -1261.501)" fill="#ffa412"/>
    <path id="Trazado_110754" data-name="Trazado 110754" d="M870.555,1495.332v3.289a1.038,1.038,0,0,1-.495.332V1495A1.055,1.055,0,0,1,870.555,1495.332Z" transform="translate(-721.635 -1261.816)" fill="#ffa412"/>
    <path id="Trazado_110755" data-name="Trazado 110755" d="M631.819,1469.137v2.3a.784.784,0,0,1-.181.5,1.064,1.064,0,0,1-.5.332,1.113,1.113,0,0,1-.193.044,1.05,1.05,0,0,1-.186.015H587.078a1.207,1.207,0,0,1-.487-.1.919.919,0,0,1-.557-.643.146.146,0,0,0-.008-.057c0-.014,0-.027,0-.041v-2.395a.82.82,0,0,1,.009-.086,1.023,1.023,0,0,1,1.046-.755h43.681a1.243,1.243,0,0,1,.186.015,1.292,1.292,0,0,1,.193.045,1.047,1.047,0,0,1,.5.333A.782.782,0,0,1,631.819,1469.137Z" transform="translate(-480.461 -1239.102)" fill="#ffb93e"/>
    <path id="Trazado_110756" data-name="Trazado 110756" d="M610.388,1472.318h-23.4a.971.971,0,0,1-.435-.1.9.9,0,0,1-.5-.643.146.146,0,0,0-.008-.057.381.381,0,0,1,0-.041v-2.395a.808.808,0,0,1,.009-.086.66.66,0,0,1,.026-.094.934.934,0,0,1,.905-.662h20.522a7.154,7.154,0,0,0,2.731,3.978C610.29,1472.252,610.333,1472.285,610.388,1472.318Z" transform="translate(-480.478 -1239.094)" fill="#ffa412"/>
    <rect id="Rectángulo_28090" data-name="Rectángulo 28090" width="0.496" height="4.077" transform="translate(145.547 229.147)" fill="#ffa412"/>
    <rect id="Rectángulo_28091" data-name="Rectángulo 28091" width="0.496" height="4.077" transform="translate(143.866 229.147)" fill="#ffa412"/>
    <rect id="Rectángulo_28092" data-name="Rectángulo 28092" width="0.496" height="4.077" transform="translate(141.852 229.147)" fill="#ffa412"/>
    <rect id="Rectángulo_28093" data-name="Rectángulo 28093" width="0.496" height="4.077" transform="translate(138.763 229.147)" fill="#ffa412"/>
    <rect id="Rectángulo_28094" data-name="Rectángulo 28094" width="0.496" height="4.077" transform="translate(135.496 229.147)" fill="#ffa412"/>
    <rect id="Rectángulo_28095" data-name="Rectángulo 28095" width="0.496" height="4.077" transform="translate(130.488 229.147)" fill="#ffa412"/>
    <rect id="Rectángulo_28096" data-name="Rectángulo 28096" width="0.496" height="4.077" transform="translate(125.799 229.147)" fill="#ffa412"/>
    <rect id="Rectángulo_28097" data-name="Rectángulo 28097" width="0.496" height="4.077" transform="translate(121.614 229.147)" fill="#ffa412"/>
    <rect id="Rectángulo_28098" data-name="Rectángulo 28098" width="0.496" height="4.077" transform="translate(147.147 229.147)" fill="#ffa412"/>
    <rect id="Rectángulo_28099" data-name="Rectángulo 28099" width="0.496" height="4.077" transform="translate(148.203 229.147)" fill="#ffa412"/>
    <rect id="Rectángulo_28100" data-name="Rectángulo 28100" width="0.496" height="4.077" transform="translate(149.223 229.147)" fill="#ffa412"/>
    <path id="Trazado_110757" data-name="Trazado 110757" d="M880.936,1468.279v4.05a1.258,1.258,0,0,1-.186.013h-.311v-4.074h.311A1.209,1.209,0,0,1,880.936,1468.279Z" transform="translate(-730.449 -1239.118)" fill="#ffa412"/>
    <path id="Trazado_110758" data-name="Trazado 110758" d="M885.506,1468.973v3.292a1.054,1.054,0,0,1-.5.333v-3.959a1.056,1.056,0,0,1,.5.333Z" transform="translate(-734.329 -1239.434)" fill="#ffa412"/>
    <path id="Trazado_110759" data-name="Trazado 110759" d="M655.479,1442.137v2.3a.788.788,0,0,1-.181.493h0l-.047.054a1,1,0,0,1-.234.182,1.3,1.3,0,0,1-.139.068h0a.565.565,0,0,1-.074.027,1.029,1.029,0,0,1-.193.045,1.086,1.086,0,0,1-.186.014H610.742a1.022,1.022,0,0,1-1.046-.755.56.56,0,0,1-.009-.087c0-.015,0-.029,0-.044v-2.348a.972.972,0,0,1,.93-.834.858.858,0,0,1,.125,0h43.681a1.521,1.521,0,0,1,.186.014,1.61,1.61,0,0,1,.193.047,1.066,1.066,0,0,1,.453.278.557.557,0,0,1,.047.054h0A.788.788,0,0,1,655.479,1442.137Z" transform="translate(-500.551 -1216.181)" fill="#ffb93e"/>
    <path id="Trazado_110760" data-name="Trazado 110760" d="M634.045,1445.326h-23.4a.934.934,0,0,1-.905-.659.874.874,0,0,1-.024-.1.547.547,0,0,1-.009-.088.42.42,0,0,1,0-.044v-2.349a.915.915,0,0,1,.828-.834.7.7,0,0,1,.113,0h20.529A7.138,7.138,0,0,0,634.045,1445.326Z" transform="translate(-500.568 -1216.181)" fill="#ffa412"/>
    <rect id="Rectángulo_28101" data-name="Rectángulo 28101" width="0.496" height="4.077" transform="translate(149.116 225.069)" fill="#ffa412"/>
    <rect id="Rectángulo_28102" data-name="Rectángulo 28102" width="0.496" height="4.077" transform="translate(147.436 225.069)" fill="#ffa412"/>
    <rect id="Rectángulo_28103" data-name="Rectángulo 28103" width="0.496" height="4.077" transform="translate(145.42 225.069)" fill="#ffa412"/>
    <rect id="Rectángulo_28104" data-name="Rectángulo 28104" width="0.496" height="4.077" transform="translate(142.332 225.069)" fill="#ffa412"/>
    <rect id="Rectángulo_28105" data-name="Rectángulo 28105" width="0.496" height="4.077" transform="translate(139.066 225.069)" fill="#ffa412"/>
    <rect id="Rectángulo_28106" data-name="Rectángulo 28106" width="0.496" height="4.077" transform="translate(134.058 225.069)" fill="#ffa412"/>
    <rect id="Rectángulo_28107" data-name="Rectángulo 28107" width="0.496" height="4.077" transform="translate(129.37 225.069)" fill="#ffa412"/>
    <rect id="Rectángulo_28108" data-name="Rectángulo 28108" width="0.496" height="4.077" transform="translate(125.182 225.069)" fill="#ffa412"/>
    <rect id="Rectángulo_28109" data-name="Rectángulo 28109" width="0.496" height="4.077" transform="translate(150.717 225.069)" fill="#ffa412"/>
    <rect id="Rectángulo_28110" data-name="Rectángulo 28110" width="0.496" height="4.077" transform="translate(151.773 225.069)" fill="#ffa412"/>
    <rect id="Rectángulo_28111" data-name="Rectángulo 28111" width="0.496" height="4.077" transform="translate(152.793 225.069)" fill="#ffa412"/>
    <path id="Trazado_110761" data-name="Trazado 110761" d="M904.6,1441.259v4.049a1.26,1.26,0,0,1-.186.015H904.1v-4.074h.311A1.242,1.242,0,0,1,904.6,1441.259Z" transform="translate(-750.539 -1216.176)" fill="#ffa412"/>
    <path id="Trazado_110762" data-name="Trazado 110762" d="M909.206,1441.952v3.294a1.056,1.056,0,0,1-.5.332v-3.958a1.057,1.057,0,0,1,.5.332Z" transform="translate(-754.453 -1216.491)" fill="#ffa412"/>
    <path id="Trazado_110763" data-name="Trazado 110763" d="M617.455,1415.044v2.3a.787.787,0,0,1-.18.495,1.04,1.04,0,0,1-.5.334,1.013,1.013,0,0,1-.192.045h-43.87a1.111,1.111,0,0,1-.905-.422.778.778,0,0,1-.151-.419v-2.395a.937.937,0,0,1,.754-.8,1.2,1.2,0,0,1,.3-.039h43.766a.746.746,0,0,1,.1.01,1,1,0,0,1,.192.045.57.57,0,0,1,.091.033h0a1.023,1.023,0,0,1,.3.193h0a.043.043,0,0,1,.012.01.963.963,0,0,1,.084.089.793.793,0,0,1,.189.522Z" transform="translate(-468.263 -1193.158)" fill="#ffb93e"/>
    <path id="Trazado_110764" data-name="Trazado 110764" d="M596.039,1418.318h-23.4a.961.961,0,0,1-.789-.4.825.825,0,0,1-.151-.439v-2.395a.905.905,0,0,1,.754-.822.887.887,0,0,1,.192-.02h20.526a.351.351,0,0,0,.027.094,7.125,7.125,0,0,0,2.837,3.978A.023.023,0,0,1,596.039,1418.318Z" transform="translate(-468.297 -1193.242)" fill="#ffa412"/>
    <rect id="Rectángulo_28112" data-name="Rectángulo 28112" width="0.496" height="4.077" transform="translate(143.382 220.997)" fill="#ffa412"/>
    <rect id="Rectángulo_28113" data-name="Rectángulo 28113" width="0.496" height="4.077" transform="translate(141.701 220.997)" fill="#ffa412"/>
    <rect id="Rectángulo_28114" data-name="Rectángulo 28114" width="0.496" height="4.077" transform="translate(139.686 220.997)" fill="#ffa412"/>
    <rect id="Rectángulo_28115" data-name="Rectángulo 28115" width="0.496" height="4.077" transform="translate(136.598 220.997)" fill="#ffa412"/>
    <rect id="Rectángulo_28116" data-name="Rectángulo 28116" width="0.496" height="4.077" transform="translate(133.331 220.997)" fill="#ffa412"/>
    <rect id="Rectángulo_28117" data-name="Rectángulo 28117" width="0.496" height="4.077" transform="translate(128.324 220.997)" fill="#ffa412"/>
    <rect id="Rectángulo_28118" data-name="Rectángulo 28118" width="0.496" height="4.077" transform="translate(123.634 220.997)" fill="#ffa412"/>
    <rect id="Rectángulo_28119" data-name="Rectángulo 28119" width="0.496" height="4.077" transform="translate(119.448 220.997)" fill="#ffa412"/>
    <rect id="Rectángulo_28120" data-name="Rectángulo 28120" width="0.496" height="4.077" transform="translate(144.981 220.997)" fill="#ffa412"/>
    <rect id="Rectángulo_28121" data-name="Rectángulo 28121" width="0.496" height="4.077" transform="translate(146.038 220.997)" fill="#ffa412"/>
    <rect id="Rectángulo_28122" data-name="Rectángulo 28122" width="0.496" height="4.077" transform="translate(147.059 220.997)" fill="#ffa412"/>
    <path id="Trazado_110765" data-name="Trazado 110765" d="M866.586,1414.278v4.049a1.259,1.259,0,0,1-.186.015h-.311v-4.074h.311A1.072,1.072,0,0,1,866.586,1414.278Z" transform="translate(-718.264 -1193.266)" fill="#ffa412"/>
    <path id="Trazado_110766" data-name="Trazado 110766" d="M871.215,1414.972v3.294a1.056,1.056,0,0,1-.495.332v-3.958a1.041,1.041,0,0,1,.495.332Z" transform="translate(-722.196 -1193.582)" fill="#ffa412"/>
    <path id="Trazado_110767" data-name="Trazado 110767" d="M638.8,1388.768v2.306a.793.793,0,0,1-.181.5,1.056,1.056,0,0,1-.5.332,1.164,1.164,0,0,1-.193.045,1.3,1.3,0,0,1-.187.015H594.07a1.2,1.2,0,0,1-.472-.1.9.9,0,0,1-.581-.711.276.276,0,0,1,0-.036v-2.395a.975.975,0,0,1,.931-.836,1.072,1.072,0,0,1,.125,0h43.671a1.3,1.3,0,0,1,.187.014,1.153,1.153,0,0,1,.193.047,1.056,1.056,0,0,1,.5.332A.791.791,0,0,1,638.8,1388.768Z" transform="translate(-486.396 -1170.867)" fill="#ffb93e"/>
    <path id="Trazado_110768" data-name="Trazado 110768" d="M617.318,1391.943h-23.4a.979.979,0,0,1-.423-.1.894.894,0,0,1-.518-.711.3.3,0,0,1,0-.036v-2.395a.919.919,0,0,1,.831-.836.9.9,0,0,1,.112,0h20.522a7.147,7.147,0,0,0,2.737,3.978Z" transform="translate(-486.362 -1170.85)" fill="#ffa412"/>
    <rect id="Rectángulo_28123" data-name="Rectángulo 28123" width="0.496" height="4.077" transform="translate(146.593 217.014)" fill="#ffa412"/>
    <rect id="Rectángulo_28124" data-name="Rectángulo 28124" width="0.496" height="4.077" transform="translate(144.912 217.014)" fill="#ffa412"/>
    <rect id="Rectángulo_28125" data-name="Rectángulo 28125" width="0.496" height="4.077" transform="translate(142.897 217.014)" fill="#ffa412"/>
    <rect id="Rectángulo_28126" data-name="Rectángulo 28126" width="0.496" height="4.077" transform="translate(139.809 217.014)" fill="#ffa412"/>
    <rect id="Rectángulo_28127" data-name="Rectángulo 28127" width="0.496" height="4.077" transform="translate(136.542 217.014)" fill="#ffa412"/>
    <rect id="Rectángulo_28128" data-name="Rectángulo 28128" width="0.496" height="4.077" transform="translate(131.535 217.014)" fill="#ffa412"/>
    <rect id="Rectángulo_28129" data-name="Rectángulo 28129" width="0.496" height="4.077" transform="translate(126.847 217.014)" fill="#ffa412"/>
    <rect id="Rectángulo_28130" data-name="Rectángulo 28130" width="0.496" height="4.077" transform="translate(122.659 217.014)" fill="#ffa412"/>
    <rect id="Rectángulo_28131" data-name="Rectángulo 28131" width="0.496" height="4.077" transform="translate(148.192 217.014)" fill="#ffa412"/>
    <rect id="Rectángulo_28132" data-name="Rectángulo 28132" width="0.496" height="4.077" transform="translate(149.25 217.014)" fill="#ffa412"/>
    <rect id="Rectángulo_28133" data-name="Rectángulo 28133" width="0.496" height="4.077" transform="translate(150.27 217.014)" fill="#ffa412"/>
    <path id="Trazado_110769" data-name="Trazado 110769" d="M887.919,1387.87v4.05a1.3,1.3,0,0,1-.187.013h-.3v-4.074h.3A1.3,1.3,0,0,1,887.919,1387.87Z" transform="translate(-736.384 -1170.842)" fill="#ffa412"/>
    <path id="Trazado_110770" data-name="Trazado 110770" d="M892.446,1388.572v3.294a1.055,1.055,0,0,1-.5.332v-3.958A1.057,1.057,0,0,1,892.446,1388.572Z" transform="translate(-740.222 -1171.166)" fill="#ffa412"/>
    <path id="Trazado_110771" data-name="Trazado 110771" d="M647.8,1361.671v2.3a.784.784,0,0,1-.181.5,1.056,1.056,0,0,1-.495.332,1.326,1.326,0,0,1-.193.045h-43.87a1,1,0,0,1-1.056-.842v-2.393a1,1,0,0,1,1.056-.842h43.683a1.279,1.279,0,0,1,.187.014,1.164,1.164,0,0,1,.193.047,1.039,1.039,0,0,1,.495.332A.78.78,0,0,1,647.8,1361.671Z" transform="translate(-494.024 -1147.841)" fill="#ffb93e"/>
    <path id="Trazado_110772" data-name="Trazado 110772" d="M626.364,1364.936h-23.4a.923.923,0,0,1-.943-.842V1361.7a.923.923,0,0,1,.943-.842h20.522a7.148,7.148,0,0,0,2.867,4.074Z" transform="translate(-494.041 -1147.916)" fill="#ffa412"/>
    <rect id="Rectángulo_28134" data-name="Rectángulo 28134" width="0.496" height="4.077" transform="translate(147.96 212.943)" fill="#ffa412"/>
    <rect id="Rectángulo_28135" data-name="Rectángulo 28135" width="0.496" height="4.077" transform="translate(146.279 212.943)" fill="#ffa412"/>
    <rect id="Rectángulo_28136" data-name="Rectángulo 28136" width="0.496" height="4.077" transform="translate(144.265 212.943)" fill="#ffa412"/>
    <rect id="Rectángulo_28137" data-name="Rectángulo 28137" width="0.496" height="4.077" transform="translate(141.176 212.943)" fill="#ffa412"/>
    <rect id="Rectángulo_28138" data-name="Rectángulo 28138" width="0.496" height="4.077" transform="translate(137.909 212.943)" fill="#ffa412"/>
    <rect id="Rectángulo_28139" data-name="Rectángulo 28139" width="0.496" height="4.077" transform="translate(132.902 212.943)" fill="#ffa412"/>
    <rect id="Rectángulo_28140" data-name="Rectángulo 28140" width="0.496" height="4.077" transform="translate(128.214 212.943)" fill="#ffa412"/>
    <rect id="Rectángulo_28141" data-name="Rectángulo 28141" width="0.496" height="4.077" transform="translate(124.026 212.943)" fill="#ffa412"/>
    <rect id="Rectángulo_28142" data-name="Rectángulo 28142" width="0.496" height="4.077" transform="translate(149.559 212.943)" fill="#ffa412"/>
    <rect id="Rectángulo_28143" data-name="Rectángulo 28143" width="0.496" height="4.077" transform="translate(150.617 212.943)" fill="#ffa412"/>
    <rect id="Rectángulo_28144" data-name="Rectángulo 28144" width="0.496" height="4.077" transform="translate(151.637 212.943)" fill="#ffa412"/>
    <path id="Trazado_110773" data-name="Trazado 110773" d="M896.979,1360.939v4.05a1.3,1.3,0,0,1-.187.014h-.3v-4.074h.3a1.278,1.278,0,0,1,.187.011Z" transform="translate(-744.077 -1147.976)" fill="#ffa412"/>
    <path id="Trazado_110774" data-name="Trazado 110774" d="M901.506,1361.592v3.293a1.057,1.057,0,0,1-.5.333v-3.958A1.058,1.058,0,0,1,901.506,1361.592Z" transform="translate(-747.915 -1148.257)" fill="#ffa412"/>
    <path id="Trazado_110775" data-name="Trazado 110775" d="M591.219,1401.468v.03a19.491,19.491,0,0,1-.655,4.042h0c-.051.192-.106.383-.165.572a19.968,19.968,0,0,1-1.44,3.5,20.284,20.284,0,0,1-2.745,3.976c-.029.033-.057.068-.087.1a21.076,21.076,0,0,1-4.8,3.978q-.582.353-1.192.675c-.276.151-.552.282-.831.413-.266.151-.546.287-.812.453a11.326,11.326,0,0,1-2.775,1.142v-1.835a.8.8,0,0,1,.009-.087.707.707,0,0,1,.026-.1.936.936,0,0,1,.905-.656H571.98a.937.937,0,0,1-.905-.66.991.991,0,0,1-.024-.1.836.836,0,0,1-.011-.086v-2.395a.81.81,0,0,1,.011-.086.373.373,0,0,1,.024-.1.936.936,0,0,1,.905-.658H573.8a.906.906,0,0,1-.5-.644.15.15,0,0,0-.008-.057.35.35,0,0,1,0-.039v-2.393a.8.8,0,0,1,.009-.086.622.622,0,0,1,.026-.1.931.931,0,0,1,.905-.661h1.047a.939.939,0,0,1-.905-.659.694.694,0,0,1-.026-.1.808.808,0,0,1-.009-.086v-2.395a.919.919,0,0,1,.83-.836h-3.1a.924.924,0,0,1-.943-.842v-2.395a.324.324,0,0,1,0-.036.906.906,0,0,1,.732-.782.923.923,0,0,1-.818-.754.616.616,0,0,1-.009-.077v-2.395a.812.812,0,0,1,.01-.086.364.364,0,0,1,.024-.1.937.937,0,0,1,.905-.659H573.8a.9.9,0,0,1-.5-.643.145.145,0,0,0-.008-.057.349.349,0,0,1,0-.041v-2.395a.828.828,0,0,1,.009-.086.652.652,0,0,1,.026-.094.934.934,0,0,1,.905-.662h3.57a.934.934,0,0,1-.905-.659.882.882,0,0,1-.024-.1.549.549,0,0,1-.009-.088.435.435,0,0,1,0-.044v-2.354a.914.914,0,0,1,.828-.834H572.08a.962.962,0,0,1-.789-.4v-.02l.591-3.622v-.02l.844-5.159a22.33,22.33,0,0,1,2.894.582l.166.045h.012q.828.231,1.636.525h.015a21.654,21.654,0,0,1,6.781,3.978c.036.03.071.062.106.094a20.475,20.475,0,0,1,2.843,3.063c.17.225.336.453.495.685a2.392,2.392,0,0,1,.151.229q.388.571.735,1.173a20.133,20.133,0,0,1,1.382,2.9A19.325,19.325,0,0,1,591,1397.4c.008.035.012.068.017.1A19.49,19.49,0,0,1,591.219,1401.468Z" transform="translate(-467.736 -1164.297)" fill="#e2810e" opacity="0.5"/>
    <circle id="Elipse_4340" data-name="Elipse 4340" cx="21.486" cy="21.486" r="21.486" transform="translate(74.047 215.359) rotate(-4.55)" fill="#e2810e"/>
    <path id="Trazado_110776" data-name="Trazado 110776" d="M409.932,1410.923c-.264.161-.534.318-.807.469-.092.052-.186.1-.278.151-.213.113-.424.222-.637.327a21.488,21.488,0,0,1-22.023-36.72,21.793,21.793,0,0,1,2.193-1.385q.415-.228.833-.436c.27-.134.545-.262.818-.385a21.486,21.486,0,0,1,19.9,37.983Z" transform="translate(-303.215 -1156.604)" fill="#ffb93e"/>
    <path id="Trazado_110777" data-name="Trazado 110777" d="M412.078,1425.876a19.268,19.268,0,1,1,9.265-2.4A19.131,19.131,0,0,1,412.078,1425.876Zm-.059-37.989a18.729,18.729,0,1,0,16.436,9.681A18.729,18.729,0,0,0,412.019,1387.887Z" transform="translate(-316.389 -1170.42)" fill="#ffa412"/>
    <path id="Trazado_110778" data-name="Trazado 110778" d="M479.14,1437.328c-.042-.106-.088-.208-.133-.3a5.629,5.629,0,0,0-1.3-1.86,5.788,5.788,0,0,0-2.052-1.207,9.822,9.822,0,0,0-2.606-.49q-1.438-.089-3.13-.041a15.043,15.043,0,0,1-1.788-.036,4.476,4.476,0,0,1-1.258-.275,2.219,2.219,0,0,1-.84-.569,3,3,0,0,1-.533-.881,3.247,3.247,0,0,1-.243-1.032,2.224,2.224,0,0,1,.151-.972,2.359,2.359,0,0,1,.6-.848,3.48,3.48,0,0,1,1.1-.667,2.764,2.764,0,0,1,2.348.021,3.977,3.977,0,0,1,1.774,2.221l4.376-1.778a8.164,8.164,0,0,0-1.432-2.375,6.141,6.141,0,0,0-4.291-2.113,8.094,8.094,0,0,0-2.641.27l-1.245-3.065-2.414.984,1.222,3.018a9.084,9.084,0,0,0-2.224,1.583,6.777,6.777,0,0,0-1.4,1.962,5.444,5.444,0,0,0-.515,2.209,6.466,6.466,0,0,0,1.9,4.536,5.735,5.735,0,0,0,2.049,1.207,9.693,9.693,0,0,0,2.609.472,30.628,30.628,0,0,0,3.137,0,11.5,11.5,0,0,1,1.708.012,4.4,4.4,0,0,1,1.251.278,2.369,2.369,0,0,1,.877.594,3.238,3.238,0,0,1,.588.973,2.687,2.687,0,0,1,.21,1.037,2.219,2.219,0,0,1-.234.988,2.8,2.8,0,0,1-.7.874,4.2,4.2,0,0,1-1.175.69,5.042,5.042,0,0,1-1.284.333,2.921,2.921,0,0,1-1.3-.13,3,3,0,0,1-1.183-.765,4.647,4.647,0,0,1-.958-1.553l-4.376,1.776a7.536,7.536,0,0,0,1.722,2.677,6.187,6.187,0,0,0,2.263,1.414,6.928,6.928,0,0,0,2.576.373,11.021,11.021,0,0,0,2.654-.439l1.13,2.786,2.414-.978-1.145-2.817a9.8,9.8,0,0,0,2.247-1.568,6.647,6.647,0,0,0,1.358-1.772l.075-.151a5.376,5.376,0,0,0,.528-2.2A5.923,5.923,0,0,0,479.14,1437.328Z" transform="translate(-374.012 -1199.263)" fill="#ffa412"/>
    <rect id="Rectángulo_28145" data-name="Rectángulo 28145" width="75.11" height="1.085" transform="translate(64.839 159.901)" fill="#ccd8ff"/>
    <rect id="Rectángulo_28146" data-name="Rectángulo 28146" width="76.649" height="1.085" transform="translate(64.069 160.988)" fill="#a9baff"/>
    <rect id="Rectángulo_28147" data-name="Rectángulo 28147" width="78.763" height="1.085" transform="translate(63.013 162.073)" fill="#8c9df4"/>
    <rect id="Rectángulo_28148" data-name="Rectángulo 28148" width="70.244" height="41.499" transform="translate(66.591 118.403)" fill="#8c9df4"/>
    <path id="Trazado_110779" data-name="Trazado 110779" d="M379.31,624.611H300.13l40.31-20.431Z" transform="translate(-237.705 -505.417)" fill="#ccd8ff"/>
    <path id="Trazado_110780" data-name="Trazado 110780" d="M379.78,642.2l55.142-.116L408.043,628.11Z" transform="translate(-305.337 -525.736)" fill="#6f84dd"/>
    <rect id="Rectángulo_28149" data-name="Rectángulo 28149" width="75.431" height="1.749" transform="translate(64.492 119.194)" fill="#8c9df4"/>
    <rect id="Rectángulo_28150" data-name="Rectángulo 28150" width="7.43" height="2.681" transform="translate(70.092 118.403)" fill="#ccd8ff"/>
    <rect id="Rectángulo_28151" data-name="Rectángulo 28151" width="4.095" height="38.818" transform="translate(71.759 121.085)" fill="#ccd8ff"/>
    <rect id="Rectángulo_28152" data-name="Rectángulo 28152" width="7.43" height="2.681" transform="translate(86.147 118.403)" fill="#ccd8ff"/>
    <rect id="Rectángulo_28153" data-name="Rectángulo 28153" width="4.095" height="38.818" transform="translate(87.814 121.085)" fill="#ccd8ff"/>
    <rect id="Rectángulo_28154" data-name="Rectángulo 28154" width="7.43" height="2.681" transform="translate(111.386 118.403)" fill="#ccd8ff"/>
    <rect id="Rectángulo_28155" data-name="Rectángulo 28155" width="4.095" height="38.818" transform="translate(113.053 121.085)" fill="#ccd8ff"/>
    <rect id="Rectángulo_28156" data-name="Rectángulo 28156" width="7.43" height="2.681" transform="translate(126.503 118.403)" fill="#ccd8ff"/>
    <rect id="Rectángulo_28157" data-name="Rectángulo 28157" width="4.095" height="38.818" transform="translate(128.17 121.085)" fill="#ccd8ff"/>
    <path id="Trazado_110781" data-name="Trazado 110781" d="M554.251,654.059a.933.933,0,0,0-.047-.33.7.7,0,0,0-.169-.261,1.309,1.309,0,0,0-.3-.219,3.351,3.351,0,0,0-.462-.2c-.311-.115-.595-.234-.848-.358a2.833,2.833,0,0,1-.652-.426,1.688,1.688,0,0,1-.416-.56,1.726,1.726,0,0,1-.14-.755,1.7,1.7,0,0,1,.151-.688,1.587,1.587,0,0,1,.391-.539,2,2,0,0,1,.6-.368,2.637,2.637,0,0,1,.782-.174l.015-.954.768.011-.015.967a2.369,2.369,0,0,1,.745.229,1.8,1.8,0,0,1,.919,1.056,2.388,2.388,0,0,1,.115.806l-1.387-.02a1.162,1.162,0,0,0-.226-.8.807.807,0,0,0-.631-.273,1.01,1.01,0,0,0-.374.054.679.679,0,0,0-.258.161.652.652,0,0,0-.151.244.968.968,0,0,0-.053.3.887.887,0,0,0,.044.3.652.652,0,0,0,.161.25,1.29,1.29,0,0,0,.309.217,4.232,4.232,0,0,0,.48.214q.462.181.842.37a2.871,2.871,0,0,1,.649.432,1.8,1.8,0,0,1,.409,2.014,1.569,1.569,0,0,1-.394.534,1.961,1.961,0,0,1-.6.356,2.844,2.844,0,0,1-.786.168l-.014.887-.763-.012.014-.883a3.222,3.222,0,0,1-.768-.184,2.073,2.073,0,0,1-.655-.4,1.834,1.834,0,0,1-.453-.643,2.229,2.229,0,0,1-.16-.92l1.388.02a1.4,1.4,0,0,0,.08.53.89.89,0,0,0,.234.342.868.868,0,0,0,.335.184,1.523,1.523,0,0,0,.386.056,1.235,1.235,0,0,0,.4-.051.819.819,0,0,0,.287-.151.654.654,0,0,0,.177-.24A.782.782,0,0,0,554.251,654.059Z" transform="translate(-450.651 -542.82)" fill="#ccd8ff"/>
    <path id="Trazado_110782" data-name="Trazado 110782" d="M531.372,903.85h.905a4.506,4.506,0,0,1,4.506,4.506v11.414H526.59V908.632a4.782,4.782,0,0,1,4.782-4.782Z" transform="translate(-429.993 -759.868)" fill="#6f84dd"/>
    <path id="Trazado_110783" data-name="Trazado 110783" d="M508.477,799.89h.425a2.126,2.126,0,0,1,2.129,2.129v5.388H506.22v-5.26A2.263,2.263,0,0,1,508.477,799.89Z" transform="translate(-412.697 -671.595)" fill="#6f84dd"/>
    <path id="Trazado_110784" data-name="Trazado 110784" d="M415.077,799.89h.429a2.126,2.126,0,0,1,2.126,2.129v5.388H412.82v-5.26A2.263,2.263,0,0,1,415.077,799.89Z" transform="translate(-333.391 -671.595)" fill="#6f84dd"/>
    <path id="Trazado_110785" data-name="Trazado 110785" d="M415.077,906.8h.429a2.126,2.126,0,0,1,2.126,2.126v5.388H412.82v-5.257A2.263,2.263,0,0,1,415.077,906.8Z" transform="translate(-333.391 -762.373)" fill="#6f84dd"/>
    <path id="Trazado_110786" data-name="Trazado 110786" d="M685.617,799.89h.429a2.126,2.126,0,0,1,2.128,2.129v5.388H683.36v-5.26A2.263,2.263,0,0,1,685.617,799.89Z" transform="translate(-563.107 -671.595)" fill="#6f84dd"/>
    <path id="Trazado_110787" data-name="Trazado 110787" d="M685.617,906.8h.429a2.126,2.126,0,0,1,2.126,2.126v5.388H683.36v-5.257A2.263,2.263,0,0,1,685.617,906.8Z" transform="translate(-563.107 -762.373)" fill="#6f84dd"/>
    <path id="Trazado_110788" data-name="Trazado 110788" d="M589.117,799.89h.429a2.126,2.126,0,0,1,2.126,2.129v5.388H586.86v-5.26A2.263,2.263,0,0,1,589.117,799.89Z" transform="translate(-481.169 -671.595)" fill="#6f84dd"/>
    <rect id="Rectángulo_28158" data-name="Rectángulo 28158" width="337.293" height="1.459" rx="0.73" transform="translate(41.557 257.463)" fill="#233862"/>
  </g>
</svg>
