<svg xmlns="http://www.w3.org/2000/svg" width="96" height="96" viewBox="0 0 96 96">
  <g id="Grupo_59886" data-name="Grupo 59886" transform="translate(-356 -4295)">
    <circle id="Elipse_4195" data-name="Elipse 4195" cx="48" cy="48" r="48" transform="translate(356 4295)" fill="#6595bf"/>
    <g id="investment" transform="translate(355 4294)">
      <path id="Trazado_111444" data-name="Trazado 111444" d="M328,192h8.725v35.991H328Z" transform="translate(-269.465 -152.006)" fill="#eda600"/>
      <path id="Trazado_111445" data-name="Trazado 111445" d="M392,112h8.725v46.9H392Z" transform="translate(-324.739 -82.912)" fill="#f6bb00"/>
      <path id="Trazado_111446" data-name="Trazado 111446" d="M264,272h8.725v25.085H264Z" transform="translate(-214.19 -221.099)" fill="#de9400"/>
      <path id="Trazado_111447" data-name="Trazado 111447" d="M200,352h8.725v14.178H200Z" transform="translate(-158.915 -290.193)" fill="#cf8300"/>
      <rect id="Rectángulo_28405" data-name="Rectángulo 28405" width="24.471" height="31.919" rx="12.236" transform="translate(17.064 48.456)" fill="#aed3f2"/>
      <path id="Trazado_111448" data-name="Trazado 111448" d="M56,288H71.269v5.453H56Z" transform="translate(-34.547 -234.918)" fill="#84d8e8"/>
      <path id="Trazado_111449" data-name="Trazado 111449" d="M64,360h6.544v13.088H64Z" transform="translate(-41.456 -297.102)" fill="#718799"/>
      <path id="Trazado_111450" data-name="Trazado 111450" d="M112,360h6.544v13.088H112Z" transform="translate(-82.912 -297.102)" fill="#f6bb00"/>
      <g id="Grupo_59885" data-name="Grupo 59885" transform="translate(43.266 17.091)">
        <path id="Trazado_111451" data-name="Trazado 111451" d="M216,184h4.363v4.363H216Z" transform="translate(-216 -162.187)" fill="#eda600"/>
        <path id="Trazado_111452" data-name="Trazado 111452" d="M296,104h4.363v4.363H296Z" transform="translate(-285.094 -93.094)" fill="#eda600"/>
        <path id="Trazado_111453" data-name="Trazado 111453" d="M376,24h4.363v4.363H376Z" transform="translate(-354.187 -24)" fill="#eda600"/>
      </g>
      <path id="Trazado_111454" data-name="Trazado 111454" d="M21.453,81.439H36.722a5.463,5.463,0,0,0,5.344-4.363H80.348V74.9H77.076V29.088A1.091,1.091,0,0,0,75.986,28H67.261a1.091,1.091,0,0,0-1.091,1.091V38.9H58.535a1.091,1.091,0,0,0-1.091,1.091V49.81H49.81A1.091,1.091,0,0,0,48.72,50.9v9.816H42.176V53.082a5.453,5.453,0,0,0-2.562-4.621l4.1-4.1h3.911a1.091,1.091,0,0,0,1.091-1.091V39.355l5.905-5.905h3.911a1.091,1.091,0,0,0,1.091-1.091V28.449l5.905-5.905h3.911a1.091,1.091,0,0,0,1.091-1.091V20.363h6.544V18.181H70.533V17.091A1.091,1.091,0,0,0,69.442,16H65.079a1.091,1.091,0,0,0-1.091,1.091V21l-5.905,5.905H54.173A1.091,1.091,0,0,0,53.082,28v3.911l-5.905,5.905H43.266A1.091,1.091,0,0,0,42.176,38.9v3.911l-4.849,4.849a5.486,5.486,0,0,0-.6-.034H21.453A5.459,5.459,0,0,0,16,53.082v22.9a5.459,5.459,0,0,0,5.453,5.453Zm46.9-51.261H74.9V74.9H68.351ZM59.626,41.085H66.17V74.9H59.626ZM57.445,51.991V74.9H50.9v-22.9ZM48.72,62.9v12H42.176v-12ZM66.17,18.181h2.181v2.181H66.17ZM55.263,29.088h2.181v2.181H55.263ZM44.357,39.994h2.181v2.181H44.357ZM18.181,53.082a3.276,3.276,0,0,1,3.272-3.272H36.722a3.276,3.276,0,0,1,3.272,3.272v22.9a3.276,3.276,0,0,1-3.272,3.272H21.453a3.276,3.276,0,0,1-3.272-3.272Z"/>
      <path id="Trazado_111455" data-name="Trazado 111455" d="M49.091,287.635H64.36a1.091,1.091,0,0,0,1.091-1.091v-5.453A1.091,1.091,0,0,0,64.36,280H49.091A1.091,1.091,0,0,0,48,281.091v5.453a1.091,1.091,0,0,0,1.091,1.091Zm1.091-5.453H63.269v3.272H50.181Z" transform="translate(-27.637 -228.009)"/>
      <path id="Trazado_111456" data-name="Trazado 111456" d="M70.178,352H57.091A1.091,1.091,0,0,0,56,353.091v13.088a1.091,1.091,0,0,0,1.091,1.091H70.178a1.091,1.091,0,0,0,1.091-1.091V353.091A1.091,1.091,0,0,0,70.178,352Zm-12,2.181h4.363v4.363H58.181Zm0,6.544h4.363v4.363H58.181Zm10.906,4.363H64.725V354.181h4.363Z" transform="translate(-34.547 -290.193)"/>
      <path id="Trazado_111457" data-name="Trazado 111457" d="M344,480h4.363v2.181H344Z" transform="translate(-283.283 -400.742)"/>
      <path id="Trazado_111458" data-name="Trazado 111458" d="M280,480h4.363v2.181H280Z" transform="translate(-228.008 -400.742)"/>
      <path id="Trazado_111459" data-name="Trazado 111459" d="M216,480h4.363v2.181H216Z" transform="translate(-172.734 -400.742)"/>
      <path id="Trazado_111460" data-name="Trazado 111460" d="M408,480h4.363v2.181H408Z" transform="translate(-338.558 -400.742)"/>
      <path id="Trazado_111461" data-name="Trazado 111461" d="M480,32h2.181v2.181H480Z" transform="translate(-400.742 -13.819)"/>
    </g>
  </g>
</svg>
