<svg xmlns="http://www.w3.org/2000/svg" width="96" height="96" viewBox="0 0 96 96">
  <g id="Grupo_59920" data-name="Grupo 59920" transform="translate(-356 -5033)">
    <circle id="Elipse_4199" data-name="Elipse 4199" cx="48" cy="48" r="48" transform="translate(356 5033)" fill="#6595bf"/>
    <g id="budget_3_" data-name="budget (3)" transform="translate(369 5046)">
      <g id="Grupo_59918" data-name="Grupo 59918" transform="translate(2.095 15.229)">
        <g id="Grupo_59909" data-name="Grupo 59909" transform="translate(2.189 30.646)">
          <path id="Trazado_111522" data-name="Trazado 111522" d="M4,42h8.756V63.89H4Z" transform="translate(-4 -42)" fill="#d9a171"/>
        </g>
        <g id="Grupo_59910" data-name="Grupo 59910" transform="translate(15.323 32.835)">
          <path id="Trazado_111523" data-name="Trazado 111523" d="M16,44h8.756V63.7H16Z" transform="translate(-16 -44)" fill="#d9a171"/>
        </g>
        <g id="Grupo_59911" data-name="Grupo 59911" transform="translate(41.592 10.945)">
          <path id="Trazado_111524" data-name="Trazado 111524" d="M54.229,65.592H40V24h8.756V34.945H48.57a3.1,3.1,0,0,0-2.189,5.287l3.47,3.47L45.878,50.06a9.784,9.784,0,0,0-1.5,5.221v.46A9.851,9.851,0,0,0,54.229,65.592Z" transform="translate(-40 -24)" fill="#d9a171"/>
        </g>
        <g id="Grupo_59912" data-name="Grupo 59912" transform="translate(28.457 19.701)">
          <path id="Trazado_111525" data-name="Trazado 111525" d="M28,32h8.756V64.835H28Z" transform="translate(-28 -32)" fill="#d9a171"/>
        </g>
        <g id="Grupo_59913" data-name="Grupo 59913" transform="translate(47.064 19.701)">
          <path id="Trazado_111526" data-name="Trazado 111526" d="M51.655,34.189A2.875,2.875,0,0,1,54.446,32h3a2.877,2.877,0,0,1,2.879,2.879,2.689,2.689,0,0,1-.109.788l-2.08,7.279H49.378l-3.47-3.47A3.1,3.1,0,0,1,48.1,34.189h3.557Z" transform="translate(-45 -32)" fill="#aed3f2"/>
        </g>
        <g id="Grupo_59914" data-name="Grupo 59914" transform="translate(45.97 30.646)">
          <path id="Trazado_111527" data-name="Trazado 111527" d="M49.473,42h8.756L62.2,48.359a9.784,9.784,0,0,1,1.5,5.221v.46a9.851,9.851,0,1,1-19.7,0v-.46a9.784,9.784,0,0,1,1.5-5.221Z" transform="translate(-44 -42)" fill="#aed3f2"/>
        </g>
        <g id="Grupo_59915" data-name="Grupo 59915" transform="translate(42.686)">
          <path id="Trazado_111528" data-name="Trazado 111528" d="M46.6,14.963A3.281,3.281,0,1,1,44.284,14,3.276,3.276,0,0,1,46.6,14.963Z" transform="translate(-41 -14)" fill="#fcd770"/>
        </g>
        <g id="Grupo_59916" data-name="Grupo 59916" transform="translate(27.363 8.756)">
          <path id="Trazado_111529" data-name="Trazado 111529" d="M33.14,23.664a3.222,3.222,0,0,1,.427,1.62,3.284,3.284,0,0,1-6.523.536A2.877,2.877,0,0,1,27,25.284a3.284,3.284,0,0,1,6.14-1.62Z" transform="translate(-27 -22)" fill="#fcd770"/>
        </g>
        <g id="Grupo_59917" data-name="Grupo 59917" transform="translate(0 4.378)">
          <path id="Trazado_111530" data-name="Trazado 111530" d="M23.737,27.15a10.735,10.735,0,0,1,.153,1.8,10.978,10.978,0,1,1-.153-1.8Z" transform="translate(-2 -18)" fill="#fcd770"/>
        </g>
      </g>
      <g id="Grupo_59919" data-name="Grupo 59919" transform="translate(1 1)">
        <path id="Trazado_111531" data-name="Trazado 111531" d="M11.189,33.975v2.348h2.189V33.975a3.112,3.112,0,0,0,.462-5.759L11.706,27.15a.936.936,0,0,1,.418-1.772h.32a.936.936,0,0,1,.935.935v.16h2.189v-.16a3.118,3.118,0,0,0-2.189-2.965V21H11.189v2.348a3.112,3.112,0,0,0-.462,5.759l2.134,1.066a.936.936,0,0,1-.418,1.772h-.32a.936.936,0,0,1-.935-.935V29.756H9V31.01A3.118,3.118,0,0,0,11.189,33.975Z" transform="translate(-0.244 0.89)"/>
        <path id="Trazado_111532" data-name="Trazado 111532" d="M13.04,42.592a12.054,12.054,0,0,0,12.04-12.04c0-.3-.023-.594-.045-.89l3.713-.619a4.36,4.36,0,0,0,8.2-2.918l7.984-4.563A4.361,4.361,0,0,0,51.822,16.3L63.387,4.737v6.114h2.189V1H55.726V3.189H61.84L50.274,14.755a4.32,4.32,0,0,0-2.21-.621,4.382,4.382,0,0,0-4.378,4.378,4.339,4.339,0,0,0,.171,1.144l-7.984,4.563a4.354,4.354,0,0,0-7.47,2.663l-3.729.622A12.034,12.034,0,1,0,13.04,42.592ZM48.064,16.323a2.189,2.189,0,1,1-2.189,2.189A2.191,2.191,0,0,1,48.064,16.323ZM32.741,25.079a2.189,2.189,0,1,1-2.189,2.189A2.191,2.191,0,0,1,32.741,25.079ZM13.04,20.7a9.851,9.851,0,1,1-9.851,9.851A9.863,9.863,0,0,1,13.04,20.7Z" transform="translate(-1 -1)"/>
        <path id="Trazado_111533" data-name="Trazado 111533" d="M3,65.079H13.945V41H3Zm2.189-21.89h6.567v19.7H5.189Z" transform="translate(-0.811 2.781)"/>
        <path id="Trazado_111534" data-name="Trazado 111534" d="M15,64.89H25.945V43H15Zm2.189-19.7h6.567V62.7H17.189Z" transform="translate(0.323 2.97)"/>
        <path id="Trazado_111535" data-name="Trazado 111535" d="M27,66.024H37.945V31H27Zm2.189-32.835h6.567V63.835H29.189Z" transform="translate(1.457 1.835)"/>
        <path id="Trazado_111536" data-name="Trazado 111536" d="M54.378,47.348V45H52.189v2.348a3.112,3.112,0,0,0-.462,5.759l2.134,1.067a.935.935,0,0,1-.418,1.771h-.32a.936.936,0,0,1-.935-.935V53.756H50V55.01a3.116,3.116,0,0,0,2.189,2.965v2.348h2.189V57.975a3.112,3.112,0,0,0,.462-5.759l-2.134-1.067a.935.935,0,0,1,.418-1.771h.32a.936.936,0,0,1,.935.935v.16h2.189v-.16A3.118,3.118,0,0,0,54.378,47.348Z" transform="translate(3.631 3.159)"/>
        <path id="Trazado_111537" data-name="Trazado 111537" d="M63.6,49.576l-3.717-5.948,1.945-6.807a3.976,3.976,0,0,0-3.822-5.065h-3a3.964,3.964,0,0,0-3.531,2.189H49.945V23H39V66.781H54.323A10.958,10.958,0,0,0,65.268,55.835v-.459a10.935,10.935,0,0,0-1.664-5.8ZM53.229,35.731a1.788,1.788,0,0,1,1.785-1.786h3a1.785,1.785,0,0,1,1.717,2.277L57.876,42.7H50.4L47.247,39.55a2,2,0,0,1,1.416-3.416H51.04v2.189h2.189Zm-12.04,28.86v-39.4h6.567V34.05A4.184,4.184,0,0,0,45.7,41.1l2.856,2.856-3.513,5.623a10.927,10.927,0,0,0-1.665,5.8v.459a10.923,10.923,0,0,0,4.407,8.756Zm21.89-8.756a8.756,8.756,0,0,1-17.512,0v-.459a8.736,8.736,0,0,1,1.331-4.64l3.653-5.847h7.543l3.653,5.847a8.736,8.736,0,0,1,1.331,4.64Z" transform="translate(2.592 1.079)"/>
      </g>
    </g>
  </g>
</svg>
