<svg xmlns="http://www.w3.org/2000/svg" width="96" height="96" viewBox="0 0 96 96">
  <g id="Grupo_59884" data-name="Grupo 59884" transform="translate(-356 -4054)">
    <circle id="Elipse_4194" data-name="Elipse 4194" cx="48" cy="48" r="48" transform="translate(356 4054)" fill="#6595bf"/>
    <g id="asset-management" transform="translate(369.9 4067.9)">
      <g id="Grupo_59882" data-name="Grupo 59882" transform="translate(1.944 1.945)">
        <g id="Grupo_59873" data-name="Grupo 59873" transform="translate(2.259 7.565)">
          <path id="Trazado_111431" data-name="Trazado 111431" d="M16.759,8.97a29.9,29.9,0,0,0-7.453,7.453,28.844,28.844,0,0,0-2.637,4.6,28.37,28.37,0,0,0-1.794,5.05H4.865A30.388,30.388,0,0,0,4,31.424h6.438a23.41,23.41,0,0,1,.737-4.089,23.874,23.874,0,0,1,3.47-7.346,23.4,23.4,0,0,1,5.68-5.68Z" transform="translate(-4 -8.97)" fill="#ff826e"/>
        </g>
        <g id="Grupo_59874" data-name="Grupo 59874" transform="translate(15.018 2.259)">
          <path id="Trazado_111432" data-name="Trazado 111432" d="M25.6,4.865v.011a28.37,28.37,0,0,0-5.05,1.794,28.844,28.844,0,0,0-4.6,2.637l3.566,5.339a23.874,23.874,0,0,1,7.346-3.47,23.41,23.41,0,0,1,4.089-.737V4a30.388,30.388,0,0,0-5.349.865Z" transform="translate(-15.95 -4)" fill="#fcd770"/>
        </g>
        <g id="Grupo_59875" data-name="Grupo 59875" transform="translate(34.291 2.259)">
          <path id="Trazado_111433" data-name="Trazado 111433" d="M48.991,9.3a29.946,29.946,0,0,1,12.77,22.465H55.323A23.571,23.571,0,0,0,34,10.438V4A29.864,29.864,0,0,1,48.991,9.3Z" transform="translate(-34 -4)" fill="#ffeaa7"/>
        </g>
        <g id="Grupo_59876" data-name="Grupo 59876" transform="translate(34.291 34.29)">
          <path id="Trazado_111434" data-name="Trazado 111434" d="M55.323,34h6.438A29.976,29.976,0,0,1,34,61.761V55.323A23.571,23.571,0,0,0,55.323,34Z" transform="translate(-34 -34)" fill="#ffeaa7"/>
        </g>
        <g id="Grupo_59877" data-name="Grupo 59877" transform="translate(2.259 34.29)">
          <path id="Trazado_111435" data-name="Trazado 111435" d="M16.77,56.465A29.946,29.946,0,0,1,4,34h6.438A23.571,23.571,0,0,0,31.761,55.323v6.438A29.864,29.864,0,0,1,16.77,56.465Z" transform="translate(-4 -34)" fill="#ffeaa7"/>
        </g>
        <g id="Grupo_59878" data-name="Grupo 59878" transform="translate(24.681 14.004)">
          <path id="Trazado_111436" data-name="Trazado 111436" d="M39.948,16.068l-3.2,9.61H28.2L25,17.135l4.271-1.068,3.2,3.2L35.677,15Z" transform="translate(-25 -15)" fill="#d3a06c"/>
        </g>
        <g id="Grupo_59879" data-name="Grupo 59879" transform="translate(19.343 24.681)">
          <path id="Trazado_111437" data-name="Trazado 111437" d="M44.5,32.987a12.311,12.311,0,0,1,1.121,5.157A12.49,12.49,0,0,1,33.144,50.626h-.662A12.485,12.485,0,0,1,24.26,28.748L28.542,25h8.542l4.282,3.748A12.439,12.439,0,0,1,44.5,32.987Z" transform="translate(-20 -25)" fill="#cf9e76"/>
        </g>
        <g id="Grupo_59880" data-name="Grupo 59880" transform="translate(0 59.582)">
          <circle id="Elipse_4363" data-name="Elipse 4363" cx="2.5" cy="2.5" r="2.5" transform="translate(0.155 -0.427)" fill="#ff826e"/>
        </g>
        <g id="Grupo_59881" data-name="Grupo 59881" transform="translate(59.582 0)">
          <circle id="Elipse_4364" data-name="Elipse 4364" cx="2.5" cy="2.5" r="2.5" transform="translate(-0.427 0.155)" fill="#ff826e"/>
        </g>
      </g>
      <g id="Grupo_59883" data-name="Grupo 59883" transform="translate(1 1)">
        <path id="Trazado_111438" data-name="Trazado 111438" d="M33.339,30H31.2v2.135a3.2,3.2,0,1,0,0,6.406h2.135a1.068,1.068,0,1,1,0,2.135h-3.2V39.61H28v3.2h3.2v2.135h2.135V42.813a3.2,3.2,0,1,0,0-6.406H31.2a1.068,1.068,0,0,1,0-2.135h3.2v1.068h2.135v-3.2h-3.2Z" transform="translate(0.829 0.964)"/>
        <path id="Trazado_111439" data-name="Trazado 111439" d="M46.761,38.893a13.554,13.554,0,0,0-4.628-10.2l-3.745-3.276,3.343-10.03-6.076-1.519-2.89,3.853-2.76-2.76-6.019,1.5,3.364,8.971-3.722,3.257a13.554,13.554,0,0,0,8.925,23.754h.653A13.568,13.568,0,0,0,46.761,38.893ZM29.35,17.326,33,20.973l3.516-4.688,2.464.616-2.595,7.786H29.35l-2.523-6.729Zm3.858,32.985h-.653A11.418,11.418,0,0,1,25.035,30.3l3.975-3.479h7.74L40.726,30.3a11.418,11.418,0,0,1-7.519,20.011Z" transform="translate(0.219 -0.128)"/>
        <path id="Trazado_111440" data-name="Trazado 111440" d="M11.579,31.93A22.449,22.449,0,0,1,31.93,11.579l.972-.088V2.927l-1.142.081A31.163,31.163,0,0,0,3.007,31.759L2.927,32.9h8.564ZM22.535,12.174c-.63.33-1.242.689-1.838,1.07L18.34,9.715A28.905,28.905,0,0,1,20.9,8.226Zm.3-4.844A28.592,28.592,0,0,1,25.665,6.3l.838,4.216c-.693.22-1.371.472-2.035.75ZM18.95,14.473q-.836.644-1.611,1.356l-3-3a29.247,29.247,0,0,1,2.248-1.892Zm-3.121,2.866q-.711.775-1.356,1.61l-3.534-2.362q.889-1.172,1.891-2.248ZM13.243,20.7q-.573.894-1.07,1.839L8.226,20.9a28.916,28.916,0,0,1,1.489-2.56Zm-1.982,3.772c-.278.665-.531,1.342-.75,2.035L6.3,25.665a28.323,28.323,0,0,1,1.034-2.826Zm19.5-14.91c-.744.1-1.475.232-2.2.393l-.833-4.188a28.387,28.387,0,0,1,3.029-.522ZM5.242,30.766a28.387,28.387,0,0,1,.522-3.029l4.189.833c-.162.721-.3,1.452-.394,2.2Z" transform="translate(-0.869 -0.869)"/>
        <path id="Trazado_111441" data-name="Trazado 111441" d="M54.323,33.972A22.449,22.449,0,0,1,33.972,54.323L33,54.41v8.564l1.142-.081A31.161,31.161,0,0,0,62.893,34.142L62.974,33H54.41Zm6.337,1.164A29.033,29.033,0,0,1,35.135,60.66V56.343A24.585,24.585,0,0,0,56.343,35.135Z" transform="translate(1.167 1.167)"/>
        <path id="Trazado_111442" data-name="Trazado 111442" d="M11.709,33.972,11.622,33H3.058l.081,1.142A31.073,31.073,0,0,0,15.364,56.633l-4.129,4.128H7.21a3.2,3.2,0,1,0,0,2.135h4.909l5.014-5.014a30.752,30.752,0,0,0,14.756,5.011l1.142.081V54.41l-.972-.088A22.448,22.448,0,0,1,11.709,33.972ZM4.2,62.9a1.068,1.068,0,1,1,1.068-1.068A1.069,1.069,0,0,1,4.2,62.9ZM30.9,60.66A29.033,29.033,0,0,1,5.372,35.135H9.689A24.585,24.585,0,0,0,30.9,56.343Z" transform="translate(-1 1.167)"/>
        <path id="Trazado_111443" data-name="Trazado 111443" d="M58.822,5.271a3.2,3.2,0,1,0,0-2.135H53.913L48.9,8.15A30.751,30.751,0,0,0,34.142,3.139L33,3.058v8.564l.972.088A22.449,22.449,0,0,1,54.323,32.06l.088.972h8.564l-.081-1.142A31.073,31.073,0,0,0,50.668,9.4L54.8,5.271Zm3.007-2.135A1.068,1.068,0,1,1,60.761,4.2,1.069,1.069,0,0,1,61.829,3.135ZM60.66,30.9H56.343A24.585,24.585,0,0,0,35.135,9.689V5.372A29.033,29.033,0,0,1,60.66,30.9Z" transform="translate(1.167 -1)"/>
      </g>
    </g>
  </g>
</svg>
