<svg xmlns="http://www.w3.org/2000/svg" width="96" height="96" viewBox="0 0 96 96">
  <g id="Grupo_59922" data-name="Grupo 59922" transform="translate(-356 -4663)">
    <circle id="Elipse_4197" data-name="Elipse 4197" cx="48" cy="48" r="48" transform="translate(356 4663)" fill="#6595bf"/>
    <g id="budget_2_" data-name="budget (2)" transform="translate(356.433 4676.732)">
      <g id="Grupo_59907" data-name="Grupo 59907" transform="translate(17.552 0.985)">
        <g id="Grupo_59905" data-name="Grupo 59905" transform="translate(8.706)">
          <g id="Grupo_59903" data-name="Grupo 59903">
            <path id="Trazado_111502" data-name="Trazado 111502" d="M140.032,109.439v4.353a2.177,2.177,0,0,0,2.177,2.177h41.355a2.177,2.177,0,0,0,2.177-2.177V59.378a2.177,2.177,0,0,0-2.177-2.177H179.21Z" transform="translate(-133.502 -50.671)" fill="#d3e2eb"/>
            <path id="Trazado_111503" data-name="Trazado 111503" d="M90.332,64.092a2.177,2.177,0,0,0,2.177,2.177h41.355a2.177,2.177,0,0,0,2.177-2.177V9.678A2.177,2.177,0,0,0,133.864,7.5H92.509a2.177,2.177,0,0,0-2.177,2.177Z" transform="translate(-90.332 -7.501)" fill="#ecf0f9"/>
            <path id="Trazado_111504" data-name="Trazado 111504" d="M401.688,7.5h-3.022a2.177,2.177,0,0,1,2.177,2.177V64.091a2.177,2.177,0,0,1-2.177,2.177h3.022a2.177,2.177,0,0,0,2.177-2.177V9.677A2.177,2.177,0,0,0,401.688,7.5Z" transform="translate(-358.156 -7.5)" fill="#d8e4f0"/>
            <path id="Trazado_111505" data-name="Trazado 111505" d="M451.388,57.2h-3.022a2.177,2.177,0,0,1,2.177,2.177v54.414a2.177,2.177,0,0,1-2.177,2.177h3.022a2.177,2.177,0,0,0,2.177-2.177V59.377A2.177,2.177,0,0,0,451.388,57.2Z" transform="translate(-401.326 -50.67)" fill="#b0c4d8"/>
          </g>
          <g id="Grupo_59904" data-name="Grupo 59904" transform="translate(15.236 4.353)">
            <path id="Trazado_111506" data-name="Trazado 111506" d="M218.308,44.987H207.351a1.051,1.051,0,0,1-1.051-1.051V41.685a1.051,1.051,0,0,1,1.051-1.051h10.957a1.051,1.051,0,0,1,1.051,1.051v2.251A1.051,1.051,0,0,1,218.308,44.987Z" transform="translate(-206.3 -40.634)" fill="#d9a171"/>
            <path id="Trazado_111507" data-name="Trazado 111507" d="M298.965,376.32h-8.781a1.051,1.051,0,0,1-1.051-1.051v-2.251a1.051,1.051,0,0,1,1.051-1.051h8.781a1.051,1.051,0,0,1,1.051,1.051v2.251A1.051,1.051,0,0,1,298.965,376.32Z" transform="translate(-278.25 -328.435)" fill="#d9a171"/>
          </g>
        </g>
        <g id="Grupo_59906" data-name="Grupo 59906" transform="translate(0 34.825)">
          <circle id="Elipse_4365" data-name="Elipse 4365" cx="13.059" cy="13.059" r="13.059" fill="#ffe179"/>
          <circle id="Elipse_4366" data-name="Elipse 4366" cx="8.706" cy="8.706" r="8.706" transform="translate(4.353 4.353)" fill="#ffcb5b"/>
          <path id="Trazado_111508" data-name="Trazado 111508" d="M113.477,272.567a13.194,13.194,0,0,0-1.511.087,13.06,13.06,0,0,1,0,25.944,13.06,13.06,0,1,0,1.511-26.031Z" transform="translate(-100.417 -272.567)" fill="#fc6"/>
          <path id="Trazado_111509" data-name="Trazado 111509" d="M113.477,305.7a8.758,8.758,0,0,0-1.511.133,8.7,8.7,0,0,1,0,17.146,8.706,8.706,0,1,0,1.511-17.279Z" transform="translate(-100.417 -301.347)" fill="#ffb85b"/>
        </g>
      </g>
      <g id="Grupo_59908" data-name="Grupo 59908" transform="translate(16.567 0)">
        <path id="Trazado_111510" data-name="Trazado 111510" d="M102.562,326.109a1.192,1.192,0,0,1,1.191,1.191.985.985,0,0,0,1.971,0,3.167,3.167,0,0,0-2.176-3v-.261a.985.985,0,0,0-1.971,0v.261a3.162,3.162,0,0,0,.985,6.166,1.191,1.191,0,1,1-1.191,1.191.985.985,0,1,0-1.971,0,3.167,3.167,0,0,0,2.177,3v.261a.985.985,0,1,0,1.971,0v-.261a3.162,3.162,0,0,0-.985-6.166,1.191,1.191,0,1,1,0-2.382Z" transform="translate(-88.517 -280.607)"/>
        <path id="Trazado_111511" data-name="Trazado 111511" d="M67.675,302.859a.985.985,0,0,0-1.684,1.025,7.717,7.717,0,1,1-2.519-2.548.985.985,0,0,0,1.044-1.672,9.688,9.688,0,1,0,3.159,3.2Z" transform="translate(-45.346 -259.021)"/>
        <path id="Trazado_111512" data-name="Trazado 111512" d="M76.32,6.53H72.952V3.162A3.166,3.166,0,0,0,69.79,0H28.435a3.166,3.166,0,0,0-3.162,3.162V14.251a.985.985,0,1,0,1.971,0V3.162a1.193,1.193,0,0,1,1.191-1.191H69.79a1.193,1.193,0,0,1,1.191,1.191V57.576a1.193,1.193,0,0,1-1.191,1.191H40.567a14.024,14.024,0,0,0,2.942-15.456.992.992,0,0,0,.163.015h8.706a.985.985,0,1,0,0-1.971H43.671a.985.985,0,0,0-.875.534,14.044,14.044,0,0,0-15.552-6.655V18.192a.985.985,0,1,0-1.971,0V35.88a14.044,14.044,0,0,0,5.339,27.035c.4,0,.8-.018,1.191-.051v1.242a3.166,3.166,0,0,0,3.162,3.162H76.32a3.166,3.166,0,0,0,3.162-3.162V9.692A3.166,3.166,0,0,0,76.32,6.53ZM18.538,48.87A12.074,12.074,0,1,1,30.612,60.944,12.088,12.088,0,0,1,18.538,48.87ZM77.511,64.106A1.193,1.193,0,0,1,76.32,65.3H34.965a1.193,1.193,0,0,1-1.191-1.191v-1.55a13.967,13.967,0,0,0,4.34-1.818H69.79a3.166,3.166,0,0,0,3.162-3.162V8.5H76.32a1.193,1.193,0,0,1,1.191,1.191Z" transform="translate(-16.567 0)"/>
        <path id="Trazado_111513" data-name="Trazado 111513" d="M211.794,33.133H200.836a2.039,2.039,0,0,0-2.036,2.036V37.42a2.039,2.039,0,0,0,2.036,2.036h10.957a2.039,2.039,0,0,0,2.036-2.036V35.169A2.039,2.039,0,0,0,211.794,33.133Zm.066,4.288a.066.066,0,0,1-.066.066H200.836a.066.066,0,0,1-.066-.066V35.169a.066.066,0,0,1,.066-.066h10.957a.066.066,0,0,1,.066.066Z" transform="translate(-174.858 -28.78)"/>
        <path id="Trazado_111514" data-name="Trazado 111514" d="M292.45,364.467h-8.781a2.039,2.039,0,0,0-2.036,2.036v2.251a2.039,2.039,0,0,0,2.036,2.036h8.781a2.039,2.039,0,0,0,2.036-2.036V366.5A2.039,2.039,0,0,0,292.45,364.467Zm.066,4.287a.066.066,0,0,1-.066.066h-8.781a.066.066,0,0,1-.066-.066V366.5a.066.066,0,0,1,.066-.066h8.781a.066.066,0,0,1,.066.066Z" transform="translate(-246.808 -316.582)"/>
        <path id="Trazado_111515" data-name="Trazado 111515" d="M235.942,115.967H216.352a.985.985,0,1,0,0,1.971h19.589a.985.985,0,0,0,0-1.971Z" transform="translate(-189.248 -100.731)"/>
        <path id="Trazado_111516" data-name="Trazado 111516" d="M151.136,122.291h2.251a2.039,2.039,0,0,0,2.036-2.036V118a2.039,2.039,0,0,0-2.036-2.036h-2.251A2.039,2.039,0,0,0,149.1,118v2.251A2.039,2.039,0,0,0,151.136,122.291ZM151.071,118a.066.066,0,0,1,.066-.066h2.251a.066.066,0,0,1,.066.066v2.251a.066.066,0,0,1-.066.066h-2.251a.066.066,0,0,1-.066-.066Z" transform="translate(-131.687 -100.731)"/>
        <path id="Trazado_111517" data-name="Trazado 111517" d="M216.351,151.071h8.706a.985.985,0,0,0,0-1.971h-8.706a.985.985,0,1,0,0,1.971Z" transform="translate(-189.247 -129.511)"/>
        <path id="Trazado_111518" data-name="Trazado 111518" d="M235.942,198.8H216.352a.985.985,0,1,0,0,1.971h19.589a.985.985,0,0,0,0-1.971Z" transform="translate(-189.248 -172.681)"/>
        <path id="Trazado_111519" data-name="Trazado 111519" d="M149.1,203.087a2.039,2.039,0,0,0,2.036,2.036h2.251a2.039,2.039,0,0,0,2.036-2.036v-2.251a2.039,2.039,0,0,0-2.036-2.036h-2.251a2.039,2.039,0,0,0-2.036,2.036Zm1.971-2.251a.066.066,0,0,1,.066-.066h2.251a.066.066,0,0,1,.066.066v2.251a.066.066,0,0,1-.066.066h-2.251a.066.066,0,0,1-.066-.066Z" transform="translate(-131.687 -172.681)"/>
        <path id="Trazado_111520" data-name="Trazado 111520" d="M216.351,233.9h8.706a.985.985,0,1,0,0-1.971h-8.706a.985.985,0,1,0,0,1.971Z" transform="translate(-189.247 -201.461)"/>
        <path id="Trazado_111521" data-name="Trazado 111521" d="M235.942,281.633H216.352a.985.985,0,1,0,0,1.971h19.589a.985.985,0,0,0,0-1.971Z" transform="translate(-189.248 -244.631)"/>
      </g>
    </g>
  </g>
</svg>
