<svg xmlns="http://www.w3.org/2000/svg" width="96" height="96" viewBox="0 0 96 96">
  <g id="Grupo_59923" data-name="Grupo 59923" transform="translate(-356 -4855)">
    <circle id="Elipse_4198" data-name="Elipse 4198" cx="48" cy="48" r="48" transform="translate(356 4855)" fill="#6595bf"/>
    <g id="budget_1_" data-name="budget (1)" transform="translate(372 4872)">
      <g id="Grupo_59901" data-name="Grupo 59901">
        <g id="Grupo_59887" data-name="Grupo 59887">
          <path id="Trazado_111481" data-name="Trazado 111481" d="M56,4V19l-.04.04L49,26H44a5.01,5.01,0,0,0-4,2H26V52H48v4H22V26A10,10,0,0,0,12,16V12.83a1.968,1.968,0,0,1,.18-.83H20a2.006,2.006,0,0,0,2-2V2.18A1.968,1.968,0,0,1,22.83,2H54a2.006,2.006,0,0,1,2,2Z" fill="#e6e9ed"/>
        </g>
        <g id="Grupo_59888" data-name="Grupo 59888">
          <path id="Trazado_111482" data-name="Trazado 111482" d="M45.25,44.8a5.45,5.45,0,0,1-1.21-1.33,5.636,5.636,0,0,1-.8-1.7h-.01L39,46l-1,.4-3.7,1.48A1.682,1.682,0,0,1,32.03,46a1.71,1.71,0,0,1,.09-.3L34,41l1-1,6-6a2.006,2.006,0,0,1-2-2V31a4.941,4.941,0,0,1,1-3H26V52H48V47Z" fill="#ffeaa7"/>
        </g>
        <g id="Grupo_59889" data-name="Grupo 59889">
          <path id="Trazado_111483" data-name="Trazado 111483" d="M26,6H52v4H26Z" fill="#d9a171"/>
        </g>
        <g id="Grupo_59890" data-name="Grupo 59890">
          <path id="Trazado_111484" data-name="Trazado 111484" d="M22,2.18V10a2.006,2.006,0,0,1-2,2H12.18a2.017,2.017,0,0,1,.41-.59l8.82-8.82A2.017,2.017,0,0,1,22,2.18Z" fill="#f2e9e4"/>
        </g>
        <g id="Grupo_59891" data-name="Grupo 59891">
          <path id="Trazado_111485" data-name="Trazado 111485" d="M43,32v8.12a5.678,5.678,0,0,0,.24,1.65h-.01L39,46l-5-5,1-1,6-6a2.015,2.015,0,0,0,2-2Z" fill="#6595bf"/>
        </g>
        <g id="Grupo_59893" data-name="Grupo 59893">
          <path id="Trazado_111487" data-name="Trazado 111487" d="M39,46l-1,.4-3.7,1.48A1.682,1.682,0,0,1,32.03,46a1.71,1.71,0,0,1,.09-.3L34,41Z" fill="#aab2bd"/>
        </g>
        <g id="Grupo_59894" data-name="Grupo 59894">
          <path id="Trazado_111488" data-name="Trazado 111488" d="M59,44l2,12H48V47Z" fill="#e8e8e8"/>
        </g>
        <g id="Grupo_59895" data-name="Grupo 59895">
          <path id="Trazado_111489" data-name="Trazado 111489" d="M42.41,33.41A1.955,1.955,0,0,1,41,34a2.006,2.006,0,0,1-2-2V31a4.941,4.941,0,0,1,1-3,5.01,5.01,0,0,1,4-2h5l-4.13,4.13A3.1,3.1,0,0,0,44,30a1,1,0,0,0-1,1v1A1.955,1.955,0,0,1,42.41,33.41Z" fill="#f0d0b4"/>
        </g>
        <g id="Grupo_59896" data-name="Grupo 59896">
          <path id="Trazado_111490" data-name="Trazado 111490" d="M55.65,30.85A27.493,27.493,0,0,1,59,44L48,47l-2.75-2.2a5.45,5.45,0,0,1-1.21-1.33A6.024,6.024,0,0,1,43,40.12V31a1,1,0,0,1,1-1,3.1,3.1,0,0,1,.87.13,3.058,3.058,0,0,1,1.25.75A2.993,2.993,0,0,1,47,33v5l8.12-8.12Z" fill="#f0d0b4"/>
        </g>
        <g id="Grupo_59897" data-name="Grupo 59897">
          <path id="Trazado_111491" data-name="Trazado 111491" d="M22,26V58a4,4,0,0,1-4,4H6a4,4,0,0,1-4-4V26a9.991,9.991,0,0,0,4,8v7a1,1,0,0,0,1,1H17a1,1,0,0,0,1-1V34A9.991,9.991,0,0,0,22,26Z" fill="#969faa"/>
        </g>
        <g id="Grupo_59898" data-name="Grupo 59898">
          <path id="Trazado_111492" data-name="Trazado 111492" d="M17.078,57.966H7.025a1,1,0,0,1-1-1v-9.96a1,1,0,0,1,1-1H17.077a1,1,0,0,1,1,1v9.96A1,1,0,0,1,17.078,57.966Z" fill="#eaccb2"/>
        </g>
        <g id="Grupo_59900" data-name="Grupo 59900">
          <path id="Trazado_111494" data-name="Trazado 111494" d="M22,26A10,10,0,1,1,12,16,9.991,9.991,0,0,1,22,26Z" fill="#fcd770"/>
        </g>
      </g>
      <g id="Grupo_59902" data-name="Grupo 59902">
        <path id="Trazado_111495" data-name="Trazado 111495" d="M56.526,30.376l-.172-.316,5.318-5.318A4.516,4.516,0,0,0,57,17.26V4a3,3,0,0,0-3-3H22.829a2.982,2.982,0,0,0-2.122.879l-8.828,8.828A2.978,2.978,0,0,0,11,12.829v2.222A11.01,11.01,0,0,0,1,26V58a5.006,5.006,0,0,0,5,5H18a5.006,5.006,0,0,0,5-5V57H62.181L60,43.9A28.54,28.54,0,0,0,56.526,30.376Zm1.45,12.867L48.227,45.9l-2.351-1.881A4.98,4.98,0,0,1,44,40.116V31a2,2,0,0,1,2,2v7h2V38.414l6.874-6.874A26.514,26.514,0,0,1,57.976,43.243ZM44,29a2,2,0,0,0-2,2v1a1,1,0,0,1-2,0V31a4,4,0,0,1,4-4h2.586l-2.054,2.054A3.9,3.9,0,0,0,44,29ZM33.049,46.072l1.316-3.292,2.855,2.855-3.293,1.317A.693.693,0,0,1,33,46.323.653.653,0,0,1,33.049,46.072ZM39,44.586,35.414,41l6.047-6.047A2.918,2.918,0,0,0,42,34.815v5.3a7.034,7.034,0,0,0,.136,1.334ZM38.184,33H27V29H38.35A5.976,5.976,0,0,0,38,31v1A2.966,2.966,0,0,0,38.184,33ZM27,35H38.586l-4,4H27Zm0,6h5.923l-1.6,4H27Zm0,6h4.1a2.668,2.668,0,0,0,3.574,1.809L37,47.877V51H27Zm12,.077.562-.225,3.33-3.33c.036.065.069.131.108.195V51H39Zm6-1.2,2,1.6V51H45ZM61,21.536a2.52,2.52,0,0,1-.743,1.793L48,35.586V33a3.976,3.976,0,0,0-1.494-3.092L56.671,19.743A2.536,2.536,0,0,1,61,21.536ZM21,4.414V10a1,1,0,0,1-1,1H14.414ZM12,17a9,9,0,1,1-9,9,9.011,9.011,0,0,1,9-9ZM7,35.786a10.9,10.9,0,0,0,10,0V41H7ZM18,61H6a3,3,0,0,1-3-3V32.305a11.1,11.1,0,0,0,2,2.174V41a2,2,0,0,0,2,2H17a2,2,0,0,0,2-2V34.479a11.1,11.1,0,0,0,2-2.174V58A3,3,0,0,1,18,61Zm5-6V26A11.01,11.01,0,0,0,13,15.051V13h7a3,3,0,0,0,3-3V3H54a1,1,0,0,1,1,1V18.586L48.586,25H44a5.983,5.983,0,0,0-4.46,2H25V53H47v2Zm26,0V47.764l9.195-2.508L59.819,55Z"/>
        <path id="Trazado_111496" data-name="Trazado 111496" d="M11,30.855V33h2V30.855a2.844,2.844,0,0,0,.422-5.262l-1.95-.974A.855.855,0,0,1,11.854,23h.292a.855.855,0,0,1,.854.854V25h2V23.854a2.849,2.849,0,0,0-2-2.709V19H11v2.145a2.844,2.844,0,0,0-.422,5.262l1.95.974A.855.855,0,0,1,12.146,29h-.292A.855.855,0,0,1,11,28.146V27H9v1.146A2.849,2.849,0,0,0,11,30.855Z"/>
        <path id="Trazado_111497" data-name="Trazado 111497" d="M17,45H7a2,2,0,0,0-2,2V57a2,2,0,0,0,2,2H17a2,2,0,0,0,2-2V47A2,2,0,0,0,17,45Zm0,4H15V47h2Zm-4,8H11V55h2Zm0-4H11V51h2ZM9,53H7V51H9Zm2-4V47h2v2ZM9,47v2H7V47ZM7,55H9v2H7Zm8,2V51h2v6Z"/>
        <path id="Trazado_111498" data-name="Trazado 111498" d="M53,5H25v6H53ZM51,9H27V7H51Z"/>
        <path id="Trazado_111499" data-name="Trazado 111499" d="M25,13H53v2H25Z"/>
        <path id="Trazado_111500" data-name="Trazado 111500" d="M25,17H53v2H25Z"/>
        <path id="Trazado_111501" data-name="Trazado 111501" d="M25,21H41v2H25Z"/>
      </g>
    </g>
  </g>
</svg>
