<svg xmlns="http://www.w3.org/2000/svg" width="368.594" height="241.478" viewBox="0 0 368.594 241.478">
  <g id="Vault-pana" transform="translate(-129.469 -59.68)">
    <g id="freepik--background-complete--inject-201" transform="translate(253.046 59.68)">
      <path id="Trazado_107518" data-name="Trazado 107518" d="M601.44,378.573a12.365,12.365,0,0,1,9.7,8.115c1.855,4.665,6.717,13.148,10.447,12.275l8.477-7.147a30.231,30.231,0,0,1-7.106-11c-2.175-6.308-11.089-11.736-11.089-11.736Z" transform="translate(-429.364 -158.085)" fill="#f5f5f5"/>
      <path id="Trazado_107519" data-name="Trazado 107519" d="M625.907,384.877a5.3,5.3,0,0,1-2.939,7.454c-2.639.812-5.81-1.875-6.622-4.514a5.005,5.005,0,0,1,3.307-6.253C622.293,380.752,624.646,382.416,625.907,384.877Z" transform="translate(-434.034 -161.989)" fill="#e0e0e0"/>
      <path id="Trazado_107520" data-name="Trazado 107520" d="M623.549,390.389a1.581,1.581,0,0,0,.13-.5,1.727,1.727,0,0,0,0-.5,2.448,2.448,0,0,0-.266-.723c.627-.518,1.187-1,1.623-1.4.211.252.4.5.525.682.211.286.348.45.423.423s.089-.245,0-.614a4.649,4.649,0,0,0-.43-1c.293-.3.443-.5.409-.552s-.252.055-.586.259c-.041-.061-.055-.109-.1-.177a2.941,2.941,0,0,0-.252-.252c.361-.361.566-.607.525-.682s-.348.116-.812.423a2.434,2.434,0,0,0-.43-.273,2.046,2.046,0,0,0-1.562-.109,1.9,1.9,0,0,0-1.2,1.364,1.835,1.835,0,0,0-.041.512,1.678,1.678,0,0,0,.245.818c-.518.436-.982.846-1.364,1.193-.13-.177-.245-.348-.348-.477-.2-.293-.355-.45-.43-.416s-.075.245,0,.607a4.183,4.183,0,0,0,.211.682.771.771,0,0,1,.061.1c-.409.4-.641.682-.593.723s.341-.109.784-.4a2.727,2.727,0,0,0,.232.4l.109.109c-.109.13-.164.225-.136.252s.13,0,.3-.089a2.243,2.243,0,0,0,.73.491,1.738,1.738,0,0,0,.777.143,1.759,1.759,0,0,0,.846-.266,1.718,1.718,0,0,0,.62-.743Zm1.1-3.526a.06.06,0,0,0,.048.055c-.457.327-1.009.75-1.6,1.228l-.13-.218-.034-.061c.518-.43,1-.832,1.364-1.193A3.615,3.615,0,0,1,624.647,386.864Zm-1.514-.436a1.03,1.03,0,0,1,.716,0c-.355.259-.737.559-1.146.887a.682.682,0,0,1,0-.3.845.845,0,0,1,.43-.559ZM620.91,389.9c-.089-.082-.15-.17-.232-.259.4-.286.839-.627,1.323-1.009l.17.28c-.45.389-.846.743-1.159,1.043-.034-.027-.075-.034-.1-.055Zm.716.409a1.247,1.247,0,0,1-.2-.123c.3-.211.641-.464,1.016-.757a1.309,1.309,0,0,1,.075.184.828.828,0,0,1,0,.177.49.49,0,0,1,0,.15.552.552,0,0,1-.2.259.743.743,0,0,1-.689.109Z" transform="translate(-435.038 -163.239)" fill="#f5f5f5"/>
      <path id="Trazado_107521" data-name="Trazado 107521" d="M617.98,396.092c-2.475-2.851-4.249-7.031-5.558-10.113-.32-.771-.627-1.493-.907-2.107A8.913,8.913,0,0,0,604.5,379l-.2-.286,8.238-7.12.1.048a20.684,20.684,0,0,1,11,12.507c1.1,3.785,5.66,8.088,5.708,8.129l.143.136-7.733,6.472-.1-.041A9.616,9.616,0,0,1,617.98,396.092Zm-7.385-14.287a8.119,8.119,0,0,1,1.241,1.923c.28.621.586,1.364.914,2.114,1.848,4.344,4.63,10.911,8.94,12.65l7.27-6.076c-.8-.784-4.624-4.617-5.66-8.149a20.315,20.315,0,0,0-10.7-12.275l-7.692,6.7a6.516,6.516,0,0,1,.989.211,10.229,10.229,0,0,1,4.7,2.905Z" transform="translate(-430.273 -158.883)" fill="#e0e0e0"/>
      <path id="Trazado_107522" data-name="Trazado 107522" d="M390.046,390.06s-6.219,2.585-12.357-2.728c-3.8-3.273-12.03-8.558-14.935-6.056l-4.214,10.229a30.286,30.286,0,0,1,11.368,6.444c4.842,4.59,15.255,5.285,15.255,5.285Z" transform="translate(-352.109 -161.757)" fill="#f5f5f5"/>
      <path id="Trazado_107523" data-name="Trazado 107523" d="M376.285,400.493a5.3,5.3,0,0,1-.839-7.992c1.971-1.937,6.022-1.016,7.958.948a5,5,0,0,1-.048,7.072C381.393,402.485,378.536,402.1,376.285,400.493Z" transform="translate(-357.027 -165.194)" fill="#e0e0e0"/>
      <path id="Trazado_107524" data-name="Trazado 107524" d="M378.26,395.939a1.644,1.644,0,0,0,.116.5,1.9,1.9,0,0,0,.245.43,2.618,2.618,0,0,0,.573.511c-.321.75-.586,1.439-.784,2-.307-.13-.586-.259-.791-.361-.314-.164-.511-.245-.566-.184s.034.259.28.546a4.141,4.141,0,0,0,.839.682c-.116.4-.164.682-.1.682s.2-.164.4-.5c.068,0,.1.075.177.109a2.5,2.5,0,0,0,.341.109c-.157.491-.225.8-.164.832s.259-.266.525-.75a2.436,2.436,0,0,0,.5.048,2.046,2.046,0,0,0,1.439-.627,1.9,1.9,0,0,0,.436-1.753,1.609,1.609,0,0,0-.2-.477,2.394,2.394,0,0,0-.3-.382,2.808,2.808,0,0,0-.293-.225c.259-.627.484-1.2.682-1.691l.525.259c.327.164.525.232.58.171s-.048-.252-.293-.532a3.674,3.674,0,0,0-.491-.477s-.068-.041-.1-.061c.177-.539.252-.893.191-.921s-.252.252-.511.723a2.18,2.18,0,0,0-.4-.245l-.143-.048c0-.17.041-.273,0-.286s-.116.061-.225.218a2.366,2.366,0,0,0-.873-.1,1.863,1.863,0,0,0-.757.232,1.78,1.78,0,0,0-.627.627A1.7,1.7,0,0,0,378.26,395.939Zm.682,3.635h-.075c.259-.5.552-1.132.852-1.828l.218.136.048.034c-.259.621-.491,1.2-.682,1.7a3.227,3.227,0,0,1-.382-.048Zm1.541-.314a1.084,1.084,0,0,1-.634.341c.191-.4.4-.839.607-1.323a.867.867,0,0,1,.17.252.846.846,0,0,1-.164.73Zm.368-4.092c.116.034.211.082.321.123-.211.436-.45.941-.682,1.507l-.286-.17c.225-.552.416-1.05.552-1.459Zm-.825-.034a1.443,1.443,0,0,1,.239,0c-.171.327-.355.682-.552,1.139a.656.656,0,0,1-.252-.273.409.409,0,0,1-.041-.15.478.478,0,0,1,.055-.314.723.723,0,0,1,.532-.416Z" transform="translate(-357.992 -165.972)" fill="#f5f5f5"/>
      <path id="Trazado_107525" data-name="Trazado 107525" d="M369.088,382.906c3.512,1.364,7.017,4.276,9.6,6.4.641.532,1.248,1.03,1.78,1.446a8.994,8.994,0,0,0,8.47,1.091l.314.157-4.017,10.12h-.109a20.656,20.656,0,0,1-15.548-6.035c-2.728-2.844-8.756-4.555-8.818-4.569l-.191-.055,3.873-9.309h.109A9.547,9.547,0,0,1,369.088,382.906Zm13.155,9.261a8.294,8.294,0,0,1-1.991-1.132c-.532-.416-1.139-.921-1.78-1.453-3.648-3-9.145-7.536-13.782-7.092l-3.642,8.756c1.077.314,6.24,1.95,8.79,4.61a20.3,20.3,0,0,0,15.153,5.96l3.751-9.445a6.7,6.7,0,0,1-.975.266,10.229,10.229,0,0,1-5.524-.471Z" transform="translate(-352.755 -162.234)" fill="#e0e0e0"/>
      <path id="Trazado_107526" data-name="Trazado 107526" d="M675.86,122.631a11.2,11.2,0,0,1-11.2-2.469c-3.41-2.973-10.911-7.761-13.55-5.456l-3.826,9.3a27.455,27.455,0,0,1,10.311,5.844c4.4,4.167,13.844,4.774,13.844,4.774Z" transform="translate(-443.943 -76.988)" fill="#f5f5f5"/>
      <path id="Trazado_107527" data-name="Trazado 107527" d="M663.381,132.085a4.774,4.774,0,0,1-.764-7.229c1.787-1.759,5.456-.927,7.222.859a4.542,4.542,0,0,1-.041,6.417C668.011,133.892,665.42,133.51,663.381,132.085Z" transform="translate(-448.403 -80.1)" fill="#e0e0e0"/>
      <path id="Trazado_107528" data-name="Trazado 107528" d="M665.182,127.941a1.577,1.577,0,0,0,.1.464,2,2,0,0,0,.225.389,2.2,2.2,0,0,0,.525.464c-.293.682-.539,1.309-.723,1.814a4.978,4.978,0,0,1-.682-.327c-.286-.143-.464-.218-.518-.164s0,.232.252.5a4.094,4.094,0,0,0,.771.627c-.109.361-.15.593-.1.614s.177-.15.355-.457c.061.034.1.068.164.1a2.049,2.049,0,0,0,.307.1c-.143.443-.2.73-.143.75s.232-.232.471-.682a2.046,2.046,0,0,0,.464.041,1.807,1.807,0,0,0,1.3-.566,1.732,1.732,0,0,0,.4-1.6,1.537,1.537,0,0,0-.177-.423,2.114,2.114,0,0,0-.273-.355,2.365,2.365,0,0,0-.273-.2c.239-.566.443-1.091.607-1.534.177.089.341.177.477.239.293.15.477.211.518.15s-.041-.225-.259-.477a3.859,3.859,0,0,0-.443-.436l-.1-.055c.164-.491.232-.8.177-.832s-.232.225-.464.682a1.978,1.978,0,0,0-.355-.225l-.136-.041c.034-.157.041-.245,0-.266s-.1.061-.2.2a2.121,2.121,0,0,0-.8-.1,1.738,1.738,0,0,0-.682.211,1.664,1.664,0,0,0-.566.566A1.6,1.6,0,0,0,665.182,127.941Zm.593,3.3h-.061c.232-.457.5-1.023.771-1.65l.2.116h.048c-.232.566-.443,1.091-.614,1.548a2.776,2.776,0,0,1-.341-.014Zm1.4-.286a.962.962,0,0,1-.573.314c.17-.361.355-.764.552-1.2a.744.744,0,0,1,.15.232.757.757,0,0,1-.13.655Zm.334-3.717a2.151,2.151,0,0,1,.293.109c-.2.389-.416.852-.641,1.364l-.259-.157c.2-.5.375-.948.5-1.323Zm-.75,0a1.208,1.208,0,0,1,.218,0c-.157.293-.321.641-.5,1.03a1.191,1.191,0,0,1-.136-.109.816.816,0,0,1-.089-.143.407.407,0,0,1-.041-.13.545.545,0,0,1,.048-.286.682.682,0,0,1,.5-.4Z" transform="translate(-449.29 -80.798)" fill="#f5f5f5"/>
      <path id="Trazado_107529" data-name="Trazado 107529" d="M656.856,116.123c3.185,1.255,6.363,3.88,8.708,5.81.586.484,1.132.934,1.616,1.309a8.051,8.051,0,0,0,7.686.989l.28.15-3.642,9.165h-.1a18.76,18.76,0,0,1-14.1-5.456c-2.475-2.578-7.945-4.133-8-4.146l-.17-.048,3.512-8.449h.1a8.865,8.865,0,0,1,4.119.675Zm11.961,8.4a7.133,7.133,0,0,1-1.807-1.03c-.484-.375-1.037-.832-1.623-1.316-3.307-2.728-8.292-6.819-12.493-6.431l-3.307,7.938c.975.286,5.653,1.773,7.972,4.187a18.413,18.413,0,0,0,13.748,5.374l3.41-8.565a6.418,6.418,0,0,1-.88.239,9.206,9.206,0,0,1-5.019-.4Z" transform="translate(-444.532 -77.409)" fill="#e0e0e0"/>
      <path id="Trazado_107530" data-name="Trazado 107530" d="M680.29,353.9a10.492,10.492,0,0,1-10.557,1.787c-4.017-1.364-12.146-2.9-13.639,0l-.055,9.384A25.579,25.579,0,0,1,667,366.516c5.258,2.046,13.639-.682,13.639-.682Z" transform="translate(-446.729 -153.257)" fill="#f5f5f5"/>
      <path id="Trazado_107531" data-name="Trazado 107531" d="M671.744,366.8a4.48,4.48,0,0,1-3.185-5.987c.927-2.141,4.4-2.728,6.54-1.78a4.228,4.228,0,0,1,2.2,5.565C676.381,366.748,674.014,367.342,671.744,366.8Z" transform="translate(-450.615 -154.751)" fill="#e0e0e0"/>
      <path id="Trazado_107532" data-name="Trazado 107532" d="M671.988,362.693a1.363,1.363,0,0,0,.245.361,1.691,1.691,0,0,0,.334.259,2.175,2.175,0,0,0,.614.225v1.814a7.183,7.183,0,0,1-.73-.034c-.3,0-.477,0-.5.041s.109.191.389.341a3.718,3.718,0,0,0,.887.273c0,.355.075.566.13.566s.1-.191.15-.518a1.486,1.486,0,0,0,.171,0h.307c0,.43.075.682.136.682s.116-.286.171-.75a2.637,2.637,0,0,0,.416-.13,1.732,1.732,0,0,0,.927-.948,1.61,1.61,0,0,0-.211-1.514,1.453,1.453,0,0,0-.307-.307,2.13,2.13,0,0,0-.361-.2,1.664,1.664,0,0,0-.3-.089v-1.534l.5.041c.307,0,.491,0,.5-.055s-.116-.177-.4-.327a3.521,3.521,0,0,0-.532-.218h-.1c-.034-.477-.082-.777-.136-.777s-.123.273-.171.723a2.193,2.193,0,0,0-.389-.068h-.13c0-.143-.055-.225-.089-.225s-.068.089-.1.245a2.005,2.005,0,0,0-.723.191,1.678,1.678,0,0,0-.518.43,1.493,1.493,0,0,0-.293.682A1.439,1.439,0,0,0,671.988,362.693Zm1.664,2.646h-.061c.041-.477.075-1.057.089-1.7h.266v1.548a2.6,2.6,0,0,1-.293.164Zm1.112-.737a.853.853,0,0,1-.389.471q.041-.566.061-1.228a.608.608,0,0,1,.211.143.682.682,0,0,1,.116.627Zm-1.009-3.335a2.1,2.1,0,0,1,.293,0c-.034.409-.061.88-.075,1.4l-.28-.041v-1.323Zm-.682.239a.846.846,0,0,1,.2-.068c-.034.307-.055.682-.075,1.071-.048,0-.123,0-.157-.048a.9.9,0,0,1-.13-.1.2.2,0,0,1-.075-.1.443.443,0,0,1-.061-.266.614.614,0,0,1,.32-.484Z" transform="translate(-451.759 -155.162)" fill="#f5f5f5"/>
      <path id="Trazado_107533" data-name="Trazado 107533" d="M661.343,355.168c3.2-.034,6.86,1.125,9.547,1.978.682.211,1.3.409,1.848.566a7.5,7.5,0,0,0,6.99-1.834l.3.034.055,9.206-.089.041a17.5,17.5,0,0,1-14.1.2c-3.042-1.364-8.313-.8-8.368-.791h-.164l.089-8.538.075-.041a8.108,8.108,0,0,1,3.819-.818Zm13.257,3.089a6.683,6.683,0,0,1-1.923-.259c-.552-.157-1.187-.355-1.855-.573-3.819-1.2-9.547-3.007-13.059-1.193l-.082,8.02c.948-.1,5.51-.443,8.354.832a17.185,17.185,0,0,0,13.768-.157l-.055-8.6a5.847,5.847,0,0,1-.682.518,8.66,8.66,0,0,1-4.467,1.412Z" transform="translate(-447.149 -153.659)" fill="#e0e0e0"/>
      <path id="Trazado_107534" data-name="Trazado 107534" d="M437.238,59.68s-.648,6.7-8.217,9.615c-4.678,1.807-13.216,6.574-12.377,10.318l7.045,8.552a30.258,30.258,0,0,1,11.054-6.99c6.328-2.114,11.852-10.959,11.852-10.959Z" transform="translate(-370.571 -59.68)" fill="#f5f5f5"/>
      <path id="Trazado_107535" data-name="Trazado 107535" d="M439.472,84.1a5.292,5.292,0,0,1-7.426-3.021c-.784-2.646,1.937-5.79,4.583-6.574a5.006,5.006,0,0,1,6.219,3.41C443.646,80.534,441.955,82.866,439.472,84.1Z" transform="translate(-375.444 -64.331)" fill="#e0e0e0"/>
      <path id="Trazado_107536" data-name="Trazado 107536" d="M436.336,81.679a1.589,1.589,0,0,0,.5.136,1.78,1.78,0,0,0,.5,0,2.476,2.476,0,0,0,.716-.266c.511.641.989,1.2,1.364,1.643-.252.211-.5.389-.682.518-.293.2-.45.341-.423.416s.239.1.607,0a4.4,4.4,0,0,0,1.009-.416c.3.293.5.45.552.409s-.055-.252-.259-.58c.061-.048.116-.061.177-.109s.17-.164.259-.246c.355.361.6.573.682.532s-.109-.355-.416-.812a2.325,2.325,0,0,0,.28-.43,2.046,2.046,0,0,0,.13-1.562,1.9,1.9,0,0,0-1.364-1.214,1.835,1.835,0,0,0-.511-.048,2.687,2.687,0,0,0-.477.082,2.244,2.244,0,0,0-.341.157c-.43-.525-.832-1-1.18-1.364l.484-.341c.293-.2.45-.355.416-.43s-.245-.075-.607,0a4.3,4.3,0,0,0-.682.2l-.1.061c-.4-.409-.682-.682-.723-.6s.1.341.4.784a2.824,2.824,0,0,0-.4.239l-.109.1c-.13-.109-.218-.164-.252-.143s0,.136.089.3a2.379,2.379,0,0,0-.5.723,1.9,1.9,0,0,0-.157.784,1.849,1.849,0,0,0,.259.846A1.671,1.671,0,0,0,436.336,81.679Zm3.539,1.132a.407.407,0,0,1-.055.055c-.32-.464-.736-1.016-1.207-1.616l.225-.123h.055c.423.518.825,1,1.18,1.4A2.444,2.444,0,0,1,439.875,82.811Zm.457-1.507a1.07,1.07,0,0,1,0,.682c-.259-.355-.552-.743-.873-1.159a.743.743,0,0,1,.293,0,.832.832,0,0,1,.552.477Zm-3.444-2.257a2.665,2.665,0,0,1,.259-.225c.28.389.614.839,1,1.364l-.286.17c-.382-.457-.73-.859-1.03-1.173a.183.183,0,0,1,.034-.136Zm-.423.682a1.691,1.691,0,0,1,.123-.211c.211.307.464.682.75,1.03-.061,0-.13.061-.184.075h-.327a.573.573,0,0,1-.259-.2.729.729,0,0,1-.1-.655Z" transform="translate(-376.529 -65.319)" fill="#f5f5f5"/>
      <path id="Trazado_107537" data-name="Trazado 107537" d="M420.751,76.046c2.871-2.448,7.072-4.174,10.168-5.456.771-.314,1.5-.614,2.114-.887a8.949,8.949,0,0,0,4.951-6.956l.293-.2,7.031,8.306-.048.1a20.684,20.684,0,0,1-12.643,10.87c-3.8,1.064-8.183,5.578-8.183,5.619l-.136.143-6.4-7.8.041-.1A9.548,9.548,0,0,1,420.751,76.046Zm14.362-7.235a8.183,8.183,0,0,1-1.937,1.221c-.621.273-1.364.573-2.121.887-4.364,1.8-10.952,4.515-12.746,8.811l6,7.338c.784-.8,4.658-4.583,8.183-5.578a20.308,20.308,0,0,0,12.377-10.57L438.3,63.157a7.063,7.063,0,0,1-.225.982,10.229,10.229,0,0,1-2.966,4.671Z" transform="translate(-370.989 -60.593)" fill="#e0e0e0"/>
      <path id="Trazado_107538" data-name="Trazado 107538" d="M703.681,287.87l-.866,1.582-1.575.859,1.575.866.866,1.582.866-1.582,1.575-.866-1.575-.859Z" transform="translate(-461.105 -132.256)" fill="#e0e0e0"/>
      <path id="Trazado_107539" data-name="Trazado 107539" d="M630.6,67.5l-.866,1.582-1.582.866,1.582.859.866,1.582.859-1.582,1.582-.859-1.582-.866Z" transform="translate(-437.859 -62.167)" fill="#e0e0e0"/>
      <path id="Trazado_107540" data-name="Trazado 107540" d="M413.358,356.54l-.866,1.582-1.582.859,1.582.866.866,1.575.859-1.575,1.582-.866-1.582-.859Z" transform="translate(-368.766 -154.097)" fill="#e0e0e0"/>
      <path id="Trazado_107541" data-name="Trazado 107541" d="M353.965,340.04l-1.719,3.137L349.11,344.9l3.137,1.718,1.719,3.137,1.719-3.137,3.137-1.718-3.137-1.719Z" transform="translate(-349.11 -148.849)" fill="#e0e0e0"/>
      <path id="Trazado_107542" data-name="Trazado 107542" d="M654.725,74.79l-1.719,3.137-3.137,1.719,3.137,1.719,1.719,3.137,1.719-3.137,3.137-1.719-3.137-1.719Z" transform="translate(-444.767 -64.486)" fill="#e0e0e0"/>
    </g>
    <g id="freepik--Vault--inject-201" transform="translate(129.469 75.243)">
      <rect id="Rectángulo_26828" data-name="Rectángulo 26828" width="7.29" height="72.464" transform="translate(153.861 70.233)" fill="#263238"/>
      <ellipse id="Elipse_4215" data-name="Elipse 4215" cx="66.019" cy="81.166" rx="66.019" ry="81.166" transform="translate(0 24.959)" fill="#263238"/>
      <rect id="Rectángulo_26829" data-name="Rectángulo 26829" width="14.58" height="49.946" transform="translate(146.594 80.981)" fill="#455a64"/>
      <rect id="Rectángulo_26830" data-name="Rectángulo 26830" width="12.493" height="8.545" transform="translate(151.157 61.682)" fill="#263238"/>
      <rect id="Rectángulo_26831" data-name="Rectángulo 26831" width="12.493" height="8.545" transform="translate(151.706 142.493)" fill="#263238"/>
      <ellipse id="Elipse_4216" data-name="Elipse 4216" cx="66.019" cy="81.166" rx="66.019" ry="81.166" transform="translate(19.92 24.959)" fill="#455a64"/>
      <ellipse id="Elipse_4217" data-name="Elipse 4217" cx="50.887" cy="62.801" rx="50.887" ry="62.801" transform="translate(39.662 43.153)" fill="#455a64"/>
      <path id="Trazado_107544" data-name="Trazado 107544" d="M308.677,208.52s0-.307-.041-.921,0-1.521-.089-2.728a80.289,80.289,0,0,0-1.221-10.345c-.109-.552-.218-1.125-.327-1.712l-.416-1.794c-.259-1.228-.682-2.489-1-3.819a76.821,76.821,0,0,0-3.062-8.415,63.039,63.039,0,0,0-11.961-18.126,50.342,50.342,0,0,0-9.786-7.972,44.483,44.483,0,0,0-12.548-5.456,42,42,0,0,0-14.594-1.1,39.458,39.458,0,0,0-7.536,1.473,42.219,42.219,0,0,0-7.345,2.891,47.225,47.225,0,0,0-6.894,4.228,56.48,56.48,0,0,0-6.26,5.456,63.505,63.505,0,0,0-5.456,6.465,66.635,66.635,0,0,0-4.59,7.311,75.13,75.13,0,0,0,0,69.245,66.15,66.15,0,0,0,4.6,7.317,62.42,62.42,0,0,0,5.456,6.458,55.916,55.916,0,0,0,6.26,5.456,47.228,47.228,0,0,0,6.895,4.228,42.432,42.432,0,0,0,7.345,2.892,39.426,39.426,0,0,0,7.542,1.473,41.8,41.8,0,0,0,14.587-1.1,44.511,44.511,0,0,0,12.555-5.456,50.327,50.327,0,0,0,9.779-8.122,63.06,63.06,0,0,0,11.955-18.126,76.732,76.732,0,0,0,3.062-8.408c.355-1.33.743-2.591,1-3.826.143-.607.28-1.207.416-1.787s.218-1.159.327-1.712a80.224,80.224,0,0,0,1.193-10.332c.068-1.187.068-2.1.089-2.728s.041-.927.041-.927,0,1.255-.055,3.642a78.185,78.185,0,0,1-1.159,10.366c-.1.559-.211,1.132-.321,1.718s-.266,1.187-.409,1.8c-.252,1.228-.634,2.5-.989,3.826a76.9,76.9,0,0,1-3.041,8.449,63.163,63.163,0,0,1-11.961,18.222,50.622,50.622,0,0,1-9.82,8.074,44.873,44.873,0,0,1-12.609,5.531,42.083,42.083,0,0,1-14.7,1.125,40.073,40.073,0,0,1-7.6-1.473,42.283,42.283,0,0,1-7.4-2.905,46.983,46.983,0,0,1-6.949-4.255,55.294,55.294,0,0,1-6.3-5.456,62.554,62.554,0,0,1-5.51-6.5,66.7,66.7,0,0,1-4.624-7.345,75.458,75.458,0,0,1,0-69.559,66.913,66.913,0,0,1,4.658-7.379,64.143,64.143,0,0,1,5.51-6.5,56.521,56.521,0,0,1,6.3-5.456,46.987,46.987,0,0,1,6.949-4.255,42.28,42.28,0,0,1,7.4-2.905,39.963,39.963,0,0,1,7.6-1.473,42.281,42.281,0,0,1,14.662,1.118,44.768,44.768,0,0,1,12.623,5.517,50.579,50.579,0,0,1,9.82,8.074,63.039,63.039,0,0,1,11.955,18.222,75.547,75.547,0,0,1,3.048,8.443c.355,1.364.73,2.6.989,3.833.136.614.273,1.214.409,1.794s.211,1.166.321,1.719a78.385,78.385,0,0,1,1.159,10.372C308.69,207.245,308.677,208.52,308.677,208.52Z" transform="translate(-167.241 -102.566)" fill="#263238"/>
      <ellipse id="Elipse_4218" data-name="Elipse 4218" cx="29.842" cy="29.14" rx="29.842" ry="29.14" transform="translate(73.826 75.416)" fill="#263238"/>
      <path id="Trazado_107545" data-name="Trazado 107545" d="M273.567,205.413h0a4.665,4.665,0,0,1-6.588.307l-3.689-3.362a4.664,4.664,0,0,1-.307-6.588h0a4.665,4.665,0,0,1,6.588-.307l3.689,3.362A4.664,4.664,0,0,1,273.567,205.413Z" transform="translate(-185.157 -118.042)" fill="#263238"/>
      <path id="Trazado_107546" data-name="Trazado 107546" d="M299.825,191.384h0a4.658,4.658,0,0,1-4.665-4.658v-4.992a4.665,4.665,0,0,1,4.665-4.665h0a4.658,4.658,0,0,1,4.658,4.665v4.992A4.658,4.658,0,0,1,299.825,191.384Z" transform="translate(-195.892 -112.579)" fill="#263238"/>
      <path id="Trazado_107547" data-name="Trazado 107547" d="M328.265,203.885h0a4.658,4.658,0,0,1-.948-6.526l2.98-4a4.664,4.664,0,0,1,6.526-.948h0a4.658,4.658,0,0,1,.948,6.526l-2.98,4A4.665,4.665,0,0,1,328.265,203.885Z" transform="translate(-205.941 -117.163)" fill="#263238"/>
      <path id="Trazado_107548" data-name="Trazado 107548" d="M263.724,235.7h0a4.658,4.658,0,0,1-4.658,4.665h-4.992a4.665,4.665,0,0,1-4.665-4.665h0a4.658,4.658,0,0,1,4.665-4.658h4.992a4.658,4.658,0,0,1,4.658,4.658Z" transform="translate(-181.183 -129.744)" fill="#263238"/>
      <path id="Trazado_107549" data-name="Trazado 107549" d="M353.764,233.585h0a4.658,4.658,0,0,1-4.665,4.658h-4.992a4.658,4.658,0,0,1-4.658-4.658h0a4.658,4.658,0,0,1,4.658-4.665H349.1a4.665,4.665,0,0,1,4.665,4.665Z" transform="translate(-210.146 -129.07)" fill="#263238"/>
      <path id="Trazado_107550" data-name="Trazado 107550" d="M275.082,263.592h0a4.665,4.665,0,0,1-.293,6.588l-3.683,3.362a4.658,4.658,0,0,1-6.588-.293h0a4.658,4.658,0,0,1,.293-6.588l3.683-3.362a4.658,4.658,0,0,1,6.588.293Z" transform="translate(-185.648 -139.614)" fill="#263238"/>
      <path id="Trazado_107551" data-name="Trazado 107551" d="M306.987,269.767h0a4.658,4.658,0,0,1,4.876,4.433l.232,4.985a4.651,4.651,0,0,1-4.433,4.876h0a4.658,4.658,0,0,1-4.883-4.433l-.232-4.985a4.664,4.664,0,0,1,4.439-4.876Z" transform="translate(-198.267 -142.059)" fill="#263238"/>
      <path id="Trazado_107552" data-name="Trazado 107552" d="M331.123,259.95h0a4.664,4.664,0,0,1,6.588-.307l3.689,3.362a4.658,4.658,0,0,1,.3,6.588h0a4.651,4.651,0,0,1-6.581.3l-3.689-3.362A4.658,4.658,0,0,1,331.123,259.95Z" transform="translate(-207.075 -138.455)" fill="#263238"/>
      <ellipse id="Elipse_4219" data-name="Elipse 4219" cx="24.161" cy="27.148" rx="24.161" ry="27.148" transform="translate(84.94 77.551)" fill="#455a64"/>
      <circle id="Elipse_4220" data-name="Elipse 4220" cx="76.774" cy="76.774" r="76.774" transform="translate(151.443 108.575) rotate(-45)" fill="#ebebeb"/>
      <path id="Trazado_107553" data-name="Trazado 107553" d="M491.55,247.045V217.168h27.142V202.213h32.849V171.526h31.308v21.741H593.61V156.1l6.369,9.888s13.639,25.178-7.167,54.413S532.651,266.542,491.55,247.045Z" transform="translate(-259.722 -105.909)" fill="#e0e0e0"/>
      <path id="Trazado_107554" data-name="Trazado 107554" d="M431.078,206.18h30.149l4.3,9.247h18.706l6.274,7.706V248.8l7.133-.648,6.315,6.308v23.111H446.429S418.074,253.344,431.078,206.18Z" transform="translate(-238.735 -121.837)" fill="#d9a171"/>
      <path id="Trazado_107555" data-name="Trazado 107555" d="M431.078,206.18h30.149l4.3,9.247h18.706l6.274,7.706V248.8l7.133-.648,6.315,6.308v23.111H446.429S418.074,253.344,431.078,206.18Z" transform="translate(-238.735 -121.837)" opacity="0.4"/>
      <path id="Trazado_107556" data-name="Trazado 107556" d="M479.909,322.814V302.942h-17.9V292.174h-9.547V288.26H438.59S451.145,314.563,479.909,322.814Z" transform="translate(-242.123 -147.943)" fill="#d9a171"/>
      <path id="Trazado_107557" data-name="Trazado 107557" d="M479.909,322.814V302.942h-17.9V292.174h-9.547V288.26H438.59S451.145,314.563,479.909,322.814Z" transform="translate(-242.123 -147.943)" opacity="0.3"/>
      <path id="Trazado_107558" data-name="Trazado 107558" d="M487.83,300.245V274.617h23.3V261.79H539.3v-26.35h26.855v18.644h9.227V222.23h8.483s8.661,30.074-9.165,55.156S523.087,316.973,487.83,300.245Z" transform="translate(-258.539 -126.942)" fill="#d9a171"/>
      <path id="Trazado_107559" data-name="Trazado 107559" d="M541.68,342.337V313.265h26.194V297.478H581.86V291.75h20.261S583.783,330.266,541.68,342.337Z" transform="translate(-275.666 -149.053)" fill="#d9a171"/>
      <path id="Trazado_107560" data-name="Trazado 107560" d="M541.68,343.467V314.4h26.194V298.608H581.86V292.88h20.261S583.783,331.4,541.68,343.467Z" transform="translate(-275.666 -149.412)" fill="#fff" opacity="0.3"/>
      <path id="Trazado_107561" data-name="Trazado 107561" d="M489.826,98.35a95.336,95.336,0,1,0,95.336,95.336A95.336,95.336,0,0,0,489.826,98.35Zm-3.007,167.187a69.422,69.422,0,1,1,69.429-69.425,69.421,69.421,0,0,1-69.429,69.425Z" transform="translate(-228.852 -87.542)" fill="#455a64"/>
      <path id="Trazado_107562" data-name="Trazado 107562" d="M500.4,131.75a72.663,72.663,0,0,0-72.668,72.668,73.81,73.81,0,0,0,.566,9.07c-.211-2.216-.327-4.474-.327-6.751A69.354,69.354,0,1,1,473.659,272a72.668,72.668,0,1,0,26.732-140.25Z" transform="translate(-239.424 -98.165)" fill="#263238"/>
      <circle id="Elipse_4221" data-name="Elipse 4221" cx="5.265" cy="5.265" r="5.265" transform="translate(293.091 34.414) rotate(-74.07)" fill="#455a64"/>
      <path id="Trazado_107563" data-name="Trazado 107563" d="M593.151,125.136a9.89,9.89,0,0,0-.232-1.268,5.176,5.176,0,0,0-1.923-2.81,5.006,5.006,0,0,0-2.162-.941,5.142,5.142,0,0,0-2.68.232,5.108,5.108,0,0,0,0,9.581,5.176,5.176,0,0,0,6.765-3.526c.218-.8.191-1.268.232-1.268a1.094,1.094,0,0,1,0,.341,3.9,3.9,0,0,1-.116.962,5.237,5.237,0,0,1-1.9,2.98,5.34,5.34,0,0,1-2.264,1.037,5.455,5.455,0,0,1-2.844-.218,5.409,5.409,0,1,1,5.108-9.384,5.272,5.272,0,0,1,1.9,2.987,3.86,3.86,0,0,1,.116.962A1.062,1.062,0,0,1,593.151,125.136Z" transform="translate(-288.29 -94.34)" fill="#263238"/>
      <path id="Trazado_107564" data-name="Trazado 107564" d="M589.755,129.274a2.873,2.873,0,0,1-.627-.914,4.889,4.889,0,0,1-.362-2.666,4.774,4.774,0,0,1,1.125-2.435c.464-.525.846-.73.866-.682s-.28.314-.682.852a5.149,5.149,0,0,0-.723,4.849A6.674,6.674,0,0,1,589.755,129.274Z" transform="translate(-290.625 -95.245)" fill="#263238"/>
      <path id="Trazado_107565" data-name="Trazado 107565" d="M592.077,128.223a9.459,9.459,0,0,0-7.447-.968,2.585,2.585,0,0,1,1.071-.457,7.174,7.174,0,0,1,2.8-.177,7.311,7.311,0,0,1,2.66.887,2.625,2.625,0,0,1,.914.716Z" transform="translate(-289.326 -96.513)" fill="#263238"/>
      <circle id="Elipse_4222" data-name="Elipse 4222" cx="5.265" cy="5.265" r="5.265" transform="translate(231.215 23.316) rotate(-22.39)" fill="#455a64"/>
      <path id="Trazado_107566" data-name="Trazado 107566" d="M502.489,118.378a9.677,9.677,0,0,0-.232-1.268,5.271,5.271,0,0,0-1.923-2.816,5.209,5.209,0,0,0-2.162-.941,5.142,5.142,0,0,0-2.68.239,5,5,0,0,0-2.359,1.78,5.067,5.067,0,0,0,0,6.015,5,5,0,0,0,2.359,1.78,5.108,5.108,0,0,0,4.842-.682,5.272,5.272,0,0,0,1.923-2.816c.211-.8.191-1.268.232-1.268a1.1,1.1,0,0,1,0,.341,4.3,4.3,0,0,1-.116.962,5.313,5.313,0,0,1-4.167,4.01,5.411,5.411,0,0,1-5.381-8.524,5.353,5.353,0,0,1,9.547,1.909,4.308,4.308,0,0,1,.116.968,1.064,1.064,0,0,1,0,.314Z" transform="translate(-259.129 -92.192)" fill="#263238"/>
      <path id="Trazado_107567" data-name="Trazado 107567" d="M499.092,122.511a2.264,2.264,0,0,1-.627-.921,4.774,4.774,0,0,1,.764-5.1c.464-.518.846-.723.866-.682s-.28.314-.682.846a5.2,5.2,0,0,0-.73,4.855A9.344,9.344,0,0,1,499.092,122.511Z" transform="translate(-261.12 -93.092)" fill="#263238"/>
      <path id="Trazado_107568" data-name="Trazado 107568" d="M501.417,121.462a12.207,12.207,0,0,0-3.621-1.255,12.487,12.487,0,0,0-3.826.28,2.816,2.816,0,0,1,1.071-.457,7.433,7.433,0,0,1,2.8-.177,7.3,7.3,0,0,1,2.66.893C501.124,121.114,501.444,121.427,501.417,121.462Z" transform="translate(-259.827 -94.361)" fill="#263238"/>
      <circle id="Elipse_4223" data-name="Elipse 4223" cx="5.265" cy="5.265" r="5.265" transform="translate(330.21 68.852) rotate(-45)" fill="#455a64"/>
      <path id="Trazado_107569" data-name="Trazado 107569" d="M649.45,180.955a9.664,9.664,0,0,0-.232-1.268,5.271,5.271,0,0,0-1.923-2.816,5.128,5.128,0,0,0-4.849-.682,5.1,5.1,0,0,0,0,9.575,5.149,5.149,0,0,0,2.68.239,5.21,5.21,0,0,0,4.092-3.758c.211-.8.191-1.268.232-1.268a1.808,1.808,0,0,1,0,.334,3.94,3.94,0,0,1-.116.968,5.2,5.2,0,0,1-1.9,2.98,5.41,5.41,0,1,1,0-8.565,5.2,5.2,0,0,1,1.9,2.98,3.927,3.927,0,0,1,.116.962A1.849,1.849,0,0,1,649.45,180.955Z" transform="translate(-306.532 -112.1)" fill="#263238"/>
      <path id="Trazado_107570" data-name="Trazado 107570" d="M646.044,185.081a2.176,2.176,0,0,1-.62-.921,4.774,4.774,0,0,1,.757-5.1c.464-.518.846-.73.873-.682s-.286.321-.682.852a5.21,5.21,0,0,0-.723,4.855A10.1,10.1,0,0,1,646.044,185.081Z" transform="translate(-308.527 -112.992)" fill="#263238"/>
      <path id="Trazado_107571" data-name="Trazado 107571" d="M648.374,184.026a9.547,9.547,0,0,0-7.454-.975,2.816,2.816,0,0,1,1.071-.457,7.3,7.3,0,0,1,5.456.682,2.611,2.611,0,0,1,.927.75Z" transform="translate(-307.229 -114.256)" fill="#263238"/>
      <circle id="Elipse_4224" data-name="Elipse 4224" cx="5.265" cy="5.265" r="5.265" transform="matrix(0.231, -0.973, 0.973, 0.231, 179.666, 70.125)" fill="#455a64"/>
      <path id="Trazado_107572" data-name="Trazado 107572" d="M425.7,177.067a9.677,9.677,0,0,0-.232-1.268,5.272,5.272,0,0,0-1.923-2.816,5.21,5.21,0,0,0-2.162-.941,5.108,5.108,0,0,0-5.012,8.04,5.046,5.046,0,0,0,2.366,1.78,5.108,5.108,0,0,0,4.842-.682,5.271,5.271,0,0,0,1.923-2.816c.211-.8.191-1.268.232-1.268a1.1,1.1,0,0,1,0,.341,4.7,4.7,0,0,1-.116.962,5.333,5.333,0,0,1-4.167,4.01,5.414,5.414,0,1,1,2.257-9.6,5.258,5.258,0,0,1,1.91,2.98,4.775,4.775,0,0,1,.116.968,1.066,1.066,0,0,1-.034.307Z" transform="translate(-234.442 -110.864)" fill="#263238"/>
      <path id="Trazado_107573" data-name="Trazado 107573" d="M422.282,181.191a2.738,2.738,0,0,1-.627-.921,4.774,4.774,0,0,1,.764-5.1c.457-.518.846-.723.866-.682s-.286.314-.682.846a5.456,5.456,0,0,0-.975,2.339,5.333,5.333,0,0,0,.245,2.516,9.345,9.345,0,0,1,.409,1Z" transform="translate(-236.421 -111.756)" fill="#263238"/>
      <path id="Trazado_107574" data-name="Trazado 107574" d="M424.607,180.138a12.206,12.206,0,0,0-3.621-1.255,12.487,12.487,0,0,0-3.826.28,2.619,2.619,0,0,1,1.064-.45,7.27,7.27,0,0,1,5.456.682C424.314,179.79,424.634,180.1,424.607,180.138Z" transform="translate(-235.125 -113.021)" fill="#263238"/>
      <circle id="Elipse_4225" data-name="Elipse 4225" cx="5.265" cy="5.265" r="5.265" transform="translate(331.943 135.948) rotate(-45)" fill="#455a64"/>
      <path id="Trazado_107575" data-name="Trazado 107575" d="M652,279.34a9.705,9.705,0,0,0-.232-1.262,5.244,5.244,0,0,0-1.923-2.816,5.11,5.11,0,1,0-4.849,8.872,5.142,5.142,0,0,0,4.849-.682,5.244,5.244,0,0,0,1.923-2.816c.211-.8.191-1.268.232-1.268a1.1,1.1,0,0,1,0,.341,4.7,4.7,0,0,1-.116.962,5.217,5.217,0,0,1-1.909,2.98,5.3,5.3,0,0,1-2.257,1.037,5.49,5.49,0,0,1-2.851-.218,5.415,5.415,0,0,1,0-10.2,5.49,5.49,0,0,1,2.851-.218,5.38,5.38,0,0,1,2.257,1.03,5.251,5.251,0,0,1,1.909,2.987,4.645,4.645,0,0,1,.116.962A1.029,1.029,0,0,1,652,279.34Z" transform="translate(-307.341 -143.395)" fill="#263238"/>
      <path id="Trazado_107576" data-name="Trazado 107576" d="M648.592,283.464a2.2,2.2,0,0,1-.627-.914,4.774,4.774,0,0,1,.764-5.1c.457-.525.839-.73.866-.682s-.286.314-.682.852a5.2,5.2,0,0,0-.723,4.849A9.03,9.03,0,0,1,648.592,283.464Z" transform="translate(-309.336 -144.285)" fill="#263238"/>
      <path id="Trazado_107577" data-name="Trazado 107577" d="M650.917,282.413a9.458,9.458,0,0,0-7.447-.968,2.462,2.462,0,0,1,1.064-.457,7.188,7.188,0,0,1,2.8-.177A7.351,7.351,0,0,1,650,281.7,2.728,2.728,0,0,1,650.917,282.413Z" transform="translate(-308.04 -145.553)" fill="#263238"/>
      <circle id="Elipse_4226" data-name="Elipse 4226" cx="5.265" cy="5.265" r="5.265" transform="matrix(0.231, -0.973, 0.973, 0.231, 176.999, 139.87)" fill="#455a64"/>
      <path id="Trazado_107578" data-name="Trazado 107578" d="M421.751,279.331a9.72,9.72,0,0,0-.232-1.262,5.244,5.244,0,0,0-1.923-2.816,5.04,5.04,0,0,0-2.162-.941,5.1,5.1,0,1,0,2.162,9.111,5.244,5.244,0,0,0,1.923-2.816c.211-.8.191-1.268.232-1.268a1.1,1.1,0,0,1,0,.341,4.252,4.252,0,0,1-.116.961,5.217,5.217,0,0,1-1.909,2.98,5.305,5.305,0,0,1-2.257,1.037,5.489,5.489,0,0,1-2.851-.218,5.415,5.415,0,0,1,0-10.2,5.49,5.49,0,0,1,2.851-.218,5.38,5.38,0,0,1,2.257,1.03,5.251,5.251,0,0,1,1.909,2.987,4.217,4.217,0,0,1,.116.962A1.03,1.03,0,0,1,421.751,279.331Z" transform="translate(-233.162 -143.385)" fill="#263238"/>
      <path id="Trazado_107579" data-name="Trazado 107579" d="M418.352,283.464a2.654,2.654,0,0,1-.627-.914,4.774,4.774,0,0,1,.764-5.1c.457-.525.846-.73.866-.682s-.28.314-.682.852a5.4,5.4,0,0,0-.975,2.332,5.312,5.312,0,0,0,.245,2.516A7.188,7.188,0,0,1,418.352,283.464Z" transform="translate(-235.158 -144.285)" fill="#263238"/>
      <path id="Trazado_107580" data-name="Trazado 107580" d="M420.677,282.413a9.459,9.459,0,0,0-7.447-.968,2.523,2.523,0,0,1,1.071-.457,7.14,7.14,0,0,1,2.8-.177,7.3,7.3,0,0,1,2.666.887A2.728,2.728,0,0,1,420.677,282.413Z" transform="translate(-233.861 -145.553)" fill="#263238"/>
      <circle id="Elipse_4227" data-name="Elipse 4227" cx="5.265" cy="5.265" r="5.265" transform="translate(291.854 182.539) rotate(-45)" fill="#455a64"/>
      <path id="Trazado_107581" data-name="Trazado 107581" d="M592.72,347.664a9.66,9.66,0,0,0-.232-1.268,5.271,5.271,0,0,0-1.923-2.816,5.108,5.108,0,0,0-4.842-.682,5.012,5.012,0,0,0-2.366,1.78,5.094,5.094,0,0,0,0,6.015,5.012,5.012,0,0,0,2.366,1.78,5.108,5.108,0,0,0,4.842-.682,5.272,5.272,0,0,0,1.923-2.816c.211-.8.191-1.268.232-1.268a1.065,1.065,0,0,1,0,.334,4.775,4.775,0,0,1-.116.968,5.333,5.333,0,0,1-4.167,4.01,5.414,5.414,0,1,1,2.257-9.6,5.258,5.258,0,0,1,1.909,2.98,4.761,4.761,0,0,1,.116.962A1.1,1.1,0,0,1,592.72,347.664Z" transform="translate(-288.151 -165.127)" fill="#263238"/>
      <path id="Trazado_107582" data-name="Trazado 107582" d="M589.322,351.78a2.079,2.079,0,0,1-.627-.921,4.774,4.774,0,0,1,.764-5.1c.457-.518.839-.73.866-.682s-.286.321-.682.852a5.456,5.456,0,0,0-.968,2.339,5.332,5.332,0,0,0,.245,2.516,9.351,9.351,0,0,1,.4,1Z" transform="translate(-290.485 -166.011)" fill="#263238"/>
      <path id="Trazado_107583" data-name="Trazado 107583" d="M591.647,350.732a11.982,11.982,0,0,0-3.621-1.255,12.276,12.276,0,0,0-3.826.28,2.679,2.679,0,0,1,1.064-.457,7.46,7.46,0,0,1,2.8-.177,7.346,7.346,0,0,1,2.666.893C591.354,350.384,591.674,350.7,591.647,350.732Z" transform="translate(-289.189 -167.281)" fill="#263238"/>
      <circle id="Elipse_4228" data-name="Elipse 4228" cx="5.265" cy="5.265" r="5.265" transform="matrix(0.231, -0.973, 0.973, 0.231, 218.077, 187.12)" fill="#455a64"/>
      <path id="Trazado_107584" data-name="Trazado 107584" d="M482.317,348.615a9.664,9.664,0,0,0-.232-1.268,5.272,5.272,0,0,0-1.923-2.816,5.115,5.115,0,0,0-4.849-.682,5.033,5.033,0,0,0-2.36,1.78,5.094,5.094,0,0,0,0,6.015,5.033,5.033,0,0,0,2.36,1.78,5.115,5.115,0,0,0,4.849-.682,5.272,5.272,0,0,0,1.943-2.857c.211-.8.191-1.268.232-1.268a1.1,1.1,0,0,1,0,.341,4.77,4.77,0,0,1-.116.962,5.333,5.333,0,0,1-4.167,4.01,5.414,5.414,0,1,1,2.257-9.6,5.258,5.258,0,0,1,1.909,2.98,4.771,4.771,0,0,1,.116.968A1.064,1.064,0,0,1,482.317,348.615Z" transform="translate(-252.647 -165.416)" fill="#263238"/>
      <path id="Trazado_107585" data-name="Trazado 107585" d="M478.912,352.754a2.737,2.737,0,0,1-.627-.921,4.774,4.774,0,0,1,.764-5.1,2.128,2.128,0,0,1,.866-.682c.034.048-.286.32-.682.852a5.217,5.217,0,0,0-.723,4.855C478.728,352.365,478.953,352.719,478.912,352.754Z" transform="translate(-254.631 -166.323)" fill="#263238"/>
      <path id="Trazado_107586" data-name="Trazado 107586" d="M481.237,351.7a11.982,11.982,0,0,0-3.628-1.255,12.214,12.214,0,0,0-3.819.28,2.68,2.68,0,0,1,1.064-.457,7.46,7.46,0,0,1,2.8-.177,7.344,7.344,0,0,1,2.666.893C480.944,351.374,481.264,351.668,481.237,351.7Z" transform="translate(-253.337 -167.59)" fill="#263238"/>
      <path id="Trazado_107587" data-name="Trazado 107587" d="M498.048,175.64l-.866,1.575-1.582.866,1.582.866.866,1.575.859-1.575,1.582-.866-1.582-.866Z" transform="translate(-260.343 -112.124)" fill="#d9a171"/>
      <path id="Trazado_107588" data-name="Trazado 107588" d="M535.831,156.1l-.436.791-.784.43.784.436.436.784.43-.784.791-.436-.791-.43Z" transform="translate(-272.878 -105.909)" fill="#d9a171"/>
      <path id="Trazado_107589" data-name="Trazado 107589" d="M547.361,251.12l-.43.791-.791.43.791.43.43.791.436-.791.791-.43-.791-.43Z" transform="translate(-276.586 -136.13)" fill="#d9a171"/>
      <path id="Trazado_107590" data-name="Trazado 107590" d="M522,197.354a8.238,8.238,0,0,1,8.422-.45c3.021,1.432,9.24,3.362,10.666,1.241l.887-7.338a20.1,20.1,0,0,1-8.443-2.121C529.6,186.6,522.791,188,522.791,188Z" transform="translate(-268.889 -115.909)" fill="#d9a171"/>
      <path id="Trazado_107591" data-name="Trazado 107591" d="M535.43,190.332a3.526,3.526,0,0,1,1.957,4.971c-.921,1.6-3.689,1.725-5.285.8a3.335,3.335,0,0,1-1.221-4.555C531.8,189.957,533.7,189.7,535.43,190.332Z" transform="translate(-271.554 -116.696)" fill="#d9a171"/>
      <g id="Grupo_59688" data-name="Grupo 59688" transform="translate(258.88 73.319)" opacity="0.4">
        <path id="Trazado_107592" data-name="Trazado 107592" d="M535.43,190.332a3.526,3.526,0,0,1,1.957,4.971c-.921,1.6-3.689,1.725-5.285.8a3.335,3.335,0,0,1-1.221-4.555C531.8,189.957,533.7,189.7,535.43,190.332Z" transform="translate(-530.434 -190.015)"/>
      </g>
      <path id="Trazado_107593" data-name="Trazado 107593" d="M536.857,194.205a1.021,1.021,0,0,0-.164-.307,1.281,1.281,0,0,0-.239-.232,1.608,1.608,0,0,0-.457-.232c.075-.532.123-1.023.157-1.418a2.9,2.9,0,0,1,.566.089c.15.027.375.068.4,0s-.068-.157-.273-.3a2.871,2.871,0,0,0-.682-.293c0-.28,0-.45-.048-.45s-.1.136-.17.389l-.13-.041h-.239c0-.341,0-.552-.041-.559s-.123.211-.2.573a1.193,1.193,0,0,0-.334.061,1.309,1.309,0,0,0-.811.682,1.268,1.268,0,0,0,0,1.207,1.134,1.134,0,0,0,.211.266,1.744,1.744,0,0,0,.259.2,1.989,1.989,0,0,0,.232.089c-.055.45-.1.859-.123,1.207a2.626,2.626,0,0,1-.389-.075c-.232-.048-.375-.061-.4,0s.075.15.28.286a2.808,2.808,0,0,0,.4.225h.082a1.925,1.925,0,0,0,.034.621c.034.007.116-.2.2-.552a1.363,1.363,0,0,0,.3.089h.1c0,.109,0,.177.048.184s.061-.061.1-.184a1.364,1.364,0,0,0,.58-.089,1.159,1.159,0,0,0,.443-.28,1.221,1.221,0,0,0,.293-.518A1.125,1.125,0,0,0,536.857,194.205Zm-1.064-2.216h.048c-.075.368-.15.825-.225,1.323l-.164-.048h-.041c.061-.443.109-.859.136-1.214a1.563,1.563,0,0,1,.245-.061Zm-.934.471a.682.682,0,0,1,.341-.327c-.055.286-.1.607-.157.955a.491.491,0,0,1-.15-.136.539.539,0,0,1-.034-.491Zm.484,2.728h-.225c.061-.314.123-.682.184-1.091l.211.061c-.048.389-.075.743-.1,1.03a.237.237,0,0,1-.061-.027Zm.539-.123a1.059,1.059,0,0,1-.157,0c.055-.239.1-.518.157-.832a.259.259,0,0,1,.116.055.342.342,0,0,1,.089.082.157.157,0,0,1,.055.082.383.383,0,0,1,0,.218.491.491,0,0,1-.259.375Z" transform="translate(-272.677 -116.961)" fill="#d9a171"/>
      <g id="Grupo_59689" data-name="Grupo 59689" transform="translate(253.768 72.362)" opacity="0.4">
        <path id="Trazado_107594" data-name="Trazado 107594" d="M537.526,198.758a25.907,25.907,0,0,1-7.3-2.407l-1.4-.614a5.933,5.933,0,0,0-5.633.8l-.232-.048.784-7.208h.075a13.782,13.782,0,0,1,11.054,1.118c2.257,1.364,6.431,1.364,6.472,1.364h.136l-.839,6.656h-.061A6.452,6.452,0,0,1,537.526,198.758Zm-10.093-3.608a5.027,5.027,0,0,1,1.48.375c.423.171.9.382,1.4.614,2.878,1.282,7.215,3.212,10.107,2.107l.791-6.267c-.75,0-4.351-.143-6.465-1.4a13.509,13.509,0,0,0-10.788-1.118l-.73,6.731a5.014,5.014,0,0,1,.58-.348,6.758,6.758,0,0,1,3.621-.7Z" transform="translate(-522.96 -188.611)"/>
      </g>
      <path id="Trazado_107595" data-name="Trazado 107595" d="M631.031,327.484a8.231,8.231,0,0,1-8.074-2.428c-2.36-2.366-7.57-6.288-9.622-4.774L610,326.9a20.11,20.11,0,0,1,7.235,4.842c2.994,3.294,9.875,4.276,9.875,4.276Z" transform="translate(-297.395 -158.02)" fill="#d9a171"/>
      <path id="Trazado_107596" data-name="Trazado 107596" d="M621.524,333.683a3.532,3.532,0,0,1-.157-5.34c1.4-1.187,4.051-.375,5.237,1.03a3.328,3.328,0,0,1-.4,4.692C624.845,335.258,622.942,334.862,621.524,333.683Z" transform="translate(-300.646 -160.509)" fill="#d9a171"/>
      <g id="Grupo_59690" data-name="Grupo 59690" transform="translate(319.577 167.261)" opacity="0.4">
        <path id="Trazado_107597" data-name="Trazado 107597" d="M621.524,333.683a3.532,3.532,0,0,1-.157-5.34c1.4-1.187,4.051-.375,5.237,1.03a3.328,3.328,0,0,1-.4,4.692C624.845,335.258,622.942,334.862,621.524,333.683Z" transform="translate(-620.223 -327.77)"/>
      </g>
      <path id="Trazado_107598" data-name="Trazado 107598" d="M623.062,330.772a.981.981,0,0,0,.048.341,1.214,1.214,0,0,0,.143.3,1.664,1.664,0,0,0,.355.368c-.252.484-.464.927-.627,1.289-.191-.1-.368-.2-.5-.28s-.334-.184-.368-.15,0,.171.157.375a2.5,2.5,0,0,0,.525.5c-.1.259-.143.423-.1.443s.136-.1.286-.314c.041,0,.061.055.109.082a2.218,2.218,0,0,0,.225.089c-.13.32-.191.525-.15.546s.184-.164.382-.471a1.8,1.8,0,0,0,.334.055,1.364,1.364,0,0,0,.989-.341,1.289,1.289,0,0,0,.382-1.146,1.324,1.324,0,0,0-.109-.327,1.909,1.909,0,0,0-.184-.273,1.977,1.977,0,0,0-.184-.164c.2-.4.382-.771.525-1.091l.334.2c.211.123.341.177.375.136s0-.164-.164-.368a3.7,3.7,0,0,0-.3-.341l-.068-.048c.143-.348.218-.573.177-.593s-.184.15-.375.45a1.511,1.511,0,0,0-.252-.184l-.089-.034v-.191c0-.007-.082,0-.157.13a1.658,1.658,0,0,0-.58-.109,1.207,1.207,0,0,0-.511.116,1.173,1.173,0,0,0-.45.389A1.1,1.1,0,0,0,623.062,330.772Zm.252,2.448h-.048c.2-.327.423-.723.682-1.173l.136.1h0c-.2.4-.389.771-.539,1.091A1.457,1.457,0,0,1,623.315,333.22Zm1.037-.136a.682.682,0,0,1-.43.2l.471-.846a.566.566,0,0,1,.1.177A.546.546,0,0,1,624.351,333.084Zm.45-2.728a1,1,0,0,1,.211.1c-.164.273-.348.6-.546.962l-.177-.123c.177-.355.327-.682.436-.948.034.034.034.027.075.041Zm-.546-.068a1.368,1.368,0,0,1,.164,0c-.13.211-.273.457-.43.73a1.219,1.219,0,0,1-.1-.089.543.543,0,0,1-.055-.109.239.239,0,0,1,0-.1.4.4,0,0,1,.048-.211.5.5,0,0,1,.368-.2Z" transform="translate(-301.244 -161.09)" fill="#d9a171"/>
      <g id="Grupo_59691" data-name="Grupo 59691" transform="translate(313.58 162.603)" opacity="0.4">
        <path id="Trazado_107599" data-name="Trazado 107599" d="M617.513,321.663a25.971,25.971,0,0,1,6.063,4.733c.4.382.777.743,1.112,1.05a5.919,5.919,0,0,0,5.572,1.139l.2.13-3.171,6.519h-.075a13.768,13.768,0,0,1-10.025-4.774c-1.678-2.046-5.592-3.464-5.633-3.478l-.123-.048,3.035-5.994h.068A6.26,6.26,0,0,1,617.513,321.663Zm8.279,6.819a5.341,5.341,0,0,1-1.262-.852c-.334-.307-.682-.682-1.118-1.05-2.271-2.182-5.7-5.456-8.8-5.4l-2.857,5.633c.682.266,4.044,1.609,5.606,3.505a13.55,13.55,0,0,0,9.779,4.692l2.96-6.09a5.058,5.058,0,0,1-.682.13,6.779,6.779,0,0,1-3.628-.566Z" transform="translate(-611.43 -320.94)"/>
      </g>
      <path id="Trazado_107600" data-name="Trazado 107600" d="M460.939,259.833a8.225,8.225,0,0,1,6.819-4.937c3.314-.436,9.6-2.189,9.636-4.774l-3.232-6.642a20.206,20.206,0,0,1-8.245,2.8c-4.433.375-9.4,5.237-9.4,5.237Z" transform="translate(-247.825 -133.7)" fill="#d9a171"/>
      <path id="Trazado_107601" data-name="Trazado 107601" d="M468.6,249.245a3.533,3.533,0,0,1,4.337,3.117c.089,1.841-2.162,3.451-4,3.539a3.335,3.335,0,0,1-3.5-3.157C465.35,250.9,466.809,249.654,468.6,249.245Z" transform="translate(-250.65 -135.503)" fill="#d9a171"/>
      <g id="Grupo_59692" data-name="Grupo 59692" transform="translate(214.784 113.645)" opacity="0.4">
        <path id="Trazado_107602" data-name="Trazado 107602" d="M468.6,249.245a3.533,3.533,0,0,1,4.337,3.117c.089,1.841-2.162,3.451-4,3.539a3.335,3.335,0,0,1-3.5-3.157C465.35,250.9,466.809,249.654,468.6,249.245Z" transform="translate(-465.434 -249.149)"/>
      </g>
      <path id="Trazado_107603" data-name="Trazado 107603" d="M471.762,252.456a.927.927,0,0,0-.3-.171,1.363,1.363,0,0,0-.327-.068,1.507,1.507,0,0,0-.5.061c-.232-.491-.457-.934-.648-1.282.2-.1.389-.177.532-.232s.348-.143.341-.2-.143-.1-.4-.109a2.728,2.728,0,0,0-.682.116c-.15-.239-.252-.368-.293-.355s0,.17.075.423a.911.911,0,0,0-.13,0l-.2.123c-.177-.293-.3-.464-.341-.443s0,.239.136.586a1.94,1.94,0,0,0-.246.232,1.364,1.364,0,0,0-.327,1,1.275,1.275,0,0,0,.682,1,1.16,1.16,0,0,0,.327.109,1.323,1.323,0,0,0,.327,0,.927.927,0,0,0,.239-.048c.2.409.382.777.546,1.084l-.361.143c-.225.089-.348.157-.341.211s.15.089.4.1a3,3,0,0,0,.457-.034.239.239,0,0,1,.075,0c.191.327.327.518.368.5s0-.232-.13-.573a1.928,1.928,0,0,0,.293-.082l.089-.055c.068.1.116.143.143.13s0-.082,0-.2a1.555,1.555,0,0,0,.443-.389,1.269,1.269,0,0,0,.218-.484,1.228,1.228,0,0,0,0-.586,1.146,1.146,0,0,0-.457-.491Zm-2.094-1.289h.041c.136.348.32.771.532,1.234l-.164.048h-.041c-.191-.4-.382-.777-.546-1.091a2.179,2.179,0,0,1,.177-.191Zm-.532.907a.682.682,0,0,1,.109-.464c.116.273.245.566.389.887a.436.436,0,0,1-.2,0,.559.559,0,0,1-.3-.423Zm1.875,2-.2.109c-.116-.3-.266-.682-.43-1.023l.2-.061c.177.355.341.682.484.921C471.046,254.038,471.033,254.066,471.012,254.079Zm.382-.4c0,.041-.075.075-.109.116-.089-.232-.2-.5-.321-.784h.13a.321.321,0,0,1,.116,0,.2.2,0,0,1,.1.041.389.389,0,0,1,.136.17.484.484,0,0,1-.048.457Z" transform="translate(-251.607 -135.844)" fill="#d9a171"/>
      <g id="Grupo_59693" data-name="Grupo 59693" transform="translate(209.793 110.775)" opacity="0.4">
        <path id="Trazado_107604" data-name="Trazado 107604" d="M474.851,252.939a26.2,26.2,0,0,1-7.447,1.937c-.546.082-1.064.164-1.507.246a5.926,5.926,0,0,0-4.3,3.73l-.218.082-3.253-6.451.048-.055a13.762,13.762,0,0,1,9.9-5.06c2.625-.1,6.138-2.332,6.185-2.36l.109-.068L477.279,251v.055A6.431,6.431,0,0,1,474.851,252.939Zm-10.441,2.435a5.231,5.231,0,0,1,1.446-.484c.443-.082.968-.164,1.514-.246,3.11-.484,7.8-1.207,9.636-3.7l-2.728-5.694c-.634.4-3.737,2.23-6.192,2.325a13.523,13.523,0,0,0-9.677,4.91l3.035,6.056a4.31,4.31,0,0,1,.3-.6,6.819,6.819,0,0,1,2.666-2.564Z" transform="translate(-458.13 -244.94)"/>
      </g>
    </g>
  </g>
</svg>
