<svg xmlns="http://www.w3.org/2000/svg" width="462.472" height="271.932" viewBox="0 0 462.472 271.932">
  <g id="politicas-01" transform="translate(-22.42 -22.649)">
    <path id="Trazado_110789" data-name="Trazado 110789" d="M51.331,285.759s-51.645-49.431.738-121c46.8-63.945,11.855-94.5,59.9-125.655,48.559-31.5,89.874-12.322,136.356,12.025s110.668-33.939,180.021-2.951,59.381,78.353,42.225,127.051c-14.482,41.111,29.556,70.815,5.534,110.586C476.1,285.821,49.855,284.276,51.331,285.759Z" transform="translate(-5.058 0)" fill="#ebf3fa"/>
    <g id="Grupo_59816" data-name="Grupo 59816" transform="translate(366.53 84.854)" opacity="0.5">
      <path id="Trazado_110797" data-name="Trazado 110797" d="M2002.429,341.947,2013.6,384.7a3.557,3.557,0,0,1-2.533,4.327l-75,19.606a3.557,3.557,0,0,1-4.327-2.533l-11.177-42.755a3.557,3.557,0,0,1,2.533-4.327l75-19.606A3.558,3.558,0,0,1,2002.429,341.947Z" transform="translate(-1920.451 -339.3)" fill="#aac9f5"/>
      <path id="Trazado_110798" data-name="Trazado 110798" d="M2101.938,606.087l-19.989,5.227a1.594,1.594,0,0,1-1.939-1.136l-.051-.192a1.6,1.6,0,0,1,1.136-1.941l20-5.225a1.594,1.594,0,0,1,1.939,1.136l.051.192A1.593,1.593,0,0,1,2101.938,606.087Z" transform="translate(-2051.06 -555.104)" fill="#cde0fb"/>
      <path id="Trazado_110799" data-name="Trazado 110799" d="M2126.349,503.137a3.856,3.856,0,0,1,.087,1.892,1.742,1.742,0,0,1-2.958.774,4.589,4.589,0,0,1-.942-3.575,1.755,1.755,0,0,1,2.978-.778A3.869,3.869,0,0,1,2126.349,503.137Zm-.917.237a3.765,3.765,0,0,0-.458-1.111q-.422-.639-.964-.5c-.373.1-.575.4-.61.9a3.665,3.665,0,0,0,.141,1.2q.489,1.865,1.448,1.615c.362-.094.566-.4.6-.9A3.814,3.814,0,0,0,2125.432,503.374Z" transform="translate(-2085.93 -471.665)" fill="#cde0fb"/>
      <path id="Trazado_110800" data-name="Trazado 110800" d="M2149.017,497.213a3.862,3.862,0,0,1,.087,1.892,1.74,1.74,0,0,1-2.962.773,4.565,4.565,0,0,1-.943-3.573,1.755,1.755,0,0,1,2.976-.778A3.863,3.863,0,0,1,2149.017,497.213Zm-.919.237a3.792,3.792,0,0,0-.456-1.111c-.282-.425-.6-.59-.966-.5s-.573.4-.608.9a3.659,3.659,0,0,0,.141,1.2q.485,1.863,1.438,1.616c.362-.1.566-.4.6-.9A3.763,3.763,0,0,0,2148.1,497.45Z" transform="translate(-2104.493 -466.815)" fill="#cde0fb"/>
      <path id="Trazado_110801" data-name="Trazado 110801" d="M2183.4,488.225a3.852,3.852,0,0,1,.087,1.891,1.742,1.742,0,0,1-2.961.774,4.583,4.583,0,0,1-.942-3.575,1.755,1.755,0,0,1,2.976-.778A3.851,3.851,0,0,1,2183.4,488.225Zm-.917.235a3.8,3.8,0,0,0-.458-1.111q-.423-.635-.966-.5t-.609.9a3.658,3.658,0,0,0,.141,1.2q.489,1.867,1.447,1.617c.362-.1.566-.4.6-.9A3.824,3.824,0,0,0,2182.484,488.46Z" transform="translate(-2132.657 -459.451)" fill="#cde0fb"/>
      <path id="Trazado_110802" data-name="Trazado 110802" d="M2206.086,482.293a3.859,3.859,0,0,1,.087,1.892,1.742,1.742,0,0,1-2.962.774,4.567,4.567,0,0,1-.942-3.575,1.755,1.755,0,0,1,2.976-.778A3.888,3.888,0,0,1,2206.086,482.293Zm-.919.237a3.8,3.8,0,0,0-.456-1.111q-.424-.637-.966-.5t-.608.9a3.665,3.665,0,0,0,.141,1.2q.484,1.867,1.438,1.617.543-.143.6-.9a3.768,3.768,0,0,0-.148-1.212Z" transform="translate(-2151.237 -454.594)" fill="#cde0fb"/>
      <path id="Trazado_110803" data-name="Trazado 110803" d="M2228.777,476.363a3.836,3.836,0,0,1,.088,1.892,1.744,1.744,0,0,1-2.963.774,4.578,4.578,0,0,1-.94-3.575,1.755,1.755,0,0,1,2.976-.778A3.87,3.87,0,0,1,2228.777,476.363Zm-.917.237a3.794,3.794,0,0,0-.456-1.111q-.423-.637-.966-.5t-.608.9a3.718,3.718,0,0,0,.139,1.2q.489,1.865,1.448,1.617.543-.143.6-.9A3.82,3.82,0,0,0,2227.859,476.6Z" transform="translate(-2169.824 -449.737)" fill="#cde0fb"/>
      <path id="Trazado_110804" data-name="Trazado 110804" d="M2251.466,470.433a3.836,3.836,0,0,1,.087,1.892,1.742,1.742,0,0,1-2.961.774,4.579,4.579,0,0,1-.941-3.575,1.755,1.755,0,0,1,2.976-.778A3.868,3.868,0,0,1,2251.466,470.433Zm-.917.237a3.8,3.8,0,0,0-.456-1.111q-.423-.639-.966-.5c-.371.1-.575.4-.609.9a3.659,3.659,0,0,0,.141,1.2q.489,1.865,1.447,1.617.543-.143.6-.9A3.811,3.811,0,0,0,2250.549,470.67Z" transform="translate(-2188.409 -444.879)" fill="#cde0fb"/>
      <path id="Trazado_110805" data-name="Trazado 110805" d="M2285.845,461.445a3.835,3.835,0,0,1,.088,1.891,1.744,1.744,0,0,1-2.963.774,4.573,4.573,0,0,1-.941-3.575,1.755,1.755,0,0,1,2.976-.778A3.869,3.869,0,0,1,2285.845,461.445Zm-.917.235a3.853,3.853,0,0,0-.456-1.111q-.424-.639-.966-.5a.88.88,0,0,0-.61.9,3.753,3.753,0,0,0,.141,1.2q.489,1.867,1.448,1.617.543-.145.6-.9A3.826,3.826,0,0,0,2284.928,461.68Z" transform="translate(-2216.568 -437.516)" fill="#cde0fb"/>
      <path id="Trazado_110806" data-name="Trazado 110806" d="M2308.535,455.515a3.852,3.852,0,0,1,.087,1.891,1.742,1.742,0,0,1-2.961.774,4.573,4.573,0,0,1-.941-3.575,1.755,1.755,0,0,1,2.976-.778A3.867,3.867,0,0,1,2308.535,455.515Zm-.917.235a3.839,3.839,0,0,0-.456-1.111q-.424-.639-.966-.5t-.61.9a3.659,3.659,0,0,0,.141,1.2q.488,1.867,1.447,1.617c.362-.1.566-.4.6-.9A3.818,3.818,0,0,0,2307.618,455.75Z" transform="translate(-2235.154 -432.659)" fill="#cde0fb"/>
      <path id="Trazado_110807" data-name="Trazado 110807" d="M2331.216,449.585a3.858,3.858,0,0,1,.087,1.891,1.742,1.742,0,0,1-2.962.774,4.566,4.566,0,0,1-.942-3.575,1.755,1.755,0,0,1,2.976-.778A3.871,3.871,0,0,1,2331.216,449.585Zm-.919.235a3.787,3.787,0,0,0-.456-1.111c-.282-.425-.6-.59-.966-.5s-.573.4-.608.9a3.646,3.646,0,0,0,.142,1.2q.486,1.867,1.447,1.617.543-.145.6-.9a3.768,3.768,0,0,0-.156-1.214Z" transform="translate(-2253.73 -427.801)" fill="#cde0fb"/>
      <path id="Trazado_110808" data-name="Trazado 110808" d="M2353.907,443.653a3.865,3.865,0,0,1,.087,1.892,1.743,1.743,0,0,1-2.962.774,4.569,4.569,0,0,1-.942-3.575,1.755,1.755,0,0,1,2.976-.778,3.89,3.89,0,0,1,.841,1.686Zm-.919.237a3.814,3.814,0,0,0-.456-1.111q-.424-.639-.966-.5t-.608.9a3.671,3.671,0,0,0,.141,1.2q.485,1.865,1.447,1.617.543-.143.6-.9a3.771,3.771,0,0,0-.157-1.212Z" transform="translate(-2272.315 -422.944)" fill="#cde0fb"/>
      <path id="Trazado_110809" data-name="Trazado 110809" d="M1974.711,436.842l-19.562,5.113a1.594,1.594,0,0,1-1.939-1.136h0a1.594,1.594,0,0,1,1.136-1.939l19.562-5.113a1.592,1.592,0,0,1,1.939,1.134h0A1.6,1.6,0,0,1,1974.711,436.842Z" transform="translate(-1947.241 -416.635)" fill="#cde0fb"/>
      <path id="Trazado_110810" data-name="Trazado 110810" d="M2327.6,395.689a2.426,2.426,0,0,0-.9-1.342.261.261,0,0,0-.382.08l-.067.118a.259.259,0,0,0,.067.335,1.782,1.782,0,0,1,.561,2.146.261.261,0,0,0,.1.326l.117.069a.261.261,0,0,0,.371-.118,2.428,2.428,0,0,0,.132-1.612Z" transform="translate(-2252.802 -384.346)" fill="#cde0fb"/>
      <path id="Trazado_110811" data-name="Trazado 110811" d="M2331.987,390.187a3.738,3.738,0,0,0-1.532-2.158.259.259,0,0,0-.362.089l-.038.067a.26.26,0,0,0,.082.346,3.149,3.149,0,0,1,1.049,4.013.261.261,0,0,0,.1.342l.065.04a.259.259,0,0,0,.362-.1A3.724,3.724,0,0,0,2331.987,390.187Z" transform="translate(-2255.924 -379.181)" fill="#cde0fb"/>
      <path id="Trazado_110812" data-name="Trazado 110812" d="M2335.816,385.374a4.883,4.883,0,0,0-2.073-2.869.261.261,0,0,0-.2-.031.259.259,0,0,0-.162.122h0a.257.257,0,0,0,.083.346,4.373,4.373,0,0,1,1.492,5.708.257.257,0,0,0,.1.342h0a.261.261,0,0,0,.362-.1A4.885,4.885,0,0,0,2335.816,385.374Z" transform="translate(-2258.649 -374.656)" fill="#cde0fb"/>
      <path id="Trazado_110813" data-name="Trazado 110813" d="M2339.56,380.177a6.125,6.125,0,0,0-2.656-3.633.261.261,0,0,0-.362.091l-.067.114a.259.259,0,0,0,.087.347,5.486,5.486,0,0,1,1.89,7.237.257.257,0,0,0,.1.344l.114.069a.261.261,0,0,0,.362-.1A6.122,6.122,0,0,0,2339.56,380.177Z" transform="translate(-2261.183 -369.775)" fill="#cde0fb"/>
    </g>
    <rect id="Rectángulo_28159" data-name="Rectángulo 28159" width="247.358" height="167.932" rx="33.78" transform="translate(144.377 113.176)" fill="#2b478b"/>
    <rect id="Rectángulo_28160" data-name="Rectángulo 28160" width="236.2" height="160.357" transform="translate(149.954 119.043)" fill="#dde7fe"/>
    <rect id="Rectángulo_28161" data-name="Rectángulo 28161" width="306.18" height="10.75" rx="5.375" transform="translate(114.964 274.581)" fill="#2b478b"/>
    <rect id="Rectángulo_28162" data-name="Rectángulo 28162" width="236.2" height="156.097" transform="translate(149.954 119.043)" fill="#aec3ff"/>
    <path id="Trazado_110814" data-name="Trazado 110814" d="M291.94,1447.432a11.845,11.845,0,0,1,.349-3.075c.349-.765,1.628-3.9,1.628-3.9h5a27.613,27.613,0,0,1,.988,3.788c.058.934,0,3.188,0,3.188Z" transform="translate(-220.76 -1161.311)" fill="#233862"/>
    <path id="Trazado_110815" data-name="Trazado 110815" d="M431.154,1447.432a11.845,11.845,0,0,0-.349-3.075c-.349-.765-1.628-3.9-1.628-3.9h-4.995a27.621,27.621,0,0,0-.988,3.788c-.058.934,0,3.188,0,3.188Z" transform="translate(-328.247 -1161.311)" fill="#233862"/>
    <path id="Trazado_110816" data-name="Trazado 110816" d="M327.72,749.845a42.4,42.4,0,0,1-.872,7.452l-5.518,3.636,20.771,2.938-4.953-6.468s-1.5-6.9-.711-9.453S327.72,749.845,327.72,749.845Z" transform="translate(-244.833 -593.439)" fill="#ffb27d"/>
    <path id="Trazado_110817" data-name="Trazado 110817" d="M356.49,765.88s1.643,3.736,4.736,3.653,3.8-3.387,3.8-3.387Z" transform="translate(-273.633 -608.771)" fill="#ed985f"/>
    <path id="Trazado_110818" data-name="Trazado 110818" d="M336.882,681.847a45.036,45.036,0,0,0-1.7-6.14c-.7-1.436-1.277-7.794,6.45-8.123,0,0,2.963.329,4.59-.6,0,0,0,.934-.407,1.266a5.337,5.337,0,0,1,4.765,1.592c2.091,2.194-1.395,9.88-1.219,11.692Z" transform="translate(-255.871 -527.763)" fill="#2c3a64"/>
    <path id="Trazado_110819" data-name="Trazado 110819" d="M351.878,714.168c-2.242-.036-6.368-2.857-6.368-6.35v-5.449a2.227,2.227,0,0,1,2.091-2.319h8.554a2.221,2.221,0,0,1,2.091,2.319v5.141C358.246,711.172,354.449,714.212,351.878,714.168Z" transform="translate(-264.639 -554.851)" fill="#ffb27d"/>
    <path id="Trazado_110820" data-name="Trazado 110820" d="M344.218,699.729s.011-3.274,2.757-3.777,8.89,1.6,9.76-.792-11.875-2.352-12.517-.823S344.218,699.729,344.218,699.729Z" transform="translate(-263.347 -549.292)" fill="#2c3a64"/>
    <path id="Trazado_110821" data-name="Trazado 110821" d="M290.825,1036.56s.874,25.223-.432,39.62.009,34.418.009,34.418a10.427,10.427,0,0,0,8.713,0s4.97-27.8,4.939-34.418c-.034-7.056,5.409-38.513,5.409-38.513Z" transform="translate(-219.019 -830.482)" fill="#2b478b"/>
    <path id="Trazado_110822" data-name="Trazado 110822" d="M380.052,1110.4a10.428,10.428,0,0,1-8.713,0s-4.97-27.8-4.937-34.419c.013-2.976-.948-10.312-2.066-17.786-1.527-10.229-3.336-20.727-3.336-20.727l19.358-1.142s-1.6,25.265-.289,39.654S380.052,1110.4,380.052,1110.4Z" transform="translate(-277.327 -830.293)" fill="#2b478b"/>
    <path id="Trazado_110823" data-name="Trazado 110823" d="M322.4,849.566a102.419,102.419,0,0,1-15.783,1.509,80.542,80.542,0,0,1-9.693-.7c-3.141-.393-5.393-.809-5.393-.809s-1.673.137-.686-7.656a103.326,103.326,0,0,0,.349-16.8c-.018-.613,0-1.337.034-2.144.322-6.424,2.379-17.99,3.946-18.61a30.051,30.051,0,0,1,6.448-1.218c0,.076,2.39,3.376,5.225,3.747a9.82,9.82,0,0,0,5.075-3.64,58.479,58.479,0,0,1,7.96,1.447s.3,1.227,1.417,22.482C321.736,835.6,324.779,849.593,322.4,849.566Z" transform="translate(-219.61 -639.291)" fill="#d9a171"/>
    <path id="Trazado_110824" data-name="Trazado 110824" d="M381.506,1135.319c.013-2.976-.948-10.312-2.066-17.785a34.319,34.319,0,0,1,3.98-8.763C387,1118.239,381.506,1135.319,381.506,1135.319Z" transform="translate(-292.431 -889.628)" fill="#233862"/>
    <path id="Trazado_110825" data-name="Trazado 110825" d="M206.623,834.533c-.2.156.49,1.762,1.5,3.857,2.082,4.3,5.538,10.658,5.538,10.658a18,18,0,0,1-1.049,2.895,71.553,71.553,0,0,1-11.957-10.8c-3.365-3.96-4.054-6.233-4.054-6.233,12.948-24.9,22.059-25.816,22.059-25.816l-1.076,16.463S207.227,834.063,206.623,834.533Z" transform="translate(-142.669 -644.164)" fill="#d9a171"/>
    <path id="Trazado_110826" data-name="Trazado 110826" d="M284.952,1024.111s3.139-2.746,4.416-1.208,1.511,3.953.523,3.788-3.021-1.044-3.312-.6-1.592,1.279-1.99.611S284.952,1024.111,284.952,1024.111Z" transform="translate(-214.645 -818.912)" fill="#ffb27d"/>
    <path id="Trazado_110827" data-name="Trazado 110827" d="M232.046,981.715A18,18,0,0,1,231,984.609a71.538,71.538,0,0,1-11.957-10.8,15.434,15.434,0,0,0,7.468-2.755C228.59,975.354,232.046,981.715,232.046,981.715Z" transform="translate(-161.049 -776.823)" fill="#ffb27d"/>
    <path id="Trazado_110828" data-name="Trazado 110828" d="M469.42,836.085s-.691,2.272-4.054,6.232a71.864,71.864,0,0,1-11.958,10.8,18.212,18.212,0,0,1-1.049-2.895s3.457-6.354,5.538-10.657c1.011-2.095,1.7-3.7,1.5-3.857-.465-.362-6.8-5.561-9.619-7.879l-1.342-1.1-.646-16.212S456.472,811.186,469.42,836.085Z" transform="translate(-348.415 -645.335)" fill="#d9a171"/>
    <path id="Trazado_110829" data-name="Trazado 110829" d="M451.718,1024.111s-3.137-2.746-4.416-1.208-1.511,3.953-.523,3.788,3.021-1.044,3.313-.6,1.592,1.279,1.99.611S451.718,1024.111,451.718,1024.111Z" transform="translate(-347.086 -818.912)" fill="#ffb27d"/>
    <path id="Trazado_110830" data-name="Trazado 110830" d="M473,981.715a18,18,0,0,0,1.049,2.895,71.464,71.464,0,0,0,11.957-10.8,15.433,15.433,0,0,1-7.468-2.755C476.464,975.354,473,981.715,473,981.715Z" transform="translate(-369.064 -776.823)" fill="#ffb27d"/>
    <path id="Trazado_110831" data-name="Trazado 110831" d="M348.065,796.21a2.133,2.133,0,0,0-1.185,1.35s3.7,3.6,6.12,3.651Z" transform="translate(-265.761 -633.614)" fill="#2b478b"/>
    <path id="Trazado_110832" data-name="Trazado 110832" d="M380.71,800.383l4.776-5.183a2.112,2.112,0,0,1,.971,1.628C386.458,796.821,382.763,800.521,380.71,800.383Z" transform="translate(-293.471 -632.787)" fill="#2b478b"/>
    <path id="Trazado_110833" data-name="Trazado 110833" d="M364.032,821.642s-3.644,29.726-2.375,33.348a24.125,24.125,0,0,0,2.223,4.606,1.33,1.33,0,0,0,2.236,0c.968-1.587,2.232-3.884,2.232-5.049,0-1.889-2.766-32.926-2.766-32.926Z" transform="translate(-277.645 -654.427)" fill="#2b478b"/>
    <path id="Trazado_110834" data-name="Trazado 110834" d="M369.339,813.133a24.253,24.253,0,0,1,3.544-.081.349.349,0,0,1,.284.523c-.376.639-1.143,1.746-1.945,1.746C370.1,815.32,368.34,813.205,369.339,813.133Z" transform="translate(-283.914 -647.375)" fill="#2b478b"/>
    <path id="Trazado_110835" data-name="Trazado 110835" d="M370.84,758.049a2.494,2.494,0,0,0,1.918.861,2.31,2.31,0,0,0,1.793-.861A12.873,12.873,0,0,0,370.84,758.049Z" transform="translate(-285.386 -602.241)" fill="#fff"/>
    <rect id="Rectángulo_28163" data-name="Rectángulo 28163" width="152.757" height="162.673" transform="translate(205.601 100.848)" fill="#cfdeff"/>
    <rect id="Rectángulo_28164" data-name="Rectángulo 28164" width="29.196" height="1.889" rx="0.25" transform="translate(285.923 234.244)" fill="#2b478b"/>
    <rect id="Rectángulo_28165" data-name="Rectángulo 28165" width="36.429" height="1.889" rx="0.24" transform="translate(285.923 229.949)" fill="#2b478b"/>
    <rect id="Rectángulo_28166" data-name="Rectángulo 28166" width="126.255" height="88.83" transform="translate(218.851 128.318)" fill="#aec3ff"/>
    <rect id="Rectángulo_28167" data-name="Rectángulo 28167" width="0.203" height="93.843" transform="translate(248.458 123.305)" fill="#1f1f89"/>
    <rect id="Rectángulo_28168" data-name="Rectángulo 28168" width="0.203" height="93.843" transform="translate(327.518 123.305)" fill="#1f1f89"/>
    <rect id="Rectángulo_28169" data-name="Rectángulo 28169" width="0.203" height="93.843" transform="translate(261.883 123.305)" fill="#1f1f89"/>
    <rect id="Rectángulo_28170" data-name="Rectángulo 28170" width="126.255" height="0.203" transform="translate(218.851 200.528)" fill="#1f1f89"/>
    <rect id="Rectángulo_28171" data-name="Rectángulo 28171" width="126.255" height="0.203" transform="translate(218.851 181.937)" fill="#1f1f89"/>
    <rect id="Rectángulo_28172" data-name="Rectángulo 28172" width="126.255" height="0.203" transform="translate(218.851 163.347)" fill="#1f1f89"/>
    <rect id="Rectángulo_28173" data-name="Rectángulo 28173" width="126.255" height="0.203" transform="translate(218.851 144.756)" fill="#1f1f89"/>
    <rect id="Rectángulo_28174" data-name="Rectángulo 28174" width="126.255" height="18.026" transform="translate(218.851 112.255)" fill="#d9a171"/>
    <path id="Trazado_110836" data-name="Trazado 110836" d="M1680.97,1190.742a22.273,22.273,0,0,1-7.806,1.154c-3.327-.262-5.2-1.909-5.275-4.639a6.834,6.834,0,0,1,2.757-5.6c-.018-.148-.033-.3-.045-.445-.121-1.527.224-2.533,1.028-3.014,1.3-.765,3.229.282,3.311.326l-.432.7c-.432-.239-1.717-.761-2.428-.338-.613.362-.686,1.361-.633,2.171a18.672,18.672,0,0,1,5.918-2.5,33.316,33.316,0,0,1,5.576-.9,4.336,4.336,0,0,1,.049-.5c.058-.375.2-.812.586-.9a.658.658,0,0,1,.689.34,1.875,1.875,0,0,1,.262.98c.619-.013,1.194,0,1.7.032a.042.042,0,0,1,.014-.031,8.727,8.727,0,0,1,.132-2.811c.215-.934.572-1.408,1.069-1.447a.658.658,0,0,1,.677.4c.279.633-.242,2.352-1,3.98.707.114,1.188.3,1.341.559a.579.579,0,0,1-.181.756,1.053,1.053,0,0,1-1.25.253,1.163,1.163,0,0,1-.458-.5,8.357,8.357,0,0,1-1.686,2.37.877.877,0,0,1-.995.136.9.9,0,0,1-.215-.163,10.76,10.76,0,0,1-.651,1.266c-.894,1.483-1.9,2.245-2.913,2.2a1.7,1.7,0,0,1-1.085-.456,14.868,14.868,0,0,1-1.959,3.045,2.368,2.368,0,0,1-2.555.856c-1.659-.488-3.158-2.755-3.719-5.438a5.89,5.89,0,0,0-2.059,4.635c.063,2.328,1.576,3.618,4.492,3.854,7.365.579,20.277-5.887,21.255-10.645h0C1693.693,1184.316,1687.566,1188.723,1680.97,1190.742Zm-9.418-8.76c.449,2.831,1.95,4.912,3.224,5.288a1.48,1.48,0,0,0,1.628-.592,13.769,13.769,0,0,0,2.059-3.323,4.632,4.632,0,0,1-.362-1.055,7.18,7.18,0,0,1,0-3.092,22.379,22.379,0,0,0-4.031,1.324,13.355,13.355,0,0,0-2.518,1.449Zm7.861,1.324a.98.98,0,0,0,.752.483c.646.027,1.426-.626,2.131-1.793a10.365,10.365,0,0,0,.881-1.881,7.513,7.513,0,0,1-.239-1.641c-.948.073-1.981.194-3.045.375C1680.447,1179.869,1680.127,1181.591,1679.412,1183.306Zm4.657-3.177c.134.38.253.454.255.454a7.587,7.587,0,0,0,1.52-2.184c-.407-.014-.863-.016-1.362,0a9.4,9.4,0,0,1-.412,1.728Zm-5.017-1.037a5.846,5.846,0,0,0-.109,3.019C1679.372,1180.773,1679.459,1179.616,1679.052,1179.093Zm8.416-.516Zm-.126-4.143a4.714,4.714,0,0,0-.2.845A5.7,5.7,0,0,0,1687.342,1174.434Z" transform="translate(-1347.78 -942.491)" fill="#f77d48"/>
    <path id="Trazado_110837" data-name="Trazado 110837" d="M666.086,1120.756l-64.521-.4a5.208,5.208,0,0,1-5.176-5.246l.422-67.822a5.209,5.209,0,0,1,5.246-5.176l64.528.4a5.212,5.212,0,0,1,5.178,5.247l-.423,67.822a5.207,5.207,0,0,1-5.254,5.176Z" transform="translate(-470.131 -835.027)" fill="#5e6178"/>
    <path id="Trazado_110838" data-name="Trazado 110838" d="M686.037,1084.5l-61.821-.385a2.29,2.29,0,0,1-2.276-2.3l.049-7.85a2.29,2.29,0,0,1,2.314-2.276l61.821.385a2.289,2.289,0,0,1,2.276,2.3l-.049,7.85a2.29,2.29,0,0,1-2.314,2.278Z" transform="translate(-491.059 -859.248)" fill="#aec3ff"/>
    <path id="Trazado_110839" data-name="Trazado 110839" d="M714.112,1263.8l-5.294-.034a2.392,2.392,0,0,1-2.379-2.408l.033-5.293a2.394,2.394,0,0,1,2.41-2.379l5.292.033a2.4,2.4,0,0,1,2.381,2.41l-.034,5.292A2.394,2.394,0,0,1,714.112,1263.8Z" transform="translate(-560.272 -1008.33)" fill="#eaccb2"/>
    <path id="Trazado_110840" data-name="Trazado 110840" d="M713.674,1332.188l-5.292-.032a2.4,2.4,0,0,1-2.383-2.413l.033-5.292a2.4,2.4,0,0,1,2.41-2.381l5.293.032a2.393,2.393,0,0,1,2.379,2.41l-.033,5.294a2.393,2.393,0,0,1-2.408,2.382Z" transform="translate(-559.911 -1064.339)" fill="#eaccb2"/>
    <path id="Trazado_110841" data-name="Trazado 110841" d="M713.262,1400.574l-5.293-.033a2.393,2.393,0,0,1-2.379-2.41l.033-5.294a2.393,2.393,0,0,1,2.41-2.379l5.292.033a2.4,2.4,0,0,1,2.381,2.417l-.034,5.293A2.394,2.394,0,0,1,713.262,1400.574Z" transform="translate(-559.576 -1120.356)" fill="#eaccb2"/>
    <path id="Trazado_110842" data-name="Trazado 110842" d="M787.752,1264.255l-5.292-.033a2.4,2.4,0,0,1-2.381-2.41l.034-5.292a2.394,2.394,0,0,1,2.408-2.381l5.293.034a2.392,2.392,0,0,1,2.381,2.408l-.033,5.294a2.393,2.393,0,0,1-2.411,2.379Z" transform="translate(-620.59 -1008.699)" fill="#eaccb2"/>
    <path id="Trazado_110843" data-name="Trazado 110843" d="M787.332,1332.644l-5.293-.032a2.394,2.394,0,0,1-2.379-2.41l.032-5.293a2.393,2.393,0,0,1,2.41-2.379l5.292.032a2.4,2.4,0,0,1,2.381,2.4l-.033,5.294a2.393,2.393,0,0,1-2.41,2.384Z" transform="translate(-620.245 -1064.716)" fill="#eaccb2"/>
    <path id="Trazado_110844" data-name="Trazado 110844" d="M786.9,1401.034l-5.292-.035a2.393,2.393,0,0,1-2.381-2.408l.032-5.293a2.394,2.394,0,0,1,2.41-2.379l5.293.033a2.393,2.393,0,0,1,2.379,2.41l-.033,5.292A2.4,2.4,0,0,1,786.9,1401.034Z" transform="translate(-619.893 -1120.733)" fill="#eaccb2"/>
    <path id="Trazado_110845" data-name="Trazado 110845" d="M858.35,1333.109l-5.292-.032a2.393,2.393,0,0,1-2.379-2.41l.032-5.292a2.4,2.4,0,0,1,2.41-2.375l5.292.033a2.4,2.4,0,0,1,2.381,2.41l-.034,5.293A2.394,2.394,0,0,1,858.35,1333.109Z" transform="translate(-678.417 -1065.101)" fill="#2b478b"/>
    <path id="Trazado_110846" data-name="Trazado 110846" d="M857.922,1401.474l-5.294-.032a2.394,2.394,0,0,1-2.379-2.41l.033-5.294a2.394,2.394,0,0,1,2.41-2.379l5.294.033a2.394,2.394,0,0,1,2.379,2.41l-.033,5.292A2.4,2.4,0,0,1,857.922,1401.474Z" transform="translate(-678.065 -1121.094)" fill="#eaccb2"/>
    <path id="Trazado_110847" data-name="Trazado 110847" d="M644.262,1192.822l-5.294-.033a2.394,2.394,0,0,1-2.379-2.41l.018-3.139a2.4,2.4,0,0,1,2.408-2.381l5.293.033a2.393,2.393,0,0,1,2.379,2.41l-.018,3.139A2.4,2.4,0,0,1,644.262,1192.822Z" transform="translate(-503.059 -951.952)" fill="#d9a171"/>
    <path id="Trazado_110848" data-name="Trazado 110848" d="M643.8,1264.53l-5.294-.033a2.393,2.393,0,0,1-2.379-2.41l.02-3.139a2.394,2.394,0,0,1,2.41-2.379l5.292.033a2.4,2.4,0,0,1,2.386,2.41l-.02,3.139a2.394,2.394,0,0,1-2.415,2.379Z" transform="translate(-502.682 -1010.689)" fill="#d9a171"/>
    <path id="Trazado_110849" data-name="Trazado 110849" d="M643.352,1336.232l-5.292-.033a2.4,2.4,0,0,1-2.381-2.41l.02-3.139a2.4,2.4,0,0,1,2.41-2.381l5.294.033a2.393,2.393,0,0,1,2.379,2.41l-.02,3.139A2.4,2.4,0,0,1,643.352,1336.232Z" transform="translate(-502.313 -1069.418)" fill="#d9a171"/>
    <path id="Trazado_110850" data-name="Trazado 110850" d="M642.912,1407.96l-5.293-.032a2.394,2.394,0,0,1-2.379-2.41l.02-3.139a2.393,2.393,0,0,1,2.41-2.379l5.292.033a2.4,2.4,0,0,1,2.381,2.41l-.02,3.139A2.393,2.393,0,0,1,642.912,1407.96Z" transform="translate(-501.953 -1128.171)" fill="#d9a171"/>
    <path id="Trazado_110851" data-name="Trazado 110851" d="M714.516,1195.39l-5.3-.038a2.4,2.4,0,0,1-2.381-2.41l.033-5.293a2.393,2.393,0,0,1,2.41-2.379l5.293.032a2.394,2.394,0,0,1,2.379,2.41l-.033,5.293a2.393,2.393,0,0,1-2.406,2.384Z" transform="translate(-560.6 -952.288)" fill="#d9a171"/>
    <path id="Trazado_110852" data-name="Trazado 110852" d="M788.182,1195.875l-5.293-.032a2.394,2.394,0,0,1-2.379-2.41l.032-5.294a2.393,2.393,0,0,1,2.408-2.379l5.294.032a2.394,2.394,0,0,1,2.379,2.41l-.032,5.292A2.4,2.4,0,0,1,788.182,1195.875Z" transform="translate(-620.942 -952.69)" fill="#d9a171"/>
    <path id="Trazado_110853" data-name="Trazado 110853" d="M859.2,1196.314l-5.294-.032a2.393,2.393,0,0,1-2.379-2.41l.033-5.294a2.393,2.393,0,0,1,2.4-2.379l5.292.032a2.4,2.4,0,0,1,2.381,2.41l-.034,5.292A2.393,2.393,0,0,1,859.2,1196.314Z" transform="translate(-679.113 -953.05)" fill="#d9a171"/>
    <path id="Trazado_110854" data-name="Trazado 110854" d="M925.512,1265.444l-5.293-.032a2.4,2.4,0,0,1-2.379-2.41l.033-5.293a2.394,2.394,0,0,1,2.41-2.379l5.293.033a2.394,2.394,0,0,1,2.379,2.41l-.033,5.293A2.4,2.4,0,0,1,925.512,1265.444Z" transform="translate(-733.427 -1009.673)" fill="#f99746"/>
    <path id="Trazado_110855" data-name="Trazado 110855" d="M925.942,1197.054l-5.294-.032a2.393,2.393,0,0,1-2.379-2.41l.032-5.292a2.4,2.4,0,0,1,2.41-2.381l5.292.032a2.4,2.4,0,0,1,2.381,2.41l-.033,5.293a2.392,2.392,0,0,1-2.41,2.379Z" transform="translate(-733.779 -953.656)" fill="#d9a171"/>
    <path id="Trazado_110856" data-name="Trazado 110856" d="M924.671,1346.2l-5.294-.032a2.394,2.394,0,0,1-2.377-2.408l.11-17.664a2.393,2.393,0,0,1,2.41-2.379l5.292.033a2.4,2.4,0,0,1,2.381,2.41l-.11,17.664A2.393,2.393,0,0,1,924.671,1346.2Z" transform="translate(-732.739 -1065.691)" fill="#f99746"/>
    <path id="Trazado_110857" data-name="Trazado 110857" d="M741.736,1095.551l.011-1.7.246-.646a.521.521,0,0,1,.4.407l-.014,2.261-.163.159Zm.481.65.159.161-.013,2.261a.521.521,0,0,1-.407.4l-.237-.648v-1.7Z" transform="translate(-589.17 -876.883)" fill="#2b478b"/>
    <path id="Trazado_110858" data-name="Trazado 110858" d="M754.435,1094.109l-.011,1.534-.487.481-.161-.163.013-2.1Zm-.675,4.436.013-2.1.163-.161.481.487v1.534Zm2.822.583-2.422-.014a.521.521,0,0,1-.4-.407l.648-.237,1.938.011Zm-.21-5.168-1.93-.013-.644-.246a.519.519,0,0,1,.407-.4l2.413.015Zm.152,1.7.009-1.7.246-.646a.521.521,0,0,1,.4.407l-.015,2.261-.161.159Zm.479.648.161.163-.015,2.261a.517.517,0,0,1-.407.4l-.237-.647.011-1.7Z" transform="translate(-599.031 -876.957)" fill="#2b478b"/>
    <path id="Trazado_110859" data-name="Trazado 110859" d="M781.671,1094.269l-.009,1.536-.488.481-.161-.163.015-2.1Zm-.671,4.438.015-2.1.161-.159.483.487-.011,1.534Zm2.824.583-2.422-.015a.521.521,0,0,1-.4-.407l.648-.237,1.938.011Zm-.21-5.169-1.93-.013-.644-.246a.519.519,0,0,1,.405-.4l2.415.016Zm.15,1.7.011-1.7.246-.644a.521.521,0,0,1,.4.407l-.015,2.26-.163.161Zm.479.648.161.163-.014,2.261a.518.518,0,0,1-.405.4l-.239-.648.011-1.7Z" transform="translate(-621.343 -877.088)" fill="#2b478b"/>
    <path id="Trazado_110860" data-name="Trazado 110860" d="M808.875,1094.439v1.534l-.489.483-.159-.163.013-2.1Zm-.673,4.438.013-2.1.163-.159.481.487-.009,1.534Zm2.822.583-2.422-.014a.521.521,0,0,1-.4-.407l.648-.239,1.938.013Zm-.21-5.169-1.93-.013-.644-.246a.518.518,0,0,1,.407-.4l2.413.016Zm.15,1.7.011-1.7.246-.644a.521.521,0,0,1,.4.407l-.015,2.26-.163.161Zm.481.648.161.163-.015,2.261a.517.517,0,0,1-.407.4l-.237-.646.009-1.7Z" transform="translate(-643.622 -877.227)" fill="#2b478b"/>
    <path id="Trazado_110861" data-name="Trazado 110861" d="M836.08,1094.592l-.011,1.534-.487.481-.161-.161.013-2.1Zm-.675,4.438.015-2.1.161-.159.483.487-.011,1.534Zm2.817.579-2.421-.014a.521.521,0,0,1-.4-.407l.648-.239,1.938.013Zm-.21-5.169-1.929-.013-.646-.246a.521.521,0,0,1,.407-.4l2.413.016Zm.152,1.7.011-1.7.246-.644a.519.519,0,0,1,.4.407l-.013,2.26-.163.161Zm.479.648.161.163-.014,2.261a.517.517,0,0,1-.405.4l-.239-.646.011-1.7Z" transform="translate(-665.901 -877.35)" fill="#2b478b"/>
    <path id="Trazado_110862" data-name="Trazado 110862" d="M863.325,1094.8v1.534l-.488.481-.159-.161.013-2.1Zm-.673,4.443.013-2.1.163-.159.481.487v1.534Zm2.822.583-2.422-.016a.517.517,0,0,1-.4-.405l.648-.239,1.938.013Zm-.21-5.168-1.93-.013-.644-.246a.517.517,0,0,1,.405-.4l2.415.016Zm.15,1.7.011-1.7.246-.644a.519.519,0,0,1,.4.407l-.014,2.26-.163.161Zm.481.648.159.163-.013,2.261a.52.52,0,0,1-.407.4l-.239-.646.011-1.7Z" transform="translate(-688.222 -877.53)" fill="#2b478b"/>
    <path id="Trazado_110863" data-name="Trazado 110863" d="M890.545,1094.949l-.009,1.534-.487.481-.161-.163.013-2.1Zm-.673,4.438.013-2.1.163-.159.481.487v1.534Zm2.822.583-2.422-.016a.517.517,0,0,1-.4-.405l.648-.239,1.938.013Zm-.21-5.169-1.93-.013-.644-.246a.519.519,0,0,1,.407-.4l2.413.014Zm.15,1.7.011-1.7.246-.644a.519.519,0,0,1,.4.407l-.014,2.26-.161.161Zm.481.649.161.163-.015,2.26a.519.519,0,0,1-.407.4l-.237-.648.011-1.7Z" transform="translate(-710.517 -877.645)" fill="#2b478b"/>
    <path id="Trazado_110864" data-name="Trazado 110864" d="M917.775,1095.152l-.011,1.534-.487.481-.161-.163.014-2.1Zm-.675,4.438.014-2.1.161-.161.483.488-.011,1.534Zm2.822.582-2.421-.016a.517.517,0,0,1-.4-.405l.648-.239,1.938.013Zm-.21-5.161-1.928-.013-.644-.246a.517.517,0,0,1,.405-.4l2.413.014Zm.152,1.7.011-1.7.246-.644a.519.519,0,0,1,.4.405l-.015,2.261-.163.161Zm.479.65.161.163-.015,2.26a.518.518,0,0,1-.405.4l-.239-.648.011-1.7Z" transform="translate(-732.821 -877.817)" fill="#2b478b"/>
    <path id="Trazado_110865" data-name="Trazado 110865" d="M944.995,1095.339v1.534l-.489.481-.159-.163.013-2.1Zm-.673,4.436.013-2.1.163-.161.481.489-.009,1.534Zm2.822.584-2.422-.016a.517.517,0,0,1-.4-.405l.648-.239,1.938.013Zm-.21-5.17-1.93-.011-.644-.246a.517.517,0,0,1,.405-.4l2.415.014Zm.15,1.7.011-1.7.246-.644a.517.517,0,0,1,.4.405l-.014,2.261-.163.161Zm.481.65.159.163-.013,2.26a.521.521,0,0,1-.407.4l-.239-.648.011-1.7Z" transform="translate(-755.117 -877.964)" fill="#2b478b"/>
    <path id="Trazado_110866" data-name="Trazado 110866" d="M1099.223,1450.661v2.627a.905.905,0,0,1-.206.564,1.194,1.194,0,0,1-.566.378,1.226,1.226,0,0,1-.221.054,1.363,1.363,0,0,1-.212.014h-49.805a1.164,1.164,0,0,1-1.192-.859.626.626,0,0,1-.011-.1v-2.728a.605.605,0,0,1,.011-.1,1.165,1.165,0,0,1,1.192-.861h49.813a1.364,1.364,0,0,1,.212.016,1.245,1.245,0,0,1,.221.052,1.209,1.209,0,0,1,.566.378A.9.9,0,0,1,1099.223,1450.661Z" transform="translate(-839.229 -1168.838)" fill="#ffb93e"/>
    <path id="Trazado_110867" data-name="Trazado 110867" d="M1074.808,1454.3h-26.674a1.065,1.065,0,0,1-1.035-.749.569.569,0,0,1-.029-.11.637.637,0,0,1-.011-.1v-2.728a.6.6,0,0,1,.011-.1.635.635,0,0,1,.029-.112,1.069,1.069,0,0,1,1.035-.749h23.406A8.141,8.141,0,0,0,1074.808,1454.3Z" transform="translate(-839.27 -1168.838)" fill="#ffa412"/>
    <rect id="Rectángulo_28175" data-name="Rectángulo 28175" width="0.566" height="4.649" transform="translate(253.368 280.811)" fill="#ffa412"/>
    <rect id="Rectángulo_28176" data-name="Rectángulo 28176" width="0.566" height="4.649" transform="translate(251.452 280.811)" fill="#ffa412"/>
    <rect id="Rectángulo_28177" data-name="Rectángulo 28177" width="0.566" height="4.649" transform="translate(249.154 280.811)" fill="#ffa412"/>
    <rect id="Rectángulo_28178" data-name="Rectángulo 28178" width="0.566" height="4.649" transform="translate(245.632 280.811)" fill="#ffa412"/>
    <rect id="Rectángulo_28179" data-name="Rectángulo 28179" width="0.566" height="4.649" transform="translate(241.907 280.811)" fill="#ffa412"/>
    <rect id="Rectángulo_28180" data-name="Rectángulo 28180" width="0.566" height="4.649" transform="translate(236.197 280.811)" fill="#ffa412"/>
    <rect id="Rectángulo_28181" data-name="Rectángulo 28181" width="0.566" height="4.649" transform="translate(230.853 280.811)" fill="#ffa412"/>
    <rect id="Rectángulo_28182" data-name="Rectángulo 28182" width="0.566" height="4.649" transform="translate(226.079 280.811)" fill="#ffa412"/>
    <rect id="Rectángulo_28183" data-name="Rectángulo 28183" width="0.566" height="4.649" transform="translate(255.191 280.811)" fill="#ffa412"/>
    <rect id="Rectángulo_28184" data-name="Rectángulo 28184" width="0.566" height="4.649" transform="translate(256.396 280.811)" fill="#ffa412"/>
    <rect id="Rectángulo_28185" data-name="Rectángulo 28185" width="0.566" height="4.649" transform="translate(257.559 280.811)" fill="#ffa412"/>
    <path id="Trazado_110868" data-name="Trazado 110868" d="M1327.533,1449.666v4.617a1.365,1.365,0,0,1-.212.016h-.362v-4.649h.362A1.336,1.336,0,0,1,1327.533,1449.666Z" transform="translate(-1068.532 -1168.839)" fill="#ffa412"/>
    <path id="Trazado_110869" data-name="Trazado 110869" d="M1331.916,1450.367v3.756a1.212,1.212,0,0,1-.566.38v-4.523A1.194,1.194,0,0,1,1331.916,1450.367Z" transform="translate(-1072.128 -1169.109)" fill="#ffa412"/>
    <path id="Trazado_110870" data-name="Trazado 110870" d="M1069.788,1424.957v2.625a.9.9,0,0,1-.2.566,1.441,1.441,0,0,1-.114.119,1.256,1.256,0,0,1-.452.259,1.447,1.447,0,0,1-.221.051,1.4,1.4,0,0,1-.212.016h-49.807a1.165,1.165,0,0,1-1.19-.861.582.582,0,0,1-.011-.1.471.471,0,0,1,0-.052v-2.625a.418.418,0,0,1,0-.052.582.582,0,0,1,.011-.1,1.165,1.165,0,0,1,1.19-.861h49.807a.867.867,0,0,1,.094,0h.04a.233.233,0,0,1,.045,0h.033a1.264,1.264,0,0,1,.221.052.98.98,0,0,1,.121.047h0l.078.036.044.025.04.025a.954.954,0,0,1,.146.107c.016.012.027.027.042.04l.025.022.013.014.011.011c.016.017.031.034.045.052A.906.906,0,0,1,1069.788,1424.957Z" transform="translate(-815.12 -1147.782)" fill="#ffb93e"/>
    <path id="Trazado_110871" data-name="Trazado 110871" d="M1045.332,1428.6H1018.65a1.066,1.066,0,0,1-1.033-.751.59.59,0,0,1-.029-.11.615.615,0,0,1-.011-.1c0-.018,0-.035,0-.052v-2.625a.471.471,0,0,1,0-.052.608.608,0,0,1,.011-.1.588.588,0,0,1,.029-.11,1.066,1.066,0,0,1,1.033-.751h23.406a.411.411,0,0,0,.032.116A8.143,8.143,0,0,0,1045.332,1428.6Z" transform="translate(-815.12 -1147.787)" fill="#ffa412"/>
    <rect id="Rectángulo_28186" data-name="Rectángulo 28186" width="0.566" height="4.649" transform="translate(248.043 276.162)" fill="#ffa412"/>
    <rect id="Rectángulo_28187" data-name="Rectángulo 28187" width="0.566" height="4.649" transform="translate(246.127 276.162)" fill="#ffa412"/>
    <rect id="Rectángulo_28188" data-name="Rectángulo 28188" width="0.566" height="4.649" transform="translate(243.828 276.162)" fill="#ffa412"/>
    <rect id="Rectángulo_28189" data-name="Rectángulo 28189" width="0.566" height="4.649" transform="translate(240.308 276.162)" fill="#ffa412"/>
    <rect id="Rectángulo_28190" data-name="Rectángulo 28190" width="0.566" height="4.649" transform="translate(236.583 276.162)" fill="#ffa412"/>
    <rect id="Rectángulo_28191" data-name="Rectángulo 28191" width="0.566" height="4.649" transform="translate(230.873 276.162)" fill="#ffa412"/>
    <rect id="Rectángulo_28192" data-name="Rectángulo 28192" width="0.566" height="4.649" transform="translate(225.527 276.162)" fill="#ffa412"/>
    <rect id="Rectángulo_28193" data-name="Rectángulo 28193" width="0.566" height="4.649" transform="translate(220.753 276.162)" fill="#ffa412"/>
    <rect id="Rectángulo_28194" data-name="Rectángulo 28194" width="0.566" height="4.649" transform="translate(249.867 276.162)" fill="#ffa412"/>
    <rect id="Rectángulo_28195" data-name="Rectángulo 28195" width="0.566" height="4.649" transform="translate(251.072 276.162)" fill="#ffa412"/>
    <rect id="Rectángulo_28196" data-name="Rectángulo 28196" width="0.566" height="4.649" transform="translate(252.235 276.162)" fill="#ffa412"/>
    <path id="Trazado_110872" data-name="Trazado 110872" d="M1298.1,1423.981v4.617a1.388,1.388,0,0,1-.214.016h-.362v-4.633h.362a1.418,1.418,0,0,1,.214,0Z" transform="translate(-1044.418 -1147.81)" fill="#ffa412"/>
    <path id="Trazado_110873" data-name="Trazado 110873" d="M1302.444,1424.708v3.756a1.2,1.2,0,0,1-.564.378v-4.512A1.2,1.2,0,0,1,1302.444,1424.708Z" transform="translate(-1047.99 -1148.099)" fill="#ffa412"/>
    <path id="Trazado_110874" data-name="Trazado 110874" d="M1084.065,1399.9v2.627a.891.891,0,0,1-.208.565,1.2,1.2,0,0,1-.564.378,1.461,1.461,0,0,1-.221.052,1.618,1.618,0,0,1-.212.016h-49.805a1.4,1.4,0,0,1-.555-.116,1.053,1.053,0,0,1-.635-.735.385.385,0,0,1,0-.065.352.352,0,0,1,0-.045c0-.017,0-.034,0-.051V1399.9a.471.471,0,0,1,0-.052.818.818,0,0,1,.011-.1,1.165,1.165,0,0,1,1.192-.861h49.805a1.16,1.16,0,0,1,.212.016,1.106,1.106,0,0,1,.221.051,1.2,1.2,0,0,1,.564.38A.886.886,0,0,1,1084.065,1399.9Z" transform="translate(-826.822 -1127.261)" fill="#ffb93e"/>
    <path id="Trazado_110875" data-name="Trazado 110875" d="M1059.607,1403.539h-26.683a1.128,1.128,0,0,1-.494-.116,1.022,1.022,0,0,1-.566-.735.385.385,0,0,1,0-.065.349.349,0,0,1,0-.045c0-.017,0-.034,0-.051V1399.9a.471.471,0,0,1,0-.052.818.818,0,0,1,.011-.1.763.763,0,0,1,.029-.108,1.062,1.062,0,0,1,1.033-.753h23.406a8.157,8.157,0,0,0,3.114,4.534A1.2,1.2,0,0,0,1059.607,1403.539Z" transform="translate(-826.822 -1127.261)" fill="#ffa412"/>
    <rect id="Rectángulo_28197" data-name="Rectángulo 28197" width="0.566" height="4.649" transform="translate(250.616 271.628)" fill="#ffa412"/>
    <rect id="Rectángulo_28198" data-name="Rectángulo 28198" width="0.566" height="4.649" transform="translate(248.7 271.628)" fill="#ffa412"/>
    <rect id="Rectángulo_28199" data-name="Rectángulo 28199" width="0.566" height="4.649" transform="translate(246.402 271.628)" fill="#ffa412"/>
    <rect id="Rectángulo_28200" data-name="Rectángulo 28200" width="0.566" height="4.649" transform="translate(242.88 271.628)" fill="#ffa412"/>
    <rect id="Rectángulo_28201" data-name="Rectángulo 28201" width="0.566" height="4.649" transform="translate(239.155 271.628)" fill="#ffa412"/>
    <rect id="Rectángulo_28202" data-name="Rectángulo 28202" width="0.566" height="4.649" transform="translate(233.446 271.628)" fill="#ffa412"/>
    <rect id="Rectángulo_28203" data-name="Rectángulo 28203" width="0.566" height="4.649" transform="translate(228.1 271.628)" fill="#ffa412"/>
    <rect id="Rectángulo_28204" data-name="Rectángulo 28204" width="0.566" height="4.649" transform="translate(223.327 271.628)" fill="#ffa412"/>
    <rect id="Rectángulo_28205" data-name="Rectángulo 28205" width="0.566" height="4.649" transform="translate(252.44 271.628)" fill="#ffa412"/>
    <rect id="Rectángulo_28206" data-name="Rectángulo 28206" width="0.566" height="4.649" transform="translate(253.644 271.628)" fill="#ffa412"/>
    <rect id="Rectángulo_28207" data-name="Rectángulo 28207" width="0.566" height="4.649" transform="translate(254.808 271.628)" fill="#ffa412"/>
    <path id="Trazado_110876" data-name="Trazado 110876" d="M1312.323,1398.934v4.619a1.663,1.663,0,0,1-.212.016h-.362v-4.65h.362A1.638,1.638,0,0,1,1312.323,1398.934Z" transform="translate(-1056.074 -1127.286)" fill="#ffa412"/>
    <path id="Trazado_110877" data-name="Trazado 110877" d="M1316.706,1399.6v3.756a1.2,1.2,0,0,1-.566.38v-4.523a1.221,1.221,0,0,1,.566.387Z" transform="translate(-1059.67 -1127.524)" fill="#ffa412"/>
    <path id="Trazado_110878" data-name="Trazado 110878" d="M1090.57,1374.2v2.625a.893.893,0,0,1-.206.564c-.016.022-.036.042-.054.063a1.2,1.2,0,0,1-.344.25,1.324,1.324,0,0,1-.167.067,1.267,1.267,0,0,1-.221.051.886.886,0,0,1-.1.013h-49.921a1.166,1.166,0,0,1-1.192-.863.931.931,0,0,1-.011-.1v-2.73a1.1,1.1,0,0,1,1.06-.952,1.267,1.267,0,0,1,.143,0h49.914a.951.951,0,0,1,.1.013,1.319,1.319,0,0,1,.221.051,1.211,1.211,0,0,1,.564.378.9.9,0,0,1,.214.568Z" transform="translate(-832.135 -1106.211)" fill="#ffb93e"/>
    <path id="Trazado_110879" data-name="Trazado 110879" d="M1066.147,1377.863h-26.683a1.067,1.067,0,0,1-1.035-.751.8.8,0,0,1-.029-.112.935.935,0,0,1-.011-.1v-2.73a1.044,1.044,0,0,1,.948-.952.954.954,0,0,1,.127,0h23.406A8.152,8.152,0,0,0,1066.147,1377.863Z" transform="translate(-832.168 -1106.235)" fill="#ffa412"/>
    <rect id="Rectángulo_28208" data-name="Rectángulo 28208" width="0.566" height="4.649" transform="translate(251.808 266.977)" fill="#ffa412"/>
    <rect id="Rectángulo_28209" data-name="Rectángulo 28209" width="0.566" height="4.649" transform="translate(249.892 266.977)" fill="#ffa412"/>
    <rect id="Rectángulo_28210" data-name="Rectángulo 28210" width="0.566" height="4.649" transform="translate(247.595 266.977)" fill="#ffa412"/>
    <rect id="Rectángulo_28211" data-name="Rectángulo 28211" width="0.566" height="4.649" transform="translate(244.074 266.977)" fill="#ffa412"/>
    <rect id="Rectángulo_28212" data-name="Rectángulo 28212" width="0.566" height="4.649" transform="translate(240.349 266.977)" fill="#ffa412"/>
    <rect id="Rectángulo_28213" data-name="Rectángulo 28213" width="0.566" height="4.649" transform="translate(234.64 266.977)" fill="#ffa412"/>
    <rect id="Rectángulo_28214" data-name="Rectángulo 28214" width="0.566" height="4.649" transform="translate(229.294 266.977)" fill="#ffa412"/>
    <rect id="Rectángulo_28215" data-name="Rectángulo 28215" width="0.566" height="4.649" transform="translate(224.519 266.977)" fill="#ffa412"/>
    <rect id="Rectángulo_28216" data-name="Rectángulo 28216" width="0.566" height="4.649" transform="translate(253.634 266.977)" fill="#ffa412"/>
    <rect id="Rectángulo_28217" data-name="Rectángulo 28217" width="0.566" height="4.649" transform="translate(254.838 266.977)" fill="#ffa412"/>
    <rect id="Rectángulo_28218" data-name="Rectángulo 28218" width="0.566" height="4.649" transform="translate(256.002 266.977)" fill="#ffa412"/>
    <path id="Trazado_110880" data-name="Trazado 110880" d="M1318.956,1373.2v4.617a1.422,1.422,0,0,1-.213.016h-.353v-4.65h.353A1.422,1.422,0,0,1,1318.956,1373.2Z" transform="translate(-1061.513 -1106.203)" fill="#ffa412"/>
    <path id="Trazado_110881" data-name="Trazado 110881" d="M1323.3,1373.9v3.756a1.209,1.209,0,0,1-.566.38v-4.523A1.209,1.209,0,0,1,1323.3,1373.9Z" transform="translate(-1065.068 -1106.473)" fill="#ffa412"/>
    <path id="Trazado_110882" data-name="Trazado 110882" d="M1070.36,1348.478v2.625a.886.886,0,0,1-.206.564,1.19,1.19,0,0,1-.566.38,1.256,1.256,0,0,1-.219.051.317.317,0,0,1-.071,0h-49.946a1.14,1.14,0,0,1-1.2-.961.468.468,0,0,1,0-.052v-2.625a.471.471,0,0,1,0-.052.294.294,0,0,1,0-.042,1.086,1.086,0,0,1,.9-.887h.034a1.4,1.4,0,0,1,.262-.025h49.807a1.038,1.038,0,0,1,.109,0h.1a1.269,1.269,0,0,1,.219.051,1.177,1.177,0,0,1,.566.38A.882.882,0,0,1,1070.36,1348.478Z" transform="translate(-815.587 -1085.13)" fill="#ffb93e"/>
    <path id="Trazado_110883" data-name="Trazado 110883" d="M1045.9,1352.171h-26.681a1.055,1.055,0,0,1-1.076-.961.471.471,0,0,1,0-.052v-2.625a.471.471,0,0,1,0-.052.3.3,0,0,1,0-.042,1.037,1.037,0,0,1,.836-.892.13.13,0,0,1,.045-.009,1.076,1.076,0,0,1,.192-.018h23.4l.011.034a8.14,8.14,0,0,0,3.256,4.608A.08.08,0,0,1,1045.9,1352.171Z" transform="translate(-815.587 -1085.185)" fill="#ffa412"/>
    <rect id="Rectángulo_28219" data-name="Rectángulo 28219" width="0.566" height="4.649" transform="translate(248.148 262.335)" fill="#ffa412"/>
    <rect id="Rectángulo_28220" data-name="Rectángulo 28220" width="0.566" height="4.649" transform="translate(246.231 262.335)" fill="#ffa412"/>
    <rect id="Rectángulo_28221" data-name="Rectángulo 28221" width="0.566" height="4.649" transform="translate(243.933 262.335)" fill="#ffa412"/>
    <rect id="Rectángulo_28222" data-name="Rectángulo 28222" width="0.566" height="4.649" transform="translate(240.412 262.335)" fill="#ffa412"/>
    <rect id="Rectángulo_28223" data-name="Rectángulo 28223" width="0.566" height="4.649" transform="translate(236.687 262.335)" fill="#ffa412"/>
    <rect id="Rectángulo_28224" data-name="Rectángulo 28224" width="0.566" height="4.649" transform="translate(230.978 262.335)" fill="#ffa412"/>
    <rect id="Rectángulo_28225" data-name="Rectángulo 28225" width="0.566" height="4.649" transform="translate(225.632 262.335)" fill="#ffa412"/>
    <rect id="Rectángulo_28226" data-name="Rectángulo 28226" width="0.566" height="4.649" transform="translate(220.858 262.335)" fill="#ffa412"/>
    <rect id="Rectángulo_28227" data-name="Rectángulo 28227" width="0.566" height="4.649" transform="translate(249.972 262.335)" fill="#ffa412"/>
    <rect id="Rectángulo_28228" data-name="Rectángulo 28228" width="0.566" height="4.649" transform="translate(251.177 262.335)" fill="#ffa412"/>
    <rect id="Rectángulo_28229" data-name="Rectángulo 28229" width="0.566" height="4.649" transform="translate(252.34 262.335)" fill="#ffa412"/>
    <path id="Trazado_110884" data-name="Trazado 110884" d="M1298.716,1347.536v4.617a1.423,1.423,0,0,1-.214.016h-.353v-4.649h.353A1.392,1.392,0,0,1,1298.716,1347.536Z" transform="translate(-1044.934 -1085.185)" fill="#ffa412"/>
    <path id="Trazado_110885" data-name="Trazado 110885" d="M1303.064,1348.28v3.756a1.214,1.214,0,0,1-.564.38V1347.9A1.2,1.2,0,0,1,1303.064,1348.28Z" transform="translate(-1048.497 -1085.496)" fill="#ffa412"/>
    <path id="Trazado_110886" data-name="Trazado 110886" d="M1069.823,1323.021v2.625a.9.9,0,0,1-.2.565,1.188,1.188,0,0,1-.114.121,1.252,1.252,0,0,1-.452.259,1.485,1.485,0,0,1-.181.043h-.043a1.368,1.368,0,0,1-.212.016h-49.8a1.5,1.5,0,0,1-.156,0h-.058a1.118,1.118,0,0,1-.979-.855.491.491,0,0,1,0-.089c0-.017,0-.035,0-.052v-2.632c0-.017,0-.035,0-.052a.612.612,0,0,1,.011-.1,1.165,1.165,0,0,1,1.19-.861h50.01a1.27,1.27,0,0,1,.221.051l.121.047h0a1.215,1.215,0,0,1,.4.281l.045.051A.9.9,0,0,1,1069.823,1323.021Z" transform="translate(-815.155 -1064.29)" fill="#ffb93e"/>
    <path id="Trazado_110887" data-name="Trazado 110887" d="M1045.367,1326.659h-26.813a1.053,1.053,0,0,1-.934-.865.488.488,0,0,1,0-.089c0-.017,0-.035,0-.052v-2.633c0-.017,0-.035,0-.052a.605.605,0,0,1,.011-.1.585.585,0,0,1,.029-.111,1.066,1.066,0,0,1,1.033-.751H1042.1q.014.058.033.114a8.14,8.14,0,0,0,3.195,4.5Z" transform="translate(-815.155 -1064.29)" fill="#ffa412"/>
    <rect id="Rectángulo_28230" data-name="Rectángulo 28230" width="0.566" height="4.649" transform="translate(248.043 257.72)" fill="#ffa412"/>
    <rect id="Rectángulo_28231" data-name="Rectángulo 28231" width="0.566" height="4.649" transform="translate(246.127 257.72)" fill="#ffa412"/>
    <rect id="Rectángulo_28232" data-name="Rectángulo 28232" width="0.566" height="4.649" transform="translate(243.828 257.72)" fill="#ffa412"/>
    <rect id="Rectángulo_28233" data-name="Rectángulo 28233" width="0.566" height="4.649" transform="translate(240.308 257.72)" fill="#ffa412"/>
    <rect id="Rectángulo_28234" data-name="Rectángulo 28234" width="0.566" height="4.649" transform="translate(236.583 257.72)" fill="#ffa412"/>
    <rect id="Rectángulo_28235" data-name="Rectángulo 28235" width="0.566" height="4.649" transform="translate(230.873 257.72)" fill="#ffa412"/>
    <rect id="Rectángulo_28236" data-name="Rectángulo 28236" width="0.566" height="4.649" transform="translate(225.527 257.72)" fill="#ffa412"/>
    <rect id="Rectángulo_28237" data-name="Rectángulo 28237" width="0.566" height="4.649" transform="translate(220.753 257.72)" fill="#ffa412"/>
    <rect id="Rectángulo_28238" data-name="Rectángulo 28238" width="0.566" height="4.649" transform="translate(249.867 257.72)" fill="#ffa412"/>
    <rect id="Rectángulo_28239" data-name="Rectángulo 28239" width="0.566" height="4.649" transform="translate(251.072 257.72)" fill="#ffa412"/>
    <rect id="Rectángulo_28240" data-name="Rectángulo 28240" width="0.566" height="4.649" transform="translate(252.235 257.72)" fill="#ffa412"/>
    <path id="Trazado_110888" data-name="Trazado 110888" d="M1298.1,1322.018v4.617a1.373,1.373,0,0,1-.214.016h-.362V1322h.362A1.36,1.36,0,0,1,1298.1,1322.018Z" transform="translate(-1044.418 -1064.282)" fill="#ffa412"/>
    <path id="Trazado_110889" data-name="Trazado 110889" d="M1302.444,1322.76v3.756a1.2,1.2,0,0,1-.564.378v-4.514A1.214,1.214,0,0,1,1302.444,1322.76Z" transform="translate(-1047.99 -1064.593)" fill="#ffa412"/>
    <path id="Trazado_110890" data-name="Trazado 110890" d="M1084.065,1297.918v2.618a.888.888,0,0,1-.208.566,1.181,1.181,0,0,1-.564.378,1.271,1.271,0,0,1-.221.053,1.382,1.382,0,0,1-.212.016h-49.805a1.4,1.4,0,0,1-.555-.114,1.053,1.053,0,0,1-.635-.735.408.408,0,0,1,0-.067.321.321,0,0,1,0-.043.5.5,0,0,1,0-.054v-2.677a.939.939,0,0,1,.011-.1,1.167,1.167,0,0,1,1.192-.861h49.805a1.335,1.335,0,0,1,.212.016,1.454,1.454,0,0,1,.221.051,1.2,1.2,0,0,1,.564.38A.887.887,0,0,1,1084.065,1297.918Z" transform="translate(-826.822 -1043.723)" fill="#ffb93e"/>
    <path id="Trazado_110891" data-name="Trazado 110891" d="M1059.607,1301.589h-26.683a1.124,1.124,0,0,1-.494-.114,1.023,1.023,0,0,1-.566-.735.408.408,0,0,1,0-.067.323.323,0,0,1,0-.043.5.5,0,0,1,0-.054V1297.9a.941.941,0,0,1,.011-.1.78.78,0,0,1,.029-.108,1.063,1.063,0,0,1,1.033-.753h23.406a8.159,8.159,0,0,0,3.113,4.535Z" transform="translate(-826.822 -1043.755)" fill="#ffa412"/>
    <rect id="Rectángulo_28241" data-name="Rectángulo 28241" width="0.566" height="4.649" transform="translate(250.616 253.184)" fill="#ffa412"/>
    <rect id="Rectángulo_28242" data-name="Rectángulo 28242" width="0.566" height="4.649" transform="translate(248.7 253.184)" fill="#ffa412"/>
    <rect id="Rectángulo_28243" data-name="Rectángulo 28243" width="0.566" height="4.649" transform="translate(246.402 253.184)" fill="#ffa412"/>
    <rect id="Rectángulo_28244" data-name="Rectángulo 28244" width="0.566" height="4.649" transform="translate(242.88 253.184)" fill="#ffa412"/>
    <rect id="Rectángulo_28245" data-name="Rectángulo 28245" width="0.566" height="4.649" transform="translate(239.155 253.184)" fill="#ffa412"/>
    <rect id="Rectángulo_28246" data-name="Rectángulo 28246" width="0.566" height="4.649" transform="translate(233.446 253.184)" fill="#ffa412"/>
    <rect id="Rectángulo_28247" data-name="Rectángulo 28247" width="0.566" height="4.649" transform="translate(228.1 253.184)" fill="#ffa412"/>
    <rect id="Rectángulo_28248" data-name="Rectángulo 28248" width="0.566" height="4.649" transform="translate(223.327 253.184)" fill="#ffa412"/>
    <rect id="Rectángulo_28249" data-name="Rectángulo 28249" width="0.566" height="4.649" transform="translate(252.44 253.184)" fill="#ffa412"/>
    <rect id="Rectángulo_28250" data-name="Rectángulo 28250" width="0.566" height="4.649" transform="translate(253.644 253.184)" fill="#ffa412"/>
    <rect id="Rectángulo_28251" data-name="Rectángulo 28251" width="0.566" height="4.649" transform="translate(254.808 253.184)" fill="#ffa412"/>
    <path id="Trazado_110892" data-name="Trazado 110892" d="M1312.323,1296.926v4.617a1.366,1.366,0,0,1-.212.016h-.362v-4.649h.362A1.367,1.367,0,0,1,1312.323,1296.926Z" transform="translate(-1056.074 -1043.731)" fill="#ffa412"/>
    <path id="Trazado_110893" data-name="Trazado 110893" d="M1316.706,1297.7v3.756a1.194,1.194,0,0,1-.566.378v-4.512A1.2,1.2,0,0,1,1316.706,1297.7Z" transform="translate(-1059.67 -1044.067)" fill="#ffa412"/>
    <path id="Trazado_110894" data-name="Trazado 110894" d="M1106.549,1272.307v2.627a.906.906,0,0,1-.2.563h0c-.016.022-.036.042-.054.062a1.077,1.077,0,0,1-.266.217,1.2,1.2,0,0,1-.159.078h0a.851.851,0,0,1-.083.033,1.456,1.456,0,0,1-.221.051,1.365,1.365,0,0,1-.212.016h-49.8a1.167,1.167,0,0,1-1.192-.861.613.613,0,0,1-.011-.1.5.5,0,0,1,0-.051v-2.627a.5.5,0,0,1,0-.051,1.1,1.1,0,0,1,1.06-.953,1.164,1.164,0,0,1,.143,0h49.805a1.368,1.368,0,0,1,.212.016,1.266,1.266,0,0,1,.221.052,1.223,1.223,0,0,1,.51.315c.018.021.038.042.054.063h0A.9.9,0,0,1,1106.549,1272.307Z" transform="translate(-845.238 -1022.762)" fill="#ffb93e"/>
    <path id="Trazado_110895" data-name="Trazado 110895" d="M1082.052,1275.913H1055.37a1.066,1.066,0,0,1-1.035-.753c-.011-.036-.02-.072-.027-.109a.581.581,0,0,1-.011-.1.5.5,0,0,1,0-.051v-2.627a.5.5,0,0,1,0-.051,1.044,1.044,0,0,1,.946-.953.954.954,0,0,1,.127,0h23.406A8.152,8.152,0,0,0,1082.052,1275.913Z" transform="translate(-845.197 -1022.729)" fill="#ffa412"/>
    <rect id="Rectángulo_28252" data-name="Rectángulo 28252" width="0.566" height="4.649" transform="translate(254.686 248.535)" fill="#ffa412"/>
    <rect id="Rectángulo_28253" data-name="Rectángulo 28253" width="0.566" height="4.649" transform="translate(252.771 248.535)" fill="#ffa412"/>
    <rect id="Rectángulo_28254" data-name="Rectángulo 28254" width="0.566" height="4.649" transform="translate(250.473 248.535)" fill="#ffa412"/>
    <rect id="Rectángulo_28255" data-name="Rectángulo 28255" width="0.566" height="4.649" transform="translate(246.951 248.535)" fill="#ffa412"/>
    <rect id="Rectángulo_28256" data-name="Rectángulo 28256" width="0.566" height="4.649" transform="translate(243.226 248.535)" fill="#ffa412"/>
    <rect id="Rectángulo_28257" data-name="Rectángulo 28257" width="0.566" height="4.649" transform="translate(237.516 248.535)" fill="#ffa412"/>
    <rect id="Rectángulo_28258" data-name="Rectángulo 28258" width="0.566" height="4.649" transform="translate(232.17 248.535)" fill="#ffa412"/>
    <rect id="Rectángulo_28259" data-name="Rectángulo 28259" width="0.566" height="4.649" transform="translate(227.398 248.535)" fill="#ffa412"/>
    <rect id="Rectángulo_28260" data-name="Rectángulo 28260" width="0.566" height="4.649" transform="translate(256.51 248.535)" fill="#ffa412"/>
    <rect id="Rectángulo_28261" data-name="Rectángulo 28261" width="0.566" height="4.649" transform="translate(257.715 248.535)" fill="#ffa412"/>
    <rect id="Rectángulo_28262" data-name="Rectángulo 28262" width="0.566" height="4.649" transform="translate(258.878 248.535)" fill="#ffa412"/>
    <path id="Trazado_110896" data-name="Trazado 110896" d="M1334.823,1271.256v4.617a1.349,1.349,0,0,1-.212.016h-.362v-4.649h.362A1.335,1.335,0,0,1,1334.823,1271.256Z" transform="translate(-1074.503 -1022.705)" fill="#ffa412"/>
    <path id="Trazado_110897" data-name="Trazado 110897" d="M1339.206,1272v3.756a1.2,1.2,0,0,1-.566.378v-4.512A1.193,1.193,0,0,1,1339.206,1272Z" transform="translate(-1078.099 -1023.017)" fill="#ffa412"/>
    <path id="Trazado_110898" data-name="Trazado 110898" d="M1070.352,1246.519v2.623a.887.887,0,0,1-.206.567,1.187,1.187,0,0,1-.566.378,1.247,1.247,0,0,1-.219.052h-.08a.337.337,0,0,1-.047,0h-49.89a1.267,1.267,0,0,1-1.026-.481.905.905,0,0,1-.181-.478V1246.5a.535.535,0,0,1,0-.054,1.069,1.069,0,0,1,.854-.914,1.315,1.315,0,0,1,.351-.045h49.9a.372.372,0,0,1,.117.012,1.266,1.266,0,0,1,.219.052.659.659,0,0,1,.1.038h0a1.188,1.188,0,0,1,.349.219h0l.014.013a.84.84,0,0,1,.094.1A.888.888,0,0,1,1070.352,1246.519Z" transform="translate(-815.578 -1001.614)" fill="#ffb93e"/>
    <path id="Trazado_110899" data-name="Trazado 110899" d="M1045.863,1250.229h-26.681a1.1,1.1,0,0,1-.9-.458.967.967,0,0,1-.181-.5v-2.678a.5.5,0,0,1,0-.054,1.039,1.039,0,0,1,.858-.937,1.08,1.08,0,0,1,.219-.021h23.4l.032.107a8.127,8.127,0,0,0,3.235,4.535Z" transform="translate(-815.546 -1001.687)" fill="#ffa412"/>
    <rect id="Rectángulo_28263" data-name="Rectángulo 28263" width="0.566" height="4.649" transform="translate(248.148 243.892)" fill="#ffa412"/>
    <rect id="Rectángulo_28264" data-name="Rectángulo 28264" width="0.566" height="4.649" transform="translate(246.231 243.892)" fill="#ffa412"/>
    <rect id="Rectángulo_28265" data-name="Rectángulo 28265" width="0.566" height="4.649" transform="translate(243.933 243.892)" fill="#ffa412"/>
    <rect id="Rectángulo_28266" data-name="Rectángulo 28266" width="0.566" height="4.649" transform="translate(240.412 243.892)" fill="#ffa412"/>
    <rect id="Rectángulo_28267" data-name="Rectángulo 28267" width="0.566" height="4.649" transform="translate(236.687 243.892)" fill="#ffa412"/>
    <rect id="Rectángulo_28268" data-name="Rectángulo 28268" width="0.566" height="4.649" transform="translate(230.978 243.892)" fill="#ffa412"/>
    <rect id="Rectángulo_28269" data-name="Rectángulo 28269" width="0.566" height="4.649" transform="translate(225.632 243.892)" fill="#ffa412"/>
    <rect id="Rectángulo_28270" data-name="Rectángulo 28270" width="0.566" height="4.649" transform="translate(220.858 243.892)" fill="#ffa412"/>
    <rect id="Rectángulo_28271" data-name="Rectángulo 28271" width="0.566" height="4.649" transform="translate(249.972 243.892)" fill="#ffa412"/>
    <rect id="Rectángulo_28272" data-name="Rectángulo 28272" width="0.566" height="4.649" transform="translate(251.177 243.892)" fill="#ffa412"/>
    <rect id="Rectángulo_28273" data-name="Rectángulo 28273" width="0.566" height="4.649" transform="translate(252.34 243.892)" fill="#ffa412"/>
    <path id="Trazado_110900" data-name="Trazado 110900" d="M1298.716,1245.6v4.617a1.407,1.407,0,0,1-.214.016h-.353v-4.649h.353a1.4,1.4,0,0,1,.213.016Z" transform="translate(-1044.934 -1001.688)" fill="#ffa412"/>
    <path id="Trazado_110901" data-name="Trazado 110901" d="M1303.064,1246.371v3.756a1.2,1.2,0,0,1-.564.378V1246A1.2,1.2,0,0,1,1303.064,1246.371Z" transform="translate(-1048.497 -1002.032)" fill="#ffa412"/>
    <path id="Trazado_110902" data-name="Trazado 110902" d="M1090.6,1221.5v2.627a.906.906,0,0,1-.206.564,1.194,1.194,0,0,1-.566.378,1.072,1.072,0,0,1-.219.052,1.4,1.4,0,0,1-.214.016h-49.8a1.378,1.378,0,0,1-.543-.107,1.037,1.037,0,0,1-.662-.811v-2.772a1.1,1.1,0,0,1,1.062-.953,1.269,1.269,0,0,1,.143,0h49.8a1.4,1.4,0,0,1,.214.016,1.216,1.216,0,0,1,.219.052,1.194,1.194,0,0,1,.566.378A.905.905,0,0,1,1090.6,1221.5Z" transform="translate(-832.168 -981.144)" fill="#ffb93e"/>
    <path id="Trazado_110903" data-name="Trazado 110903" d="M1066.164,1225.143h-26.683a1.112,1.112,0,0,1-.479-.107,1.018,1.018,0,0,1-.592-.81v-2.772a1.048,1.048,0,0,1,.948-.953.994.994,0,0,1,.126,0h23.406a8.142,8.142,0,0,0,3.121,4.535A1.754,1.754,0,0,0,1066.164,1225.143Z" transform="translate(-832.185 -981.144)" fill="#ffa412"/>
    <rect id="Rectángulo_28274" data-name="Rectángulo 28274" width="0.566" height="4.649" transform="translate(251.808 239.35)" fill="#ffa412"/>
    <rect id="Rectángulo_28275" data-name="Rectángulo 28275" width="0.566" height="4.649" transform="translate(249.892 239.35)" fill="#ffa412"/>
    <rect id="Rectángulo_28276" data-name="Rectángulo 28276" width="0.566" height="4.649" transform="translate(247.595 239.35)" fill="#ffa412"/>
    <rect id="Rectángulo_28277" data-name="Rectángulo 28277" width="0.566" height="4.649" transform="translate(244.074 239.35)" fill="#ffa412"/>
    <rect id="Rectángulo_28278" data-name="Rectángulo 28278" width="0.566" height="4.649" transform="translate(240.349 239.35)" fill="#ffa412"/>
    <rect id="Rectángulo_28279" data-name="Rectángulo 28279" width="0.566" height="4.649" transform="translate(234.64 239.35)" fill="#ffa412"/>
    <rect id="Rectángulo_28280" data-name="Rectángulo 28280" width="0.566" height="4.649" transform="translate(229.294 239.35)" fill="#ffa412"/>
    <rect id="Rectángulo_28281" data-name="Rectángulo 28281" width="0.566" height="4.649" transform="translate(224.519 239.35)" fill="#ffa412"/>
    <rect id="Rectángulo_28282" data-name="Rectángulo 28282" width="0.566" height="4.649" transform="translate(253.634 239.35)" fill="#ffa412"/>
    <rect id="Rectángulo_28283" data-name="Rectángulo 28283" width="0.566" height="4.649" transform="translate(254.838 239.35)" fill="#ffa412"/>
    <rect id="Rectángulo_28284" data-name="Rectángulo 28284" width="0.566" height="4.649" transform="translate(256.002 239.35)" fill="#ffa412"/>
    <path id="Trazado_110904" data-name="Trazado 110904" d="M1318.956,1220.486v4.617a1.391,1.391,0,0,1-.213.016h-.353v-4.649h.353A1.376,1.376,0,0,1,1318.956,1220.486Z" transform="translate(-1061.513 -981.12)" fill="#ffa412"/>
    <path id="Trazado_110905" data-name="Trazado 110905" d="M1323.3,1221.228v3.756a1.2,1.2,0,0,1-.566.378v-4.512A1.193,1.193,0,0,1,1323.3,1221.228Z" transform="translate(-1065.068 -981.431)" fill="#ffa412"/>
    <path id="Trazado_110906" data-name="Trazado 110906" d="M1099.22,1195.821v2.627a.906.906,0,0,1-.206.565,1.2,1.2,0,0,1-.566.378,1.265,1.265,0,0,1-.22.052H1048.21a1.137,1.137,0,0,1-1.2-.959v-2.663c0-.017,0-.034,0-.051a1.137,1.137,0,0,1,1.2-.961h49.813a1.367,1.367,0,0,1,.212.016,1.246,1.246,0,0,1,.221.052,1.194,1.194,0,0,1,.566.378A.905.905,0,0,1,1099.22,1195.821Z" transform="translate(-839.226 -960.102)" fill="#ffb93e"/>
    <path id="Trazado_110907" data-name="Trazado 110907" d="M1074.8,1199.458h-26.672a1.053,1.053,0,0,1-1.074-.959v-2.679a.438.438,0,0,1,0-.051,1.053,1.053,0,0,1,1.074-.961h23.4a8.15,8.15,0,0,0,3.256,4.642Z" transform="translate(-839.267 -960.101)" fill="#ffa412"/>
    <rect id="Rectángulo_28285" data-name="Rectángulo 28285" width="0.566" height="4.649" transform="translate(253.368 234.708)" fill="#ffa412"/>
    <rect id="Rectángulo_28286" data-name="Rectángulo 28286" width="0.566" height="4.649" transform="translate(251.452 234.708)" fill="#ffa412"/>
    <rect id="Rectángulo_28287" data-name="Rectángulo 28287" width="0.566" height="4.649" transform="translate(249.154 234.708)" fill="#ffa412"/>
    <rect id="Rectángulo_28288" data-name="Rectángulo 28288" width="0.566" height="4.649" transform="translate(245.632 234.708)" fill="#ffa412"/>
    <rect id="Rectángulo_28289" data-name="Rectángulo 28289" width="0.566" height="4.649" transform="translate(241.907 234.708)" fill="#ffa412"/>
    <rect id="Rectángulo_28290" data-name="Rectángulo 28290" width="0.566" height="4.649" transform="translate(236.197 234.708)" fill="#ffa412"/>
    <rect id="Rectángulo_28291" data-name="Rectángulo 28291" width="0.566" height="4.649" transform="translate(230.853 234.708)" fill="#ffa412"/>
    <rect id="Rectángulo_28292" data-name="Rectángulo 28292" width="0.566" height="4.649" transform="translate(226.079 234.708)" fill="#ffa412"/>
    <rect id="Rectángulo_28293" data-name="Rectángulo 28293" width="0.566" height="4.649" transform="translate(255.191 234.708)" fill="#ffa412"/>
    <rect id="Rectángulo_28294" data-name="Rectángulo 28294" width="0.566" height="4.649" transform="translate(256.396 234.708)" fill="#ffa412"/>
    <rect id="Rectángulo_28295" data-name="Rectángulo 28295" width="0.566" height="4.649" transform="translate(257.559 234.708)" fill="#ffa412"/>
    <path id="Trazado_110908" data-name="Trazado 110908" d="M1327.533,1194.826v4.617a1.351,1.351,0,0,1-.212.016h-.362v-4.649h.362A1.35,1.35,0,0,1,1327.533,1194.826Z" transform="translate(-1068.532 -960.103)" fill="#ffa412"/>
    <path id="Trazado_110909" data-name="Trazado 110909" d="M1331.916,1195.535v3.749a1.2,1.2,0,0,1-.566.378v-4.512A1.193,1.193,0,0,1,1331.916,1195.535Z" transform="translate(-1072.128 -960.381)" fill="#ffa412"/>
    <path id="Trazado_110910" data-name="Trazado 110910" d="M1192.714,1025.769s-2.614,3.683-5.013,3.734-6.048-1.706-6.048-1.706-2.2-4.908-.707-6.83a3.207,3.207,0,0,1,3.065.5,4.787,4.787,0,0,1,.811.776,2.572,2.572,0,0,0,1.266.854c1.709.521,3.741-.7,4.5.478a8.051,8.051,0,0,0,1.322,1.567A6.107,6.107,0,0,0,1192.714,1025.769Z" transform="translate(-948.508 -817.558)" fill="#ffeddc"/>
    <path id="Trazado_110911" data-name="Trazado 110911" d="M1059.85,1091.829s9.254-22.4,25.9-22.829c0,0,15.363,1.708,16.215,22.831Z" transform="translate(-849.746 -857.053)" fill="#ffeddc"/>
    <path id="Trazado_110912" data-name="Trazado 110912" d="M1177.6,1059.645s6.67,1.483,8.729.611a2.06,2.06,0,0,0-2.5-2.4,5.9,5.9,0,0,1-3.913-1.031C1178.876,1056.3,1177.322,1058.478,1177.6,1059.645Z" transform="translate(-946.167 -847.016)" fill="#db6a1d"/>
    <path id="Trazado_110913" data-name="Trazado 110913" d="M1201.977,1029.11c-.427.32-1.737-4.51-1.737-4.51a4.807,4.807,0,0,1,.811.776,2.572,2.572,0,0,0,1.266.854C1202.313,1026.371,1202.389,1028.8,1201.977,1029.11Z" transform="translate(-964.737 -820.686)" fill="#e5c1a1"/>
    <path id="Trazado_110914" data-name="Trazado 110914" d="M1227.387,1037.817a27.645,27.645,0,0,1-3.6,1.9c-.418,0,2.274-3.47,2.274-3.47A8.064,8.064,0,0,0,1227.387,1037.817Z" transform="translate(-983.991 -830.228)" fill="#e5c1a1"/>
    <path id="Trazado_110915" data-name="Trazado 110915" d="M1109.756,1115.534c-.17-.147,6.544-9.885,8.393-9.95s6,2.135,9.013,2.419,5.923-.57,6.493,1.209,2.133,8.083,1.172,9.091S1113.448,1118.683,1109.756,1115.534Z" transform="translate(-890.62 -887.017)" fill="#f9ddbf"/>
    <path id="Trazado_110916" data-name="Trazado 110916" d="M1040.6,1237.483v.034a22.269,22.269,0,0,1-.747,4.608h0c-.058.217-.121.434-.181.651a22.745,22.745,0,0,1-1.641,3.991,23.143,23.143,0,0,1-3.13,4.533l-.1.116a24.029,24.029,0,0,1-5.473,4.534q-.662.405-1.36.771c-.313.165-.63.32-.946.472a10.056,10.056,0,0,0-.926.512,12.983,12.983,0,0,1-3.164,1.3v-2.095a.605.605,0,0,1,.011-.1.64.64,0,0,1,.029-.112,1.07,1.07,0,0,1,1.035-.749h-5.326a1.066,1.066,0,0,1-1.033-.751.6.6,0,0,1-.029-.111.608.608,0,0,1-.011-.1.5.5,0,0,1,0-.052v-2.625a.471.471,0,0,1,0-.052.608.608,0,0,1,.011-.1.6.6,0,0,1,.029-.11,1.066,1.066,0,0,1,1.033-.751h2.068a1.022,1.022,0,0,1-.566-.734.387.387,0,0,1,0-.065.349.349,0,0,1,0-.045.44.44,0,0,1,0-.051v-2.627a.471.471,0,0,1,0-.052.844.844,0,0,1,.011-.1.782.782,0,0,1,.029-.109,1.062,1.062,0,0,1,1.033-.753h1.194a1.068,1.068,0,0,1-1.035-.751.8.8,0,0,1-.029-.112.908.908,0,0,1-.011-.1v-2.73a1.044,1.044,0,0,1,.948-.952h-3.546a1.055,1.055,0,0,1-1.076-.961.471.471,0,0,1,0-.052v-2.625a.471.471,0,0,1,0-.052.294.294,0,0,1,0-.042,1.037,1.037,0,0,1,.836-.892,1.052,1.052,0,0,1-.933-.865.491.491,0,0,1,0-.089.5.5,0,0,1,0-.052v-2.616c0-.017,0-.035,0-.052a.592.592,0,0,1,.011-.1.585.585,0,0,1,.029-.111,1.065,1.065,0,0,1,1.033-.75h2.073a1.023,1.023,0,0,1-.566-.735.408.408,0,0,1,0-.067.326.326,0,0,1,0-.044.5.5,0,0,1,0-.054v-2.677a.872.872,0,0,1,.011-.1.779.779,0,0,1,.029-.108,1.063,1.063,0,0,1,1.033-.753h4.071a1.066,1.066,0,0,1-1.035-.753c-.011-.036-.02-.072-.027-.109a.589.589,0,0,1-.011-.1.44.44,0,0,1,0-.051v-2.627a.44.44,0,0,1,0-.051,1.044,1.044,0,0,1,.946-.953h-6.422a1.1,1.1,0,0,1-.9-.458v-.023l.675-4.123v-.023l.963-5.883a26.131,26.131,0,0,1,3.3.664l.181.052H1023q.948.264,1.867.6h.016a24.643,24.643,0,0,1,7.732,4.536c.042.034.081.069.119.107a23.175,23.175,0,0,1,3.244,3.493c.194.255.382.514.564.78.06.087.121.181.181.262h0q.441.651.838,1.337a22.773,22.773,0,0,1,1.576,3.305,22.086,22.086,0,0,1,1.208,4.536.626.626,0,0,0,.018.114A22.251,22.251,0,0,1,1040.6,1237.483Z" transform="translate(-815.138 -975.149)" fill="#e2810e" opacity="0.5"/>
    <circle id="Elipse_4341" data-name="Elipse 4341" cx="24.497" cy="24.497" r="24.497" transform="translate(160.823 259.936) rotate(-45)" fill="#e2810e"/>
    <path id="Trazado_110917" data-name="Trazado 110917" d="M870.17,1249.877q-.453.271-.921.543c-.107.058-.212.116-.317.17-.242.13-.483.253-.724.375a24.5,24.5,0,0,1-25.113-41.883,24.2,24.2,0,0,1,2.5-1.58c.313-.172.63-.338.948-.5s.621-.3.933-.44a24.352,24.352,0,0,1,2.918-1.085,24.107,24.107,0,0,1,4.436-.9,24.5,24.5,0,0,1,15.338,45.288Z" transform="translate(-663.827 -967.99)" fill="#ffb93e"/>
    <path id="Trazado_110918" data-name="Trazado 110918" d="M869.825,1263.811a21.968,21.968,0,1,1,10.565-2.737A21.968,21.968,0,0,1,869.825,1263.811Zm-.067-43.316a21.348,21.348,0,1,0,18.741,11.036A21.347,21.347,0,0,0,869.758,1220.5Z" transform="translate(-676.059 -980.63)" fill="#ffa412"/>
    <path id="Trazado_110919" data-name="Trazado 110919" d="M933.675,1270.5c-.049-.121-.1-.237-.152-.362a6.4,6.4,0,0,0-1.485-2.122,6.643,6.643,0,0,0-2.339-1.377,11.212,11.212,0,0,0-2.972-.559q-1.639-.1-3.569-.045a17.452,17.452,0,0,1-2.037-.042,5.1,5.1,0,0,1-1.435-.313,2.535,2.535,0,0,1-.959-.65,3.451,3.451,0,0,1-.608-1,3.715,3.715,0,0,1-.277-1.178,2.546,2.546,0,0,1,.181-1.107,2.7,2.7,0,0,1,.684-.968,3.98,3.98,0,0,1,1.248-.76,3.144,3.144,0,0,1,2.677.025,4.55,4.55,0,0,1,2.023,2.533l4.991-2.026a9.36,9.36,0,0,0-1.628-2.714,7,7,0,0,0-4.885-2.413,9.252,9.252,0,0,0-3.012.307l-1.413-3.48-2.763,1.121,1.393,3.438a10.393,10.393,0,0,0-2.533,1.809,7.717,7.717,0,0,0-1.6,2.229,6.166,6.166,0,0,0-.588,2.516,7.376,7.376,0,0,0,2.171,5.172,6.547,6.547,0,0,0,2.336,1.37,11.131,11.131,0,0,0,2.974.542,35.129,35.129,0,0,0,3.578,0,13.15,13.15,0,0,1,1.947.015,5.026,5.026,0,0,1,1.427.317,2.689,2.689,0,0,1,1,.678,3.628,3.628,0,0,1,.671,1.109,3.083,3.083,0,0,1,.239,1.183,2.558,2.558,0,0,1-.266,1.127,3.2,3.2,0,0,1-.794,1,4.8,4.8,0,0,1-1.339.787,5.873,5.873,0,0,1-1.465.38,3.329,3.329,0,0,1-1.478-.148,3.439,3.439,0,0,1-1.35-.872,5.33,5.33,0,0,1-1.085-1.771l-5.013,2.019a8.628,8.628,0,0,0,1.963,3.052,7.077,7.077,0,0,0,2.585,1.612,7.889,7.889,0,0,0,2.938.423,12.366,12.366,0,0,0,3.025-.5l1.29,3.177,2.744-1.116-1.3-3.191a11.1,11.1,0,0,0,2.562-1.787,7.564,7.564,0,0,0,1.547-2.019l.089-.181a6.121,6.121,0,0,0,.6-2.5A6.763,6.763,0,0,0,933.675,1270.5Z" transform="translate(-729.152 -1007.151)" fill="#ffa412"/>
    <path id="Trazado_110920" data-name="Trazado 110920" d="M842.178,620.515a1.14,1.14,0,0,0-.194,1.218h0a7.47,7.47,0,0,0,2.406,2.6c.145.116.273.221.385.317a1.162,1.162,0,0,1,.087.078l.067.058c1.057.961.664,1.185,2.564,3.135,2.171,2.223,3.647,2.252,4.067,2.046.362-.181-.378-1.359-1.189-2.687-.04-.063-.078-.128-.119-.193-.109-.181-.215-.362-.322-.534-.952-1.6-.724-2.352-.51-4.744.168-1.943,2.943-10.867,2.943-10.867l-4.123-.675s-1.192,7.1-2.551,8.2c-.724.586-1.547.6-2.245,1.037-.051.031-.1.061-.147.094A5.374,5.374,0,0,0,842.178,620.515Z" transform="translate(-671.216 -481.313)" fill="#ffb27d"/>
    <path id="Trazado_110921" data-name="Trazado 110921" d="M842.178,662.313a1.139,1.139,0,0,0-.194,1.218h0a8.7,8.7,0,0,0,2.41,2.6c.143.116.27.224.382.324.031.025.06.051.087.078l.067.058c1.057.961.664,1.185,2.564,3.135,2.171,2.223,3.647,2.252,4.067,2.046.362-.181-.378-1.359-1.189-2.687a9.161,9.161,0,0,1-3.853-2.8c-1.308-1.643-2.185-3.761-3.076-4.984-.051.031-.1.061-.146.094A5.369,5.369,0,0,0,842.178,662.313Z" transform="translate(-671.216 -523.111)" fill="#233862"/>
    <path id="Trazado_110922" data-name="Trazado 110922" d="M1011.886,611.161c.264,1.266,2.075,1.046,4.1.543s1.545.081,4.427-.257,3.747-1.422,3.832-1.851c.076-.382-1.35-.5-2.88-.669l-.577-.065c-1.728-.2-3-1.31-4.573-2.213-1.489-.856-3.73-4.369-3.73-4.369l-3.951.342s2.1,3.137,2.909,4.5a4.785,4.785,0,0,1,.407,2.692A5.052,5.052,0,0,0,1011.886,611.161Z" transform="translate(-807.71 -474.769)" fill="#ffb27d"/>
    <path id="Trazado_110923" data-name="Trazado 110923" d="M1030.872,641.767c2.022-.51,1.545.081,4.427-.257s3.747-1.422,3.832-1.851c.076-.382-1.35-.5-2.88-.669l-.013.029a8.141,8.141,0,0,1-4.121,1.312c-1.956.062-4.031-.483-5.382-.452a5.052,5.052,0,0,0,.04,1.351C1027.038,642.5,1028.849,642.275,1030.872,641.767Z" transform="translate(-822.599 -504.837)" fill="#233862"/>
    <path id="Trazado_110924" data-name="Trazado 110924" d="M881.636,483.688l-3.618,9.972-4.734,13.026a7.8,7.8,0,0,1-2.565-.217,11.1,11.1,0,0,1-2.488-1.189s1.241-13.954,3.683-21.977a14.266,14.266,0,0,1,2.119-4.668C877.867,474.023,881.636,483.688,881.636,483.688Z" transform="translate(-692.792 -372.471)" fill="#a66d58"/>
    <path id="Trazado_110925" data-name="Trazado 110925" d="M759.446,417.079c-2.426-.765-9.326.288-16.255,1.693l-1.464-2.377-14.994-1.066s-4.868,11-2.111,17.97c.405,1.024,2.895,1.523,2.895,1.525s8.785.1,11.682.074c7.454-.052,15.739-5.234,16.812-5.456,1.759-.362,2.488,3.153,4.277,6.84s16.675,16.268,16.675,16.268a13.029,13.029,0,0,0,3.211-.362,3.167,3.167,0,0,0,1.375-.881S764.92,418.809,759.446,417.079Z" transform="translate(-574.472 -321.64)" fill="#d9a171"/>
    <path id="Trazado_110926" data-name="Trazado 110926" d="M702.788,174.145a5.315,5.315,0,0,0-2.895-.724,8.83,8.83,0,0,1-1.433-.083c-5.684-.724-9.046,7.553-9.227,10.053-.338,4.611-2.772,5.331-6.184,8.242-6.833,5.849-4.767,12.543-.986,15.023,2.267,1.483,6.236-.043,6.236-.043.056.038,10.84-6.129,16.155-9.105C712.449,196.314,706.016,176.039,702.788,174.145Z" transform="translate(-537.442 -123.391)" fill="#233862"/>
    <path id="Trazado_110927" data-name="Trazado 110927" d="M763.684,255.64c.023.014-2.62.937-4.4.166-1.672-.724-2.954-3.459-2.929-3.461.758-.04,1.585-.707,2.2-5.066l.324.114,5.44,1.914s-.38,1.744-.622,3.4C763.492,254.1,763.385,255.445,763.684,255.64Z" transform="translate(-601.159 -183.993)" fill="#ffb27d"/>
    <path id="Trazado_110928" data-name="Trazado 110928" d="M775.738,249.844s-.232,1.223-.554,2.971a6.339,6.339,0,0,1-4.885-4.885Z" transform="translate(-612.579 -184.525)" fill="#ed975d"/>
    <path id="Trazado_110929" data-name="Trazado 110929" d="M774.045,208.935s-7.434-.944-6.773-5.565.143-7.853,4.917-7.446,5.442,2.3,5.6,3.9S776,209.069,774.045,208.935Z" transform="translate(-610.065 -141.899)" fill="#ffb27d"/>
    <path id="Trazado_110930" data-name="Trazado 110930" d="M767.753,195.455s-4.724,4.13-7.96,4.485-4.463-.677-4.463-.677a12.627,12.627,0,0,0,3.023-4.161,2.276,2.276,0,0,1,1.865-1.355C762.528,193.536,766.9,193.414,767.753,195.455Z" transform="translate(-600.317 -140.054)" fill="#233862"/>
    <path id="Trazado_110931" data-name="Trazado 110931" d="M807.54,197.7a11.751,11.751,0,0,1,2.111,2.663,9,9,0,0,1,.277,4.778s2.444-4.836,1.024-7.168C809.447,195.5,807.54,197.7,807.54,197.7Z" transform="translate(-643.082 -142.646)" fill="#233862"/>
    <path id="Trazado_110932" data-name="Trazado 110932" d="M741.571,288.659c-.118,15.034.022,11.891-1.612,13.33a6.321,6.321,0,0,1-2.97.666c-4.608.338-12.716-.362-13.026-1.214-1.085-2.94-.338-3.861-1.266-8.367-.1-.479-.215-1-.353-1.561-.762-3.1-1.489-4.145,1.1-9.142,2.352-4.523,4.794-8.206,5.017-8.076,6.3,3.683,6.788.543,6.788.543S741.629,281.327,741.571,288.659Z" transform="translate(-572.717 -206.117)" fill="#aec3ff"/>
    <path id="Trazado_110933" data-name="Trazado 110933" d="M877.977,520.437l-4.735,13.026a7.8,7.8,0,0,1-2.565-.217,11.1,11.1,0,0,1-2.488-1.189s1.241-13.954,3.683-21.977Z" transform="translate(-692.76 -399.249)" fill="#d9a171"/>
    <path id="Trazado_110934" data-name="Trazado 110934" d="M796.92,277.33s6.468,1.049,7.245,3.826,5.357,19.09,5.357,19.09-3.28.613-4.807-.892-5.379-14.039-5.379-14.039Z" transform="translate(-634.383 -208.606)" fill="#aec3ff"/>
    <path id="Trazado_110935" data-name="Trazado 110935" d="M741.8,359.277c-4.608.338-12.716-.362-13.026-1.214-1.085-2.94-.338-3.861-1.266-8.367l2.171-6.276s-.307,6.98,1.762,8.789,8.442,3.479,9.453,5A5.643,5.643,0,0,1,741.8,359.277Z" transform="translate(-577.53 -262.74)" fill="#8ea3ed"/>
    <path id="Trazado_110936" data-name="Trazado 110936" d="M777.2,411.733s4.541-1.046,5.277-.646a10.823,10.823,0,0,1,2.768,2.365c.235.51-1.628-.376-2.242-.534a5.354,5.354,0,0,0-1.928.436,6.513,6.513,0,0,1-3.459.373Z" transform="translate(-618.231 -318.091)" fill="#ffb27d"/>
    <path id="Trazado_110937" data-name="Trazado 110937" d="M693.446,274.3s-6.1.418-8.2,3.381c-2.947,4.172-8.725,21.892-5.326,24.244,3.83,2.629,17.344.572,17.344.572s.436-2.108-.2-3.121-10.824-2.594-11.289-3.059,5.807-9.2,5.789-10.612S693.446,274.3,693.446,274.3Z" transform="translate(-537.703 -206.124)" fill="#aec3ff"/>
    <path id="Trazado_110938" data-name="Trazado 110938" d="M807.63,418.48a9.165,9.165,0,0,0,1.266,1.368.933.933,0,0,0,.516.107l-.651-1.151Z" transform="translate(-643.156 -324.22)" fill="#ffb27d"/>
    <path id="Trazado_110939" data-name="Trazado 110939" d="M806.37,411.5l2.779,1.324a.489.489,0,0,1-.458.181,6.571,6.571,0,0,1-1.2-.322Z" transform="translate(-642.124 -318.503)" fill="#ffb27d"/>
    <path id="Trazado_110940" data-name="Trazado 110940" d="M811.4,361.873l21.914-.154,6.477-16.44-21.88.156Z" transform="translate(-646.243 -264.263)" fill="#233862"/>
    <path id="Trazado_110941" data-name="Trazado 110941" d="M802.915,432.61l-28.935.2,0,.639,28.68-.2Z" transform="translate(-615.593 -335.794)" fill="#233862"/>
    <path id="Trazado_110942" data-name="Trazado 110942" d="M892.005,386.358a.761.761,0,0,0-.751-1.038,1.5,1.5,0,0,0-1.335,1.053.762.762,0,0,0,.751,1.038A1.494,1.494,0,0,0,892.005,386.358Z" transform="translate(-710.525 -297.059)" fill="#ebf3fa"/>
    <path id="Trazado_110943" data-name="Trazado 110943" d="M1847.67,724.889a5.934,5.934,0,0,0-4.7.241c-7.989.329-8.286,8.517-7.349,11.566,1.317,4.28-3.343,7.656,1.826,9.388,6,2.01,11.036-1.163,10.688-.129C1867.107,747.449,1853.98,726.984,1847.67,724.889Z" transform="translate(-1484.614 -574.905)" fill="#2a539b"/>
    <path id="Trazado_110944" data-name="Trazado 110944" d="M1806.058,869.8a20.743,20.743,0,0,1-2.137,3.229c-1.659,2.08-10.37-2.855-9.619-3.229s4.991-12.423,6.782-14.553a7.645,7.645,0,0,1,3.98-2.426Z" transform="translate(-1451.289 -679.983)" fill="#2b478b"/>
    <path id="Trazado_110945" data-name="Trazado 110945" d="M1982.561,1412.108s2.4,2.195,1.934,3.754-2.638,2.6-2.931,4.5-1.467,2.943-2.522,2.943h-5.033s-.776-1.34,1.1-1.744,2.583-2.643,2.466-4.722a36.169,36.169,0,0,1,.181-4.85l3.98-.924Z" transform="translate(-1598.392 -1137.238)" fill="#4075c1"/>
    <path id="Trazado_110946" data-name="Trazado 110946" d="M1847.52,1422s.865,9.3-.181,9.816l-13.509-.029s0-1.558,2.171-1.905,5.981-1.617,6.627-4.447S1847.52,1422,1847.52,1422Z" transform="translate(-1483.703 -1146.191)" fill="#4075c1"/>
    <path id="Trazado_110947" data-name="Trazado 110947" d="M1856.435,860.151a54.02,54.02,0,0,1,0,6.243c-.134,2.258-2.417,5.283-2.741,6.03-.814,1.876-1.729,2.182-1.729,2.182l-7.094,1.739-2.495.61-7.864-2.352s-3.582-10-2.144-15.627A43.228,43.228,0,0,1,1836,849.44s5.344-1.2,14.773-.543Z" transform="translate(-1482.226 -676.608)" fill="#2b478b"/>
    <path id="Trazado_110948" data-name="Trazado 110948" d="M1906.691,919.282c-.134,2.258-3.092,5.2-3.416,5.95-.814,1.876-1.729,2.182-1.729,2.182l-7.094,1.739-1.892-2.669s11.477-3.2,9.306-13.324Z" transform="translate(-1531.808 -729.406)" fill="#163560"/>
    <path id="Trazado_110949" data-name="Trazado 110949" d="M1829.738,1000.259s-3.9,12.121-4.145,16.25,7.445,58.634,7.754,60.535c.291,1.793,2.518,2.935,2.518,2.935a3.365,3.365,0,0,0,2.484.192,6.062,6.062,0,0,0,2.668-1.266s3.032-38.873,1.156-52.76a219.892,219.892,0,0,1-1.9-25.894Z" transform="translate(-1476.951 -800.741)" fill="#cc9565"/>
    <path id="Trazado_110950" data-name="Trazado 110950" d="M1870.8,998.3s5.941,7.971,6.495,13.36.868,24.315,2.048,29.568,5.516,15.361,5.516,31.747a3.3,3.3,0,0,1-1.842,1.447,14.739,14.739,0,0,1-1.628.449,2.547,2.547,0,0,1-2.848-1.351c-2.931-5.9-12.268-24.935-12.747-28.886-.338-2.8-3.285-21.3-9.717-32.159-1.543-2.607.948-12.973.948-12.973Z" transform="translate(-1501.512 -799.144)" fill="#d9a171"/>
    <path id="Trazado_110951" data-name="Trazado 110951" d="M1844.09,990a8.162,8.162,0,0,0,4.669,1.3c3.71.074,12.9-.946,12.9-.946a7.605,7.605,0,0,1,.393,2.352s-11.228,2.831-17.73.412A4.126,4.126,0,0,1,1844.09,990Z" transform="translate(-1491.926 -792.345)" fill="#163560"/>
    <path id="Trazado_110952" data-name="Trazado 110952" d="M1858.333,997.462a1.93,1.93,0,1,1,1.693-1.916A1.817,1.817,0,0,1,1858.333,997.462Zm0-3.271a1.377,1.377,0,1,0,1.132,1.355A1.261,1.261,0,0,0,1858.333,994.191Z" transform="translate(-1502.387 -795.318)" fill="#fff"/>
    <path id="Trazado_110953" data-name="Trazado 110953" d="M1796.811,945.715l-16.875.159-8.306-19.517,16.875-.157Z" transform="translate(-1432.756 -740.087)" fill="#d35b31"/>
    <path id="Trazado_110954" data-name="Trazado 110954" d="M1859.421,971.344l-1.238-1.521a4.344,4.344,0,0,0-1.447-.872c-.61-.127-1.891-.868-2.015-.659s.986,1.7.986,1.7h.056c-1.266.959-4.49.112-4.885.5-.481.474.662,1.5,1.266,2.073a4.5,4.5,0,0,0,3.738,1.109c1-.311,2.573-.628,2.573-.628Z" transform="translate(-1497.573 -774.534)" fill="#ffb27d"/>
    <path id="Trazado_110955" data-name="Trazado 110955" d="M1778.162,942.5s1.06-1.2,1.735-.626-.181,3.421-.82,3.133S1777.792,942.856,1778.162,942.5Z" transform="translate(-1438.017 -752.8)" fill="#ffb27d"/>
    <path id="Trazado_110956" data-name="Trazado 110956" d="M1897.28,849.87s5.628.394,7.779,5.639,6.122,13.874,5.27,17.491c-.34,1.447-4.44,6.433-21.529,3.256a4,4,0,0,1,1.293-2.627s12.047-3.868,12.025-4.637c-.038-1.456-1.628-2.714-8.356-9.444C1891.932,857.723,1897.28,849.87,1897.28,849.87Z" transform="translate(-1528.728 -677.566)" fill="#2b478b"/>
    <path id="Trazado_110957" data-name="Trazado 110957" d="M1882.062,817.845c.167-.223-.047-.932-.313-2.254a24.628,24.628,0,0,1-.639-5.131l-.362.06-5.988,1.006s.137,1.6.141,3.11v.038c0,1.31-.362,3.289.088,3.548C1877.264,819.551,1881.423,818.7,1882.062,817.845Z" transform="translate(-1517.228 -645.286)" fill="#ffb27d"/>
    <path id="Trazado_110958" data-name="Trazado 110958" d="M1874.79,811.8s.119,2.258.123,3.767c3.35-.081,5.14-3.334,5.865-4.772Z" transform="translate(-1517.253 -645.557)" fill="#e8945b"/>
    <path id="Trazado_110959" data-name="Trazado 110959" d="M1854.184,768.557s7.85-1.116,7.079-5.994-.279-8.307-5.323-7.8-5.72,2.522-5.86,4.212S1852.124,768.723,1854.184,768.557Z" transform="translate(-1497.009 -599.626)" fill="#ffb27d"/>
    <path id="Trazado_110960" data-name="Trazado 110960" d="M1862.68,751.351s3.056,5.379,6.48,5.7,4.7-.787,4.7-.787a9.441,9.441,0,0,1-3.924-5.017S1863.865,748.371,1862.68,751.351Z" transform="translate(-1507.334 -595.764)" fill="#2a539b"/>
    <path id="Trazado_110961" data-name="Trazado 110961" d="M1849.809,756.27a4.919,4.919,0,0,0-1.965,2.109,7.982,7.982,0,0,0-.344,4.646s-2.234-3.631-.771-6.12C1848.287,754.266,1849.809,756.27,1849.809,756.27Z" transform="translate(-1493.862 -600.303)" fill="#2a539b"/>
    <rect id="Rectángulo_28296" data-name="Rectángulo 28296" width="462.472" height="1.27" rx="0.635" transform="translate(22.42 285.278)" fill="#2e3552"/>
  </g>
</svg>
