<svg xmlns="http://www.w3.org/2000/svg" width="260.565" height="236.615" viewBox="0 0 260.565 236.615">
  <g id="Finance-pana" transform="translate(-100.174 -30.347)">
    <g id="freepik--background-complete--inject-122" transform="translate(101.016 30.347)">
      <path id="Trazado_108074" data-name="Trazado 108074" d="M582.514,84.87a12.51,12.51,0,1,1-14.168-10.55,12.511,12.511,0,0,1,14.168,10.55Z" transform="translate(-362.152 -51.336)" fill="#f5f5f5"/>
      <path id="Trazado_108075" data-name="Trazado 108075" d="M582.311,88.024a9.534,9.534,0,1,1-10.806-8.038A9.534,9.534,0,0,1,582.311,88.024Z" transform="translate(-364.889 -54.062)" fill="#ebebeb"/>
      <path id="Trazado_108076" data-name="Trazado 108076" d="M582.117,87.394A5.724,5.724,0,0,1,581.7,86.3a9.779,9.779,0,0,0-3-4.269,9.451,9.451,0,0,0-2.085-1.282,8.579,8.579,0,0,0-1.241-.464,9.384,9.384,0,0,0-1.35-.287,9.845,9.845,0,0,0-1.423-.083,10.8,10.8,0,0,0-1.465.146,9.822,9.822,0,0,0-1.423.37A8.686,8.686,0,0,0,568.4,81a8.858,8.858,0,0,0-1.168.735,8.456,8.456,0,0,0-1.006.855,9.479,9.479,0,0,0-1.512,1.929,9.825,9.825,0,0,0-.881,1.955,10.211,10.211,0,0,0-.474,3.081,5.588,5.588,0,0,1,0,1.173,2.785,2.785,0,0,1-.271-1.157,8.861,8.861,0,0,1,.261-3.242,9.671,9.671,0,0,1,2.408-4.212,9.38,9.38,0,0,1,1.043-.938,9.568,9.568,0,0,1,2.658-1.433,11.4,11.4,0,0,1,1.533-.4,10.944,10.944,0,0,1,1.564-.151,9.334,9.334,0,0,1,1.538.1,8.808,8.808,0,0,1,1.454.328,8.952,8.952,0,0,1,1.324.521,9.638,9.638,0,0,1,2.189,1.434,9.794,9.794,0,0,1,1.553,1.684,8.862,8.862,0,0,1,1.366,2.956A2.82,2.82,0,0,1,582.117,87.394Z" transform="translate(-364.742 -53.729)" fill="#e0e0e0"/>
      <path id="Trazado_108077" data-name="Trazado 108077" d="M579.628,97.475l.261,1.642-1.465.235-.255-1.6a7.063,7.063,0,0,1-3.831-.6l.521-1.913a5.99,5.99,0,0,0,3,.584l-.391-2.445c-1.689-.136-3.586-.386-3.925-2.481-.245-1.564.667-3.06,2.935-3.7l-.255-1.626,1.46-.235.255,1.6a6.672,6.672,0,0,1,3.128.417l-.443,1.913a6.187,6.187,0,0,0-2.361-.4l.4,2.492c1.689.12,3.56.375,3.889,2.44C582.781,95.338,581.88,96.834,579.628,97.475Zm-2.5-6.255-.334-2.085c-.745.3-.985.771-.907,1.256s.563.751,1.241.85Zm3.081,3.128c-.078-.521-.547-.725-1.215-.844l.323,2.023c.7-.261.97-.688.891-1.157Z" transform="translate(-369.753 -56.674)" fill="#e0e0e0"/>
      <path id="Trazado_108078" data-name="Trazado 108078" d="M490.943,81.9a21.711,21.711,0,1,1-24.6-18.312A21.711,21.711,0,0,1,490.943,81.9Z" transform="translate(-309.551 -46.149)" fill="#f5f5f5"/>
      <path id="Trazado_108079" data-name="Trazado 108079" d="M490.571,87.371a16.524,16.524,0,1,1-6.49-10.868A16.545,16.545,0,0,1,490.571,87.371Z" transform="translate(-314.292 -50.881)" fill="#ebebeb"/>
      <path id="Trazado_108080" data-name="Trazado 108080" d="M490.259,86.3a10.524,10.524,0,0,1-.719-1.908,17.629,17.629,0,0,0-2.606-4.744,17.023,17.023,0,0,0-2.606-2.658,16.74,16.74,0,0,0-3.612-2.236,15.6,15.6,0,0,0-2.158-.8,15.4,15.4,0,0,0-2.341-.521,16.206,16.206,0,0,0-2.476-.146,16,16,0,0,0-5.015.891,15.573,15.573,0,0,0-2.262,1.011,15.874,15.874,0,0,0-2.028,1.272,16.365,16.365,0,0,0-1.751,1.491,16.575,16.575,0,0,0-2.606,3.347A17.2,17.2,0,0,0,458.55,84.7a17.721,17.721,0,0,0-.824,5.353,12.871,12.871,0,0,1,0,2.033,4.67,4.67,0,0,1-.474-2.007,15.321,15.321,0,0,1,.454-5.635,16.6,16.6,0,0,1,4.17-7.3,15.2,15.2,0,0,1,1.851-1.637,16.679,16.679,0,0,1,2.132-1.387,16.159,16.159,0,0,1,2.45-1.084,18.506,18.506,0,0,1,2.664-.7,18.188,18.188,0,0,1,2.742-.255,16.681,16.681,0,0,1,2.669.172,16.372,16.372,0,0,1,2.518.568,16.573,16.573,0,0,1,2.3.9A16.92,16.92,0,0,1,485,76.207a16.721,16.721,0,0,1,2.638,2.93,15.28,15.28,0,0,1,2.372,5.129A4.756,4.756,0,0,1,490.259,86.3Z" transform="translate(-314.059 -50.324)" fill="#e0e0e0"/>
      <path id="Trazado_108081" data-name="Trazado 108081" d="M485.9,103.818l.454,2.846-2.539.4-.443-2.768a11.977,11.977,0,0,1-6.651-1.043l.9-3.326a10.425,10.425,0,0,0,5.213,1.043l-.683-4.243c-2.93-.235-6.229-.672-6.813-4.306-.427-2.695,1.157-5.317,5.1-6.417l-.454-2.82,2.544-.407.443,2.768a11.645,11.645,0,0,1,5.405.725L487.64,89.6a10.562,10.562,0,0,0-4.1-.7l.688,4.321c2.93.209,6.177.652,6.75,4.233C491.377,100.1,489.813,102.7,485.9,103.818Zm-4.342-10.827-.573-3.607c-1.3.521-1.715,1.345-1.564,2.184s.964,1.23,2.137,1.423Zm5.353,5.426c-.141-.891-.959-1.256-2.111-1.465l.563,3.508C486.6,99.982,487.046,99.231,486.915,98.418Z" transform="translate(-322.725 -55.448)" fill="#e0e0e0"/>
      <path id="Trazado_108082" data-name="Trazado 108082" d="M139.514,230.954a12.51,12.51,0,1,1-14.173-10.545A12.51,12.51,0,0,1,139.514,230.954Z" transform="translate(-105.587 -58.535)" fill="#f5f5f5"/>
      <path id="Trazado_108083" data-name="Trazado 108083" d="M139.3,234.105a9.534,9.534,0,1,1-10.8-8.038A9.534,9.534,0,0,1,139.3,234.105Z" transform="translate(-108.32 -61.259)" fill="#ebebeb"/>
      <path id="Trazado_108084" data-name="Trazado 108084" d="M139.107,233.5a5.53,5.53,0,0,1-.412-1.1,10.124,10.124,0,0,0-1.512-2.731,9.8,9.8,0,0,0-1.5-1.533,9.465,9.465,0,0,0-2.085-1.288,8.335,8.335,0,0,0-1.241-.459,8.608,8.608,0,0,0-1.35-.287,9.155,9.155,0,0,0-1.423-.083,10.015,10.015,0,0,0-1.465.141,9.258,9.258,0,0,0-3.9,1.673,9,9,0,0,0-1.006.86,9.455,9.455,0,0,0-1.512,1.923,9.968,9.968,0,0,0-.881,1.955,10.222,10.222,0,0,0-.474,3.086,5.213,5.213,0,0,1,0,1.173,2.82,2.82,0,0,1-.271-1.157,8.862,8.862,0,0,1,.261-3.247,9.637,9.637,0,0,1,.85-2.085,9.9,9.9,0,0,1,1.564-2.085,8.86,8.86,0,0,1,1.043-.944,9.944,9.944,0,0,1,2.658-1.428,10.565,10.565,0,0,1,1.538-.407,10.783,10.783,0,0,1,1.564-.146,9.991,9.991,0,0,1,1.564.1,9.3,9.3,0,0,1,1.449.328,9.733,9.733,0,0,1,5.035,3.649,8.861,8.861,0,0,1,1.366,2.956,2.847,2.847,0,0,1,.141,1.136Z" transform="translate(-108.173 -60.953)" fill="#e0e0e0"/>
      <path id="Trazado_108085" data-name="Trazado 108085" d="M136.621,243.58l.261,1.637-1.465.235-.255-1.6a7.016,7.016,0,0,1-3.831-.584l.521-1.918a5.942,5.942,0,0,0,3.008.584l-.4-2.445c-1.684-.13-3.586-.381-3.92-2.476-.25-1.564.662-3.065,2.935-3.7l-.261-1.626,1.465-.235.255,1.6a6.657,6.657,0,0,1,3.128.417l-.443,1.918a5.98,5.98,0,0,0-2.361-.4l.4,2.486c1.689.12,3.56.375,3.889,2.44C139.775,241.437,138.873,242.933,136.621,243.58Zm-2.5-6.255-.334-2.085c-.745.3-.985.771-.907,1.256s.563.745,1.241.85Zm3.086,3.128c-.083-.521-.553-.719-1.22-.839l.323,2.017c.709-.261.97-.693.9-1.162Z" transform="translate(-113.188 -63.889)" fill="#e0e0e0"/>
      <path id="Trazado_108086" data-name="Trazado 108086" d="M109.783,174.156a8.137,8.137,0,1,1,2.523-11.212A8.137,8.137,0,0,1,109.783,174.156Z" transform="translate(-97.286 -29.27)" fill="#f5f5f5"/>
      <path id="Trazado_108087" data-name="Trazado 108087" d="M110.525,174.289a6.2,6.2,0,1,1,1.929-8.549A6.2,6.2,0,0,1,110.525,174.289Z" transform="translate(-99.065 -31.04)" fill="#ebebeb"/>
      <path id="Trazado_108088" data-name="Trazado 108088" d="M113.189,173.992a5.633,5.633,0,0,1,.521-.521,6.506,6.506,0,0,0,1.225-1.621,6.1,6.1,0,0,0,.73-2.872,5.365,5.365,0,0,0-.052-.86,5.838,5.838,0,0,0-.188-.876,6.074,6.074,0,0,0-.328-.871,5.943,5.943,0,0,0-1.069-1.564,5.522,5.522,0,0,0-.683-.626,5.648,5.648,0,0,0-.745-.521,5.318,5.318,0,0,0-.761-.407,6.257,6.257,0,0,0-1.564-.391,6.909,6.909,0,0,0-1.392,0,6.5,6.5,0,0,0-1.96.521,3.9,3.9,0,0,1-.7.3,2.723,2.723,0,0,1,.62-.469,5.7,5.7,0,0,1,2-.7,6.177,6.177,0,0,1,1.475-.057,6.256,6.256,0,0,1,1.663.375,5.8,5.8,0,0,1,.844.386,5.949,5.949,0,0,1,.808.521,6.422,6.422,0,0,1,1.387,1.48,6.72,6.72,0,0,1,.521.9,6.6,6.6,0,0,1,.349.938,6.256,6.256,0,0,1,.188.949,5.583,5.583,0,0,1,.042.928,6.319,6.319,0,0,1-.271,1.678,6.208,6.208,0,0,1-.6,1.35,5.733,5.733,0,0,1-1.4,1.6,1.893,1.893,0,0,1-.652.427Z" transform="translate(-101.563 -30.847)" fill="#e0e0e0"/>
      <path id="Trazado_108089" data-name="Trazado 108089" d="M106.338,174.459l-.907.589-.521-.808.881-.573a4.514,4.514,0,0,1-.662-2.434l1.272-.2a3.9,3.9,0,0,0,.448,1.944l1.35-.881c-.365-1.043-.719-2.236.438-2.987.855-.558,2-.417,2.971.766l.9-.584.521.808-.881.573a4.379,4.379,0,0,1,.579,1.96l-1.261.245a3.936,3.936,0,0,0-.381-1.512l-1.376.9c.375,1.043.719,2.215-.422,2.956C108.444,175.767,107.313,175.627,106.338,174.459Zm3.044-3.128,1.147-.751c-.375-.365-.719-.381-.985-.209s-.281.521-.162.954Zm-1.043,2.658c.281-.188.281-.521.177-.949l-1.116.73c.354.344.683.381.938.214Z" transform="translate(-100.936 -33.889)" fill="#e0e0e0"/>
      <path id="Trazado_108090" data-name="Trazado 108090" d="M528.523,45.356a8.121,8.121,0,1,1,3.586-5.083A8.137,8.137,0,0,1,528.523,45.356Z" transform="translate(-342.236 -30.347)" fill="#f5f5f5"/>
      <path id="Trazado_108091" data-name="Trazado 108091" d="M529.249,45.493a6.2,6.2,0,1,1,1.924-8.544A6.2,6.2,0,0,1,529.249,45.493Z" transform="translate(-344.005 -32.121)" fill="#ebebeb"/>
      <path id="Trazado_108092" data-name="Trazado 108092" d="M531.923,45.217a5.629,5.629,0,0,1,.521-.521,6.509,6.509,0,0,0,1.225-1.621,5.97,5.97,0,0,0,.521-1.293,6.309,6.309,0,0,0,.219-1.564,6.048,6.048,0,0,0-.036-.891,5.836,5.836,0,0,0-.188-.876,5.738,5.738,0,0,0-.328-.871,6.306,6.306,0,0,0-.469-.834A6.429,6.429,0,0,0,532.81,36a5.569,5.569,0,0,0-.688-.631,5.32,5.32,0,0,0-.745-.521,5.908,5.908,0,0,0-.777-.375,6.032,6.032,0,0,0-1.564-.386,6.219,6.219,0,0,0-1.392,0,6.51,6.51,0,0,0-1.96.521,3.476,3.476,0,0,1-.7.3,2.723,2.723,0,0,1,.62-.469,5.7,5.7,0,0,1,2-.672,5.933,5.933,0,0,1,1.475-.052,6.225,6.225,0,0,1,1.663.37,5.794,5.794,0,0,1,.844.386,6.329,6.329,0,0,1,2.195,1.986,6.765,6.765,0,0,1,.521.9,6.583,6.583,0,0,1,.344.938,5.665,5.665,0,0,1,.188.949,5.593,5.593,0,0,1,.042.928,6.323,6.323,0,0,1-.271,1.678,6.215,6.215,0,0,1-.615,1.381,5.735,5.735,0,0,1-1.392,1.564,1.934,1.934,0,0,1-.667.417Z" transform="translate(-346.522 -31.949)" fill="#e0e0e0"/>
      <path id="Trazado_108093" data-name="Trazado 108093" d="M525.048,45.659l-.907.594-.521-.808.881-.573a4.561,4.561,0,0,1-.683-2.44l1.272-.2a3.951,3.951,0,0,0,.448,1.944l1.35-.881c-.365-1.043-.719-2.236.438-2.987.855-.558,2-.417,2.971.766l.917-.558.521.808-.881.573a4.388,4.388,0,0,1,.573,1.965l-1.256.24a3.979,3.979,0,0,0-.386-1.506l-1.376.891c.375,1.043.719,2.215-.422,2.956C527.154,46.967,526.028,46.827,525.048,45.659Zm3.044-3.128,1.147-.745c-.375-.37-.719-.386-.985-.214s-.266.511-.162.954ZM527.05,45.19c.281-.188.281-.521.177-.944l-1.115.725a.776.776,0,0,0,.938.24Z" transform="translate(-345.871 -34.966)" fill="#e0e0e0"/>
    </g>
    <g id="freepik--Device--inject-122" transform="translate(109.279 49.177)">
      <path id="Trazado_108095" data-name="Trazado 108095" d="M481.05,134.64H282.593a6.193,6.193,0,0,0-6.193,6.2V281.012a6.193,6.193,0,0,0,6.193,6.193H358.76s4.848,14.981-10.175,22.738h71.221s-16.947-5.817-12.6-22.738H481.05a6.193,6.193,0,0,0,6.193-6.193V140.838A6.193,6.193,0,0,0,481.05,134.64Z" transform="translate(-235.783 -99.105)" fill="#263238"/>
      <path id="Trazado_108096" data-name="Trazado 108096" d="M477.691,397.915c2.7,3.857-1.522,8.085-5.385,5.385a1.33,1.33,0,0,1-.328-.334c-2.695-3.857,1.527-8.074,5.385-5.38A1.4,1.4,0,0,1,477.691,397.915Z" transform="translate(-329.004 -224.578)" fill="#455a64"/>
      <path id="Trazado_108097" data-name="Trazado 108097" d="M288.03,139.57H481.942A5.056,5.056,0,0,1,487,144.626v119.3H283v-119.3a5.056,5.056,0,0,1,5.03-5.056Z" transform="translate(-238.942 -101.465)" fill="#fff"/>
      <rect id="Rectángulo_26914" data-name="Rectángulo 26914" width="6.693" height="74.729" transform="translate(61.317 66.175)" fill="#d9a171"/>
      <rect id="Rectángulo_26915" data-name="Rectángulo 26915" width="6.693" height="49.349" transform="translate(74.234 91.556)" fill="#d9a171"/>
      <rect id="Rectángulo_26916" data-name="Rectángulo 26916" width="6.693" height="65.821" transform="translate(87.151 75.464)" fill="#d9a171"/>
      <rect id="Rectángulo_26917" data-name="Rectángulo 26917" width="6.693" height="71.841" transform="translate(100.073 69.063)" fill="#d9a171"/>
      <rect id="Rectángulo_26918" data-name="Rectángulo 26918" width="6.693" height="47.826" transform="translate(112.99 93.078)" fill="#d9a171"/>
      <rect id="Rectángulo_26919" data-name="Rectángulo 26919" width="6.693" height="38.449" transform="translate(125.907 102.455)" fill="#d9a171"/>
      <rect id="Rectángulo_26920" data-name="Rectángulo 26920" width="6.693" height="67.056" transform="translate(138.824 73.848)" fill="#d9a171"/>
      <rect id="Rectángulo_26921" data-name="Rectángulo 26921" width="6.693" height="54.968" transform="translate(151.741 85.936)" fill="#d9a171"/>
      <rect id="Rectángulo_26922" data-name="Rectángulo 26922" width="6.693" height="64.627" transform="translate(164.664 76.277)" fill="#d9a171"/>
      <rect id="Rectángulo_26923" data-name="Rectángulo 26923" width="6.693" height="44.032" transform="translate(177.581 96.873)" fill="#d9a171"/>
      <rect id="Rectángulo_26924" data-name="Rectángulo 26924" width="6.693" height="67.056" transform="translate(203.347 73.848)" fill="#d9a171"/>
      <rect id="Rectángulo_26925" data-name="Rectángulo 26925" width="6.693" height="22.946" transform="translate(230.782 116.994)" fill="#d9a171"/>
      <rect id="Rectángulo_26926" data-name="Rectángulo 26926" width="6.693" height="44.032" transform="translate(217.406 96.873)" fill="#d9a171"/>
      <rect id="Rectángulo_26927" data-name="Rectángulo 26927" width="6.693" height="52.408" transform="translate(190.498 88.496)" fill="#d9a171"/>
      <path id="Trazado_108098" data-name="Trazado 108098" d="M497.539,210.279a4.168,4.168,0,0,1-.584-.094l-1.7-.349a26.65,26.65,0,0,0-2.784-.443,34.4,34.4,0,0,0-3.831-.318,44.362,44.362,0,0,0-10.478.9,46.248,46.248,0,0,0-12.99,4.921,53.032,53.032,0,0,0-13.162,10.478c-4.1,4.493-7.553,10.045-11.087,15.92s-7.2,12.182-12.464,17.624a32.621,32.621,0,0,1-9.18,6.865,19.13,19.13,0,0,1-5.661,1.731,18.14,18.14,0,0,1-6-.2,24.485,24.485,0,0,1-10.451-5.479,48.654,48.654,0,0,1-7.741-8.45c-4.493-6.047-7.684-12.563-11.1-18.5S371.485,223.352,367.237,219a30.157,30.157,0,0,0-6.855-5.39,28.829,28.829,0,0,0-3.706-1.8,30.143,30.143,0,0,0-3.779-1.121,27.5,27.5,0,0,0-13.735.386,30.983,30.983,0,0,0-9.43,4.535,34.342,34.342,0,0,0-4.952,4.441l-1.162,1.288a3.65,3.65,0,0,1-.417.427,2.98,2.98,0,0,1,.354-.474l1.1-1.355a32.212,32.212,0,0,1,4.895-4.572,30.756,30.756,0,0,1,9.487-4.691A27.758,27.758,0,0,1,353,210.154a28.979,28.979,0,0,1,14.668,8.392c4.28,4.41,7.845,10,11.244,15.966s6.641,12.443,11.087,18.411a48.274,48.274,0,0,0,7.631,8.34,23.76,23.76,0,0,0,10.123,5.317,17.449,17.449,0,0,0,5.734.193,18.59,18.59,0,0,0,5.447-1.663,31.974,31.974,0,0,0,8.992-6.719c5.187-5.333,8.815-11.629,12.4-17.462s7.048-11.468,11.218-15.982a53.608,53.608,0,0,1,13.36-10.519,46.15,46.15,0,0,1,13.167-4.863,43.386,43.386,0,0,1,10.571-.782,32.238,32.238,0,0,1,3.852.391,23.537,23.537,0,0,1,2.784.521l1.689.422A3.713,3.713,0,0,1,497.539,210.279Z" transform="translate(-258.187 -134.575)" fill="#263238"/>
      <path id="Trazado_108099" data-name="Trazado 108099" d="M301.746,259.354c-.151,0-.276-21.309-.276-47.592s.125-47.592.276-47.592.276,21.3.276,47.592S301.887,259.354,301.746,259.354Z" transform="translate(-247.784 -113.242)" fill="#263238"/>
      <path id="Trazado_108100" data-name="Trazado 108100" d="M489.317,346.516c0,.151-40.138.271-89.658.271S310,346.667,310,346.516s40.138-.276,89.658-.276S489.317,346.365,489.317,346.516Z" transform="translate(-251.868 -200.404)" fill="#263238"/>
      <path id="Trazado_108101" data-name="Trazado 108101" d="M325.3,357.8a44.749,44.749,0,0,1-9.93,0,44.763,44.763,0,0,1,9.93,0Z" transform="translate(-254.439 -205.805)" fill="#263238"/>
      <path id="Trazado_108102" data-name="Trazado 108102" d="M355.1,358.371a63.879,63.879,0,0,1-11.869,0,32.044,32.044,0,0,1,5.937-.271A32.508,32.508,0,0,1,355.1,358.371Z" transform="translate(-267.776 -206.082)" fill="#263238"/>
      <path id="Trazado_108103" data-name="Trazado 108103" d="M382.1,358.371a63.88,63.88,0,0,1-11.869,0,32.044,32.044,0,0,1,5.937-.271A32.508,32.508,0,0,1,382.1,358.371Z" transform="translate(-280.702 -206.082)" fill="#263238"/>
      <path id="Trazado_108104" data-name="Trazado 108104" d="M409.019,358.371a63.879,63.879,0,0,1-11.869,0,32.044,32.044,0,0,1,5.937-.271A32.507,32.507,0,0,1,409.019,358.371Z" transform="translate(-293.59 -206.082)" fill="#263238"/>
      <path id="Trazado_108105" data-name="Trazado 108105" d="M435.969,358.371a63.879,63.879,0,0,1-11.869,0,32.045,32.045,0,0,1,5.937-.271A32.507,32.507,0,0,1,435.969,358.371Z" transform="translate(-306.491 -206.082)" fill="#263238"/>
      <path id="Trazado_108106" data-name="Trazado 108106" d="M462.929,358.371a63.881,63.881,0,0,1-11.869,0,31.965,31.965,0,0,1,5.932-.271A32.591,32.591,0,0,1,462.929,358.371Z" transform="translate(-319.398 -206.082)" fill="#263238"/>
      <path id="Trazado_108107" data-name="Trazado 108107" d="M489.879,358.371a63.88,63.88,0,0,1-11.869,0,31.963,31.963,0,0,1,5.932-.271A32.591,32.591,0,0,1,489.879,358.371Z" transform="translate(-332.3 -206.082)" fill="#263238"/>
      <path id="Trazado_108108" data-name="Trazado 108108" d="M516.829,358.371a63.879,63.879,0,0,1-11.869,0,32.008,32.008,0,0,1,5.932-.271A32.637,32.637,0,0,1,516.829,358.371Z" transform="translate(-345.201 -206.082)" fill="#263238"/>
      <path id="Trazado_108109" data-name="Trazado 108109" d="M543.779,358.371a63.88,63.88,0,0,1-11.869,0,32.045,32.045,0,0,1,5.937-.271A32.507,32.507,0,0,1,543.779,358.371Z" transform="translate(-358.103 -206.082)" fill="#263238"/>
      <path id="Trazado_108110" data-name="Trazado 108110" d="M570.729,358.371a63.878,63.878,0,0,1-11.869,0,32.044,32.044,0,0,1,5.937-.271A32.506,32.506,0,0,1,570.729,358.371Z" transform="translate(-371.005 -206.082)" fill="#263238"/>
      <path id="Trazado_108111" data-name="Trazado 108111" d="M595.8,358.381a63.879,63.879,0,0,1-11.869,0,32.009,32.009,0,0,1,5.932-.271A32.642,32.642,0,0,1,595.8,358.381Z" transform="translate(-383.007 -206.087)" fill="#263238"/>
      <path id="Trazado_108112" data-name="Trazado 108112" d="M620.869,358.391a63.879,63.879,0,0,1-11.869,0,65.1,65.1,0,0,1,11.869,0Z" transform="translate(-395.009 -206.092)" fill="#263238"/>
      <path id="Trazado_108113" data-name="Trazado 108113" d="M645.929,358.4a63.872,63.872,0,0,1-11.869,0,63.879,63.879,0,0,1,11.869,0Z" transform="translate(-407.006 -206.092)" fill="#263238"/>
      <path id="Trazado_108114" data-name="Trazado 108114" d="M430.588,259.877c0-.115.824.172,1.084,1.293a2.752,2.752,0,0,1-.208,1.929,1.668,1.668,0,0,1-.975.824,1.793,1.793,0,0,1-1.361-.162,2.278,2.278,0,0,1-1.162-2.132,2.388,2.388,0,0,1,.933-1.725,1.527,1.527,0,0,1,1.277-.313c.313.094.417.245.4.276a1.492,1.492,0,0,0-1.334.443,1.965,1.965,0,0,0-.584,1.345,1.658,1.658,0,0,0,.829,1.449.991.991,0,0,0,1.387-.354,2.439,2.439,0,0,0,.281-1.486A3.252,3.252,0,0,0,430.588,259.877Z" transform="translate(-308.34 -158.907)" fill="#263238"/>
      <path id="Trazado_108115" data-name="Trazado 108115" d="M599.754,212.778c0-.042.214-.109.584,0a2.252,2.252,0,0,1,1.194,1.043,2.966,2.966,0,0,1,.292,2.346,2.466,2.466,0,0,1-2.288,1.83,1.95,1.95,0,0,1-1.454-.756,3.127,3.127,0,0,1-.615-1.3,2.971,2.971,0,0,1,.375-2.33c.824-1.162,1.84-1.105,1.8-1.043.047.109-.8.271-1.35,1.288a2.607,2.607,0,0,0-.162,1.892c.177.688.709,1.475,1.428,1.48a1.84,1.84,0,0,0,1.611-1.3,2.565,2.565,0,0,0-.109-1.882A2.7,2.7,0,0,0,599.754,212.778Z" transform="translate(-389.443 -136.397)" fill="#263238"/>
      <rect id="Rectángulo_26928" data-name="Rectángulo 26928" width="134.284" height="104.509" transform="translate(0.104 0.177)" fill="#fff"/>
      <path id="Trazado_108116" data-name="Trazado 108116" d="M332.868,171.157c0-1.043-.047-41.441-.125-104.509l.125.125H198.6l.151-.151V171.13l-.136-.136,134.284.136-134.284.136h-.136V66.47H333.04V66.6C332.921,129.716,332.874,170.114,332.868,171.157Z" transform="translate(-198.48 -66.47)" fill="#263238"/>
      <rect id="Rectángulo_26929" data-name="Rectángulo 26929" width="21.737" height="1.209" transform="translate(6.657 13.907)" fill="#263238"/>
      <rect id="Rectángulo_26930" data-name="Rectángulo 26930" width="10.743" height="1.209" transform="translate(6.657 16.738)" fill="#263238"/>
      <rect id="Rectángulo_26931" data-name="Rectángulo 26931" width="3.936" height="1.136" transform="translate(19.047 89.669)" fill="#263238"/>
      <rect id="Rectángulo_26932" data-name="Rectángulo 26932" width="5.035" height="1.136" transform="translate(27.956 95.736)" fill="#263238"/>
      <rect id="Rectángulo_26933" data-name="Rectángulo 26933" width="5.035" height="1.136" transform="translate(45.486 95.736)" fill="#263238"/>
      <rect id="Rectángulo_26934" data-name="Rectángulo 26934" width="5.035" height="1.136" transform="translate(63.016 95.736)" fill="#263238"/>
      <rect id="Rectángulo_26935" data-name="Rectángulo 26935" width="5.035" height="1.136" transform="translate(80.547 95.736)" fill="#263238"/>
      <rect id="Rectángulo_26936" data-name="Rectángulo 26936" width="5.035" height="1.136" transform="translate(98.077 95.736)" fill="#263238"/>
      <rect id="Rectángulo_26937" data-name="Rectángulo 26937" width="5.035" height="1.136" transform="translate(115.607 95.736)" fill="#263238"/>
      <rect id="Rectángulo_26938" data-name="Rectángulo 26938" width="3.936" height="1.136" transform="translate(19.047 74.515)" fill="#263238"/>
      <rect id="Rectángulo_26939" data-name="Rectángulo 26939" width="3.936" height="1.136" transform="translate(19.047 45.992)" fill="#263238"/>
      <rect id="Rectángulo_26940" data-name="Rectángulo 26940" width="3.936" height="1.136" transform="translate(19.047 31.657)" fill="#263238"/>
      <rect id="Rectángulo_26941" data-name="Rectángulo 26941" width="3.936" height="1.136" transform="translate(19.25 60.254)" fill="#263238"/>
      <path id="Trazado_108117" data-name="Trazado 108117" d="M341.856,178.133h-1.663l-4.764.026-17.52.047-57.814.036H246.26v-.135c0-19.334.037-36.348.047-48.535,0-6.088.031-10.947.042-14.335v0c0,3.367,0,8.246.042,14.335,0,12.187.026,29.191.047,48.535l-.136-.136h13.793l57.814.042,17.52.042,4.764.026h1.241Z" transform="translate(-221.354 -87.328)" fill="#263238"/>
      <path id="Trazado_108118" data-name="Trazado 108118" d="M346.566,183.026c0,.073-20.767.136-46.393.136s-46.393-.063-46.393-.136,20.762-.136,46.393-.136S346.566,182.947,346.566,183.026Z" transform="translate(-224.954 -122.204)" fill="#263238"/>
      <path id="Trazado_108119" data-name="Trazado 108119" d="M346.566,155.666c0,.073-20.767.136-46.393.136s-46.393-.063-46.393-.136,20.762-.136,46.393-.136S346.566,155.593,346.566,155.666Z" transform="translate(-224.954 -109.106)" fill="#263238"/>
      <path id="Trazado_108120" data-name="Trazado 108120" d="M346.566,128.166c0,.078-20.767.136-46.393.136s-46.393-.057-46.393-.136,20.762-.136,46.393-.136S346.566,128.093,346.566,128.166Z" transform="translate(-224.954 -95.941)" fill="#263238"/>
      <path id="Trazado_108121" data-name="Trazado 108121" d="M346.566,210.386c0,.073-20.767.136-46.393.136s-46.393-.063-46.393-.136,20.762-.136,46.393-.136S346.566,210.313,346.566,210.386Z" transform="translate(-224.954 -135.302)" fill="#263238"/>
      <path id="Trazado_108122" data-name="Trazado 108122" d="M255.66,176.054V163.4l7.887-12.255,5.353,4.108,10.983-17.061,6.479,4.561,9.013-15.742,7.3,5.969L313.7,112.11l11.833,23.337,9.539-11.676,11.265-3.227v55.51Z" transform="translate(-225.854 -88.319)" fill="#455a64"/>
      <path id="Trazado_108123" data-name="Trazado 108123" d="M347.485,119.6a1.452,1.452,0,0,1-.2,0h-2.872l-8.648.037.057-.031-9.268,12.156-.036.042H303.271l.115-.063-9.753,16.232c-3.32,5.525-6.537,10.868-9.576,15.914l-.1.172-.115-.162-12.573-17.27h.182L260.027,164.5l-3.185,4.942c-.365.563-.646,1-.844,1.293s-.3.438-.3.438.089-.156.271-.453l.813-1.308c.725-1.152,1.783-2.836,3.128-4.978l11.364-17.916.089-.136.1.13,12.6,17.249h-.219l9.544-15.909,9.763-16.232.036-.063h.1l23.2.026-.083.042,9.325-12.062v-.031h.036l8.648.036h2.872Z" transform="translate(-225.873 -91.871)" fill="#263238"/>
      <path id="Trazado_108124" data-name="Trazado 108124" d="M291.363,178.4a.891.891,0,1,1-.891-.855.876.876,0,0,1,.891.855Z" transform="translate(-242.093 -119.647)" fill="#263238"/>
      <path id="Trazado_108125" data-name="Trazado 108125" d="M342.723,149.215a.891.891,0,1,1-.886-.855A.871.871,0,0,1,342.723,149.215Z" transform="translate(-266.681 -105.673)" fill="#263238"/>
      <ellipse id="Elipse_4249" data-name="Elipse 4249" cx="0.891" cy="0.855" rx="0.891" ry="0.855" transform="translate(95.064 38.96)" fill="#263238"/>
      <path id="Trazado_108126" data-name="Trazado 108126" d="M207.535,74.1a1.043,1.043,0,1,1-1.043-1.043A1.043,1.043,0,0,1,207.535,74.1Z" transform="translate(-201.817 -69.625)" fill="#263238"/>
      <path id="Trazado_108127" data-name="Trazado 108127" d="M213.3,74.1a1.043,1.043,0,1,1-1.043-1.043A1.043,1.043,0,0,1,213.3,74.1Z" transform="translate(-204.574 -69.625)" fill="#263238"/>
      <path id="Trazado_108128" data-name="Trazado 108128" d="M219.085,74.1a1.043,1.043,0,1,1-1.043-1.043A1.043,1.043,0,0,1,219.085,74.1Z" transform="translate(-207.346 -69.625)" fill="#263238"/>
      <path id="Trazado_108129" data-name="Trazado 108129" d="M333.008,82.746c0,.073-30,.136-67.009.136s-67-.068-67-.136,30-.136,67.014-.136S333.008,82.667,333.008,82.746Z" transform="translate(-198.729 -74.197)" fill="#263238"/>
    </g>
    <g id="freepik--Character--inject-122" transform="translate(126.918 92.29)">
      <path id="Trazado_108144" data-name="Trazado 108144" d="M243.616,462.37l-.9,3.774s-6.177,8.022-8.08,7.626c-1.251-.255.287-2.346,2.606-8.439l.521-2.513Z" transform="translate(-233.217 -299.112)" fill="#455a64"/>
      <path id="Trazado_108145" data-name="Trazado 108145" d="M234.568,475.25a.761.761,0,0,0,.328.318,1.147,1.147,0,0,0,1.183-.167,35.371,35.371,0,0,0,3.07-2.909c1.142-1.2,2.085-2.356,2.778-3.206l.787-1.016c.078-.1.151-.188.214-.276a.637.637,0,0,1,.083-.094.637.637,0,0,1-.083.094l-.2.292c-.172.25-.433.6-.761,1.043a39.356,39.356,0,0,1-2.763,3.232,30.44,30.44,0,0,1-3.128,2.9,1.434,1.434,0,0,1-.7.255,1.042,1.042,0,0,1-.547-.12.657.657,0,0,1-.261-.24.348.348,0,0,1-.005-.109Z" transform="translate(-233.395 -301.76)" fill="#263238"/>
      <path id="Trazado_108146" data-name="Trazado 108146" d="M236.24,476.936a.979.979,0,0,1,.521-.057,2.646,2.646,0,0,1,1.162.4,2.121,2.121,0,0,1,.844.9,1.084,1.084,0,0,1,.136.5,2.812,2.812,0,0,0-.2-.459,2.263,2.263,0,0,0-.834-.834,2.879,2.879,0,0,0-1.116-.422A4.872,4.872,0,0,0,236.24,476.936Z" transform="translate(-234.197 -306.052)" fill="#263238"/>
      <path id="Trazado_108147" data-name="Trazado 108147" d="M247.25,469.932a.563.563,0,0,1-.078-.182,4.086,4.086,0,0,1-.12-.521,2.84,2.84,0,0,1,.287-1.72,2.674,2.674,0,0,1,1.251-1.209,1.806,1.806,0,0,1,.521-.156.6.6,0,0,1,.193,0,4.175,4.175,0,0,0-.672.24,2.737,2.737,0,0,0-1.183,1.194,2.956,2.956,0,0,0-.308,1.658C247.182,469.661,247.266,469.927,247.25,469.932Z" transform="translate(-239.358 -300.915)" fill="#263238"/>
      <path id="Trazado_108148" data-name="Trazado 108148" d="M251.013,463.6s-.115.521-.229,1.2a4.134,4.134,0,0,1-.323,1.188s.1-.521.214-1.209a3.909,3.909,0,0,1,.339-1.183Z" transform="translate(-241.004 -299.701)" fill="#263238"/>
      <path id="Trazado_108149" data-name="Trazado 108149" d="M239.89,469.02a1.481,1.481,0,0,1,.792,0,1.387,1.387,0,0,1,.714.339c0,.031-.323-.136-.74-.229S239.9,469.057,239.89,469.02Z" transform="translate(-235.944 -302.27)" fill="#263238"/>
      <path id="Trazado_108150" data-name="Trazado 108150" d="M239.65,470.257a1,1,0,0,1,.667,0,.943.943,0,0,1,.584.323c0,.026-.266-.136-.61-.214S239.655,470.294,239.65,470.257Z" transform="translate(-235.829 -302.861)" fill="#263238"/>
      <path id="Trazado_108151" data-name="Trazado 108151" d="M238.7,471.755a.85.85,0,0,1,.693-.089.829.829,0,0,1,.584.381,2.678,2.678,0,0,0-.61-.271,2.721,2.721,0,0,0-.667-.021Z" transform="translate(-235.374 -303.545)" fill="#263238"/>
      <path id="Trazado_108152" data-name="Trazado 108152" d="M240.71,467.123a7.283,7.283,0,0,0,.725-.245,5.916,5.916,0,0,0,.745-.36c.13-.078.271-.167.407-.261a.5.5,0,0,0,.261-.375c-.005-.146-.188-.229-.328-.193a.9.9,0,0,0-.381.255c-.229.214-.422.417-.579.594a5.181,5.181,0,0,1-.521.579.757.757,0,0,1,.1-.177c.073-.109.188-.266.339-.453a8.055,8.055,0,0,1,.568-.615.97.97,0,0,1,.427-.287.36.36,0,0,1,.464.292.62.62,0,0,1-.3.469,4.258,4.258,0,0,1-.427.261,4.68,4.68,0,0,1-.766.344,4.174,4.174,0,0,1-.547.151C240.783,467.128,240.71,467.133,240.71,467.123Z" transform="translate(-236.337 -300.643)" fill="#263238"/>
      <path id="Trazado_108153" data-name="Trazado 108153" d="M240.3,466.546a6.777,6.777,0,0,1-.115-.688,2.976,2.976,0,0,0-.209-.714,1.563,1.563,0,0,0-.229-.365c-.094-.1-.24-.2-.354-.13s-.13.24-.115.38a1.788,1.788,0,0,0,.12.412,2.5,2.5,0,0,0,.4.62,5.215,5.215,0,0,0,.521.485c0,.016-.062,0-.162-.094a2.844,2.844,0,0,1-.4-.334,2.384,2.384,0,0,1-.438-.636,1.915,1.915,0,0,1-.136-.443.469.469,0,0,1,.172-.485.407.407,0,0,1,.485.151,1.6,1.6,0,0,1,.245.4,2.762,2.762,0,0,1,.193.745c.026.214.036.391.042.521A.663.663,0,0,1,240.3,466.546Z" transform="translate(-235.601 -300.145)" fill="#263238"/>
      <path id="Trazado_108154" data-name="Trazado 108154" d="M300.263,461l.026-5.036-9.409-.115-.13,7.376.584.047c2.606.177,13.235.709,14.981.2C308.265,462.9,300.263,461,300.263,461Z" transform="translate(-260.292 -295.991)" fill="#455a64"/>
      <path id="Trazado_108155" data-name="Trazado 108155" d="M290.5,469.57h.162l.469.036,1.71.094c1.449.073,3.451.141,5.661.172s4.212,0,5.661,0l1.715-.047h-7.371c-2.21,0-4.207-.089-5.656-.135l-1.715-.063h-.464Z" transform="translate(-260.173 -302.559)" fill="#263238"/>
      <path id="Trazado_108156" data-name="Trazado 108156" d="M314.863,469.03a4.168,4.168,0,0,1,.328-.813,4,4,0,0,1,.594-.646,1.24,1.24,0,0,0-.688.584A1.262,1.262,0,0,0,314.863,469.03Z" transform="translate(-271.833 -301.602)" fill="#263238"/>
      <path id="Trazado_108157" data-name="Trazado 108157" d="M309.564,466.88a1.216,1.216,0,0,0,.3-.36c.136-.214.235-.4.208-.422s-.162.146-.3.36S309.533,466.859,309.564,466.88Z" transform="translate(-269.296 -300.896)" fill="#263238"/>
      <path id="Trazado_108158" data-name="Trazado 108158" d="M308.108,466.318c0,.026.172-.073.334-.214s.282-.282.261-.308-.172.078-.334.219S308.087,466.3,308.108,466.318Z" transform="translate(-268.601 -300.751)" fill="#263238"/>
      <path id="Trazado_108159" data-name="Trazado 108159" d="M307.21,465.033a1.125,1.125,0,0,0,.49.073,1.153,1.153,0,0,0,.521-.047,1.116,1.116,0,0,0-.521-.068A1.149,1.149,0,0,0,307.21,465.033Z" transform="translate(-268.172 -300.362)" fill="#263238"/>
      <path id="Trazado_108160" data-name="Trazado 108160" d="M306.9,463.88a1.042,1.042,0,0,0,.547.167.944.944,0,0,0,.568-.073,3.218,3.218,0,0,0-.542-.031A2.956,2.956,0,0,0,306.9,463.88Z" transform="translate(-268.024 -299.835)" fill="#263238"/>
      <path id="Trazado_108161" data-name="Trazado 108161" d="M310.2,465.239a1.841,1.841,0,0,0,.6,0,3.127,3.127,0,0,0,.646-.13,1.675,1.675,0,0,0,.37-.151.323.323,0,0,0,.156-.182.24.24,0,0,0-.089-.245,1.116,1.116,0,0,0-1.381.308,1.071,1.071,0,0,0-.2.4.324.324,0,0,0,0,.162,1.7,1.7,0,0,1,.282-.521,1.094,1.094,0,0,1,.521-.328.923.923,0,0,1,.725.057c.094.073.057.183-.052.245a1.558,1.558,0,0,1-.344.141,4.051,4.051,0,0,1-.626.156A2.986,2.986,0,0,1,310.2,465.239Z" transform="translate(-269.604 -300.089)" fill="#263238"/>
      <path id="Trazado_108162" data-name="Trazado 108162" d="M309.765,465a.589.589,0,0,0,.073-.422.969.969,0,0,0-.156-.443.615.615,0,0,0-.521-.318.25.25,0,0,0-.193.281.7.7,0,0,0,.1.271,1.859,1.859,0,0,0,.281.37.907.907,0,0,0,.344.25,3.148,3.148,0,0,1-.281-.308,1.927,1.927,0,0,1-.25-.365c-.083-.13-.135-.36,0-.386s.308.141.4.261a1.011,1.011,0,0,1,.167.4A2.552,2.552,0,0,1,309.765,465Z" transform="translate(-269.012 -299.806)" fill="#263238"/>
      <path id="Trazado_108163" data-name="Trazado 108163" d="M290.94,464.556s.266,0,.693.031a2.955,2.955,0,0,1,2.445,2c.141.407.151.678.172.678a.609.609,0,0,0,0-.193,2.235,2.235,0,0,0-.094-.521,2.862,2.862,0,0,0-2.513-2.054,2.764,2.764,0,0,0-.521,0A.519.519,0,0,0,290.94,464.556Z" transform="translate(-260.383 -300.125)" fill="#263238"/>
      <path id="Trazado_108164" data-name="Trazado 108164" d="M292.783,457.12a15.727,15.727,0,0,0-.109,1.934,16.482,16.482,0,0,0,0,1.939,16.593,16.593,0,0,0,.1-1.939A17.171,17.171,0,0,0,292.783,457.12Z" transform="translate(-261.2 -296.599)" fill="#263238"/>
      <path id="Trazado_108165" data-name="Trazado 108165" d="M299.61,468.182a5.614,5.614,0,0,0,1.376.151,5.1,5.1,0,0,0,1.381-.094c0-.031-.62,0-1.376,0S299.615,468.146,299.61,468.182Z" transform="translate(-264.534 -301.891)" fill="#263238"/>
      <path id="Trazado_108166" data-name="Trazado 108166" d="M296.065,468.136c-.026,0,.047.13.109.271s.094.266.125.266.052-.146,0-.313S296.086,468.11,296.065,468.136Z" transform="translate(-262.834 -301.87)" fill="#263238"/>
      <path id="Trazado_108167" data-name="Trazado 108167" d="M294.75,466.455a.589.589,0,0,0,.136.219c.1.1.193.162.214.141s-.036-.12-.13-.219S294.776,466.429,294.75,466.455Z" transform="translate(-262.207 -301.065)" fill="#263238"/>
      <path id="Trazado_108168" data-name="Trazado 108168" d="M292.85,465.621c0,.031.13.031.271.083s.235.125.261.1-.052-.151-.224-.214S292.839,465.6,292.85,465.621Z" transform="translate(-261.297 -300.643)" fill="#263238"/>
      <path id="Trazado_108169" data-name="Trazado 108169" d="M291.49,465.278c0,.026.042.078.12.109s.151.031.162,0-.042-.078-.115-.109S291.506,465.247,291.49,465.278Z" transform="translate(-260.646 -300.493)" fill="#263238"/>
      <path id="Trazado_108170" data-name="Trazado 108170" d="M278.666,280.76l-3.618,94.511-14.689.308,2.44-81.886L246.285,376.2H232.32l17.989-95.251Z" transform="translate(-232.32 -212.17)" fill="#263238"/>
      <path id="Trazado_108171" data-name="Trazado 108171" d="M293.948,287.36a9.277,9.277,0,0,1-.167,1.564c-.136.954-.344,2.278-.589,3.727a16.048,16.048,0,0,1-.417,2.054,2.929,2.929,0,0,1-.959,1.444,2.252,2.252,0,0,1-1.069.474.86.86,0,0,1-.427,0,2.8,2.8,0,0,0,1.376-.61,2.846,2.846,0,0,0,.85-1.376,18.369,18.369,0,0,0,.391-2.023c.245-1.454.48-2.768.662-3.717a9.9,9.9,0,0,1,.349-1.538Z" transform="translate(-260.086 -215.33)" fill="#455a64"/>
      <path id="Trazado_108172" data-name="Trazado 108172" d="M291.249,287.994a.856.856,0,0,0,0,.422.521.521,0,0,0,.245.318.443.443,0,0,0,.579-.521.485.485,0,0,0-.281-.281c-.24-.1-.407,0-.422-.036s.136-.214.48-.141a.662.662,0,0,1,.448.375.669.669,0,0,1-.917.808.657.657,0,0,1-.313-.5C291.03,288.1,291.238,287.962,291.249,287.994Z" transform="translate(-260.442 -215.51)" fill="#455a64"/>
      <path id="Trazado_108173" data-name="Trazado 108173" d="M276.1,288.426a2.768,2.768,0,0,1,.282-2.606c.068.031-.146.589-.214,1.3A11.61,11.61,0,0,1,276.1,288.426Z" transform="translate(-253.183 -214.592)" fill="#455a64"/>
      <path id="Trazado_108174" data-name="Trazado 108174" d="M279.457,288.087a2.278,2.278,0,0,1-.214-1.387,2.335,2.335,0,0,1,.407-1.35c.068,0-.1.62-.146,1.366A13.009,13.009,0,0,1,279.457,288.087Z" transform="translate(-254.77 -214.367)" fill="#455a64"/>
      <path id="Trazado_108175" data-name="Trazado 108175" d="M308.8,288.731a8.043,8.043,0,0,1,.083-1.418,8.757,8.757,0,0,1,.063-1.423,2.653,2.653,0,0,1,.193,1.434A2.7,2.7,0,0,1,308.8,288.731Z" transform="translate(-268.93 -214.626)" fill="#455a64"/>
      <path id="Trazado_108176" data-name="Trazado 108176" d="M312.467,288.478c-.073-.031.156-.652.208-1.444s-.083-1.434,0-1.454a3.065,3.065,0,0,1-.2,2.9Z" transform="translate(-270.682 -214.477)" fill="#455a64"/>
      <path id="Trazado_108177" data-name="Trazado 108177" d="M280.636,183.523l9.07-.725c.057-1.043,0-5.15,0-5.15s3.774-.589,3.821-4.358-.61-12.432-.61-12.432h0a13.11,13.11,0,0,0-13.209,1.642l-.558.433Z" transform="translate(-254.739 -154.252)" fill="#ffbe9d"/>
      <path id="Trazado_108178" data-name="Trazado 108178" d="M294.826,192.717a8.726,8.726,0,0,1-4.916-1.4s1.162,2.716,4.926,2.377Z" transform="translate(-259.89 -169.352)" fill="#eb996e"/>
      <path id="Trazado_108179" data-name="Trazado 108179" d="M301.679,172.744a.521.521,0,1,1-.178-.358.521.521,0,0,1,.178.358Z" transform="translate(-265.008 -160.226)" fill="#263238"/>
      <path id="Trazado_108180" data-name="Trazado 108180" d="M302.164,171.478c-.068.068-.474-.235-1.043-.235s-1.006.292-1.069.224.037-.162.224-.3a1.511,1.511,0,0,1,.855-.261,1.418,1.418,0,0,1,.839.271C302.138,171.332,302.2,171.478,302.164,171.478Z" transform="translate(-264.737 -159.581)" fill="#263238"/>
      <path id="Trazado_108181" data-name="Trazado 108181" d="M290.449,173a.521.521,0,1,1-.178-.358.521.521,0,0,1,.178.358Z" transform="translate(-259.632 -160.351)" fill="#263238"/>
      <path id="Trazado_108182" data-name="Trazado 108182" d="M291.234,171.713c-.068.073-.474-.229-1.043-.229s-1.006.292-1.069.219.037-.156.224-.292a1.434,1.434,0,0,1,.855-.261,1.418,1.418,0,0,1,.839.271C291.208,171.556,291.27,171.681,291.234,171.713Z" transform="translate(-259.504 -159.696)" fill="#263238"/>
      <path id="Trazado_108183" data-name="Trazado 108183" d="M296.986,176.047a3.989,3.989,0,0,1,.938-.172c.151,0,.292-.042.313-.146a.735.735,0,0,0-.1-.438q-.2-.521-.438-1.126a19.335,19.335,0,0,1-.98-2.945,19.662,19.662,0,0,1,1.22,2.862c.146.391.281.771.417,1.131a.86.86,0,0,1,.073.584.375.375,0,0,1-.245.219.932.932,0,0,1-.25.036,3.824,3.824,0,0,1-.949-.005Z" transform="translate(-263.15 -159.73)" fill="#263238"/>
      <path id="Trazado_108184" data-name="Trazado 108184" d="M293.888,181.25c.094,0,.094.62.631,1.069s1.209.381,1.215.464-.151.125-.433.13a1.564,1.564,0,0,1-1.011-.349,1.4,1.4,0,0,1-.521-.9C293.752,181.4,293.82,181.245,293.888,181.25Z" transform="translate(-261.736 -164.531)" fill="#263238"/>
      <path id="Trazado_108185" data-name="Trazado 108185" d="M291.051,167.479c-.057.156-.636.078-1.314.162s-1.23.271-1.324.125c-.037-.068.057-.214.276-.365a2.309,2.309,0,0,1,2.012-.224C290.952,167.276,291.077,167.4,291.051,167.479Z" transform="translate(-259.17 -157.73)" fill="#263238"/>
      <path id="Trazado_108186" data-name="Trazado 108186" d="M301.876,168.267c-.1.13-.521,0-.98,0s-.886.089-.98-.052,0-.2.2-.323a1.335,1.335,0,0,1,.8-.214,1.392,1.392,0,0,1,.782.261C301.866,168.064,301.923,168.2,301.876,168.267Z" transform="translate(-264.663 -158.033)" fill="#263238"/>
      <path id="Trazado_108187" data-name="Trazado 108187" d="M277.695,173.232c-.063-.026-2.606-.766-2.507,1.814a1.944,1.944,0,0,0,2.659,1.892C277.851,176.865,277.695,173.232,277.695,173.232Z" transform="translate(-252.841 -160.637)" fill="#ffbe9d"/>
      <path id="Trazado_108188" data-name="Trazado 108188" d="M277.684,176.74a.823.823,0,0,1-.115.068.448.448,0,0,1-.339,0,1.11,1.11,0,0,1-.521-.98,1.47,1.47,0,0,1,.1-.652.521.521,0,0,1,.323-.354.235.235,0,0,1,.271.115c.036.073,0,.125.036.13s.052-.047.031-.151a.308.308,0,0,0-.109-.162.36.36,0,0,0-.25-.057.626.626,0,0,0-.454.417,1.49,1.49,0,0,0-.135.725,1.157,1.157,0,0,0,.693,1.089.479.479,0,0,0,.407-.078C277.684,176.8,277.695,176.745,277.684,176.74Z" transform="translate(-253.482 -161.393)" fill="#eb996e"/>
      <path id="Trazado_108189" data-name="Trazado 108189" d="M291.65,152.525a3.988,3.988,0,0,0-6.193-1.194,3.9,3.9,0,0,0-6.417-.834c-.725.824-1.1,1.934-1.944,2.606-.735.6-1.725.8-2.466,1.387a2.846,2.846,0,0,0,1.017,4.963,3.06,3.06,0,0,0,1.506,4.17l.375-.156a5.369,5.369,0,0,0,.782-5.922,1.167,1.167,0,0,0,.136,0,3,3,0,0,0,3.92-.9,3.341,3.341,0,0,0,3.6.151,1.376,1.376,0,0,1,.521-.245,1.283,1.283,0,0,1,.672.2,3.169,3.169,0,0,0,1.83.365,1.751,1.751,0,0,0,1.366-.98h.047a2.023,2.023,0,0,0,1.506-1.46,3,3,0,0,0-.255-2.158Z" transform="translate(-252.065 -149.177)" fill="#263238"/>
      <path id="Trazado_108190" data-name="Trazado 108190" d="M285.068,219.614l.334-16.993c-3.018-2.966-4.629-3.852-8.83-4.347l-1.142-.13-.36-2.8-10.3-.584.521,3.326h0a24.964,24.964,0,0,0-4,.766,10,10,0,0,0-7.683,6.375c-.662,2.215-4.889,18.641-4.889,18.641l-.86,4.957,9.456-3.43v16.686h28.67C286.085,238.953,285.068,219.614,285.068,219.614Z" transform="translate(-239.76 -170.999)" fill="#d9a171"/>
      <g id="Grupo_59710" data-name="Grupo 59710" transform="translate(8.101 23.761)" opacity="0.2">
        <path id="Trazado_108191" data-name="Trazado 108191" d="M285.068,219.614l.334-16.993c-3.018-2.966-4.629-3.852-8.83-4.347l-1.142-.13-.36-2.8-10.3-.584.521,3.326h0a24.964,24.964,0,0,0-4,.766,10,10,0,0,0-7.683,6.375c-.662,2.215-4.889,18.641-4.889,18.641l-.86,4.957,9.456-3.43v16.686h28.67C286.085,238.953,285.068,219.614,285.068,219.614Z" transform="translate(-247.86 -194.76)"/>
      </g>
      <path id="Trazado_108192" data-name="Trazado 108192" d="M252.147,249.207l14.142-2.007,2.69,4.817-13.146,5.927a5.734,5.734,0,0,1-2.335.521h0a5.677,5.677,0,0,1-5.249-3.55l-.427-1.043Z" transform="translate(-239.74 -196.104)" fill="#d9a171"/>
      <g id="Grupo_59711" data-name="Grupo 59711" transform="translate(8.08 51.096)" opacity="0.2">
        <path id="Trazado_108193" data-name="Trazado 108193" d="M252.147,249.207l14.142-2.007,2.69,4.817-13.146,5.927a5.734,5.734,0,0,1-2.335.521h0a5.677,5.677,0,0,1-5.249-3.55l-.427-1.043Z" transform="translate(-247.82 -247.2)"/>
      </g>
      <path id="Trazado_108194" data-name="Trazado 108194" d="M309.564,203.49a10.425,10.425,0,0,1,5.677,5.213c1.095,2.512,2.705,14.6,2.705,14.6l2.028,3.915a6.574,6.574,0,0,1,.74,3.039v.6a6.6,6.6,0,0,1-1.48,4.17h0a6.594,6.594,0,0,1-4.535,2.408c-2.028.182-4.478.261-5-.334a24.8,24.8,0,0,1-2.309-3.894l5.906-3.128-2.544-4.691Z" transform="translate(-268.258 -175.178)" fill="#d9a171"/>
      <g id="Grupo_59712" data-name="Grupo 59712" transform="translate(39.132 28.312)" opacity="0.2">
        <path id="Trazado_108195" data-name="Trazado 108195" d="M309.564,203.49a10.425,10.425,0,0,1,5.677,5.213c1.095,2.512,2.705,14.6,2.705,14.6l2.028,3.915a6.574,6.574,0,0,1,.74,3.039v.6a6.6,6.6,0,0,1-1.48,4.17h0a6.594,6.594,0,0,1-4.535,2.408c-2.028.182-4.478.261-5-.334a24.8,24.8,0,0,1-2.309-3.894l5.906-3.128-2.544-4.691Z" transform="translate(-307.39 -203.49)"/>
      </g>
      <path id="Trazado_108196" data-name="Trazado 108196" d="M260.408,257.425a1.9,1.9,0,0,1,.229-.13l.678-.328,2.539-1.189,8.664-3.956-.057.182-1.658-2.971-1.042-1.845.125.063-10.363,1.017-3.075.276-.834.063a.954.954,0,0,1-.292,0,1.664,1.664,0,0,1,.287-.052l.829-.1,3.07-.354L269.869,247h.083l.042.073,1.043,1.845,1.652,2.971.068.12-.125.057-8.7,3.873-2.57,1.116-.7.292A1.427,1.427,0,0,1,260.408,257.425Z" transform="translate(-243.331 -196.008)" fill="#263238"/>
      <path id="Trazado_108197" data-name="Trazado 108197" d="M269.78,238c-.073,0-.13-2.528-.13-5.645s.057-5.645.13-5.645.13,2.528.13,5.645S269.832,238,269.78,238Z" transform="translate(-250.191 -186.295)" fill="#263238"/>
      <path id="Trazado_108198" data-name="Trazado 108198" d="M313.436,255.542a2.132,2.132,0,0,1,.427-.068,4,4,0,0,1,1.194.068,1.408,1.408,0,0,1,.745.427,1.893,1.893,0,0,1,.391.9,2.086,2.086,0,0,1-.094,1.079,2.012,2.012,0,0,1-.714.917,5.318,5.318,0,0,1-2.049.73,9.438,9.438,0,0,1-1.757.172,3.17,3.17,0,0,1-1.59-.276,8.5,8.5,0,0,0,1.59.094,10.422,10.422,0,0,0,1.71-.224,5.286,5.286,0,0,0,1.944-.7,1.788,1.788,0,0,0,.725-1.746,1.762,1.762,0,0,0-.318-.8,1.277,1.277,0,0,0-.631-.386,4.88,4.88,0,0,0-1.147-.146A1.859,1.859,0,0,1,313.436,255.542Z" transform="translate(-269.503 -200.057)" fill="#263238"/>
      <path id="Trazado_108199" data-name="Trazado 108199" d="M315.757,266.212a2.947,2.947,0,0,1-1.043.12,6.412,6.412,0,0,1-2.445-.4,5.265,5.265,0,0,1-1.215-.652,2.848,2.848,0,0,1-.751-.844,2.237,2.237,0,0,1-.365-.964c.042,0,.177.354.521.865a3.051,3.051,0,0,0,.74.756,5.555,5.555,0,0,0,1.168.594,7.442,7.442,0,0,0,2.351.464A7.3,7.3,0,0,1,315.757,266.212Z" transform="translate(-269.479 -203.893)" fill="#263238"/>
      <path id="Trazado_108200" data-name="Trazado 108200" d="M321.742,245.23a5.334,5.334,0,0,1-.7.839c-.453.5-1.095,1.173-1.814,1.908s-1.376,1.4-1.866,1.861a4.637,4.637,0,0,1-.824.719,4.519,4.519,0,0,1,.693-.844c.453-.521,1.095-1.178,1.809-1.913a24.3,24.3,0,0,1,2.7-2.57Z" transform="translate(-272.639 -195.161)" fill="#263238"/>
      <path id="Trazado_108201" data-name="Trazado 108201" d="M314.025,234.239a40.078,40.078,0,0,1,0-6.459,40.078,40.078,0,0,1,0,6.459Z" transform="translate(-271.365 -186.807)" fill="#263238"/>
      <path id="Trazado_108202" data-name="Trazado 108202" d="M292.09,207.566c0,.073-6.365.136-14.215.136s-14.215-.063-14.215-.136,6.365-.135,14.215-.135S292.09,207.487,292.09,207.566Z" transform="translate(-247.323 -177.065)" fill="#fafafa"/>
      <path id="Trazado_108203" data-name="Trazado 108203" d="M291.205,201.269a44.713,44.713,0,0,1-4.905.109,43.022,43.022,0,0,1-4.9-.167,90.482,90.482,0,0,1,9.805.057Z" transform="translate(-255.816 -174.026)" fill="#263238"/>
      <path id="Trazado_108204" data-name="Trazado 108204" d="M292.424,218.581c0,.073-7.725.136-17.259.136s-17.264-.063-17.264-.136,7.73-.141,17.264-.141S292.424,218.5,292.424,218.581Z" transform="translate(-244.566 -182.335)" fill="#fafafa"/>
      <path id="Trazado_108205" data-name="Trazado 108205" d="M291.912,229.876c0,.078-8.34.136-18.656.136s-18.656-.057-18.656-.136,8.34-.136,18.656-.136S291.912,229.818,291.912,229.876Z" transform="translate(-242.986 -187.745)" fill="#fafafa"/>
      <path id="Trazado_108206" data-name="Trazado 108206" d="M291.3,240.926c0,.073-8.815.136-19.688.136s-19.688-.063-19.688-.136,8.815-.136,19.688-.136S291.3,240.847,291.3,240.926Z" transform="translate(-241.703 -193.035)" fill="#fafafa"/>
      <path id="Trazado_108207" data-name="Trazado 108207" d="M292.357,258.876c0,.073-9.795.136-21.893.136s-21.893-.063-21.893-.136,9.795-.136,21.893-.136S292.357,258.792,292.357,258.876Z" transform="translate(-240.099 -201.628)" fill="#fafafa"/>
      <path id="Trazado_108208" data-name="Trazado 108208" d="M294.008,271.446c0,.073-6.464.136-14.434.136s-14.434-.063-14.434-.136,6.459-.136,14.434-.136S294.008,271.367,294.008,271.446Z" transform="translate(-248.032 -207.646)" fill="#fafafa"/>
      <path id="Trazado_108209" data-name="Trazado 108209" d="M296.1,241.251l-.308-.229a7.058,7.058,0,0,0-5.567-1.288h0a9.69,9.69,0,0,0-4.332,2.033l-2.424,2,2.575,4.618,1.757-2.455s1.637,2.221,1.929,1.986a3.764,3.764,0,0,0,.641-.933l-1.168-1.637,2.8.584,4.092-1.871-1.757-2.221,1.757.584Z" transform="translate(-256.807 -192.469)" fill="#ffbe9d"/>
      <path id="Trazado_108210" data-name="Trazado 108210" d="M291.142,240.035l-9,10.9.693.745,14.606-2.226,7.246-10.9-.672-.6Z" transform="translate(-256.17 -191.676)" fill="#263238"/>
      <path id="Trazado_108211" data-name="Trazado 108211" d="M304.911,247.47h0a1.387,1.387,0,0,0-1.3.886,3.039,3.039,0,0,1-.886,1.413,3.149,3.149,0,0,1-2.361.349c-.589-.287-2.95-2.413-3.362-2.179s-.766.766-.354,1.241,2.606,1.887,2.184,2.361-5.02-1.605-5.734-1.423-1.121.615-.709.9,3.539,1.465,3.717,1.877c0,0-4.723-1.241-4.9-.943s-.469.766,0,.943,4.545,1.241,4.9,1.418a8.582,8.582,0,0,0,1.819.521,19.531,19.531,0,0,1,1.9.6,4.128,4.128,0,0,0,2.935-.078l.48-.193a1.877,1.877,0,0,0,1.162-1.85l-.094-1.606.521-1.329Z" transform="translate(-260.39 -196.233)" fill="#ffbe9d"/>
      <path id="Trazado_108212" data-name="Trazado 108212" d="M305.391,239.3a1.135,1.135,0,0,1-.271.068l-.782.136-2.877.464-4.274.652-2.523.38a4.848,4.848,0,0,0-2.445.99,16.042,16.042,0,0,0-1.778,2.049c-.558.688-1.089,1.355-1.6,1.991l-2.716,3.362-1.851,2.262-.521.6a1.214,1.214,0,0,1-.193.2,1.708,1.708,0,0,1,.151-.229l.474-.636,1.783-2.3,2.674-3.4,1.564-2a16.227,16.227,0,0,1,1.814-2.085,5.092,5.092,0,0,1,2.57-1.043l2.528-.365,4.285-.6,2.893-.381.787-.089A.927.927,0,0,1,305.391,239.3Z" transform="translate(-256.85 -192.318)" fill="#455a64"/>
      <path id="Trazado_108213" data-name="Trazado 108213" d="M311.885,243.88a1.313,1.313,0,0,0-.407.328.422.422,0,0,0,0,.49.459.459,0,0,0,.6,0,.573.573,0,0,0,.229-.349.417.417,0,0,0-.12-.391.323.323,0,0,0-.4,0" transform="translate(-270.178 -194.514)" fill="#fafafa"/>
    </g>
    <g id="freepik--speech-bubble--inject-122" transform="translate(100.174 93.383)">
      <path id="Trazado_108214" data-name="Trazado 108214" d="M206.825,175.037l-2.648-4.691a12.51,12.51,0,1,0-2.992,3.331h0Z" transform="translate(-181.014 -151.275)" fill="#d9a171"/>
      <path id="Trazado_108215" data-name="Trazado 108215" d="M196.73,170.77a1.649,1.649,0,1,1,1.642,1.845A1.652,1.652,0,0,1,196.73,170.77Zm2.33,0c0-.714-.276-1.043-.688-1.043s-.688.354-.688,1.043.281,1.043.688,1.043S199.06,171.489,199.06,170.77ZM202.3,169h1.121l-4.5,6.688H197.8Zm-1.084,4.921a1.646,1.646,0,1,1,1.632,1.845A1.655,1.655,0,0,1,201.218,173.924Zm2.32,0c0-.709-.276-1.043-.688-1.043s-.688.344-.688,1.043.281,1.043.688,1.043S203.538,174.633,203.538,173.924Z" transform="translate(-188.538 -159.727)" fill="#fff"/>
    </g>
  </g>
</svg>
