<svg xmlns="http://www.w3.org/2000/svg" width="96" height="96" viewBox="0 0 96 96">
  <g id="Grupo_59807" data-name="Grupo 59807" transform="translate(-366.303 -4831.87)">
    <circle id="Elipse_4133" data-name="Elipse 4133" cx="48" cy="48" r="48" transform="translate(366.303 4831.87)" fill="#d9a171"/>
    <g id="bank" transform="translate(380.303 4845.767)">
      <g id="Grupo_59806" data-name="Grupo 59806" transform="translate(0.986 1.093)">
        <path id="Trazado_110101" data-name="Trazado 110101" d="M7.5,25.185,38.268,8.129a3.945,3.945,0,0,1,3.826,0L72.861,25.185Z" transform="translate(-7.501 -7.634)" fill="#aee69c"/>
        <path id="Trazado_110102" data-name="Trazado 110102" d="M241.413,8.129a3.945,3.945,0,0,0-3.826,0L237,8.453l30.181,16.732h5Z" transform="translate(-206.82 -7.634)" fill="#89daa4"/>
        <g id="Grupo_59803" data-name="Grupo 59803" transform="translate(22.365 31.125)">
          <circle id="Elipse_4305" data-name="Elipse 4305" cx="10.315" cy="10.315" r="10.315" transform="translate(0 0)" fill="#ffe179"/>
          <path id="Trazado_110103" data-name="Trazado 110103" d="M242.974,244.31A10.357,10.357,0,0,0,241,244.5a10.315,10.315,0,0,1,0,20.25,10.315,10.315,0,1,0,1.973-20.44Z" transform="translate(-232.658 -244.31)" fill="#fbd268"/>
        </g>
        <circle id="Elipse_4306" data-name="Elipse 4306" cx="3.551" cy="3.551" r="3.551" transform="translate(29.129 5.952)" fill="#3d6d93"/>
        <path id="Trazado_110104" data-name="Trazado 110104" d="M242.974,52.894a3.533,3.533,0,0,0-1.973.6,3.551,3.551,0,0,1,0,5.9,3.551,3.551,0,1,0,1.973-6.5Z" transform="translate(-210.294 -46.942)" fill="#335e80"/>
        <g id="Grupo_59804" data-name="Grupo 59804" transform="translate(45.601 23.469)">
          <path id="Trazado_110105" data-name="Trazado 110105" d="M370.064,422.725H354.25l3.945-5.553h7.924Z" transform="translate(-354.25 -386.783)" fill="#aee69c"/>
          <path id="Trazado_110106" data-name="Trazado 110106" d="M418.446,417.172H414.5l3.945,5.553h3.945Z" transform="translate(-406.577 -386.783)" fill="#89daa4"/>
          <path id="Trazado_110107" data-name="Trazado 110107" d="M370.064,186.1H354.25l3.945,5.553h7.924Z" transform="translate(-354.25 -186.096)" fill="#aee69c"/>
          <path id="Trazado_110108" data-name="Trazado 110108" d="M418.446,186.1l-3.945,5.553h3.945l3.945-5.553Z" transform="translate(-406.577 -186.096)" fill="#89daa4"/>
          <path id="Trazado_110109" data-name="Trazado 110109" d="M384.25,228.324h7.924v24.835H384.25Z" transform="translate(-380.305 -222.771)" fill="#eaf6ff"/>
          <path id="Trazado_110110" data-name="Trazado 110110" d="M414.5,228.324h3.945v24.835H414.5Z" transform="translate(-406.577 -222.771)" fill="#d8ecfe"/>
        </g>
        <g id="Grupo_59805" data-name="Grupo 59805" transform="translate(3.945 23.469)">
          <path id="Trazado_110111" data-name="Trazado 110111" d="M53.315,422.725H37.5l3.945-5.553H49.37Z" transform="translate(-37.501 -386.783)" fill="#aee69c"/>
          <path id="Trazado_110112" data-name="Trazado 110112" d="M53.315,186.1H37.5l3.945,5.553H49.37Z" transform="translate(-37.501 -186.096)" fill="#aee69c"/>
          <path id="Trazado_110113" data-name="Trazado 110113" d="M67.5,228.324h7.924v24.835H67.5Z" transform="translate(-63.556 -222.771)" fill="#eaf6ff"/>
          <path id="Trazado_110114" data-name="Trazado 110114" d="M101.7,417.172H97.753l3.945,5.553h3.945Z" transform="translate(-89.829 -386.783)" fill="#89daa4"/>
          <path id="Trazado_110115" data-name="Trazado 110115" d="M101.7,186.1l-3.945,5.553H101.7l3.945-5.553Z" transform="translate(-89.829 -186.096)" fill="#89daa4"/>
          <path id="Trazado_110116" data-name="Trazado 110116" d="M97.753,228.324H101.7v24.835H97.753Z" transform="translate(-89.829 -222.771)" fill="#d8ecfe"/>
        </g>
        <path id="Trazado_110117" data-name="Trazado 110117" d="M7.5,141.1h65.36v2.959a2.959,2.959,0,0,1-2.959,2.959H10.46A2.959,2.959,0,0,1,7.5,144.055Z" transform="translate(-7.501 -123.545)" fill="#3d6d93"/>
        <path id="Trazado_110118" data-name="Trazado 110118" d="M454.96,141.1v2.959A2.959,2.959,0,0,1,452,147.014h3.945a2.959,2.959,0,0,0,2.959-2.959V141.1Z" transform="translate(-393.545 -123.545)" fill="#335e80"/>
        <path id="Trazado_110119" data-name="Trazado 110119" d="M8.816,459.4h62.73a1.315,1.315,0,0,1,1.315,1.315V464a1.315,1.315,0,0,1-1.315,1.315H8.816A1.315,1.315,0,0,1,7.5,464v-3.288A1.315,1.315,0,0,1,8.816,459.4Z" transform="translate(-7.501 -399.988)" fill="#3d6d93"/>
        <path id="Trazado_110120" data-name="Trazado 110120" d="M468.446,459.4H464.5a1.315,1.315,0,0,1,1.315,1.315V464a1.315,1.315,0,0,1-1.315,1.315h3.945A1.315,1.315,0,0,0,469.761,464v-3.288A1.315,1.315,0,0,0,468.446,459.4Z" transform="translate(-404.401 -399.988)" fill="#335e80"/>
      </g>
      <path id="Trazado_110121" data-name="Trazado 110121" d="M35.677,39.162a.986.986,0,1,0,1.973,0,2.9,2.9,0,0,0-3-3.01v-.545a.986.986,0,1,0-1.973,0v.545a2.9,2.9,0,0,0-3,3.01V40.51a2.9,2.9,0,0,0,3,3.01v3.423a.935.935,0,0,1-1.025-1.037.986.986,0,1,0-1.973,0,2.906,2.906,0,0,0,3,3.01v.546a.986.986,0,1,0,1.973,0v-.546a2.912,2.912,0,0,0,3-3.01V44.557a2.9,2.9,0,0,0-3-3.01V38.125a.939.939,0,0,1,1.025,1.037Zm-3,2.386a.936.936,0,0,1-1.025-1.037V39.162a.943.943,0,0,1,1.025-1.037Zm3,3.009v1.349c-.008.648-.475,1.141-1.025,1.037V43.52A.939.939,0,0,1,35.677,44.557ZM38.2,10.6a4.537,4.537,0,1,0-4.537,4.537A4.542,4.542,0,0,0,38.2,10.6Zm-7.1,0a2.564,2.564,0,1,1,2.564,2.564A2.567,2.567,0,0,1,31.1,10.6Zm2.564,20.636a11.3,11.3,0,1,0,11.3,11.3A11.315,11.315,0,0,0,33.666,31.232Zm0,20.631A9.329,9.329,0,1,1,43,42.534,9.34,9.34,0,0,1,33.666,51.863ZM62.91,25.549A4.04,4.04,0,0,0,67.333,21.6V18.645a.991.991,0,0,0-.518-.868L36.057.726a4.9,4.9,0,0,0-4.782,0L18.866,7.605a.986.986,0,1,0,.956,1.725l12.409-6.88a2.942,2.942,0,0,1,2.869,0L62.533,17.659H4.8l10.952-6.071a.986.986,0,0,0-.956-1.725L.518,17.777A1,1,0,0,0,0,18.645V21.6a4,4,0,0,0,4.422,3.945l3.468,4.882V54.637L4.422,59.518H2.3A2.3,2.3,0,0,0,0,61.82v3.288a2.3,2.3,0,0,0,2.3,2.3h62.73a2.3,2.3,0,0,0,2.3-2.3V61.82a2.3,2.3,0,0,0-2.3-2.3H62.91l-3.468-4.882V30.431ZM3.945,23.576A1.975,1.975,0,0,1,1.973,21.6V19.631H65.36V21.6a1.975,1.975,0,0,1-1.973,1.973Zm46.587,19.8a.986.986,0,0,0,.986-.986V31.1h5.951V53.965H51.519V47a.986.986,0,0,0-1.973,0v7.64l-3.468,4.882H21.255l-3.468-4.882V30.431l3.468-4.882H46.078l3.468,4.882V42.394A.986.986,0,0,0,50.532,43.381ZM6.842,25.549H18.835L16.291,29.13H9.386ZM15.814,31.1V53.965H9.863V31.1ZM9.386,55.938h6.905l2.544,3.581H6.842Zm55.645,5.553a.329.329,0,0,1,.329.329v3.288a.329.329,0,0,1-.329.329H2.3a.329.329,0,0,1-.329-.329V61.82a.329.329,0,0,1,.329-.329Zm-4.541-1.973H48.5l2.544-3.581h6.905ZM57.947,29.13H51.041L48.5,25.549H60.49Z"/>
    </g>
  </g>
</svg>
