<svg id="Investment-5-01" xmlns="http://www.w3.org/2000/svg" width="365.638" height="202.5" viewBox="0 0 365.638 202.5">
  <g id="Layer_1" data-name="Layer 1" transform="translate(0 0)">
    <path id="Trazado_110597" data-name="Trazado 110597" d="M94.492,25.369c51.661-2.988,105.826,12.574,97.863,35.133s42.566-8.013,62.733.118c14.356,5.789,8.617,23.418,15.563,30.52,15.923,16.285,32.209-4.222,52.475,8.082s11.84,127.372,3.588,127.356l-312.53-.571-3.739.118s-22.919-33.055-2.171-52.355,6.5-28.127,3.98-35.586c-2.9-8.559-9.654-23.514,19.78-34.5S53.868,68.82,53.145,63.87,42.831,28.347,94.494,25.356Z" transform="translate(0.417 -25.002)" fill="#dfecf9"/>
    <rect id="Rectángulo_28004" data-name="Rectángulo 28004" width="23.675" height="183.25" transform="translate(254.151 17.789)" fill="#9bc1f9" opacity="0.6"/>
    <rect id="Rectángulo_28005" data-name="Rectángulo 28005" width="23.675" height="127.354" transform="translate(221.088 73.685)" fill="#9bc1f9" opacity="0.6"/>
    <rect id="Rectángulo_28006" data-name="Rectángulo 28006" width="23.675" height="143.548" transform="translate(287.69 57.492)" fill="#9bc1f9" opacity="0.6"/>
    <rect id="Rectángulo_28007" data-name="Rectángulo 28007" width="23.675" height="149.193" transform="translate(188.024 51.847)" fill="#9bc1f9" opacity="0.6"/>
    <rect id="Rectángulo_28008" data-name="Rectángulo 28008" width="23.675" height="104.957" transform="translate(154.961 96.081)" fill="#9bc1f9" opacity="0.6"/>
    <rect id="Rectángulo_28009" data-name="Rectángulo 28009" width="23.675" height="141.016" transform="translate(254.151 60.024)" fill="#9bc1f9" opacity="0.3"/>
    <rect id="Rectángulo_28010" data-name="Rectángulo 28010" width="23.675" height="98.002" transform="translate(221.088 103.036)" fill="#9bc1f9" opacity="0.3"/>
    <rect id="Rectángulo_28011" data-name="Rectángulo 28011" width="23.675" height="110.464" transform="translate(287.69 90.576)" fill="#9bc1f9" opacity="0.3"/>
    <rect id="Rectángulo_28012" data-name="Rectángulo 28012" width="23.675" height="114.808" transform="translate(188.024 86.232)" fill="#9bc1f9" opacity="0.3"/>
    <rect id="Rectángulo_28013" data-name="Rectángulo 28013" width="23.675" height="80.768" transform="translate(154.961 120.272)" fill="#9bc1f9" opacity="0.3"/>
    <path id="Trazado_110598" data-name="Trazado 110598" d="M1479.434,187.45l-18.865,14.267,7.2.46-45.033,79.258L1397.8,244.051l-35.272,82.274L1339.837,294.1l-28.277,39.973,1.779,7.155,26.486-37.259,23.983,34.064,35.143-81.973,24.193,36.27L1473,204.583l4.629,4.978Z" transform="translate(-1156.562 -168.258)" fill="#5183bf"/>
    <path id="Trazado_110599" data-name="Trazado 110599" d="M350.618,664.742c-27.073-21.558-49.82-49.442-67.043-82.182L246.34,612.472c19.914,37.855,46.214,70.094,77.514,95.015Z" transform="translate(-217.188 -516.69)" fill="#3c8f7c"/>
    <path id="Trazado_110600" data-name="Trazado 110600" d="M327.835,648.73l-23.13,18.878c1.836,3.426,1.17,8.041-1.565,10.383,17.5,30.953,39.445,57.846,64.992,79.669a5.93,5.93,0,0,1,8.861-1.448l16.875-26.544c-2.6-2.112-2.975-6.43-.887-9.563a259.642,259.642,0,0,1-57.073-69.962A5.052,5.052,0,0,1,327.835,648.73Z" transform="translate(-267.278 -575.042)" fill="#96d9c9"/>
    <path id="Trazado_110601" data-name="Trazado 110601" d="M580.351,1022.814c5.781-7.459,5.725-18.464.273-25.046s-14.808-6.875-21.265-.236-7.068,18.4-.922,25.792S574.583,1030.262,580.351,1022.814Z" transform="translate(-488.636 -878.367)" fill="#50bfa5"/>
    <path id="Trazado_110602" data-name="Trazado 110602" d="M628.37,1048.4q-1.088,1.209-2.178,2.418c1.738,3.19,1.369,6.477-.5,8.624-1.89,2.164-4.01,2.363-7.239.453-2.344-1.324-3.471-1.715-4.186-.945-.6.653-.8,1.839.473,3.459a8.832,8.832,0,0,0,2.008,1.88,2.164,2.164,0,0,1,.574,2.757h0a1.558,1.558,0,0,1-2.312.67,12.334,12.334,0,0,1-2.115-1.962l-1.89,2.08q-.988-1.237-1.962-2.488l2.052-2.224c-1.66-3.205-1.33-6.393.591-8.414,2.127-2.233,4.585-1.547,7.4.221,1.954,1.219,3.087,1.418,3.9.511.854-.951.575-2.4-.5-3.771a9.6,9.6,0,0,0-2.438-2.19,2.082,2.082,0,0,1-.5-2.755l.06-.105a1.566,1.566,0,0,1,2.21-.679,13,13,0,0,1,2.69,2.386l2.042-2.228Q627.457,1047.253,628.37,1048.4Z" transform="translate(-537.038 -925.122)" fill="#3c8f7c"/>
    <path id="Trazado_110603" data-name="Trazado 110603" d="M801.515,1284.926q-9.254-7.925-17.822-16.776l-2.933,3.815q8.68,8.968,18.076,17.012Q800.173,1286.951,801.515,1284.926Z" transform="translate(-688.471 -1121.284)" fill="#50bfa5"/>
    <path id="Trazado_110604" data-name="Trazado 110604" d="M216.928,954.322a263.218,263.218,0,0,1-98.293-33.532L101,962.127c35.768,20.63,74.327,33.788,113.643,38.77Q215.782,977.611,216.928,954.322Z" transform="translate(-89.018 -814.961)" fill="#3c8f7c"/>
    <path id="Trazado_110605" data-name="Trazado 110605" d="M159.175,976.55q-5.408,12.958-10.815,25.917c3.264,1.848,4.945,5.828,3.72,8.979a302.02,302.02,0,0,0,95.283,32.507,5.95,5.95,0,0,1,6.97-5.334l1.645-29.043a6.658,6.658,0,0,1-5.445-7.17A265.288,265.288,0,0,1,166.86,973.86,5.249,5.249,0,0,1,159.175,976.55Z" transform="translate(-130.783 -861.761)" fill="#96d9c9"/>
    <path id="Trazado_110606" data-name="Trazado 110606" d="M529.015,1192.114A18.473,18.473,0,0,0,517,1172.107a14.272,14.272,0,0,0-18.548,9.866c-2.353,8.323,2.872,17.943,11.814,20.911S527.657,1200.751,529.015,1192.114Z" transform="translate(-439.02 -1035.898)" fill="#50bfa5"/>
    <path id="Trazado_110607" data-name="Trazado 110607" d="M584.73,1199.345l-.709,2.954c3.063,1.706,4.353,4.489,3.781,7.088s-2.317,3.772-6.05,3.78c-2.681.057-3.848.279-4.089,1.231-.2.8.2,1.841,2.105,2.52a9.227,9.227,0,0,0,2.658.543,2.008,2.008,0,0,1,1.845,1.916h0A1.534,1.534,0,0,1,582.6,1221a12.814,12.814,0,0,1-2.792-.557l-.615,2.535q-1.46-.516-2.918-1.047l.691-2.736c-3.006-1.759-4.278-4.443-3.6-6.958.75-2.778,3.217-3.4,6.525-3.325,2.29.044,3.366-.339,3.627-1.437.274-1.158-.676-2.177-2.278-2.756a10.043,10.043,0,0,0-3.19-.591,1.907,1.907,0,0,1-1.772-1.952v-.111a1.54,1.54,0,0,1,1.583-1.584,13.66,13.66,0,0,1,3.482.624q.343-1.368.683-2.738Q583.377,1198.867,584.73,1199.345Z" transform="translate(-505.419 -1059.747)" fill="#3c8f7c"/>
    <path id="Trazado_110608" data-name="Trazado 110608" d="M836.38,608.163a20.945,20.945,0,0,1-2.421-.965,12.122,12.122,0,0,0-2.76-1.036c-1.528-.236-4.15-.079-5.6,1.487-1.8,1.952-5.012.354-4.371,10.572.731,11.567,7.185,10.3,7.341,10.1s5.756-7.4,5.756-7.4,1.958,4.268,1.958,4.111S846.292,611.488,836.38,608.163Z" transform="translate(-724.085 -537.425)" fill="#0e2e35"/>
    <path id="Trazado_110609" data-name="Trazado 110609" d="M358.27,1269.24c-26.754,10.57-56.272,15.4-87,14.242q3.059,19.611,6.118,39.223c35.528,1.342,69.658-4.245,100.591-16.467Z" transform="translate(-239.173 -1122.245)" fill="#3c8f7c"/>
    <path id="Trazado_110610" data-name="Trazado 110610" d="M298.49,1323.322l4.017,24.489a7.249,7.249,0,0,1,6.832,5.434,245.845,245.845,0,0,0,84.341-13.806,4.925,4.925,0,0,1,2.626-6.98q-6.064-11.578-12.131-23.155c-2.6,1-5.867-.522-7.259-3.325a215.881,215.881,0,0,1-74.062,12.124A4.2,4.2,0,0,1,298.49,1323.322Z" transform="translate(-263.177 -1154.644)" fill="#96d9c9"/>
    <path id="Trazado_110611" data-name="Trazado 110611" d="M634.259,1430.6c-2.978-7.256-10.93-11.778-17.934-10.578-7,1.218-11.092,7.82-8.987,15.227a16.584,16.584,0,0,0,18.2,11.354C633.414,1445.243,637.234,1437.846,634.259,1430.6Z" transform="translate(-535.05 -1255.047)" fill="#50bfa5"/>
    <path id="Trazado_110612" data-name="Trazado 110612" d="M670.663,1439.06l.839,2.573a6.19,6.19,0,0,1,6.007,3.938c.776,2.26.043,3.869-2.674,5.4-1.926,1.14-2.675,1.79-2.412,2.626.22.709.991,1.342,2.689,1.091a7.361,7.361,0,0,0,2.187-.668,1.8,1.8,0,0,1,2.223.729h0a1.3,1.3,0,0,1-.473,1.944,10.223,10.223,0,0,1-2.289.709q.354,1.111.717,2.221-1.3.2-2.607.382l-.751-2.4c-3-.134-5.157-1.692-5.815-3.918-.728-2.458.786-3.945,3.228-5.243,1.689-.9,2.3-1.639,1.984-2.6-.332-1.009-1.491-1.409-2.924-1.2a7.98,7.98,0,0,0-2.59.849,1.727,1.727,0,0,1-2.19-.783l-.051-.087a1.3,1.3,0,0,1,.426-1.874,10.8,10.8,0,0,1,2.824-.945l-.76-2.4Q669.457,1439.243,670.663,1439.06Z" transform="translate(-586.864 -1272.002)" fill="#3c8f7c"/>
    <path id="Trazado_110613" data-name="Trazado 110613" d="M885.864,1448.26q-9.545,3.382-19.474,5.886l1.536,3.7q10.06-2.535,19.747-5.968Z" transform="translate(-763.985 -1280.115)" fill="#50bfa5"/>
    <path id="Trazado_110614" data-name="Trazado 110614" d="M634.05,1634.24v9.579c0,1.549,17.274,2.8,38.585,2.8s38.584-1.255,38.584-2.8v-9.579Z" transform="translate(-559.094 -1444.124)" fill="#e59f39"/>
    <path id="Trazado_110615" data-name="Trazado 110615" d="M661.973,1646.515V1634.24H634.05v9.579C634.05,1645.1,645.849,1646.178,661.973,1646.515Z" transform="translate(-559.094 -1444.124)" fill="#eab054"/>
    <path id="Trazado_110616" data-name="Trazado 110616" d="M881.4,1646.54c3,.054,6.134.083,9.363.083,4.811,0,9.416-.064,13.663-.181v-12.2H881.4Z" transform="translate(-777.221 -1444.124)" fill="#eab054"/>
    <path id="Trazado_110617" data-name="Trazado 110617" d="M1089.39,1646.4c13.747-.429,23.374-1.418,23.374-2.578v-9.579H1089.39Z" transform="translate(-960.64 -1444.124)" fill="#eab054"/>
    <ellipse id="Elipse_4329" data-name="Elipse 4329" cx="38.584" cy="2.803" rx="38.584" ry="2.803" transform="translate(74.958 187.211)" fill="#e59f39"/>
    <path id="Trazado_110618" data-name="Trazado 110618" d="M755.247,1618.873c0,1.074-14.225,1.945-31.773,1.945s-31.774-.871-31.774-1.945,14.225-1.943,31.774-1.943S755.247,1617.8,755.247,1618.873Z" transform="translate(-609.933 -1428.859)" fill="#f7cc7f"/>
    <path id="Trazado_110619" data-name="Trazado 110619" d="M578.18,1548.45v9.579c0,1.547,17.275,2.8,38.584,2.8s38.584-1.256,38.584-2.8v-9.579Z" transform="translate(-509.824 -1368.469)" fill="#e59f39"/>
    <path id="Trazado_110620" data-name="Trazado 110620" d="M606.1,1560.724V1548.45H578.18v9.579C578.18,1559.308,589.979,1560.388,606.1,1560.724Z" transform="translate(-509.824 -1368.469)" fill="#eab054"/>
    <path id="Trazado_110621" data-name="Trazado 110621" d="M825.53,1560.75c3,.053,6.133.083,9.362.083,4.811,0,9.416-.064,13.663-.181v-12.2H825.53Z" transform="translate(-727.952 -1368.469)" fill="#eab054"/>
    <path id="Trazado_110622" data-name="Trazado 110622" d="M1033.51,1560.605c13.747-.429,23.374-1.418,23.374-2.577v-9.579H1033.51Z" transform="translate(-911.361 -1368.469)" fill="#eab054"/>
    <ellipse id="Elipse_4330" data-name="Elipse 4330" cx="38.584" cy="2.803" rx="38.584" ry="2.803" transform="translate(68.356 177.076)" fill="#e59f39"/>
    <path id="Trazado_110623" data-name="Trazado 110623" d="M699.376,1533.075c0,1.074-14.225,1.943-31.773,1.943s-31.773-.87-31.773-1.943,14.225-1.945,31.773-1.945S699.376,1532,699.376,1533.075Z" transform="translate(-560.663 -1353.195)" fill="#f7cc7f"/>
    <path id="Trazado_110624" data-name="Trazado 110624" d="M615.41,1460.38v9.578c0,1.549,17.275,2.8,38.584,2.8s38.584-1.255,38.584-2.8v-9.578Z" transform="translate(-542.656 -1290.804)" fill="#e59f39"/>
    <path id="Trazado_110625" data-name="Trazado 110625" d="M643.331,1472.654V1460.38H615.41v9.578C615.41,1471.237,627.207,1472.317,643.331,1472.654Z" transform="translate(-542.656 -1290.804)" fill="#eab054"/>
    <path id="Trazado_110626" data-name="Trazado 110626" d="M862.76,1472.678c3,.054,6.133.083,9.361.083,4.811,0,9.416-.064,13.663-.181v-12.2H862.76Z" transform="translate(-760.784 -1290.804)" fill="#eab054"/>
    <path id="Trazado_110627" data-name="Trazado 110627" d="M1070.74,1472.536c13.747-.429,23.374-1.418,23.374-2.578v-9.578H1070.74Z" transform="translate(-944.193 -1290.804)" fill="#eab054"/>
    <ellipse id="Elipse_4331" data-name="Elipse 4331" cx="38.584" cy="2.803" rx="38.584" ry="2.803" transform="translate(72.754 166.67)" fill="#e59f39"/>
    <path id="Trazado_110628" data-name="Trazado 110628" d="M736.605,1445c0,1.074-14.225,1.945-31.773,1.945s-31.773-.871-31.773-1.945,14.225-1.943,31.773-1.943S736.605,1443.931,736.605,1445Z" transform="translate(-593.495 -1275.53)" fill="#f7cc7f"/>
    <path id="Trazado_110629" data-name="Trazado 110629" d="M578.18,1373.51v9.578c0,1.549,17.275,2.8,38.584,2.8s38.584-1.256,38.584-2.8v-9.578Z" transform="translate(-509.824 -1214.196)" fill="#e59f39"/>
    <path id="Trazado_110630" data-name="Trazado 110630" d="M606.1,1385.784V1373.51H578.18v9.578C578.18,1384.368,589.979,1385.447,606.1,1385.784Z" transform="translate(-509.824 -1214.196)" fill="#eab054"/>
    <path id="Trazado_110631" data-name="Trazado 110631" d="M825.53,1385.808c3,.055,6.133.084,9.362.084,4.811,0,9.416-.065,13.663-.182v-12.2H825.53Z" transform="translate(-727.952 -1214.196)" fill="#eab054"/>
    <path id="Trazado_110632" data-name="Trazado 110632" d="M1033.51,1385.666c13.747-.429,23.374-1.418,23.374-2.578v-9.578H1033.51Z" transform="translate(-911.361 -1214.197)" fill="#eab054"/>
    <ellipse id="Elipse_4332" data-name="Elipse 4332" cx="38.584" cy="2.803" rx="38.584" ry="2.803" transform="translate(68.356 156.409)" fill="#e59f39"/>
    <path id="Trazado_110633" data-name="Trazado 110633" d="M699.376,1358.135c0,1.073-14.225,1.943-31.773,1.943s-31.773-.871-31.773-1.943,14.225-1.945,31.773-1.945S699.376,1357.061,699.376,1358.135Z" transform="translate(-560.663 -1198.923)" fill="#f7cc7f"/>
    <path id="Trazado_110634" data-name="Trazado 110634" d="M2310.88,1627.32v9.215c0,1.49-16.612,2.7-37.1,2.7s-37.106-1.208-37.106-2.7v-9.215Z" transform="translate(-1972.379 -1438.021)" fill="#e59f39"/>
    <path id="Trazado_110635" data-name="Trazado 110635" d="M2637.53,1639.122v-11.8h26.852v9.215C2664.382,1637.761,2653.036,1638.8,2637.53,1639.122Z" transform="translate(-2325.881 -1438.021)" fill="#eab054"/>
    <path id="Trazado_110636" data-name="Trazado 110636" d="M2461.722,1639.147c-2.883.052-5.9.08-9,.08-4.627,0-9.056-.061-13.14-.175V1627.32h22.142Z" transform="translate(-2151.317 -1438.021)" fill="#eab054"/>
    <path id="Trazado_110637" data-name="Trazado 110637" d="M2259.149,1638.966c-13.22-.414-22.479-1.368-22.479-2.481v-9.215h22.479Z" transform="translate(-1972.379 -1437.977)" fill="#eab054"/>
    <ellipse id="Elipse_4333" data-name="Elipse 4333" cx="37.104" cy="2.696" rx="37.104" ry="2.696" transform="translate(264.292 186.505)" fill="#e59f39"/>
    <path id="Trazado_110638" data-name="Trazado 110638" d="M2292.12,1612.539c0,1.032,13.68,1.869,30.555,1.869s30.555-.836,30.555-1.869-13.681-1.869-30.555-1.869S2292.12,1611.507,2292.12,1612.539Z" transform="translate(-2021.278 -1423.338)" fill="#f7cc7f"/>
    <path id="Trazado_110639" data-name="Trazado 110639" d="M2364.619,1544.81v9.215c0,1.489-16.612,2.7-37.1,2.7s-37.1-1.207-37.1-2.7v-9.215Z" transform="translate(-2019.77 -1365.259)" fill="#e59f39"/>
    <path id="Trazado_110640" data-name="Trazado 110640" d="M2691.26,1556.613v-11.8h26.852v9.215C2718.112,1555.252,2706.766,1556.292,2691.26,1556.613Z" transform="translate(-2373.263 -1365.259)" fill="#eab054"/>
    <path id="Trazado_110641" data-name="Trazado 110641" d="M2515.4,1556.638c-2.882.052-5.9.079-9,.079-4.626,0-9.055-.061-13.14-.174V1544.81H2515.4Z" transform="translate(-2198.655 -1365.259)" fill="#eab054"/>
    <path id="Trazado_110642" data-name="Trazado 110642" d="M2312.888,1556.456c-13.22-.412-22.479-1.367-22.479-2.481v-9.215h22.479Z" transform="translate(-2019.77 -1365.215)" fill="#eab054"/>
    <ellipse id="Elipse_4334" data-name="Elipse 4334" cx="37.104" cy="2.696" rx="37.104" ry="2.696" transform="translate(270.64 176.757)" fill="#e59f39"/>
    <ellipse id="Elipse_4335" data-name="Elipse 4335" cx="30.555" cy="1.869" rx="30.555" ry="1.869" transform="translate(277.19 177.584)" fill="#f7cc7f"/>
    <path id="Trazado_110643" data-name="Trazado 110643" d="M2328.818,1460.11v9.215c0,1.49-16.611,2.7-37.1,2.7s-37.1-1.206-37.1-2.7v-9.215Z" transform="translate(-1988.199 -1290.565)" fill="#e59f39"/>
    <path id="Trazado_110644" data-name="Trazado 110644" d="M2655.46,1471.893v-11.8h26.852v9.215C2682.312,1470.534,2670.966,1471.573,2655.46,1471.893Z" transform="translate(-2341.692 -1290.547)" fill="#eab054"/>
    <path id="Trazado_110645" data-name="Trazado 110645" d="M2479.6,1471.938c-2.881.052-5.9.079-9,.079-4.626,0-9.055-.061-13.139-.174V1460.11H2479.6Z" transform="translate(-2167.084 -1290.565)" fill="#eab054"/>
    <path id="Trazado_110646" data-name="Trazado 110646" d="M2277.088,1471.756c-13.22-.412-22.479-1.367-22.479-2.481v-9.215h22.479Z" transform="translate(-1988.199 -1290.521)" fill="#eab054"/>
    <ellipse id="Elipse_4336" data-name="Elipse 4336" cx="37.104" cy="2.696" rx="37.104" ry="2.696" transform="translate(266.411 166.752)" fill="#e59f39"/>
    <ellipse id="Elipse_4337" data-name="Elipse 4337" cx="30.555" cy="1.869" rx="30.555" ry="1.869" transform="translate(272.96 167.579)" fill="#f7cc7f"/>
    <path id="Trazado_110647" data-name="Trazado 110647" d="M2364.619,1376.58v9.215c0,1.49-16.612,2.7-37.1,2.7s-37.1-1.208-37.1-2.7v-9.215Z" transform="translate(-2019.77 -1216.904)" fill="#e59f39"/>
    <path id="Trazado_110648" data-name="Trazado 110648" d="M2691.26,1388.382v-11.8h26.852v9.215C2718.112,1387.026,2706.766,1388.06,2691.26,1388.382Z" transform="translate(-2373.263 -1216.904)" fill="#eab054"/>
    <path id="Trazado_110649" data-name="Trazado 110649" d="M2515.4,1388.407c-2.882.052-5.9.08-9,.08-4.626,0-9.055-.061-13.14-.175V1376.58H2515.4Z" transform="translate(-2198.655 -1216.904)" fill="#eab054"/>
    <path id="Trazado_110650" data-name="Trazado 110650" d="M2312.888,1388.226c-13.22-.413-22.479-1.368-22.479-2.481v-9.215h22.479Z" transform="translate(-2019.77 -1216.859)" fill="#eab054"/>
    <ellipse id="Elipse_4338" data-name="Elipse 4338" cx="37.104" cy="2.696" rx="37.104" ry="2.696" transform="translate(270.64 156.882)" fill="#e59f39"/>
    <ellipse id="Elipse_4339" data-name="Elipse 4339" cx="30.555" cy="1.869" rx="30.555" ry="1.869" transform="translate(277.19 157.709)" fill="#f7cc7f"/>
    <path id="Trazado_110651" data-name="Trazado 110651" d="M2580.037,1147.8l-2.228,7.782c-.36,1.258-14.686-1.743-32-6.7s-31.053-10-30.693-11.256l2.229-7.781Z" transform="translate(-2217.925 -999.313)" fill="#e59f39"/>
    <path id="Trazado_110652" data-name="Trazado 110652" d="M2848.5,1236.8l2.855-9.971,22.683,6.5-2.228,7.782C2871.514,1242.149,2861.673,1240.28,2848.5,1236.8Z" transform="translate(-2511.927 -1084.845)" fill="#eab054"/>
    <path id="Trazado_110653" data-name="Trazado 110653" d="M2700.052,1194.27c-2.448-.653-5-1.36-7.624-2.111-3.909-1.12-7.635-2.245-11.058-3.327l2.835-9.912,18.706,5.358Z" transform="translate(-2364.542 -1042.595)" fill="#eab054"/>
    <path id="Trazado_110654" data-name="Trazado 110654" d="M2533.508,1145.154c-11.069-3.544-18.659-6.595-18.39-7.534l2.229-7.781,18.989,5.434Z" transform="translate(-2217.925 -999.313)" fill="#eab054"/>
    <path id="Trazado_110655" data-name="Trazado 110655" d="M2534.19,1127c-.355,1.257,13.38,6.3,30.693,11.255s31.637,7.959,32,6.7-13.381-6.3-30.693-11.256S2534.55,1125.741,2534.19,1127Z" transform="translate(-2234.743 -996.555)" fill="#e59f39"/>
    <path id="Trazado_110656" data-name="Trazado 110656" d="M2581.04,1141.292c-.25.872,11.1,4.89,25.36,8.979s26.014,6.687,26.265,5.815-11.105-4.89-25.36-8.978S2581.291,1140.421,2581.04,1141.292Z" transform="translate(-2276.061 -1009.265)" fill="#f7cc7f"/>
    <path id="Trazado_110657" data-name="Trazado 110657" d="M2427.688,828.5l2.373,7.738c.384,1.251-13.262,6.545-30.48,11.825s-31.483,8.546-31.867,7.3l-2.374-7.738Z" transform="translate(-2085.847 -733.574)" fill="#e59f39"/>
    <path id="Trazado_110658" data-name="Trazado 110658" d="M2705.171,845.335l-3.041-9.917,22.559-6.918,2.373,7.738C2727.379,837.273,2718.115,841.069,2705.171,845.335Z" transform="translate(-2382.849 -733.574)" fill="#eab054"/>
    <path id="Trazado_110659" data-name="Trazado 110659" d="M2557.4,899.727c-2.408.787-4.935,1.587-7.543,2.386-3.887,1.192-7.622,2.281-11.083,3.239l-3.023-9.858,18.6-5.7Z" transform="translate(-2236.125 -787.623)" fill="#eab054"/>
    <path id="Trazado_110660" data-name="Trazado 110660" d="M2387.247,951.167c-11.213,3.06-19.238,4.643-19.524,3.71l-2.373-7.738,18.885-5.789Z" transform="translate(-2085.856 -833.092)" fill="#eab054"/>
    <path id="Trazado_110661" data-name="Trazado 110661" d="M2365.081,844.937c.384,1.251,14.649-2.016,31.867-7.3s30.862-10.574,30.48-11.825-14.65,2.014-31.869,7.294S2364.7,843.686,2365.081,844.937Z" transform="translate(-2085.612 -730.973)" fill="#e59f39"/>
    <path id="Trazado_110662" data-name="Trazado 110662" d="M2411.686,856.667c.265.867,11.974-1.954,26.152-6.3s25.455-8.576,25.188-9.443-11.975,1.954-26.152,6.3S2411.419,855.8,2411.686,856.667Z" transform="translate(-2126.714 -744.39)" fill="#f7cc7f"/>
    <path id="Trazado_110663" data-name="Trazado 110663" d="M1171.07,1634.987s.917,4.866.918,4.877c.051.633.032,2.236.169,2.79.515,2.082,9.268-2.977,6.97-3.384a9.519,9.519,0,0,1-2.059-2.206,19.326,19.326,0,0,1-1.152-3.216Z" transform="translate(-1032.669 -1443.779)" fill="#f7a491"/>
    <path id="Trazado_110664" data-name="Trazado 110664" d="M1173.932,1671.931a34.056,34.056,0,0,1-3.41.675c-1.151.115-2.625-1.672-3.45-1.334-.908.372-1.4,6.039-1.4,6.039s14.438.658,17.85-.285C1184.873,1676.653,1178.424,1673.653,1173.932,1671.931Z" transform="translate(-1027.908 -1476.743)" fill="#f47458"/>
    <path id="Trazado_110665" data-name="Trazado 110665" d="M1341.47,1633.108s.918,4.866.918,4.877c.052.634.032,2.236.169,2.79.515,2.082,9.107-2.644,6.811-3.05a12.855,12.855,0,0,1-1.9-2.539,19.338,19.338,0,0,1-1.152-3.216Z" transform="translate(-1182.938 -1442.122)" fill="#f7a491"/>
    <path id="Trazado_110666" data-name="Trazado 110666" d="M1342.462,1671.931a34.129,34.129,0,0,1-3.409.675c-1.15.115-2.625-1.672-3.45-1.334-.908.372-1.4,6.039-1.4,6.039s14.438.658,17.85-.285C1353.4,1676.653,1346.955,1673.653,1342.462,1671.931Z" transform="translate(-1176.527 -1476.743)" fill="#f47458"/>
    <path id="Trazado_110667" data-name="Trazado 110667" d="M914.253,1174.521l26.266-6.092s11.779-3.114,14.622.541,14.918,54.109,14.918,54.109-6.228.541-6.635.271l-14.578-25.873a22.551,22.551,0,0,1-2.689-7.959l-1.039-7.415-10.7,3.114s-12.321,2.708-17.33-.405S914.253,1174.521,914.253,1174.521Z" transform="translate(-805.781 -1032.253)" fill="#0e2e35"/>
    <path id="Trazado_110668" data-name="Trazado 110668" d="M973.472,845.93c.415.017,1.551.4,3.215,3.528,2.126,4,5.225,16.078,5.225,16.078l-9.262,3.44-1.19-2.521-1.96-19.413S973.357,845.925,973.472,845.93Z" transform="translate(-854.913 -748.945)" fill="#eab054"/>
    <path id="Trazado_110669" data-name="Trazado 110669" d="M776.9,831.19a56.523,56.523,0,0,1,12.243,1.743s2.234,19.139-2.008,33.682c-.945,3.256.787,13.5.787,13.5l-27.444-.354s3.251-24.761,2.023-28.76-1.252-17.937-1.252-17.937.189-.03,6.167-1.063A62.4,62.4,0,0,1,776.9,831.19Z" transform="translate(-670.587 -735.946)" fill="#f7cc7f"/>
    <path id="Trazado_110670" data-name="Trazado 110670" d="M732.514,864.783c2.566-.959,3.821,22.083,4.167,31.567a112.752,112.752,0,0,0,14.437-.145c.927-.068,3.072-.849,3.988-.97a9.568,9.568,0,0,1,2.266-.108,43,43,0,0,1,5.316,2.384c.5.524,1.861,1.849,1.632,2.422s-2.612-1.6-2.612-1.6l-1.165-.651c1.45,1.418,4.215,3.271,3.817,3.948s-2.884-1.226-4.662-2.513c1.525,1.373,3.426,3.83,2.983,4.213-.392.344-2.547-2.5-4.851-3.32-.853-.3-1.7.538-2.376.639a4.785,4.785,0,0,1-1.739.1l-2.313-.223a12.084,12.084,0,0,0-1.909.277c-1,.212-2.63.434-3.9.742-7.3,1.779-9.74,2.6-11.976,2.6C726.842,904.15,726.448,867.054,732.514,864.783Z" transform="translate(-642.151 -765.545)" fill="#f7a491"/>
    <path id="Trazado_110671" data-name="Trazado 110671" d="M721.853,870.38c-.481-9.715-.411-21.688,5.054-23.731,2.156-.807,5.957,4.04,5.273,23.928A41.2,41.2,0,0,1,721.853,870.38Z" transform="translate(-636.359 -749.505)" fill="#eab054"/>
    <path id="Trazado_110672" data-name="Trazado 110672" d="M872.849,997.862l-25.856,1.688a1.692,1.692,0,0,0-1.492,1.148l-6.693,19.938-14.255.931a.724.724,0,0,0-.675.769h0a.723.723,0,0,0,.769.673l40.571-2.65a2.836,2.836,0,0,0,2.474-1.841l6.852-18.382a1.689,1.689,0,0,0-1.7-2.275Z" transform="translate(-726.494 -882.924)" fill="#f47458"/>
    <path id="Trazado_110673" data-name="Trazado 110673" d="M1108.26,1089.477a1.427,1.427,0,1,1-1.318-1.7A1.525,1.525,0,0,1,1108.26,1089.477Z" transform="translate(-974.788 -962.219)" fill="#fff"/>
    <path id="Trazado_110674" data-name="Trazado 110674" d="M758.811,1196.4l28.623-4.942s12.375-1.89,15.219,1.772,11.105,51.043,11.105,51.043-6.228.542-6.634.27c-.315-.209-7.855-16.007-11.242-23.125a27.085,27.085,0,0,1-2.245-7.123l-1.088-6.449-3.6,1.239a43.939,43.939,0,0,1-19.716,2.11,18.658,18.658,0,0,1-6.987-1.94C757.228,1206.141,758.811,1196.4,758.811,1196.4Z" transform="translate(-668.906 -1053.224)" fill="#184655"/>
    <path id="Trazado_110675" data-name="Trazado 110675" d="M859.175,753.048l.558,4.135s1.247,5.954-.354,7.1-6.829-7.273-6.829-7.273l.552-10.473Z" transform="translate(-751.78 -661.297)" fill="#f7a491"/>
    <path id="Trazado_110676" data-name="Trazado 110676" d="M855.68,749.889a11.86,11.86,0,0,0,6.734,6.616L861.941,753l-6.077-6.51Z" transform="translate(-754.54 -661.253)" fill="#f47458"/>
    <path id="Trazado_110677" data-name="Trazado 110677" d="M853.451,649.536a5.524,5.524,0,0,1,6.369,5.574,41.729,41.729,0,0,1-.473,5.3c-.739,4.772-4.006,8.973-6.166,8.6s-7.594-4.489-6.637-11.281C847.141,653.537,849.881,650.111,853.451,649.536Z" transform="translate(-746.385 -575.692)" fill="#f7a491"/>
    <path id="Trazado_110678" data-name="Trazado 110678" d="M836.617,709.923a1.611,1.611,0,1,1-1.23-2.169A1.782,1.782,0,0,1,836.617,709.923Z" transform="translate(-734.953 -627.076)" fill="#f7a491"/>
    <path id="Trazado_110679" data-name="Trazado 110679" d="M843.56,644.547s2.611.646,3.581-1.028,4.434-5.286,8.839-3.788-3.878-3.642-4.229-3.642-4.582-.03-4.582-.03-3.259,2.672-3.376,2.966-1.063,3.495-1.063,3.495Z" transform="translate(-743.12 -563.869)" fill="#0e2e35"/>
    <rect id="Rectángulo_28014" data-name="Rectángulo 28014" width="65.002" height="23.658" transform="translate(293.401 200.786) rotate(180)" fill="#50bfa5"/>
    <rect id="Rectángulo_28015" data-name="Rectángulo 28015" width="65.002" height="3.043" transform="translate(293.401 183.62) rotate(180)" fill="#96d9c9"/>
    <rect id="Rectángulo_28016" data-name="Rectángulo 28016" width="65.002" height="3.043" transform="translate(293.401 189.565) rotate(180)" fill="#96d9c9"/>
    <rect id="Rectángulo_28017" data-name="Rectángulo 28017" width="65.002" height="3.043" transform="translate(293.401 195.508) rotate(180)" fill="#96d9c9"/>
    <rect id="Rectángulo_28018" data-name="Rectángulo 28018" width="65.002" height="3.043" transform="translate(293.401 200.787) rotate(180)" fill="#96d9c9"/>
    <rect id="Rectángulo_28019" data-name="Rectángulo 28019" width="13.519" height="23.658" transform="translate(266.115 200.786) rotate(180)" fill="#f7cc7f"/>
    <rect id="Rectángulo_28020" data-name="Rectángulo 28020" width="9.816" height="23.658" transform="translate(302.429 200.786) rotate(180)" fill="#3c8f7c"/>
    <rect id="Rectángulo_28021" data-name="Rectángulo 28021" width="359.194" height="2.05" transform="translate(6.444 200.45)" fill="#0e2e35"/>
    <path id="Trazado_110680" data-name="Trazado 110680" d="M955.137,102.435a6.456,6.456,0,0,0-7.915-4.8,9.507,9.507,0,0,0-11.43-5.049,11.71,11.71,0,0,0-21.029,2.046,8.034,8.034,0,0,0-11.932,7.02q0,.393.038.779Z" transform="translate(-796.12 -79.615)" fill="#fff" opacity="0.8"/>
    <path id="Trazado_110681" data-name="Trazado 110681" d="M1249.454,400.439a4.887,4.887,0,0,0-5.991-3.629,7.2,7.2,0,0,0-8.65-3.814,8.86,8.86,0,0,0-15.917,1.548,6.08,6.08,0,0,0-9.036,5.316c0,.2.011.4.03.591Z" transform="translate(-1066.877 -345.74)" fill="#fff" opacity="0.8"/>
    <path id="Trazado_110682" data-name="Trazado 110682" d="M612.45,373.714a4.262,4.262,0,0,1,5.225-3.165,6.272,6.272,0,0,1,7.542-3.332,7.728,7.728,0,0,1,13.879,1.349,5.3,5.3,0,0,1,7.878,4.632c0,.174-.008.345-.025.515Z" transform="translate(-540.045 -323.493)" fill="#fff" opacity="0.8"/>
    <path id="Trazado_110683" data-name="Trazado 110683" d="M1230.68,628.661l.461,5.606,3.256-3.662,10.53-8.624-8.979,2.829s-4.421,2.148-4.624,2.431A11.6,11.6,0,0,0,1230.68,628.661Z" transform="translate(-1085.237 -551.453)" fill="#50bfa5"/>
    <path id="Trazado_110684" data-name="Trazado 110684" d="M1190.29,626.218l19.018-4.278-14.247,6.686Z" transform="translate(-1049.619 -551.417)" fill="#96d9c9"/>
    <path id="Trazado_110685" data-name="Trazado 110685" d="M1248.832,632.777l-5.862-2.925,12.795-7.912Z" transform="translate(-1096.075 -551.417)" fill="#96d9c9"/>
    <path id="Trazado_110686" data-name="Trazado 110686" d="M1210.831,698.83a7,7,0,0,1,1.536-.4l-.042-.408a7.328,7.328,0,0,0-1.634.426Z" transform="translate(-1067.609 -618.509)" fill="#3c8f7c"/>
    <path id="Trazado_110687" data-name="Trazado 110687" d="M1132.44,747.527a16.749,16.749,0,0,0,2.062-2.254l.327.246a16.975,16.975,0,0,1-2.114,2.311Zm3.646-4.863c.2-.422.385-.861.549-1.307a15.213,15.213,0,0,0,.488-1.565l.4.1a16.693,16.693,0,0,1-.5,1.606c-.168.457-.354.908-.563,1.341Zm1.654-8.962.409-.009a26.384,26.384,0,0,1-.1,3.12l-.408-.039a26.326,26.326,0,0,0,.1-3.072Zm-.584-6.143.405-.058c.172,1.2.294,2.179.386,3.083l-.408.041c-.09-.9-.212-1.872-.383-3.066Zm-.458-3.086a14.994,14.994,0,0,1-.155-3.11l.409.026a14.672,14.672,0,0,0,.151,3.024v.024l-.407.056Zm.515-6.189a7.444,7.444,0,0,1,1.778-2.613l.282.3a7.021,7.021,0,0,0-1.681,2.47Z" transform="translate(-998.603 -634.074)" fill="#3c8f7c"/>
  </g>
</svg>
